<?xml version="1.0" encoding="utf-8"?>
<!-- Generator: Adobe Illustrator 17.0.2, SVG Export Plug-In . SVG Version: 6.00 Build 0)  -->
<!DOCTYPE svg PUBLIC "-//W3C//DTD SVG 1.1//EN" "http://www.w3.org/Graphics/SVG/1.1/DTD/svg11.dtd">
<svg version="1.1" id="Layer_1" xmlns="http://www.w3.org/2000/svg" xmlns:xlink="http://www.w3.org/1999/xlink" x="0px" y="0px"
	 width="100px" height="100px" viewBox="0 0 100 100" enable-background="new 0 0 100 100" xml:space="preserve">
<g>
	<path fill="#2980B9" d="M25.657,6.496c11.328,0,20.512,9.184,20.512,20.512S36.984,47.52,25.657,47.52S5.145,38.336,5.145,27.008
		S14.329,6.496,25.657,6.496z"/>
	<path fill="#226B9C" d="M9.247,22.906c0-4.616,1.544-8.862,4.119-12.291c-4.983,3.743-8.221,9.683-8.221,16.393
		c0,11.328,9.184,20.512,20.512,20.512c6.711,0,12.65-3.238,16.39-8.221c-3.427,2.575-7.671,4.119-12.288,4.119
		C18.431,43.417,9.247,34.234,9.247,22.906z"/>
	<path fill="#FFFFFF" d="M27.604,27.008l5.438-4.894c0.274-0.247,0.431-0.599,0.431-0.968s-0.157-0.721-0.431-0.968l-6.514-5.862
		c-0.382-0.344-0.932-0.431-1.401-0.222c-0.47,0.209-0.773,0.675-0.773,1.19v8.8l-4.34-3.906c-0.534-0.481-1.358-0.438-1.84,0.097
		c-0.481,0.535-0.438,1.358,0.097,1.84l5.438,4.894l-5.437,4.894c-0.535,0.481-0.578,1.305-0.097,1.84
		c0.481,0.535,1.305,0.578,1.84,0.097l4.34-3.906v8.8c0,0.515,0.303,0.981,0.773,1.19c0.17,0.076,0.35,0.113,0.53,0.113
		c0.316,0,0.628-0.115,0.872-0.334l6.514-5.863c0.274-0.247,0.431-0.599,0.431-0.969c0-0.369-0.157-0.721-0.432-0.969L27.604,27.008
		z M26.959,18.208l3.263,2.937l-3.263,2.937V18.208z M26.959,35.808v-5.875l3.263,2.937L26.959,35.808z"/>
</g>
<g>
	<g>
		<path fill="#EBEEEF" d="M99.967,59.959c0,0-0.014-1.635-2.781-2.756c-11.772-5.838-31.323-15.858-31.323-15.858
			c-1.695-0.848-3.068-0.848-4.763,0c0,0-39.366,19.476-52.491,25.916c-2.766,0.881-2.727,2.716-2.727,2.716
			c-0.029,0.012-0.028,4.105,0,4.1c0,0,0.046,1.672,2.781,2.628c11.761,5.291,31.239,14.57,31.239,14.57
			c1.694,0.845,3.068,0.845,4.763,0c0,0,39.189-18.633,52.485-24.651c2.683-0.917,2.817-2.65,2.817-2.65
			C100.002,63.991,100.011,59.968,99.967,59.959z"/>
		<g>
			<path fill="#1CAF93" d="M99.967,59.959c0,0-0.014-1.635-2.781-2.756c-11.772-5.838-31.323-15.858-31.323-15.858
				c-1.695-0.848-3.068-0.848-4.763,0c0,0-45.185,16.736-58.311,23.176c-2.766,0.881-2.727,2.716-2.727,2.716
				c-0.029,0.012-0.028,4.105,0,4.1c0,0,0.046,1.672,2.781,2.628c11.761,5.291,37.06,17.311,37.06,17.311
				c1.694,0.845,3.068,0.845,4.763,0c0,0,39.189-18.633,52.485-24.651c2.683-0.917,2.817-2.65,2.817-2.65
				C100.002,63.991,100.011,59.968,99.967,59.959z"/>
			<path fill="#16A085" d="M99.964,59.888c-0.029,0.205-0.312,1.751-2.812,2.61c-13.295,6.015-52.485,24.65-52.485,24.65
				c-1.695,0.846-3.068,0.846-4.763,0c0,0-25.297-11.92-37.06-17.21c-2.697-0.942-2.78-2.572-2.781-2.619v0.02
				c-0.029,0.008-0.028,4.105,0,4.1c0,0,0.046,1.673,2.781,2.628c11.761,5.289,37.06,17.21,37.06,17.21
				c1.694,0.845,3.068,0.845,4.763,0c0,0,39.189-18.633,52.485-24.651c2.683-0.917,2.817-2.65,2.817-2.65
				c0.034,0.016,0.043-4.008,0-4.016C99.968,59.959,99.964,59.888,99.964,59.888z"/>
			<path fill="#0B8871" d="M39.903,87.147c0,0-25.297-11.921-37.06-17.21c-2.697-0.946-2.78-2.572-2.781-2.619v0.02
				c-0.029,0.012-0.028,4.105,0,4.1c0,0,0.046,1.673,2.781,2.628c11.761,5.289,37.06,17.21,37.06,17.21
				c0.846,0.422,1.614,0.635,2.381,0.635v-4.129C41.517,87.781,40.749,87.57,39.903,87.147z"/>
		</g>
	</g>
	<polygon fill="#F39C12" points="57.101,85.457 51.778,87.968 51.778,83.724 57.101,81.216 	"/>
	<polygon fill="#F1C40F" points="57.101,81.209 51.778,83.724 48.328,81.636 53.649,79.154 	"/>
	<polygon fill="#F39C12" points="65.087,81.691 59.764,84.203 59.764,79.958 65.087,77.45 	"/>
	<polygon fill="#F1C40F" points="65.087,77.443 59.764,79.958 56.314,77.87 61.635,75.389 	"/>
	<polygon fill="#F39C12" points="73.075,77.936 67.752,80.447 67.752,76.203 73.075,73.695 	"/>
	<polygon fill="#F1C40F" points="73.075,73.688 67.752,76.203 64.302,74.115 69.623,71.633 	"/>
	<polygon fill="#F39C12" points="81.061,74.17 75.739,76.682 75.739,72.437 81.061,69.929 	"/>
	<polygon fill="#F1C40F" points="81.061,69.922 75.739,72.437 72.288,70.349 77.61,67.868 	"/>
	<polygon fill="#F39C12" points="89.022,70.441 83.7,72.952 83.7,68.708 89.022,66.2 	"/>
	<polygon fill="#F1C40F" points="89.022,66.193 83.7,68.708 80.249,66.62 85.571,64.138 	"/>
	<polygon fill="#F39C12" points="97.008,66.675 91.686,69.187 91.686,64.943 97.008,62.434 	"/>
	<polygon fill="#F1C40F" points="97.008,62.428 91.686,64.943 88.235,62.855 93.557,60.373 	"/>
	<line fill="none" stroke="#0B8871" stroke-width="2.2177" stroke-miterlimit="10" x1="13.255" y1="66.006" x2="25.1" y2="60.564"/>
	
		<line fill="none" stroke="#0B8871" stroke-width="2.2177" stroke-miterlimit="10" x1="45.669" y1="60.782" x2="57.888" y2="56.239"/>
	
		<line fill="none" stroke="#0B8871" stroke-width="2.2177" stroke-miterlimit="10" x1="42.321" y1="57.418" x2="54.54" y2="52.876"/>
	
		<line fill="none" stroke="#0B8871" stroke-width="2.2177" stroke-miterlimit="10" x1="39.673" y1="54.093" x2="51.892" y2="49.551"/>
	<polyline fill="none" stroke="#0B8871" stroke-width="2.2177" stroke-miterlimit="10" points="13.927,66.223 33.106,75.582 
		41.083,75.488 48.431,72.013 	"/>
	<path fill="#0B8871" d="M9.977,64.322c1.867-0.934,4.893-0.934,6.759,0c1.867,0.934,1.867,2.98,0,3.914
		c-1.866,0.934-4.892,0.934-6.759,0C8.11,67.302,8.11,65.256,9.977,64.322z"/>
	<path fill="#0B8871" d="M9.977,64.322c1.867-0.934,4.893-0.934,6.759,0c1.867,0.934,1.867,2.98,0,3.914
		c-1.866,0.934-4.892,0.934-6.759,0C8.11,67.302,8.11,65.256,9.977,64.322z"/>
	<path fill="#0B8871" d="M37.603,78.161c1.867-0.934,4.893-0.934,6.759,0c1.867,0.934,1.867,2.98,0,3.914
		c-1.866,0.934-4.892,0.934-6.759,0C35.737,81.141,35.737,79.095,37.603,78.161z"/>
	
		<line fill="none" stroke="#0B8871" stroke-width="2.2177" stroke-miterlimit="10" x1="41.083" y1="80.043" x2="52.929" y2="74.601"/>
	<g>
		<path fill="#ECF0F1" d="M10.976,64.903c1.259-0.63,3.299-0.63,4.558,0c1.259,0.63,1.259,2.009,0,2.64
			c-1.258,0.63-3.299,0.63-4.558,0C9.717,66.913,9.717,65.533,10.976,64.903z"/>
		<path fill="#0B8871" d="M12.201,65.613c0.582-0.291,1.526-0.291,2.108,0c0.582,0.291,0.582,0.929,0,1.221
			c-0.582,0.291-1.525,0.291-2.108,0C11.619,66.542,11.619,65.904,12.201,65.613z"/>
	</g>
	<g>
		<path fill="#ECF0F1" d="M38.704,78.799c1.259-0.63,3.299-0.63,4.558,0c1.259,0.63,1.259,2.009,0,2.64
			c-1.258,0.63-3.299,0.63-4.558,0C37.445,80.808,37.445,79.428,38.704,78.799z"/>
		<path fill="#0B8871" d="M39.929,79.508c0.582-0.291,1.526-0.291,2.108,0c0.582,0.291,0.582,0.929,0,1.221
			c-0.582,0.291-1.525,0.291-2.108,0C39.347,80.437,39.347,79.799,39.929,79.508z"/>
	</g>
	<g>
		<path fill="#ECF0F1" d="M39.145,68.408l-17.809-9.06c-0.327-0.166-0.526-0.508-0.511-0.874c0.015-0.366,0.243-0.69,0.582-0.828
			l16.319-6.647c0.114-0.046,0.234-0.069,0.354-0.069c0.145,0,0.29,0.034,0.423,0.101l18.706,9.456
			c0.326,0.165,0.527,0.504,0.513,0.87c-0.013,0.365-0.237,0.689-0.573,0.83L42.336,68.39
			C40.925,69.038,40.533,68.973,39.145,68.408z"/>
		<g>
			<polygon fill="#3C566B" points="56.196,58.583 40.665,64.647 22.63,55.58 38.162,49.516 			"/>
			<polygon fill="#2C3E50" points="40.725,67.352 22.63,58.11 22.63,55.58 40.665,64.647 			"/>
			<polygon fill="#34495E" points="40.725,67.352 56.196,61.099 56.196,58.583 40.665,64.647 			"/>
		</g>
	</g>
	<polyline fill="none" stroke="#0B8871" stroke-width="2.2177" stroke-miterlimit="10" points="63.082,69.241 81.755,60.914 
		83.068,56.156 75.154,51.505 	"/>
	<g>
		<path fill="#ECF0F1" d="M62.297,59.566l-17.809-9.06c-0.327-0.166-0.526-0.508-0.511-0.874c0.015-0.366,0.243-0.69,0.582-0.828
			l16.319-6.647c0.114-0.046,0.234-0.069,0.354-0.069c0.145,0,0.29,0.034,0.423,0.101l18.706,9.456
			c0.326,0.165,0.527,0.504,0.513,0.87c-0.013,0.365-0.237,0.689-0.573,0.83l-14.812,6.204
			C64.078,60.197,63.685,60.131,62.297,59.566z"/>
		<g>
			<polygon fill="#3C566B" points="79.349,49.741 63.817,55.805 45.783,46.739 61.314,40.674 			"/>
			<polygon fill="#2C3E50" points="63.877,58.511 45.783,49.269 45.783,46.739 63.817,55.805 			"/>
			<polygon fill="#34495E" points="63.877,58.511 79.349,52.257 79.349,49.741 63.817,55.805 			"/>
		</g>
	</g>
	<g>
		<path fill="#ECF0F1" d="M52.594,76.026l-7.797-3.717c-0.243-0.124-0.391-0.378-0.379-0.65c0.011-0.272,0.18-0.513,0.432-0.616
			l12.122-4.945c0.085-0.034,0.174-0.051,0.263-0.051c0.108,0,0.215,0.025,0.314,0.075l7.58,3.748
			c0.242,0.122,0.391,0.375,0.381,0.647c-0.01,0.271-0.176,0.512-0.426,0.618l-10.119,4.879
			C53.916,76.495,53.625,76.446,52.594,76.026z"/>
		<g>
			<path fill="#EFD04D" d="M63.677,67.552c0,0-0.002-0.287-0.488-0.483c-2.064-1.024-5.493-2.781-5.493-2.781
				c-0.297-0.149-0.538-0.149-0.835,0c0,0-7.924,3.08-10.226,4.209c-0.485,0.155-0.478,0.476-0.478,0.476
				c-0.005,0.002-0.005,0.72,0,0.719c0,0,0.008,0.293,0.488,0.461c2.063,0.928,6.499,2.891,6.499,2.891
				c0.297,0.148,0.538,0.148,0.835,0c0,0,6.872-3.268,9.204-4.323c0.47-0.161,0.494-0.465,0.494-0.465
				C63.683,68.259,63.685,67.554,63.677,67.552z"/>
			<path fill="#F1C40F" d="M63.676,67.54c-0.005,0.036-0.055,0.307-0.493,0.458c-2.331,1.055-9.204,4.323-9.204,4.323
				c-0.297,0.148-0.538,0.148-0.835,0c0,0-4.436-2.09-6.499-3.018c-0.473-0.165-0.487-0.451-0.488-0.459v0.003
				c-0.005,0.001-0.005,2.667,0,2.667c0,0,0.008,0.293,0.488,0.461c2.063,0.928,6.499,3.018,6.499,3.018
				c0.297,0.148,0.538,0.148,0.835,0c0,0,6.872-3.268,9.204-4.323c0.47-0.161,0.494-0.465,0.494-0.465
				c0.006,0.003,0.008-2.65,0-2.652C63.677,67.552,63.676,67.54,63.676,67.54z"/>
			<path fill="#F39C12" d="M53.144,72.32c0,0-4.436-2.09-6.499-3.018c-0.473-0.166-0.487-0.451-0.488-0.459v0.003
				c-0.005,0.002-0.005,2.667,0,2.667c0,0,0.008,0.293,0.488,0.461c2.063,0.928,6.499,3.018,6.499,3.018
				c0.148,0.074,0.283,0.111,0.418,0.111v-2.672C53.427,72.431,53.292,72.394,53.144,72.32z"/>
		</g>
	</g>
</g>
</svg>
