<?xml version="1.0" encoding="utf-8"?>
<!-- Generator: Adobe Illustrator 17.0.2, SVG Export Plug-In . SVG Version: 6.00 Build 0)  -->
<!DOCTYPE svg PUBLIC "-//W3C//DTD SVG 1.1//EN" "http://www.w3.org/Graphics/SVG/1.1/DTD/svg11.dtd">
<svg version="1.1" id="Layer_1" xmlns="http://www.w3.org/2000/svg" xmlns:xlink="http://www.w3.org/1999/xlink" x="0px" y="0px"
	 width="100px" height="100px" viewBox="0 0 100 100" enable-background="new 0 0 100 100" xml:space="preserve">
<path fill="#2C3E50" d="M57.844,0.924H56.92V0.346C56.92,0.155,56.765,0,56.574,0h-7.045c-0.191,0-0.346,0.155-0.346,0.346v0.577
	H25.507c-3.827,0-6.929,3.102-6.929,6.929v6.612h-0.231c-0.191,0-0.346,0.155-0.346,0.346v3.984c0,0.191,0.155,0.346,0.346,0.346
	h0.231v4.417h-0.231c-0.191,0-0.346,0.155-0.346,0.346v3.032c0,0.191,0.155,0.346,0.346,0.346h0.231v4.244h-0.231
	c-0.191,0-0.346,0.155-0.346,0.346v3.032c0,0.191,0.155,0.346,0.346,0.346h0.231v55.753c0,3.827,3.102,6.929,6.929,6.929h32.337
	c3.827,0,6.929-3.102,6.929-6.929V7.853C64.773,4.026,61.671,0.924,57.844,0.924z"/>
<rect x="22.504" y="15.584" fill="#3E546B" width="38.574" height="68.832"/>
<rect x="41.849" y="15.584" fill="#34495E" width="19.229" height="68.832"/>
<path fill="#3E546B" d="M46.064,9.586c0,0.51-0.414,0.924-0.924,0.924h-6.583c-0.51,0-0.924-0.414-0.924-0.924l0,0
	c0-0.51,0.414-0.924,0.924-0.924h6.583C45.65,8.662,46.064,9.075,46.064,9.586L46.064,9.586z"/>
<path fill="#3E546B" d="M42.83,6.063c0,0.542-0.44,0.982-0.982,0.982l0,0c-0.542,0-0.982-0.44-0.982-0.982l0,0
	c0-0.542,0.44-0.982,0.982-0.982l0,0C42.391,5.082,42.83,5.521,42.83,6.063L42.83,6.063z"/>
<path fill="#3E546B" d="M45.833,90.717c0,2.201-1.784,3.984-3.984,3.984l0,0c-2.201,0-3.984-1.784-3.984-3.984l0,0
	c0-2.201,1.784-3.984,3.984-3.984l0,0C44.049,86.733,45.833,88.517,45.833,90.717L45.833,90.717z"/>
<path fill="#1ABC9C" d="M41.387,11.775c0-1.713,1.296-3.189,3.189-3.189H83.38c1.65-0.009,3.189,1.493,3.189,3.205v27.176
	c0,1.713-1.404,3.102-3.137,3.102L69.495,42.07c0,0-1.663,0.003-3.258,1.067l-12.74,9.856c-0.209,0.161-0.337,0.243-0.46,0.243
	c-0.353,0-0.488-0.139-0.488-0.532v-9.568c0-0.663-0.472-1.063-1.063-1.063h-6.91c-1.732,0-3.189-1.476-3.189-3.189
	C41.387,38.885,41.387,11.775,41.387,11.775z"/>
<path fill="#FFFFFF" d="M56.167,15.752c1.344,0,2.64,0,3.972,0c0,2.504,0,7.468,0,7.468l7.724-7.468h4.944l-6.425,6.374
	l8.369,12.961h-2.967l-7.19-10.929l-1.177,1.09l6.348,9.839h-3.061l-5.121-7.872l-1.443,1.342c0,0,0,6.354,0,6.53
	c-1.349,0-2.641,0-3.972,0C56.167,28.641,56.167,22.215,56.167,15.752z"/>
</svg>
