<?xml version="1.0" encoding="utf-8"?>
<!-- Generator: Adobe Illustrator 17.0.2, SVG Export Plug-In . SVG Version: 6.00 Build 0)  -->
<!DOCTYPE svg PUBLIC "-//W3C//DTD SVG 1.1//EN" "http://www.w3.org/Graphics/SVG/1.1/DTD/svg11.dtd">
<svg version="1.1" id="Layer_1" xmlns="http://www.w3.org/2000/svg" xmlns:xlink="http://www.w3.org/1999/xlink" x="0px" y="0px"
	 width="100px" height="100px" viewBox="0 0 100 100" enable-background="new 0 0 100 100" xml:space="preserve">
<path fill="#E74C3C" d="M100,76c0,4.418-3.582,8-8,8H8c-4.418,0-8-3.582-8-8V24c0-4.418,3.582-8,8-8h84c4.418,0,8,3.582,8,8V76z"/>
<path fill="#2C3E50" d="M100,76c0,4.418-3.582,8-8,8H8c-4.418,0-8-3.582-8-8V61h100V76z"/>
<rect y="38.708" fill="#ECF0F1" width="100" height="23"/>
<path fill="#F1C40F" d="M56.749,47.817c-0.21-0.304-0.556-0.485-0.926-0.485h-3.671v-3.146l1.698-0.716c0,0-1.795-1.649-3.572-1.649
	c-0.009,0-0.015,0.003-0.024,0.003c-0.03-0.001-0.059-0.009-0.089-0.009c-1.097,0-1.987,0.89-1.987,1.987v3.532h-4.002
	c-0.37,0-0.716,0.181-0.926,0.485c-0.211,0.304-0.259,0.692-0.129,1.038l3.381,9.017c0.165,0.439,0.586,0.731,1.056,0.731h4.884
	c0.47,0,0.89-0.292,1.056-0.731l3.381-9.017C57.008,48.508,56.96,48.121,56.749,47.817z"/>
</svg>
