<?xml version="1.0" encoding="utf-8"?>
<!-- Generator: Adobe Illustrator 17.0.2, SVG Export Plug-In . SVG Version: 6.00 Build 0)  -->
<!DOCTYPE svg PUBLIC "-//W3C//DTD SVG 1.1//EN" "http://www.w3.org/Graphics/SVG/1.1/DTD/svg11.dtd">
<svg version="1.1" id="Layer_1" xmlns="http://www.w3.org/2000/svg" xmlns:xlink="http://www.w3.org/1999/xlink" x="0px" y="0px"
	 width="100px" height="100px" viewBox="0 0 100 100" enable-background="new 0 0 100 100" xml:space="preserve">
<path fill="#2ECC71" d="M100,76.013c0,4.418-3.582,8-8,8H8c-4.418,0-8-3.582-8-8v-52c0-4.418,3.582-8,8-8h84c4.418,0,8,3.582,8,8
	V76.013z"/>
<rect x="58.167" y="50.013" fill="#E74C3C" width="14" height="34"/>
<rect x="72.167" y="50.013" fill="#2C3E50" width="14" height="34"/>
<path fill="#E67E22" d="M100,76.013c0,4.418-3.582,8-8,8h-6v-34h14V76.013z"/>
<path fill="#E67E22" d="M93.996,31.376c-0.133-0.413-0.518-0.692-0.951-0.692h-12.68V27.78l1.567-0.661c0,0-1.656-1.523-3.297-1.523
	c-0.009,0-0.014,0.002-0.022,0.002c-0.028-0.001-0.054-0.008-0.082-0.008c-1.013,0-1.834,0.821-1.834,1.834v3.26H64.169
	c-0.434,0-0.818,0.279-0.951,0.692c-0.134,0.413,0.014,0.864,0.365,1.119l12.333,8.917c0.171,0.123,0.376,0.189,0.586,0.189h2.104
	h2.104c0.21,0,0.415-0.066,0.586-0.189l12.333-8.917C93.982,32.241,94.129,31.789,93.996,31.376z M78.607,30.689
	c-0.007,0-0.013-0.004-0.021-0.004h0.041C78.62,30.684,78.614,30.688,78.607,30.689z"/>
</svg>
