<?xml version="1.0" encoding="utf-8"?>
<!-- Generator: Adobe Illustrator 17.0.2, SVG Export Plug-In . SVG Version: 6.00 Build 0)  -->
<!DOCTYPE svg PUBLIC "-//W3C//DTD SVG 1.1//EN" "http://www.w3.org/Graphics/SVG/1.1/DTD/svg11.dtd">
<svg version="1.1" id="Layer_1" xmlns="http://www.w3.org/2000/svg" xmlns:xlink="http://www.w3.org/1999/xlink" x="0px" y="0px"
	 width="100px" height="100px" viewBox="0 0 100 100" enable-background="new 0 0 100 100" xml:space="preserve">
<path opacity="0" fill="#8E44AD" d="M100,92c0,4.418-3.582,8-8,8H8c-4.418,0-8-3.582-8-8V8c0-4.418,3.582-8,8-8h84
	c4.418,0,8,3.582,8,8V92z"/>
<path opacity="0" fill="#231F20" enable-background="new    " d="M62.333,100H92c4.418,0,8-3.582,8-8V44.333L70.812,20.939
	l5.773,14.56l-6.229,14.646c0,0,9.81,16.356,2.477,24.689c-2.306,2.621-6.698,4.661-11.029,3.814C55.835,77.48,50,72.643,50,72.643
	l-10.292,5.84l-11.215,0.094L62.333,100z"/>
<g>
	<path fill="#8E44AD" d="M70.954,99.71c-8.42,0-16.174-4.83-20.564-12.705C46,94.879,38.246,99.71,29.826,99.71
		c-13.325,0-24.165-11.989-24.165-26.727c0-9.494,4.503-18.173,11.835-22.982C10.164,45.192,5.661,36.51,5.661,27.018
		c0-14.738,10.84-26.729,24.165-26.729c8.418,0,16.173,4.83,20.564,12.705C54.779,5.119,62.534,0.29,70.954,0.29
		c13.323,0,24.163,11.989,24.163,26.729c0,9.492-4.503,18.173-11.835,22.982c7.33,4.809,11.835,13.491,11.835,22.982
		C95.117,87.721,84.277,99.71,70.954,99.71z M54.488,76.607c1.488,9.15,8.313,15.714,16.466,15.714
		c9.241,0,16.761-8.674,16.761-19.337c0-9.3-5.826-17.308-13.684-19.004C72.619,65.398,64.73,74.532,54.488,76.607z M26.182,54.11
		c-7.65,1.946-13.118,9.732-13.118,18.873c0,10.663,7.519,19.337,16.762,19.337c8.108,0,14.921-6.52,16.447-15.61
		C35.95,74.867,27.675,65.56,26.182,54.11z M33.67,54.157c1.288,7.445,6.184,13.273,12.582,14.995
		C44.964,61.706,40.069,55.88,33.67,54.157z M66.485,54.353c-5.996,1.922-10.618,7.579-11.922,14.604
		C60.56,67.034,65.183,61.377,66.485,54.353z M42.155,50.001c3.369,2.209,6.181,5.269,8.235,8.957
		c2.053-3.686,4.864-6.747,8.234-8.957c-3.368-2.209-6.181-5.269-8.234-8.957C48.335,44.731,45.524,47.792,42.155,50.001z
		 M54.398,24.024c10.026,2.002,17.918,10.889,19.548,22.014c7.904-1.656,13.766-9.675,13.766-19.02
		c0-10.663-7.519-19.337-16.761-19.337C62.673,7.681,55.664,14.655,54.398,24.024z M29.826,7.681
		c-9.243,0-16.762,8.674-16.762,19.337c0,9.186,5.503,16.985,13.2,18.894c1.703-11.354,9.815-20.231,20.102-21.992
		C45.062,14.611,38.063,7.681,29.826,7.681z M46.12,31.542c-6.07,1.717-10.846,7.244-12.314,14.258
		C39.875,44.083,44.652,38.558,46.12,31.542z M54.699,31.733c1.452,6.728,5.876,11.993,11.654,13.88
		C64.899,38.883,60.475,33.619,54.699,31.733z"/>
</g>
</svg>
