<?xml version="1.0" encoding="utf-8"?>
<!-- Generator: Adobe Illustrator 17.0.2, SVG Export Plug-In . SVG Version: 6.00 Build 0)  -->
<!DOCTYPE svg PUBLIC "-//W3C//DTD SVG 1.1//EN" "http://www.w3.org/Graphics/SVG/1.1/DTD/svg11.dtd">
<svg version="1.1" id="Layer_1" xmlns="http://www.w3.org/2000/svg" xmlns:xlink="http://www.w3.org/1999/xlink" x="0px" y="0px"
	 width="100px" height="100px" viewBox="0 0 100 100" enable-background="new 0 0 100 100" xml:space="preserve">
<path opacity="0" fill="#E74C3C" d="M100,92c0,4.418-3.582,8-8,8H8c-4.418,0-8-3.582-8-8V8c0-4.418,3.582-8,8-8h84
	c4.418,0,8,3.582,8,8V92z"/>
<path opacity="0" fill="#231F20" enable-background="new    " d="M41.167,100H92c4.418,0,8-3.582,8-8V43.917L80.28,21H78v56.667
	l-57.083,1.417L22.5,81.38L41.167,100z"/>
<path fill="#E74C3C" d="M97.519,18.344c1.395,0,2.527-1.132,2.527-2.527s-1.132-2.527-2.527-2.527h-1.138V8.591h1.138
	c1.395,0,2.527-1.132,2.527-2.527s-1.132-2.527-2.527-2.527h-1.138V2.399c0-1.395-1.132-2.527-2.527-2.527
	c-1.395,0-2.527,1.132-2.527,2.527v1.138h-4.699V2.399c0-1.395-1.132-2.527-2.527-2.527s-2.527,1.132-2.527,2.527v1.138h-4.699
	V2.399c0-1.395-1.132-2.527-2.527-2.527S71.82,1.004,71.82,2.399v1.138h-4.704V2.399c0-1.395-1.132-2.527-2.527-2.527
	c-1.395,0-2.527,1.132-2.527,2.527v1.138h-4.699V2.399c0-1.395-1.132-2.527-2.527-2.527c-1.395,0-2.527,1.132-2.527,2.527v1.138
	h-4.699V2.399c0-1.395-1.132-2.527-2.527-2.527c-1.395,0-2.527,1.132-2.527,2.527v1.138h-4.699V2.399
	c0-1.395-1.132-2.527-2.527-2.527c-1.395,0-2.527,1.132-2.527,2.527v1.138h-4.699V2.399c0-1.395-1.132-2.527-2.527-2.527
	s-2.527,1.132-2.527,2.527v1.138h-4.699V2.399c0-1.395-1.132-2.527-2.527-2.527s-2.527,1.132-2.527,2.527v1.138H8.596V2.399
	c0-1.395-1.132-2.527-2.527-2.527S3.542,1.004,3.542,2.399v1.138H2.404c-1.395,0-2.527,1.132-2.527,2.527s1.132,2.527,2.527,2.527
	h1.138v4.699H2.404c-1.395,0-2.527,1.132-2.527,2.527s1.132,2.527,2.527,2.527h1.138v4.699H2.404c-1.395,0-2.527,1.132-2.527,2.527
	c0,1.395,1.132,2.527,2.527,2.527h1.138v4.699H2.404c-1.395,0-2.527,1.132-2.527,2.527s1.132,2.527,2.527,2.527h1.138v4.699H2.404
	c-1.395,0-2.527,1.132-2.527,2.527c0,1.395,1.132,2.527,2.527,2.527h1.138v4.699H2.404c-1.395,0-2.527,1.132-2.527,2.527
	c0,1.395,1.132,2.527,2.527,2.527h1.138v4.699H2.404c-1.395,0-2.527,1.132-2.527,2.527c0,1.395,1.132,2.527,2.527,2.527h1.138v4.699
	H2.404c-1.395,0-2.527,1.132-2.527,2.527s1.132,2.527,2.527,2.527h1.138v4.699H2.404c-1.395,0-2.527,1.132-2.527,2.527
	s1.132,2.527,2.527,2.527h1.138v4.699H2.404c-1.395,0-2.527,1.132-2.527,2.527s1.132,2.527,2.527,2.527h1.138v1.138
	c0,1.395,1.132,2.527,2.527,2.527s2.527-1.132,2.527-2.527v-1.138h4.699v1.138c0,1.395,1.132,2.527,2.527,2.527
	s2.527-1.132,2.527-2.527v-1.138h4.699v1.138c0,1.395,1.132,2.527,2.527,2.527s2.527-1.132,2.527-2.527v-1.138h4.699v1.138
	c0,1.395,1.132,2.527,2.527,2.527c1.395,0,2.527-1.132,2.527-2.527v-1.138h4.699v1.138c0,1.395,1.132,2.527,2.527,2.527
	c1.395,0,2.527-1.132,2.527-2.527v-1.138h4.699v1.138c0,1.395,1.132,2.527,2.527,2.527c1.395,0,2.527-1.132,2.527-2.527v-1.138
	h4.699v1.138c0,1.395,1.132,2.527,2.527,2.527c1.395,0,2.527-1.132,2.527-2.527v-1.138h4.699v1.138c0,1.395,1.132,2.527,2.527,2.527
	c1.395,0,2.527-1.132,2.527-2.527v-1.138h4.699v1.138c0,1.395,1.132,2.527,2.527,2.527c1.395,0,2.527-1.132,2.527-2.527v-1.138
	h4.699v1.138c0,1.395,1.132,2.527,2.527,2.527c1.395,0,2.527-1.132,2.527-2.527v-1.138h1.138c1.395,0,2.527-1.132,2.527-2.527
	s-1.132-2.527-2.527-2.527h-1.138v-4.699h1.138c1.395,0,2.527-1.132,2.527-2.527s-1.132-2.527-2.527-2.527h-1.138v-4.699h1.138
	c1.395,0,2.527-1.132,2.527-2.527s-1.132-2.527-2.527-2.527h-1.138v-4.69h1.138c1.395,0,2.527-1.132,2.527-2.527
	s-1.132-2.527-2.527-2.527h-1.138v-4.699h1.138c1.395,0,2.527-1.132,2.527-2.527s-1.132-2.527-2.527-2.527h-1.138v-4.699h1.138
	c1.395,0,2.527-1.132,2.527-2.527c0-1.395-1.132-2.527-2.527-2.527h-1.138V37.86h1.138c1.395,0,2.527-1.132,2.527-2.527
	c0-1.395-1.132-2.527-2.527-2.527h-1.138v-4.699h1.138c1.395,0,2.527-1.132,2.527-2.527s-1.132-2.527-2.527-2.527h-1.138v-4.699
	h1.143C97.519,18.354,97.519,18.344,97.519,18.344z M91.327,8.589v4.699h-4.699V8.589H91.327z M81.572,8.589v4.699h-4.699V8.589
	H81.572z M47.606,42.555v-4.699h4.699v4.699H47.606z M52.306,47.611v4.699h-4.699v-4.699H52.306z M42.551,42.555h-4.699v-4.699
	h4.699V42.555z M42.551,47.611v4.699h-4.699v-4.699H42.551z M42.551,57.365v4.699h-4.699v-4.699H42.551z M47.606,57.365h4.699v4.699
	h-4.699V57.365z M57.361,57.365h4.699v4.699h-4.699V57.365z M57.361,52.31v-4.699h4.699v4.699H57.361z M57.361,42.555v-4.699h4.699
	v4.699H57.361z M57.361,32.8v-4.699h4.699V32.8H57.361z M52.306,32.8h-4.699v-4.699h4.699V32.8z M42.551,32.8h-4.699v-4.699h4.699
	V32.8z M32.796,32.8h-4.699v-4.699h4.699V32.8z M32.796,37.856v4.699h-4.699v-4.699H32.796z M32.796,47.611v4.699h-4.699v-4.699
	H32.796z M32.796,57.365v4.699h-4.699v-4.699H32.796z M32.796,67.12v4.699h-4.699V67.12H32.796z M37.851,67.12h4.699v4.699h-4.699
	V67.12z M47.606,67.12h4.699v4.699h-4.699V67.12z M57.361,67.12h4.699v4.699h-4.699V67.12z M67.116,67.12h4.699v4.699h-4.699V67.12z
	 M67.116,62.065v-4.699h4.699v4.699H67.116z M67.116,52.31v-4.699h4.699v4.699H67.116z M67.116,42.555v-4.699h4.699v4.699H67.116z
	 M67.116,32.8v-4.699h4.699V32.8H67.116z M67.116,23.045v-4.699h4.699v4.699H67.116z M62.06,23.045h-4.699v-4.699h4.699V23.045z
	 M52.306,23.045h-4.699v-4.699h4.699V23.045z M42.551,23.045h-4.699v-4.699h4.699V23.045z M32.796,23.045h-4.699v-4.699h4.699
	V23.045z M23.041,23.045h-4.699v-4.699h4.699V23.045z M23.041,28.101V32.8h-4.699v-4.699H23.041z M23.041,37.856v4.699h-4.699
	v-4.699H23.041z M23.041,47.611v4.699h-4.699v-4.699H23.041z M23.041,57.365v4.699h-4.699v-4.699H23.041z M23.041,67.12v4.699
	h-4.699V67.12H23.041z M23.041,76.875v4.699h-4.699v-4.699H23.041z M28.096,76.875h4.699v4.699h-4.699V76.875z M37.851,76.875h4.699
	v4.699h-4.699V76.875z M47.606,76.875h4.699v4.699h-4.699V76.875z M57.361,76.875h4.699v4.699h-4.699V76.875z M67.116,76.875h4.699
	v4.699h-4.699V76.875z M76.871,76.875h4.699v4.699h-4.699V76.875z M76.871,71.82V67.12h4.699v4.699H76.871z M76.871,62.065v-4.699
	h4.699v4.699H76.871z M76.871,52.31v-4.699h4.699v4.699H76.871z M76.871,42.555v-4.699h4.699v4.699H76.871z M76.871,32.8v-4.699
	h4.699V32.8H76.871z M76.871,23.045v-4.699h4.699v4.699H76.871z M71.815,8.589v4.699h-4.699V8.589H71.815z M62.06,8.589v4.699
	h-4.699V8.589H62.06z M52.306,8.589v4.699h-4.699V8.589H52.306z M42.551,8.589v4.699h-4.699V8.589H42.551z M32.796,8.589v4.699
	h-4.699V8.589H32.796z M23.041,8.589v4.699h-4.699V8.589H23.041z M8.585,8.589h4.699v4.699H8.585V8.589z M8.585,18.344h4.699v4.699
	H8.585V18.344z M8.585,28.101h4.699V32.8H8.585V28.101z M8.585,37.856h4.699v4.699H8.585V37.856z M8.585,47.611h4.699v4.699H8.585
	V47.611z M8.585,57.365h4.699v4.699H8.585V57.365z M8.585,67.12h4.699v4.699H8.585V67.12z M8.585,76.875h4.699v4.699H8.585V76.875z
	 M8.585,91.331v-4.699h4.699v4.699H8.585z M18.34,91.331v-4.699h4.699v4.699H18.34z M28.096,91.331v-4.699h4.699v4.699H28.096z
	 M37.851,91.331v-4.699h4.699v4.699H37.851z M47.606,91.331v-4.699h4.699v4.699H47.606z M57.361,91.331v-4.699h4.699v4.699H57.361z
	 M67.116,91.331v-4.699h4.699v4.699H67.116z M76.871,91.331v-4.699h4.699v4.699H76.871z M91.327,91.331h-4.699v-4.699h4.699V91.331z
	 M91.327,81.576h-4.699v-4.699h4.699V81.576z M91.327,71.82h-4.699V67.12h4.699V71.82z M91.327,62.065h-4.699v-4.699h4.699V62.065z
	 M91.327,52.31h-4.699v-4.699h4.699V52.31z M91.327,42.555h-4.699v-4.699h4.699V42.555z M91.327,32.8h-4.699v-4.699h4.699V32.8z
	 M91.327,23.045h-4.699v-4.699h4.699V23.045z"/>
</svg>
