<?xml version="1.0" encoding="utf-8"?>
<!-- Generator: Adobe Illustrator 17.0.2, SVG Export Plug-In . SVG Version: 6.00 Build 0)  -->
<!DOCTYPE svg PUBLIC "-//W3C//DTD SVG 1.1//EN" "http://www.w3.org/Graphics/SVG/1.1/DTD/svg11.dtd">
<svg version="1.1" id="Layer_1" xmlns="http://www.w3.org/2000/svg" xmlns:xlink="http://www.w3.org/1999/xlink" x="0px" y="0px"
	 width="100px" height="100px" viewBox="0 0 100 100" enable-background="new 0 0 100 100" xml:space="preserve">
<path opacity="0" fill="#E74C3C" d="M100,92c0,4.418-3.582,8-8,8H8c-4.418,0-8-3.582-8-8V8c0-4.418,3.582-8,8-8h84
	c4.418,0,8,3.582,8,8V92z"/>
<path opacity="0" fill="#231F20" enable-background="new    " d="M57.333,100H92c4.418,0,8-3.582,8-8V42.333L73.551,21.862
	l2.07,17.388L65.082,49.261c0,0-0.717,1.002,0.985,2.675C70.726,56.515,80.525,66.126,73.75,74
	c-9.25,10.75-22.689-0.802-22.689-0.802l-21.814,6.81L57.333,100z"/>
<path fill="#E74C3C" d="M75.24,51.436v-2.509c11.641-1.847,20.57-11.95,20.57-24.102c0-13.458-10.949-24.407-24.406-24.407
	c-9.095,0-17.038,5.004-21.237,12.401C45.969,5.422,38.026,0.418,28.929,0.418c-13.458,0-24.406,10.949-24.406,24.407
	c0,12.558,9.535,22.927,21.745,24.258v2.197C14.059,52.612,4.524,62.982,4.524,75.54c0,13.458,10.949,24.406,24.406,24.406
	c9.095,0,17.038-5.004,21.237-12.401c4.197,7.397,12.141,12.401,21.237,12.401c13.458,0,24.406-10.949,24.406-24.406
	C95.81,63.386,86.881,53.283,75.24,51.436z M68.741,8.238c0,1.666,0,5.518,0,6.277c0,0.976-2.349,2.839-2.349,4.388
	c0,2.55,2.506,4.617,5.598,4.617s5.598-2.067,5.598-4.617c0-1.549-2.349-3.413-2.349-4.388c0-0.725,0-4.273,0-6.044
	c7.421,1.74,12.963,8.409,12.963,16.352c0,9.264-7.536,16.799-16.799,16.799s-16.799-7.535-16.799-16.797
	C54.604,16.468,60.738,9.519,68.741,8.238z M12.131,24.825c0-8.357,6.135-15.306,14.136-16.586c0,1.666,0,5.518,0,6.277
	c0,0.976-2.349,2.839-2.349,4.388c0,2.55,2.506,4.617,5.598,4.617c3.092,0,5.598-2.067,5.598-4.617c0-1.549-2.349-3.413-2.349-4.388
	c0-0.725,0-4.273,0-6.044c7.421,1.74,12.963,8.409,12.963,16.352c0,9.264-7.536,16.799-16.799,16.799S12.131,34.088,12.131,24.825z
	 M28.929,92.338c-9.264,0-16.799-7.536-16.799-16.799c0-8.357,6.135-15.306,14.136-16.586c0,1.666,0,5.518,0,6.277
	c0,0.976-2.349,2.839-2.349,4.388c0,2.55,2.506,4.617,5.598,4.617c3.092,0,5.598-2.067,5.598-4.617c0-1.549-2.349-3.413-2.349-4.388
	c0-0.725,0-4.273,0-6.044c7.421,1.74,12.963,8.409,12.963,16.352C45.73,84.802,38.193,92.338,28.929,92.338z M50.165,63.53
	c-3.596-6.332-9.939-10.91-17.399-12.094v-2.509c7.461-1.182,13.803-5.762,17.399-12.094c3.784,6.663,10.609,11.381,18.576,12.249
	v2.197C60.774,52.149,53.947,56.868,50.165,63.53z M71.404,92.338c-9.264,0-16.799-7.536-16.799-16.799
	c0-8.357,6.135-15.306,14.136-16.586c0,1.666,0,5.518,0,6.277c0,0.976-2.349,2.839-2.349,4.388c0,2.55,2.506,4.617,5.598,4.617
	s5.598-2.067,5.598-4.617c0-1.549-2.349-3.413-2.349-4.388c0-0.725,0-4.273,0-6.044c7.421,1.74,12.963,8.409,12.963,16.352
	C88.203,84.802,80.666,92.338,71.404,92.338z"/>
</svg>
