<?xml version="1.0" encoding="utf-8"?>
<!-- Generator: Adobe Illustrator 17.0.2, SVG Export Plug-In . SVG Version: 6.00 Build 0)  -->
<!DOCTYPE svg PUBLIC "-//W3C//DTD SVG 1.1//EN" "http://www.w3.org/Graphics/SVG/1.1/DTD/svg11.dtd">
<svg version="1.1" id="Layer_1" xmlns="http://www.w3.org/2000/svg" xmlns:xlink="http://www.w3.org/1999/xlink" x="0px" y="0px"
	 width="100px" height="100px" viewBox="0 0 100 100" enable-background="new 0 0 100 100" xml:space="preserve">
<path opacity="0" fill="#2C3E50" d="M100,92c0,4.418-3.582,8-8,8H8c-4.418,0-8-3.582-8-8V8c0-4.418,3.582-8,8-8h84
	c4.418,0,8,3.582,8,8V92z"/>
<path opacity="0" fill="#231F20" enable-background="new    " d="M79.333,100H92c4.418,0,8-3.582,8-8V61.333L84.423,49.651
	L60.42,70.855l-11.087-8.021l-9.684,7.583L79.333,100z"/>
<path fill="#2C3E50" d="M98.562,48.86l-32.21-23.444c-0.466-0.34-1.015-0.509-1.564-0.509c-0.55,0-1.102,0.171-1.569,0.514
	l-13.015,9.525l-13.092-9.529c-0.466-0.34-1.015-0.509-1.564-0.509c-0.55,0-1.102,0.171-1.569,0.514L1.39,49.266
	c-0.682,0.498-1.085,1.291-1.088,2.134c-0.003,0.845,0.395,1.64,1.073,2.142L33.784,77.64c0.471,0.35,1.029,0.525,1.586,0.525
	c0.565,0,1.13-0.179,1.603-0.539l12.905-9.762l13.147,9.775c0.471,0.35,1.029,0.525,1.586,0.525c0.565,0,1.13-0.179,1.603-0.539
	l32.386-24.5c0.67-0.508,1.061-1.303,1.054-2.144C99.647,50.144,99.242,49.355,98.562,48.86z M35.342,68.864L11.916,51.445
	l23.639-17.299l7.891,5.744l-12.814,9.377c-0.682,0.498-1.085,1.291-1.088,2.134c-0.003,0.845,0.395,1.64,1.073,2.142l12.596,9.366
	L35.342,68.864z M50.214,44.818l8.619,6.275l-8.997,6.807l-8.678-6.453L50.214,44.818z M64.583,68.864l-8.08-6.008l12.857-9.726
	c0.67-0.508,1.061-1.303,1.054-2.144c-0.008-0.841-0.414-1.63-1.094-2.125l-12.348-8.987l7.825-5.726l23.279,16.946L64.583,68.864z"
	/>
</svg>
