<?xml version="1.0" encoding="utf-8"?>
<!-- Generator: Adobe Illustrator 17.0.2, SVG Export Plug-In . SVG Version: 6.00 Build 0)  -->
<!DOCTYPE svg PUBLIC "-//W3C//DTD SVG 1.1//EN" "http://www.w3.org/Graphics/SVG/1.1/DTD/svg11.dtd">
<svg version="1.1" id="Layer_1" xmlns="http://www.w3.org/2000/svg" xmlns:xlink="http://www.w3.org/1999/xlink" x="0px" y="0px"
	 width="100px" height="100px" viewBox="0 0 100 100" enable-background="new 0 0 100 100" xml:space="preserve">
<path opacity="0" fill="#F1C40F" d="M100,92c0,4.418-3.582,8-8,8H8c-4.418,0-8-3.582-8-8V8c0-4.418,3.582-8,8-8h84
	c4.418,0,8,3.582,8,8V92z"/>
<path opacity="0" fill="#231F20" enable-background="new    " d="M71.333,100H92c4.418,0,8-3.582,8-8V59.167L52.28,23.554L58.333,50
	L41.418,81.338L71.333,100z"/>
<path fill="#F1C40F" d="M65.991,75.365c0.021-0.006,0.04-0.015,0.061-0.021c0.227-0.081,0.448-0.163,0.664-0.248
	c0.031-0.013,0.061-0.024,0.092-0.037c0.214-0.085,0.421-0.174,0.622-0.264c0.018-0.008,0.037-0.016,0.056-0.024
	c0.443-0.202,0.854-0.414,1.232-0.638c0.013-0.008,0.024-0.016,0.037-0.023c0.164-0.098,0.321-0.2,0.472-0.301
	c0.039-0.026,0.074-0.053,0.113-0.079c0.124-0.087,0.242-0.176,0.356-0.266c0.04-0.032,0.079-0.063,0.118-0.095
	c0.11-0.092,0.214-0.184,0.314-0.279c0.031-0.029,0.063-0.056,0.092-0.085c0.25-0.245,0.464-0.5,0.64-0.764
	c0.023-0.034,0.042-0.069,0.063-0.105c0.06-0.097,0.116-0.193,0.166-0.292c0.024-0.047,0.045-0.093,0.066-0.14
	c0.04-0.09,0.077-0.182,0.11-0.274c0.018-0.05,0.034-0.1,0.048-0.15c0.029-0.097,0.05-0.195,0.069-0.293
	c0.008-0.045,0.019-0.089,0.026-0.135c0.021-0.143,0.034-0.289,0.034-0.437c0-2.602-3.397-5.431-8.481-7.228
	c6.658-2.639,13.056-8.744,13.056-22.778c0-28.258-38.484-42.926-39.966-40.159c-1.48,2.766,32.489,25.409,18.974,44.331
	c-6.055,8.478-24.49-0.269-27.316,9.569c-1.678,5.84,4.375,8.629,11.059,9.932c-3.64,1.765-5.878,4.132-5.878,6.334
	c0,0.145,0.013,0.289,0.032,0.43c0.006,0.045,0.018,0.09,0.026,0.135c0.018,0.097,0.039,0.192,0.066,0.285
	c0.015,0.052,0.032,0.102,0.05,0.152c0.031,0.087,0.064,0.174,0.102,0.261c0.023,0.05,0.045,0.1,0.069,0.15
	c0.044,0.089,0.093,0.174,0.145,0.261c0.027,0.044,0.052,0.089,0.081,0.132c0.068,0.102,0.142,0.201,0.219,0.301
	c0.021,0.026,0.037,0.052,0.058,0.077c0.105,0.126,0.218,0.25,0.339,0.371c0.019,0.019,0.04,0.037,0.06,0.055
	c0.105,0.102,0.214,0.202,0.33,0.298c0.04,0.034,0.084,0.068,0.126,0.102c0.102,0.082,0.208,0.163,0.318,0.243
	c0.048,0.035,0.098,0.069,0.15,0.105c0.114,0.079,0.232,0.156,0.353,0.232c0.05,0.031,0.1,0.063,0.152,0.093
	c0.14,0.084,0.285,0.166,0.434,0.247c0.037,0.021,0.073,0.04,0.111,0.061c0.39,0.206,0.812,0.403,1.262,0.588
	c0.029,0.011,0.058,0.023,0.087,0.035c0.193,0.079,0.393,0.156,0.598,0.231c0.053,0.019,0.108,0.039,0.163,0.058
	c0.187,0.068,0.379,0.132,0.574,0.197c0.058,0.019,0.118,0.039,0.177,0.056c0.205,0.064,0.414,0.129,0.627,0.19
	c0.05,0.015,0.098,0.029,0.148,0.044c0.263,0.074,0.529,0.147,0.803,0.214c-4.683,1.802-7.662,4.564-7.662,7.108
	c0,2.197,2.326,3.961,6.048,5.15c-4.963,0.843-8.176,2.634-8.176,6.347c0,6.248,9.106,5.331,20.341,5.331s20.341,0.917,20.341-5.331
	c0-3.379-2.666-5.165-6.887-6.094c4.209-1.185,6.887-3.044,6.887-5.402c0-2.51-3.16-5.234-7.949-7.037l0,0
	C64.385,75.877,65.222,75.634,65.991,75.365z"/>
</svg>
