<?xml version="1.0" encoding="utf-8"?>
<!-- Generator: Adobe Illustrator 17.0.2, SVG Export Plug-In . SVG Version: 6.00 Build 0)  -->
<!DOCTYPE svg PUBLIC "-//W3C//DTD SVG 1.1//EN" "http://www.w3.org/Graphics/SVG/1.1/DTD/svg11.dtd">
<svg version="1.1" id="Layer_1" xmlns="http://www.w3.org/2000/svg" xmlns:xlink="http://www.w3.org/1999/xlink" x="0px" y="0px"
	 width="100px" height="100px" viewBox="0 0 100 100" enable-background="new 0 0 100 100" xml:space="preserve">
<path opacity="0" fill="#2ECC71" d="M100,92c0,4.418-3.582,8-8,8H8c-4.418,0-8-3.582-8-8V8c0-4.418,3.582-8,8-8h84
	c4.418,0,8,3.582,8,8V92z"/>
<path opacity="0" fill="#231F20" enable-background="new    " d="M56.333,100H92c4.418,0,8-3.582,8-8V43.333L78.977,24.171
	l-4.716,13.044L65.25,50.833c0,0,17.599,20.111,12.75,25.667c-5.797,6.641-27.512-10.946-27.512-10.946L25.947,79.817L56.333,100z"
	/>
<path fill="#2C3E50" d="M90.039,59.413c-4.465-4.465-9.869-7.523-15.268-9.087c5.241-1.756,10.05-4.919,13.648-9.128
	c10.635-12.44,12.368-26.82,4.218-34.971c-8.483-8.483-24.284-6.486-35.223,4.451c-3.873,3.873-6.681,8.455-8.385,13.125
	c-1.648-5.033-4.612-10.013-8.776-14.178C29.316-1.311,13.515-3.308,5.032,5.175c-8.15,8.15-6.417,22.531,4.218,34.971
	c3.514,4.11,8.183,7.223,13.28,9.002c-4.584,1.836-8.758,4.756-11.969,8.51C-0.073,70.099-1.808,84.478,6.342,92.63
	c8.483,8.483,24.284,6.486,35.222-4.451c3.84-3.84,6.631-8.375,8.341-13.003c1.616,5.857,4.983,11.281,9.616,15.241
	c12.44,10.635,26.82,12.368,34.971,4.218C102.973,86.153,100.976,70.352,90.039,59.413z M63.637,16.903
	c7.379-7.379,17.809-9.417,22.775-4.451c4.687,4.687,2.717,14.372-4.684,23.029c-3.813,4.461-9.778,7.371-15.57,7.596
	c-1.989,0.078-3.79-0.185-5.282-0.724c2.196-3.58,7.62-8.317,11.09-11.123c1.623-1.312,4.084,0.194,6.417-2.14
	c2.183-2.183,2.039-5.87-0.324-8.233c-2.363-2.363-6.05-2.509-8.233-0.324c-2.334,2.334-0.826,4.795-2.14,6.417
	c-2.803,3.464-7.529,8.877-11.108,11.081C54.791,32.727,57.071,23.469,63.637,16.903z M15.938,34.428
	c-7.401-8.657-9.37-18.341-4.684-23.029c4.966-4.966,15.396-2.928,22.775,4.451c6.566,6.566,8.846,15.823,7.055,21.128
	c-3.578-2.202-8.305-7.617-11.108-11.081c-1.312-1.623,0.194-4.084-2.14-6.417c-2.183-2.183-5.87-2.039-8.233,0.324
	s-2.509,6.05-0.324,8.233c2.334,2.334,4.795,0.826,6.417,2.14c3.469,2.807,8.895,7.543,11.09,11.123
	c-1.492,0.54-3.292,0.802-5.282,0.724C25.716,41.799,19.749,38.889,15.938,34.428z M35.341,81.957
	c-7.379,7.379-17.809,9.417-22.775,4.451C7.878,81.721,9.849,72.036,17.25,63.38c3.813-4.461,9.778-7.371,15.57-7.596
	c1.989-0.078,3.79,0.185,5.282,0.724c-2.196,3.58-7.62,8.317-11.09,11.123c-1.623,1.312-4.084-0.194-6.417,2.14
	c-2.186,2.183-2.041,5.87,0.322,8.233s6.05,2.509,8.233,0.324c2.334-2.334,0.826-4.795,2.14-6.417
	c2.803-3.464,7.529-8.877,11.108-11.081C44.187,66.132,41.907,75.391,35.341,81.957z M39.947,48.398
	c0-4.625,4.734-8.374,10.573-8.374c5.84,0,10.574,3.749,10.574,8.374s-4.734,8.374-10.574,8.374
	C44.681,56.772,39.947,53.023,39.947,48.398z M88.267,88.413c-4.687,4.687-14.372,2.717-23.029-4.684
	c-4.461-3.813-7.371-9.778-7.596-15.57c-0.078-1.989,0.185-3.79,0.724-5.282c3.58,2.196,8.317,7.62,11.123,11.09
	c1.312,1.623-0.194,4.084,2.14,6.417c2.183,2.183,5.87,2.039,8.233-0.324c2.363-2.363,2.509-6.05,0.324-8.233
	c-2.334-2.334-4.795-0.826-6.417-2.14c-3.464-2.803-8.877-7.529-11.081-11.108c5.304-1.791,14.563,0.49,21.128,7.055
	C91.195,73.017,93.233,83.448,88.267,88.413z"/>
</svg>
