<?xml version="1.0" encoding="utf-8"?>
<!-- Generator: Adobe Illustrator 17.0.2, SVG Export Plug-In . SVG Version: 6.00 Build 0)  -->
<!DOCTYPE svg PUBLIC "-//W3C//DTD SVG 1.1//EN" "http://www.w3.org/Graphics/SVG/1.1/DTD/svg11.dtd">
<svg version="1.1" id="Layer_1" xmlns="http://www.w3.org/2000/svg" xmlns:xlink="http://www.w3.org/1999/xlink" x="0px" y="0px"
	 width="100px" height="100px" viewBox="0 0 100 100" enable-background="new 0 0 100 100" xml:space="preserve">
<path opacity="0" fill="#9B59B6" d="M100,92c0,4.418-3.582,8-8,8H8c-4.418,0-8-3.582-8-8V8c0-4.418,3.582-8,8-8h84
	c4.418,0,8,3.582,8,8V92z"/>
<path opacity="0" fill="#231F20" enable-background="new    " d="M63.5,100H92c4.418,0,8-3.582,8-8V41.833L70.777,20.267L50,51.833
	l-19.246,28.89L63.5,100z"/>
<path fill="#9B59B6" d="M86.52,52.733c-0.912-0.569-2.115-0.291-2.685,0.621l-4.577,7.339l-11.843-7.386
	c0.235-1.094,0.365-2.226,0.365-3.39c0-3.834-1.345-7.352-3.584-10.117l7.451-11.948l7.339,4.577
	c0.914,0.57,2.115,0.291,2.685-0.621c7.103-11.39,6.421-24.684-1.519-29.637s-20.18,0.284-27.284,11.673
	c-0.569,0.912-0.291,2.115,0.621,2.685l9.148,5.705l-7.468,11.976c-1.123-0.249-2.289-0.39-3.486-0.39
	c-3.763,0-7.217,1.302-9.957,3.465l-13.737-8.567l4.577-7.339c0.57-0.914,0.291-2.115-0.621-2.685
	c-11.39-7.103-24.684-6.421-29.637,1.519s0.284,20.18,11.673,27.284c0.912,0.569,2.115,0.291,2.685-0.621l5.705-9.148l13.653,8.516
	c-0.277,1.182-0.438,2.408-0.438,3.674c0,3.8,1.324,7.285,3.527,10.038l-8.45,13.548l-9.148-5.707
	c-0.914-0.57-2.115-0.291-2.685,0.621c-7.103,11.39-6.421,24.684,1.519,29.637s20.18-0.284,27.284-11.673
	c0.569-0.912,0.291-2.115-0.621-2.685L39.67,79.12l8.433-13.521c1.153,0.263,2.348,0.413,3.58,0.413
	c3.872,0,7.422-1.369,10.198-3.645L73.639,69.7l-5.705,9.148c-0.57,0.914-0.291,2.115,0.621,2.685
	c11.39,7.103,24.684,6.421,29.637-1.519C103.146,72.073,97.91,59.836,86.52,52.733z"/>
</svg>
