<?xml version="1.0" encoding="utf-8"?>
<!-- Generator: Adobe Illustrator 17.0.2, SVG Export Plug-In . SVG Version: 6.00 Build 0)  -->
<!DOCTYPE svg PUBLIC "-//W3C//DTD SVG 1.1//EN" "http://www.w3.org/Graphics/SVG/1.1/DTD/svg11.dtd">
<svg version="1.1" id="Layer_1" xmlns="http://www.w3.org/2000/svg" xmlns:xlink="http://www.w3.org/1999/xlink" x="0px" y="0px"
	 width="100px" height="100px" viewBox="0 0 100 100" enable-background="new 0 0 100 100" xml:space="preserve">
<path opacity="0" fill="#1ABC9C" d="M100,92c0,4.418-3.582,8-8,8H8c-4.418,0-8-3.582-8-8V8c0-4.418,3.582-8,8-8h84
	c4.418,0,8,3.582,8,8V92z"/>
<path opacity="0" fill="#231F20" enable-background="new    " d="M80.333,100H92c4.418,0,8-3.582,8-8V46.75L60.613,21.863
	l8.637,39.068L50.719,81.088L80.333,100z"/>
<path fill="#1ABC9C" d="M57.03,100.137c-0.915,0-1.746-0.535-2.123-1.371c-0.381-0.843-0.226-1.831,0.393-2.519
	c0.115-0.128,11.498-12.869,12.205-24.189c0.183-2.937-1.281-5.153-2.541-6.495c-2.633-2.803-7.086-4.687-11.084-4.687
	c-1.923,0-5.358,0.452-6.773,3.481c-0.858,1.831-0.964,3.556-0.329,5.273c1.432,3.877,6.363,6.816,8.14,7.621
	c0.769,0.347,1.29,1.087,1.362,1.928c0.07,0.84-0.321,1.654-1.021,2.126c-0.224,0.152-5.559,3.694-11.963,3.694
	c-5.011,0-9.393-2.199-12.673-6.361c-4.225-5.359-6.199-11.905-7.117-17.024h-5.826c-3.887,0-8.425-2.926-8.425-11.171
	c0-8.286,4.366-12.059,8.425-12.059h5.826c0.918-5.119,2.892-11.663,7.115-17.024c3.28-4.16,7.662-6.359,12.673-6.359
	c6.402,0,11.739,3.543,11.963,3.694c0.7,0.471,1.09,1.285,1.021,2.127c-0.072,0.841-0.591,1.579-1.362,1.926
	c-0.061,0.028-6.438,2.988-8.145,7.633c-0.63,1.713-0.52,3.433,0.334,5.26c1.416,3.027,4.852,3.481,6.773,3.481
	c3.996,0,8.451-1.884,11.086-4.687c1.26-1.342,2.723-3.558,2.54-6.494C66.797,16.621,55.413,3.881,55.299,3.753
	c-0.62-0.687-0.774-1.676-0.393-2.52c0.38-0.833,1.209-1.37,2.124-1.37c0.01,0,0.018,0,0.026,0
	c0.979,0.011,24.025,0.471,31.187,17.825c5.99,14.519-0.362,28.159-2.654,32.311c2.289,4.15,8.647,17.792,2.654,32.309
	c-7.163,17.353-30.208,17.816-31.185,17.826C57.048,100.137,57.04,100.137,57.03,100.137z"/>
<path fill="#FFFFFF" d="M-75.579,36.486c0.495,7.913-13.024,12.035-15.992,5.688s5.77-10.304,5.77-10.304s-8.325-5.605-13.848,1.401
	c-2.8,3.553-3.988,8.006-4.481,11.534h-5.031c-1.977,0-3.925,2.143-3.925,6.265c0,4.121,1.948,5.694,3.925,5.694h5.031
	c0.492,3.528,1.68,7.982,4.481,11.534c5.523,7.007,13.848,1.401,13.848,1.401s-8.738-3.957-5.77-10.304s16.486-2.226,15.992,5.688
	s-8.243,16.487-8.243,16.487s14.425-0.165,18.712-10.551s-2.061-20.234-2.061-20.234s6.347-9.847,2.061-20.234S-83.822,20-83.822,20
	S-76.073,28.573-75.579,36.486z"/>
</svg>
