<?xml version="1.0" encoding="utf-8"?>
<!-- Generator: Adobe Illustrator 17.0.2, SVG Export Plug-In . SVG Version: 6.00 Build 0)  -->
<!DOCTYPE svg PUBLIC "-//W3C//DTD SVG 1.1//EN" "http://www.w3.org/Graphics/SVG/1.1/DTD/svg11.dtd">
<svg version="1.1" id="Layer_1" xmlns="http://www.w3.org/2000/svg" xmlns:xlink="http://www.w3.org/1999/xlink" x="0px" y="0px"
	 width="100px" height="100px" viewBox="0 0 100 100" enable-background="new 0 0 100 100" xml:space="preserve">
<path opacity="0" fill="#2C3E50" d="M100,92c0,4.418-3.582,8-8,8H8c-4.418,0-8-3.582-8-8V8c0-4.418,3.582-8,8-8h84
	c4.418,0,8,3.582,8,8V92z"/>
<path opacity="0" fill="#231F20" enable-background="new    " d="M70.333,100H92c4.418,0,8-3.582,8-8V55.333L72.61,30.422
	c0,0,9.743,25.911-2.767,40.244S35.921,77.79,35.921,77.79L70.333,100z"/>
<g>
	<path fill="#E74C3C" d="M49.327,69.879c-9.598,0-17.406-8.708-17.406-19.411s7.809-19.41,17.406-19.41
		c9.599,0,17.406,8.708,17.406,19.411S58.926,69.879,49.327,69.879z M49.327,38.071c-5.732,0-10.395,5.561-10.395,12.398
		c0,6.836,4.663,12.398,10.395,12.398s10.395-5.562,10.395-12.398C59.722,43.631,55.058,38.071,49.327,38.071z"/>
	<path fill="#E74C3C" d="M49.253,85.574c-17.179,0-31.156-15.749-31.156-35.107s13.977-35.105,31.156-35.105
		c17.181,0,31.156,15.749,31.156,35.105C80.41,69.825,66.434,85.574,49.253,85.574z M49.253,22.876
		c-13.036,0-23.642,12.378-23.642,27.593s10.606,27.593,23.642,27.593s23.644-12.378,23.644-27.593S62.291,22.876,49.253,22.876z"/>
	<path fill="#E74C3C" d="M49.327,100.017c-24.751,0-44.886-22.433-44.886-50.008S24.576,0,49.327,0s44.886,22.434,44.886,50.008
		S74.078,100.017,49.327,100.017z M49.327,7.99c-20.331,0-36.872,18.849-36.872,42.018s16.542,42.018,36.872,42.018
		s36.872-18.849,36.872-42.018S69.658,7.99,49.327,7.99z"/>
</g>
</svg>
