<?xml version="1.0" encoding="utf-8"?>
<!-- Generator: Adobe Illustrator 17.0.2, SVG Export Plug-In . SVG Version: 6.00 Build 0)  -->
<!DOCTYPE svg PUBLIC "-//W3C//DTD SVG 1.1//EN" "http://www.w3.org/Graphics/SVG/1.1/DTD/svg11.dtd">
<svg version="1.1" id="Layer_1" xmlns="http://www.w3.org/2000/svg" xmlns:xlink="http://www.w3.org/1999/xlink" x="0px" y="0px"
	 width="100px" height="100px" viewBox="0 0 100 100" enable-background="new 0 0 100 100" xml:space="preserve">
<path opacity="0" fill="#2C3E50" d="M100,92c0,4.418-3.582,8-8,8H8c-4.418,0-8-3.582-8-8V8c0-4.418,3.582-8,8-8h84
	c4.418,0,8,3.582,8,8V92z"/>
<path opacity="0" fill="#231F20" enable-background="new    " d="M68.5,100H92c4.418,0,8-3.582,8-8V33.833L68.468,20.828
	l-17.634,4.338L50,38.5l9,5.167l0.667,31.667l-31.829,3.494L68.5,100z"/>
<path fill="#2C3E50" d="M96.105,30.785h-21.64h-7.37h-10.32V14.323h24.432c1.645,0,2.979-1.334,2.979-2.979v-7.37
	c0-1.645-1.334-2.979-2.979-2.979h-62.19c-1.645,0-2.979,1.334-2.979,2.979v7.37c0,1.645,1.334,2.979,2.979,2.979h24.43v16.464
	H32.755h-7.37H4.119c-1.645,0-2.979,1.334-2.979,2.979v6.85v0.519v33.371c0,1.645,1.334,2.979,2.979,2.979h7.37
	c1.645,0,2.979-1.334,2.979-2.979V44.115h7.939v41.788h-7.86c-1.645,0-2.979,1.334-2.979,2.979v7.37
	c0,1.645,1.334,2.979,2.979,2.979h71.131c1.645,0,2.979-1.334,2.979-2.979v-7.37c0-1.645-1.334-2.979-2.979-2.979h-8.232V44.115
	h8.311v30.39c0,1.645,1.334,2.979,2.979,2.979h7.37c1.645,0,2.979-1.334,2.979-2.979V41.135v-0.519v-6.85
	C99.084,32.12,97.75,30.785,96.105,30.785z M64.117,85.903H35.735V44.115h7.713v30.39c0,1.645,1.334,2.979,2.979,2.979h7.37
	c1.645,0,2.979-1.334,2.979-2.979v-30.39h7.34L64.117,85.903L64.117,85.903z"/>
</svg>
