<?xml version="1.0" encoding="utf-8"?>
<!-- Generator: Adobe Illustrator 17.0.2, SVG Export Plug-In . SVG Version: 6.00 Build 0)  -->
<!DOCTYPE svg PUBLIC "-//W3C//DTD SVG 1.1//EN" "http://www.w3.org/Graphics/SVG/1.1/DTD/svg11.dtd">
<svg version="1.1" id="Layer_1" xmlns="http://www.w3.org/2000/svg" xmlns:xlink="http://www.w3.org/1999/xlink" x="0px" y="0px"
	 width="100px" height="100px" viewBox="0 0 100 100" enable-background="new 0 0 100 100" xml:space="preserve">
<path opacity="0" fill="#2980B9" d="M100,92c0,4.418-3.582,8-8,8H8c-4.418,0-8-3.582-8-8V8c0-4.418,3.582-8,8-8h84
	c4.418,0,8,3.582,8,8V92z"/>
<path opacity="0" fill="#231F20" enable-background="new    " d="M61.333,100H92c4.418,0,8-3.582,8-8V45.333L70.378,22.741
	l2.018,13.867l-3.921,13.006c0,0,6.343,17.974,1.401,23.636C64.502,79.405,50,70.195,50,70.195l-17.213,9.351L61.333,100z"/>
<path fill="#2ECC71" d="M79.577,50c6.577-4.506,11.044-13.222,11.044-23.212c0-14.599-9.535-26.476-21.255-26.476
	c-9.055,0-16.799,7.091-19.857,17.046C46.452,7.403,38.706,0.312,29.653,0.312c-11.72,0-21.255,11.877-21.255,26.476
	c0,9.992,4.468,18.706,11.044,23.212C12.866,54.506,8.398,63.222,8.398,73.212c0,14.599,9.535,26.476,21.255,26.476
	c9.055,0,16.799-7.091,19.857-17.046c3.058,9.955,10.804,17.046,19.857,17.046c11.72,0,21.255-11.877,21.255-26.476
	C90.621,63.222,86.154,54.506,79.577,50z M69.366,8.142c7.403,0,13.424,8.365,13.424,18.644c0,7.379-3.102,13.768-7.589,16.789
	c1.379-1.975,2.226-4.59,2.226-7.467c0-6.144-3.829-11.125-8.55-11.125c-4.721,0-8.55,4.982-8.55,11.125
	c0,2.177,0.488,4.202,1.319,5.917c-3.446-3.378-5.702-8.946-5.702-15.237C55.943,16.506,61.965,8.142,69.366,8.142z M29.653,8.142
	c7.403,0,13.424,8.365,13.424,18.644c0,7.379-3.102,13.768-7.589,16.789c1.379-1.975,2.226-4.59,2.226-7.467
	c0-6.144-3.829-11.125-8.55-11.125c-4.723,0-8.55,4.982-8.55,11.125c0,2.177,0.488,4.202,1.319,5.917
	c-3.446-3.378-5.702-8.946-5.702-15.237C16.229,16.506,22.25,8.142,29.653,8.142z M35.488,90.001
	c1.379-1.975,2.226-4.59,2.226-7.467c0-6.144-3.829-11.125-8.55-11.125c-4.723,0-8.55,4.982-8.55,11.125
	c0,2.177,0.488,4.202,1.319,5.917c-3.446-3.378-5.702-8.946-5.702-15.237c0-10.28,6.022-18.644,13.424-18.644
	s13.424,8.365,13.424,18.644C43.077,80.591,39.975,86.98,35.488,90.001z M49.51,63.782C47.701,57.894,44.255,53.008,39.863,50
	c4.392-3.008,7.838-7.894,9.646-13.782c1.809,5.888,5.255,10.774,9.646,13.782C54.764,53.008,51.318,57.894,49.51,63.782z
	 M75.201,90.001c1.379-1.975,2.226-4.59,2.226-7.467c0-6.144-3.829-11.125-8.55-11.125c-4.721,0-8.55,4.982-8.55,11.125
	c0,2.177,0.488,4.202,1.319,5.917c-3.446-3.378-5.702-8.946-5.702-15.237c0-10.28,6.022-18.644,13.424-18.644
	c7.403,0,13.424,8.365,13.424,18.644C82.79,80.591,79.688,86.98,75.201,90.001z"/>
</svg>
