<?xml version="1.0" encoding="utf-8"?>
<!-- Generator: Adobe Illustrator 17.0.2, SVG Export Plug-In . SVG Version: 6.00 Build 0)  -->
<!DOCTYPE svg PUBLIC "-//W3C//DTD SVG 1.1//EN" "http://www.w3.org/Graphics/SVG/1.1/DTD/svg11.dtd">
<svg version="1.1" id="Layer_1" xmlns="http://www.w3.org/2000/svg" xmlns:xlink="http://www.w3.org/1999/xlink" x="0px" y="0px"
	 width="100px" height="224.333px" viewBox="0 0 100 224.333" enable-background="new 0 0 100 224.333" xml:space="preserve">
<path fill="#27AE60" d="M79.147,110.86c-0.618-14.312-7.128-20.876-10.145-27.605c-3.168-7.067-7.043-68.567-7.043-68.567h-0.125
	c1.519,0,2.75-1.231,2.75-2.75s-1.231-2.75-2.75-2.75H50.211h-0.422H38.167c-1.519,0-2.75,1.231-2.75,2.75s1.231,2.75,2.75,2.75
	h-0.125c0,0-3.875,61.5-7.043,68.567c-3.017,6.729-9.527,13.293-10.145,27.605c-0.092,0.485-0.145,0.983-0.145,1.494v102
	c0,4.418,3.582,8,8,8h21.083h0.5h21c4.418,0,8-3.582,8-8v-102C79.292,111.843,79.239,111.345,79.147,110.86z"/>
<path fill="#2ECC71" d="M67.831,110.86c-0.258-9.902-2.805-18.048-4.785-21.201c-1.979-3.153-6.833-4.868-6.833-5.993
	s4.082-2.55,3.891-4.414c-1.592-15.535-2.662-64.565-2.662-64.565h-0.076c0.918,0,1.662-1.231,1.662-2.75s-0.744-2.75-1.662-2.75
	h-6.942H50.13h-0.128h-0.294h-6.942c-0.918,0-1.662,1.231-1.662,2.75s0.744,2.75,1.662,2.75H42.69c0,0-1.07,49.03-2.662,64.565
	c-0.191,1.864,3.891,3.289,3.891,4.414s-4.854,2.84-6.833,5.993s-4.526,11.298-4.785,21.201c-0.056,0.485-0.088,0.983-0.088,1.494
	v102c0,4.418,2.165,8,4.836,8h12.578h0.378h0.122h0.378h12.578c2.67,0,4.836-3.582,4.836-8v-102
	C67.918,111.843,67.886,111.345,67.831,110.86z"/>
<path fill="#27AE60" d="M61.25,3.313H49.833H38.75c-1.795,0-3.25,1.315-3.25,2.938s1.455,2.937,3.25,2.937h22.5
	c1.795,0,3.25-1.314,3.25-2.937S63.045,3.313,61.25,3.313z"/>
<path opacity="0.2" enable-background="new    " d="M61.25,3.313H49.833H38.75c-1.795,0-3.25,1.315-3.25,2.938
	s1.455,2.937,3.25,2.937h22.5c1.795,0,3.25-1.314,3.25-2.937S63.045,3.313,61.25,3.313z"/>
<path opacity="0.2" fill="#FFFFFF" enable-background="new    " d="M67.913,110.735c-0.258-9.902-2.805-18.048-4.785-21.201
	c-1.979-3.153-6.833-4.868-6.833-5.993s4.082-2.55,3.891-4.414c-1.592-15.535-2.662-64.565-2.662-64.565h-0.076
	c0.918,0,1.662-1.231,1.662-2.75s-0.744-2.75-1.662-2.75h-6.942h-0.058c0.918,0,1.662,1.231,1.662,2.75s-0.744,2.75-1.662,2.75
	h0.076c0,0,1.07,49.03,2.662,64.565c0.191,1.864-3.891,3.289-3.891,4.414s4.854,2.84,6.833,5.993
	c1.98,3.153,4.527,11.299,4.785,21.201c0.055,0.485,0.087,0.983,0.088,1.494v102c0,4.418-2.166,8-4.836,8h7
	c2.67,0,4.836-3.582,4.836-8v-102C68.001,111.719,67.968,111.221,67.913,110.735z"/>
<path fill="#27AE60" d="M59.25,80.89c-0.622,0.446-1.431,0.506-1.431,0.506h-6.944h-1.639h-6.944c0,0-0.809-0.061-1.431-0.506
	c-1.332-0.954-3.026,6.597-0.271,5.453c1.581-0.656,3.577-0.843,3.577-0.843h4.882h2.013h4.882c0,0,1.996,0.186,3.577,0.843
	C62.277,87.487,60.582,79.936,59.25,80.89z"/>
<path opacity="0.1" enable-background="new    " d="M79.105,110.943c-0.618-14.312-7.128-20.876-10.145-27.605
	c-2.065-4.606-4.376-31.609-5.773-50.362c0,0-2.438-0.726-13.169-0.726c-10.73,0-13.231,0.799-13.231,0.799
	c-1.397,18.754-3.766,45.684-5.83,50.29c-3.017,6.729-9.527,13.293-10.145,27.605c-0.092,0.485-0.145,0.983-0.145,1.494v102
	c0,4.418,3.582,8,8,8H49.75h0.5h21c4.418,0,8-3.582,8-8v-102C79.25,111.926,79.197,111.428,79.105,110.943z"/>
<path opacity="0.1" enable-background="new    " d="M63.296,32.974c0,0.446-5.921,0.515-13.23,0.515s-13.24-0.068-13.24-0.515
	s5.926-0.808,13.235-0.808S63.296,32.528,63.296,32.974z"/>
<path fill="#BDC3C7" d="M65.564,60.304h-6.728c0,0-3.502,3.5-8.836,3.5s-8.704-3.5-8.704-3.5h-6.884l3.345-40.231l24.494,0.083
	L65.564,60.304z"/>
<path fill="#FFFFFF" d="M65.402,58.667h-6.566c0,0-3.502,3.5-8.836,3.5s-8.704-3.5-8.704-3.5h-6.697l3.158-40.231l24.494,0.083
	L65.402,58.667z"/>
<path fill="#1A9250" d="M65.178,56.315h-6.442c0,0-3.106,4-8.733,4s-8.606-4-8.606-4h-6.555l3.072-39.638h24.174L65.178,56.315z"/>
<g opacity="0.2" enable-background="new    ">
	<path d="M36.992,133.6c-0.241,0.325-0.23,0.645-0.131,0.941c0.073,0.195,0.024,0.376-0.051,0.56
		c-0.161,0.314-0.31,0.666-0.023,0.96c0.136,0.139,0.253,0.192,0.384,0.204c0.211,0.009,0.421,0.012,0.632,0.016l-0.72-2.775
		C37.05,133.535,37.02,133.566,36.992,133.6z"/>
	<path d="M38.049,136.837c0.051-0.02,0.101-0.045,0.151-0.125c0.053-0.105,0.076-0.226-0.065-0.363
		c-0.054-0.045-0.121-0.066-0.185-0.065c-0.049-0.001-0.099-0.002-0.148-0.003l0.148,0.573
		C37.984,136.854,38.018,136.849,38.049,136.837z"/>
	<path d="M40.252,138.003c0.04,0.064,0.08,0.126,0.156,0.183c0.295,0.18,0.555,0.191,0.805-0.041
		c0.182-0.172,0.235-0.335,0.39-0.487c0.118-0.121,0.228-0.162,0.34-0.184c0.217-0.04,0.43-0.136,0.619-0.359
		c0.165-0.209,0.197-0.413,0.187-0.61c-0.003-0.043-0.01-0.087-0.019-0.129l-2.844,1.028L40.252,138.003z"/>
	<path d="M39.395,135.454c-0.017,0.029-0.029,0.06-0.035,0.093c-0.01,0.084-0.012,0.167,0.097,0.27
		c0.107,0.081,0.23,0.103,0.368-0.001c0.025-0.022,0.047-0.048,0.063-0.077c0.026-0.042,0.051-0.085,0.077-0.127L39.395,135.454
		L39.395,135.454L39.395,135.454z"/>
	<path d="M42.385,135.858c-0.065-0.049-0.136-0.09-0.21-0.122c-0.199-0.091-0.402-0.063-0.572-0.253
		c-0.124-0.127-0.209-0.278-0.302-0.394c-0.286-0.341-0.568-0.298-0.821-0.178c-0.067,0.032-0.146,0.103-0.185,0.162
		c-0.114,0.18-0.221,0.36-0.33,0.539l2.763,0.764C42.693,136.198,42.586,136.008,42.385,135.858z"/>
	<path d="M39.395,135.454L39.395,135.454l0.334-0.617c0.142-0.233,0.095-0.493-0.047-0.704c-0.201-0.224-0.382-0.223-0.561-0.243
		c-0.236-0.024-0.485-0.014-0.695-0.253c-0.052-0.062-0.111-0.119-0.176-0.167c-0.378-0.262-0.732-0.257-1.065-0.046
		c-0.036,0.025-0.07,0.052-0.102,0.081L39.395,135.454L39.395,135.454z"/>
	<path d="M37.25,136.872c-0.133,0.001-0.254,0.027-0.39,0.14c-0.252,0.211-0.258,0.425-0.214,0.621
		c0.078,0.306,0.355,0.657,0.216,0.967c-0.11,0.331-0.093,0.641,0.131,0.941c0.104,0.123,0.203,0.191,0.305,0.241
		c0.039,0.019,0.08,0.035,0.121,0.048l0.532-2.977L37.25,136.872z"/>
	<path d="M46.833,122.931c-0.055,0.017-0.115,0.092-0.122,0.143c-0.006,1.032,0.002,2.059,0.003,3.088
		c-0.009,0.057,0.001,0.117,0.028,0.168c0.041,0.072,0.082,0.095,0.125,0.116l0.363,0.102c0.021,0.006,0.04,0.016,0.058,0.028
		c0.12,0.11,0.091,0.204,0.028,0.284c-0.297,0.242-0.416,0.478-0.532,0.734c-0.242,0.545-0.29,1.091-0.28,1.629
		c0.02,0.431,0.066,0.861,0.266,1.281c0.18,0.378,0.415,0.729,0.696,1.039s0.608,0.579,0.966,0.794
		c0.359,0.216,0.749,0.378,1.154,0.482c0.267,0.071,0.54,0.121,0.814,0.151c0.544,0.063,1.133,0.027,1.619-0.06
		c0.24-0.043,0.446-0.094,0.647-0.16c0.201-0.066,0.397-0.147,0.586-0.243c0.189-0.095,0.371-0.205,0.512-0.303
		c0.141-0.098,0.242-0.185,0.336-0.279c0.094-0.094,0.181-0.194,0.26-0.3c0.246-0.339,0.373-0.639,0.487-0.975
		c0.302-0.921,0.252-1.839-0.187-2.716c-0.111-0.215-0.292-0.425-0.457-0.646c-0.124-0.155-0.165-0.335-0.074-0.475
		c0.057-0.062,0.118-0.086,0.175-0.097c0.762-0.005,1.521-0.01,2.281-0.015c0.339-0.005,0.693,0.051,0.997,0.221
		c0.184,0.1,0.351,0.233,0.489,0.39c0.139,0.157,0.249,0.339,0.325,0.534c0.217,0.583,0.193,1.168-0.022,1.701
		c-0.073,0.2-0.177,0.388-0.306,0.558s-0.284,0.319-0.457,0.442s-0.365,0.22-0.568,0.287c-0.202,0.066-0.414,0.102-0.627,0.106
		l0.047,1.005c0.236,0.046,0.467,0.115,0.69,0.205s0.437,0.202,0.637,0.333c0.201,0.132,0.388,0.283,0.556,0.44
		c0.169,0.157,0.318,0.319,0.461,0.487c0.143,0.168,0.278,0.342,0.405,0.522c0.127,0.18,0.245,0.366,0.364,0.576
		s0.24,0.445,0.349,0.684c0.225,0.491,0.398,0.99,0.524,1.488c0.177,0.687,0.309,1.386,0.395,2.09
		c0.087,0.704,0.128,1.414,0.12,2.123c-0.007,0.709-0.063,1.417-0.14,2.047c-0.076,0.63-0.173,1.181-0.283,1.729
		s-0.234,1.093-0.365,1.625s-0.269,1.049-0.413,1.566c-0.143,0.517-0.292,1.032-0.487,1.691s-0.438,1.462-0.683,2.264
		s-0.493,1.603-0.657,2.14c-0.165,0.537-0.246,0.811-0.324,1.085c-0.078,0.275-0.153,0.55-0.3,1.153
		c-0.148,0.603-0.368,1.533-0.543,2.472c-0.174,0.939-0.302,1.887-0.386,2.838c-0.084,0.952-0.123,1.907-0.134,2.627
		c-0.01,0.721,0.009,1.206,0.045,1.691s0.089,0.968,0.183,1.568c0.094,0.6,0.23,1.318,0.401,2.027s0.377,1.41,0.616,2.1
		c0.239,0.69,0.51,1.368,0.845,2.106c0.335,0.738,0.735,1.537,1.163,2.32c0.428,0.783,0.883,1.551,1.365,2.302
		c0.482,0.751,0.991,1.484,1.526,2.198c1.304-2.467,2.609-4.935,3.913-7.402c-0.355-0.343-0.696-0.701-1.02-1.073
		s-0.632-0.759-0.922-1.158c-0.29-0.399-0.563-0.811-0.824-1.244s-0.512-0.887-0.745-1.349c-0.233-0.462-0.449-0.934-0.614-1.326
		c-0.166-0.392-0.282-0.705-0.386-1.021c-0.104-0.317-0.197-0.637-0.277-0.96c-0.08-0.323-0.148-0.65-0.216-1.048
		c-0.067-0.398-0.134-0.868-0.188-1.339c-0.054-0.471-0.095-0.944-0.12-1.378c-0.025-0.434-0.034-0.831-0.028-1.227
		c0.006-0.396,0.027-0.792,0.101-1.471c0.074-0.679,0.203-1.641,0.362-2.598s0.348-1.909,0.5-2.683s0.267-1.371,0.381-1.967
		c0.115-0.597,0.229-1.193,0.36-1.9c0.132-0.706,0.281-1.523,0.399-2.344c0.194-1.356,0.319-2.729,0.306-4.08
		c-0.008-0.535-0.047-1.07-0.085-1.605c-0.115-1.237-0.374-2.473-0.77-3.681c-0.195-0.598-0.421-1.186-0.71-1.778
		c-0.289-0.592-0.642-1.188-1.057-1.738s-0.892-1.054-1.417-1.501s-1.099-0.837-1.707-1.162c0.219-0.083,0.43-0.186,0.631-0.306
		s0.391-0.258,0.567-0.412c0.176-0.154,0.339-0.323,0.486-0.505c0.267-0.333,0.433-0.665,0.546-0.996
		c0.118-0.356,0.194-0.726,0.224-1.1c0.059-0.739-0.058-1.521-0.353-2.185c-0.147-0.328-0.337-0.62-0.571-0.873
		c-0.233-0.253-0.51-0.467-0.813-0.63c-0.304-0.163-0.634-0.275-0.974-0.332c-0.31-0.046-0.621-0.074-0.933-0.073l-8.497-0.018
		c-0.12,0.004-0.241-0.035-0.336-0.165c-0.025-0.036-0.043-0.076-0.055-0.118l-0.131-0.552c-0.005-0.028-0.015-0.055-0.028-0.08
		c-0.079-0.124-0.136-0.127-0.202-0.143l-0.296-0.001C46.874,122.918,46.853,122.923,46.833,122.931z M51.855,126.808
		c0.193,0.067,0.375,0.167,0.535,0.295s0.297,0.283,0.406,0.457c0.157,0.24,0.252,0.505,0.287,0.769
		c0.018,0.137,0.021,0.275,0.014,0.398c-0.014,0.234-0.064,0.433-0.159,0.643c-0.045,0.099-0.1,0.193-0.162,0.282
		c-0.065,0.086-0.138,0.167-0.217,0.242c-0.538,0.499-1.143,0.555-1.729,0.534c-0.27-0.013-0.543-0.042-0.814-0.101
		c-0.134-0.028-0.266-0.063-0.369-0.093c-0.193-0.057-0.31-0.11-0.457-0.191c-0.182-0.103-0.36-0.234-0.542-0.438
		c-0.499-0.564-0.531-1.138-0.355-1.738c0.058-0.184,0.149-0.369,0.284-0.547c0.091-0.127,0.203-0.239,0.33-0.331
		c0.262-0.191,0.576-0.283,0.88-0.279l1.467-0.002C51.457,126.708,51.661,126.741,51.855,126.808z"/>
	<path d="M56.595,176.219c-0.115-0.079-0.249-0.108-0.402,0.031c-0.097,0.115-0.124,0.25-0.007,0.403
		c0.552,0.662,1.003,1.33,1.38,2.002c0.246,0.447,0.448,0.917,0.602,1.403s0.26,0.987,0.315,1.494
		c0.056,0.507,0.061,1.019,0.015,1.567s-0.143,1.133-0.297,1.703s-0.365,1.124-0.628,1.653c-0.263,0.528-0.578,1.031-0.922,1.482
		c-0.343,0.451-0.716,0.851-1.121,1.212c-0.406,0.362-0.846,0.685-1.313,0.963c-0.942,0.561-1.931,0.912-2.887,1.085
		c-0.482,0.09-0.971,0.143-1.461,0.159c-0.49,0.016-0.981-0.007-1.453-0.065s-0.926-0.151-1.368-0.284
		c-0.442-0.134-0.871-0.308-1.282-0.519c-0.41-0.212-0.801-0.46-1.154-0.73c-0.353-0.27-0.667-0.561-0.954-0.876
		s-0.548-0.655-0.779-1.013c-0.231-0.359-0.431-0.737-0.591-1.129c-0.323-0.792-0.475-1.633-0.459-2.464
		c0.009-0.42,0.061-0.839,0.14-1.216c0.08-0.378,0.188-0.714,0.326-1.037s0.307-0.633,0.504-0.924
		c0.197-0.291,0.422-0.563,0.67-0.812l-6.815-4.891l-0.01,14.603c0.497,0.58,1.033,1.128,1.602,1.638s1.172,0.982,1.804,1.413
		c0.631,0.431,1.291,0.82,1.945,1.149s1.302,0.596,1.966,0.814c2.044,0.664,4.161,0.875,6.273,0.563
		c0.356-0.053,0.709-0.122,1.059-0.205c0.785-0.195,1.549-0.473,2.276-0.829c0.726-0.356,1.415-0.789,2.05-1.29
		c0.635-0.501,1.216-1.07,1.731-1.694c0.22-0.262,0.43-0.533,0.628-0.812c0.198-0.279,0.386-0.566,0.561-0.859
		c0.175-0.294,0.339-0.595,0.49-0.902c0.269-0.556,0.49-1.136,0.661-1.729c0.343-1.191,0.48-2.437,0.407-3.667
		c-0.053-0.93-0.225-1.854-0.512-2.74c-0.287-0.886-0.69-1.735-1.194-2.518C57.888,177.566,57.282,176.848,56.595,176.219z"/>
	<path d="M39.822,137.328c-0.107-0.082-0.23-0.104-0.368-0.001c-0.111,0.104-0.133,0.227-0.062,0.363
		c0.024,0.043,0.048,0.086,0.072,0.13l0.422-0.415C39.868,137.376,39.847,137.349,39.822,137.328z"/>
	<path d="M46.553,175.591c0.004,0.212,0.042,0.5,0.118,0.752c0.111,0.345,0.23,0.673,0.601,1.016
		c0.131,0.122,0.296,0.105,0.459-0.042c0.054-0.054,0.116-0.157,0.097-0.22c-0.114-0.253-0.253-0.517-0.048-0.762
		c0.079-0.093,0.198-0.173,0.309-0.206c0.062-0.019,0.126-0.031,0.191-0.031h2.391c0.234,0.23,0.46,0.468,0.678,0.714
		c0.218,0.246,0.427,0.499,0.626,0.759c0.199,0.261,0.389,0.529,0.496,0.684s0.132,0.198,0.154,0.242
		c0.102,0.209,0.138,0.415,0.119,0.657c-0.011,0.089-0.034,0.155-0.108,0.236c-0.113,0.108-0.242,0.149-0.371,0.149l-4.473,0.001
		c-0.077,0-0.162-0.021-0.24-0.089c-0.072-0.063-0.11-0.146-0.12-0.226l-0.037-0.373c0.004-0.08-0.088-0.21-0.176-0.231
		c-0.113-0.032-0.231-0.009-0.346-0.015c-0.07,0.001-0.134,0.002-0.219,0.105c-0.034,0.047-0.05,0.104-0.047,0.159
		c0,0.805-0.006,1.61-0.001,2.416c0.01,0.089,0.004,0.172,0.056,0.269c0.035,0.058,0.085,0.09,0.134,0.107l0.387,0.133
		c0.033,0.013,0.064,0.033,0.09,0.057c0.106,0.111,0.131,0.241,0.03,0.39c-0.469,0.565-0.642,1.134-0.729,1.709
		c-0.087,0.639-0.022,1.304,0.243,1.967c0.083,0.207,0.184,0.406,0.302,0.595c0.117,0.189,0.251,0.368,0.4,0.534
		c0.15,0.161,0.313,0.31,0.487,0.446c0.174,0.135,0.358,0.257,0.551,0.363c0.619,0.341,1.287,0.495,1.953,0.525
		c0.551,0.017,1.101-0.039,1.655-0.177c0.158-0.04,0.315-0.087,0.456-0.137c0.266-0.096,0.498-0.214,0.738-0.378
		c0.3-0.212,0.617-0.501,0.838-0.774c0.826-1.042,0.999-2.107,0.756-3.212c-0.048-0.18-0.137-0.366-0.265-0.53
		c-0.13-0.171-0.339-0.383-0.524-0.527c-0.181-0.143-0.213-0.318-0.118-0.513c0.056-0.098,0.138-0.152,0.219-0.179
		c0.122-0.044,0.244-0.091,0.366-0.14c0.088-0.041,0.168-0.098,0.236-0.168c0.144-0.148,0.219-0.339,0.228-0.522
		c0.023-0.22,0.007-0.45-0.054-0.673c-0.03-0.109-0.07-0.215-0.139-0.364c-0.138-0.296-0.368-0.715-0.611-1.073
		c-0.12-0.178-0.246-0.351-0.38-0.519c-0.654-0.794-1.328-1.583-2.022-2.367l2.97-0.003c0.045-0.003,0.085-0.006,0.138-0.071
		c0.022-0.03,0.032-0.066,0.032-0.101l-0.001-3.195c-0.002-0.046-0.004-0.087-0.069-0.142c-0.031-0.022-0.067-0.033-0.103-0.032
		h-0.345c-0.067,0.004-0.127-0.003-0.212,0.117c-0.014,0.024-0.024,0.052-0.028,0.079l-0.058,0.374
		c-0.01,0.052-0.029,0.102-0.057,0.147c-0.11,0.171-0.253,0.219-0.396,0.222l-4.592-0.007c-0.166-0.003-0.335-0.039-0.504-0.118
		c-0.069-0.031-0.135-0.07-0.194-0.117c-0.167-0.139-0.283-0.306-0.289-0.472c0.001-0.067,0.021-0.141,0.083-0.209
		c0.128-0.129,0.301-0.143,0.462-0.011c0.204,0.132,0.437,0.171,0.664,0.123c0.11-0.026,0.217-0.068,0.314-0.126
		c0.097-0.058,0.186-0.131,0.261-0.215c0.075-0.085,0.137-0.181,0.189-0.297c0.164-0.364,0.199-0.817,0.042-1.234
		c-0.051-0.137-0.122-0.271-0.212-0.391c-0.09-0.12-0.199-0.226-0.322-0.312c-0.377-0.264-0.829-0.32-1.252-0.314
		c-0.154,0.001-0.309,0.021-0.458,0.061c-0.149,0.039-0.294,0.098-0.428,0.173c-0.135,0.075-0.26,0.168-0.372,0.274
		c-0.129,0.136-0.241,0.289-0.332,0.453c-0.266,0.485-0.34,1.023-0.229,1.559c0.036,0.157,0.092,0.309,0.166,0.452
		c0.178,0.353,0.49,0.624,0.792,0.925c0.083,0.094,0.113,0.207,0.041,0.326c-0.084,0.102-0.204,0.096-0.306,0.164
		c-0.124,0.069-0.256,0.163-0.386,0.32c-0.159,0.196-0.225,0.364-0.282,0.569c-0.02,0.076-0.035,0.154-0.046,0.232
		C46.556,175.407,46.551,175.486,46.553,175.591z M51.855,182.291c0.183,0.064,0.355,0.159,0.507,0.28
		c0.151,0.121,0.282,0.268,0.384,0.433c0.149,0.228,0.239,0.479,0.272,0.728c0.017,0.129,0.02,0.261,0.013,0.377
		c-0.021,0.31-0.101,0.58-0.304,0.876c-0.062,0.082-0.131,0.159-0.206,0.229c-0.51,0.472-1.082,0.526-1.638,0.506
		c-0.255-0.012-0.514-0.04-0.771-0.095c-0.127-0.027-0.252-0.06-0.35-0.088c-0.183-0.054-0.294-0.104-0.433-0.181
		c-0.172-0.098-0.341-0.222-0.513-0.414c-0.473-0.534-0.503-1.078-0.337-1.646c0.055-0.174,0.141-0.35,0.269-0.518
		c0.087-0.12,0.193-0.227,0.312-0.314c0.248-0.181,0.546-0.269,0.833-0.265l1.39-0.002
		C51.478,182.195,51.672,182.227,51.855,182.291z"/>
	<path d="M38.427,139.505c0.066-0.078,0.136-0.125,0.206-0.159c0.361-0.163,0.735,0.012,1.05-0.337
		c0.148-0.232,0.17-0.424,0.083-0.634c-0.096-0.184-0.2-0.37-0.302-0.555l-2.043,2.011c0.13,0.043,0.261,0.051,0.387,0.031
		C38.024,139.822,38.237,139.727,38.427,139.505z"/>
	<path d="M41.423,157.969c0.073-0.017,0.15-0.123,0.149-0.188l0.029-0.377c0.002-0.098,0.041-0.201,0.121-0.278
		c0.037-0.036,0.082-0.065,0.13-0.084s0.1-0.028,0.152-0.028l10.787-0.01c0.461,0.004,0.94-0.129,1.339-0.419
		c0.193-0.139,0.364-0.31,0.503-0.503c0.139-0.193,0.247-0.409,0.318-0.636s0.101-0.466,0.101-0.704l0.007-2.199
		c0.001-0.287-0.053-0.574-0.156-0.842c-0.103-0.268-0.257-0.516-0.451-0.728c-0.194-0.212-0.428-0.387-0.685-0.514
		c-0.371-0.184-0.743-0.256-1.105-0.255l-1.361-0.002c0.288-0.64,0.51-1.288,0.674-1.946c0.45-0.093,0.899-0.262,1.321-0.512
		c0.204-0.121,0.398-0.259,0.579-0.412c0.203-0.163,0.389-0.349,0.553-0.552s0.305-0.424,0.421-0.657
		c0.116-0.234,0.206-0.48,0.271-0.733c0.065-0.254,0.105-0.515,0.125-0.777c0.043-0.516-0.01-1.083-0.117-1.53
		c-0.052-0.219-0.114-0.396-0.187-0.568s-0.158-0.34-0.254-0.5s-0.204-0.314-0.321-0.459c-0.118-0.145-0.246-0.282-0.383-0.409
		s-0.284-0.244-0.437-0.35c-0.154-0.106-0.315-0.201-0.483-0.285c-0.141-0.066-0.268-0.043-0.372,0.088
		c-0.089,0.144-0.065,0.271,0.044,0.38c0.176,0.154,0.335,0.327,0.474,0.514c0.139,0.188,0.259,0.39,0.355,0.603
		c0.192,0.427,0.283,0.854,0.275,1.234c-0.005,0.376-0.09,0.757-0.258,1.108c-0.098,0.184-0.224,0.354-0.371,0.501
		c-0.147,0.148-0.317,0.274-0.501,0.372c-0.184,0.099-0.382,0.17-0.587,0.212c-0.056-0.445-0.154-0.89-0.292-1.327
		c-0.199-0.646-0.543-1.384-1.091-1.956c-0.18-0.192-0.378-0.366-0.538-0.489s-0.282-0.194-0.41-0.252
		c-0.268-0.122-0.547-0.181-0.815-0.185c-0.29-0.417-0.528-0.838-0.777-1.253c-0.13-0.255-0.12-0.509-0.021-0.733
		c0.041-0.1,0.11-0.199,0.225-0.275c0.112-0.074,0.231-0.1,0.341-0.099l6.359-0.006l-0.001-3.713l-0.46-0.001
		c-0.035,0-0.069,0.006-0.101,0.018c-0.087,0.023-0.18,0.153-0.179,0.234l-0.051,0.424c-0.015,0.104-0.066,0.211-0.161,0.291
		c-0.103,0.086-0.214,0.112-0.314,0.111l-4.89-0.004c-0.046,0-0.091-0.005-0.135-0.016c-0.136-0.031-0.29-0.144-0.382-0.322
		c-0.119-0.245-0.085-0.488,0.055-0.686c0.203-0.286,0.364-0.584,0.441-0.808c0.047-0.147,0.067-0.298,0.062-0.443
		c-0.01-0.318-0.116-0.635-0.38-0.916c-0.083-0.091-0.172-0.176-0.267-0.254c-0.204-0.168-0.415-0.292-0.627-0.384
		c-0.263-0.112-0.542-0.188-0.825-0.226c-0.567-0.077-1.154,0.004-1.68,0.229c-0.173,0.079-0.338,0.177-0.489,0.293
		c-0.151,0.116-0.288,0.25-0.408,0.397s-0.223,0.309-0.307,0.48c-0.061,0.164-0.034,0.316,0.142,0.434
		c0.17,0.086,0.321,0.058,0.447-0.092c0.109-0.158,0.248-0.312,0.413-0.464c0.222-0.206,0.451-0.316,0.668-0.348
		c0.271-0.032,0.555-0.032,0.789,0.204c0.194,0.228,0.189,0.44,0.122,0.634c-0.094,0.187-0.211,0.372-0.364,0.554
		c-0.157,0.184-0.268,0.367-0.352,0.551c-0.151,0.327-0.054,0.667,0.146,0.939c0.081,0.107,0.182,0.198,0.296,0.269
		c0.114,0.071,0.241,0.12,0.373,0.146c0.267,0.038,0.536,0.031,0.798-0.019c0.084-0.018,0.169,0,0.24,0.059
		c0.169,0.18,0.13,0.348-0.012,0.476c-0.03,0.023-0.065,0.041-0.102,0.052c-0.265,0.07-0.554,0.186-0.782,0.382
		c-0.088,0.078-0.164,0.168-0.227,0.267c-0.062,0.099-0.11,0.207-0.143,0.32c-0.118,0.624,0.051,1.219,0.42,1.815
		c0.356,0.527,0.706,1.082,1.059,1.623c-0.184,0.091-0.356,0.206-0.511,0.341c-0.155,0.135-0.291,0.29-0.406,0.461
		c-0.114,0.17-0.206,0.356-0.273,0.55c-0.313,0.938-0.256,1.88,0.073,2.769c0.102,0.27,0.232,0.529,0.375,0.763
		s0.299,0.442,0.475,0.633c0.175,0.191,0.37,0.364,0.58,0.516c0.21,0.152,0.436,0.281,0.655,0.386
		c0.219,0.104,0.433,0.183,0.65,0.249c0.442,0.135,0.892,0.212,1.337,0.233c-0.145,0.63-0.399,1.255-0.804,1.86l-3.39,0.007
		l-0.003,2.933l2.205,0.006c0.224-0.006,0.447-0.082,0.643-0.275l0.764-0.957l2.488-0.003c0.164-0.006,0.335,0.041,0.478,0.139
		c0.07,0.048,0.131,0.107,0.182,0.174c0.275,0.409,0.269,0.804,0.219,1.192c-0.036,0.204-0.084,0.42-0.237,0.596
		c-0.062,0.074-0.134,0.138-0.215,0.191c-0.08,0.052-0.169,0.093-0.261,0.119c-0.092,0.026-0.189,0.038-0.285,0.038l-11.785,0.006
		l-0.008,3.597h0.455C41.368,157.982,41.396,157.978,41.423,157.969z M49.655,145.595c-0.235-0.071-0.462-0.166-0.678-0.283
		c-0.129-0.06-0.251-0.136-0.36-0.227s-0.207-0.197-0.288-0.314c-0.082-0.117-0.148-0.244-0.197-0.378
		c-0.071-0.227-0.088-0.463-0.058-0.686c0.03-0.196,0.077-0.408,0.246-0.565c0.068-0.065,0.148-0.118,0.235-0.155
		c0.087-0.036,0.181-0.056,0.275-0.059c0.339-0.02,0.649,0.037,0.994,0.254c0.235,0.149,0.489,0.378,0.668,0.629
		c0.092,0.128,0.171,0.264,0.243,0.414s0.136,0.312,0.189,0.478c0.109,0.34,0.17,0.685,0.186,1.026
		C50.622,145.784,50.124,145.737,49.655,145.595z"/>
	<path d="M41.39,170.091c0.097-0.025,0.201-0.177,0.193-0.271v-0.382c0.001-0.1,0.034-0.199,0.141-0.28
		c0.067-0.047,0.138-0.064,0.204-0.063l10.48-0.004c0.277,0,0.554-0.041,0.818-0.126s0.514-0.212,0.738-0.374
		s0.422-0.361,0.585-0.586c0.162-0.224,0.289-0.475,0.373-0.739c0.084-0.264,0.124-0.541,0.124-0.818l0.006-5.439
		c0.001-0.601-0.151-1.191-0.573-1.753c-0.135-0.174-0.299-0.342-0.486-0.48s-0.396-0.247-0.616-0.323
		c-0.457-0.158-0.948-0.161-1.369-0.042c-0.218,0.061-0.42,0.155-0.604,0.277c-0.184,0.122-0.349,0.271-0.488,0.442
		s-0.252,0.363-0.334,0.567l-0.802,1.842c-0.048,0.12-0.163,0.25-0.254,0.307c-0.324,0.196-0.644,0.168-0.906-0.111
		c-0.032-0.042-0.061-0.086-0.088-0.131c-0.229-0.405-0.214-0.764-0.148-1.195c0.03-0.177,0.073-0.353,0.132-0.527
		c0.087-0.302,0.235-0.598,0.496-0.879l-2.324-1.052l-0.004,4.17c0.007,0.442,0.102,0.91,0.362,1.305
		c0.103,0.157,0.229,0.298,0.373,0.418s0.305,0.218,0.474,0.295c0.353,0.161,0.721,0.226,1.074,0.216
		c0.323-0.015,0.642-0.058,0.948-0.272c0.131-0.087,0.289-0.25,0.448-0.445c0.182-0.224,0.326-0.455,0.441-0.688l0.777-1.424
		c0.05-0.1,0.124-0.198,0.236-0.279c0.05-0.036,0.104-0.066,0.161-0.089c0.387-0.142,0.786-0.155,1.131,0.071
		c0.09,0.06,0.17,0.134,0.237,0.219c0.36,0.523,0.361,1.035,0.256,1.526c-0.077,0.324-0.237,0.662-0.483,0.933
		c-0.139,0.154-0.303,0.287-0.483,0.391s-0.376,0.18-0.579,0.225c-0.011,0.204,0.04,0.416,0.152,0.598
		c0.055,0.089,0.123,0.169,0.201,0.238c0.032-0.04,0.068-0.077,0.106-0.11c0.385-0.307,0.774-0.306,1.089,0.029
		c0.039,0.047,0.072,0.099,0.098,0.154c0.105,0.285,0.059,0.551-0.167,0.787c-0.051,0.049-0.11,0.091-0.173,0.124
		c-0.213,0.105-0.409,0.09-0.61,0.098l-11.891-0.002l-0.006,3.671l0.417-0.001C41.314,170.112,41.353,170.105,41.39,170.091z"/>
</g>
<g>
	<path fill="#66CC99" d="M35.992,132.6c-0.241,0.325-0.23,0.645-0.131,0.941c0.073,0.195,0.024,0.376-0.051,0.56
		c-0.161,0.314-0.31,0.666-0.023,0.96c0.136,0.139,0.253,0.192,0.384,0.204c0.211,0.009,0.421,0.012,0.632,0.016l-0.72-2.775
		C36.05,132.535,36.02,132.566,35.992,132.6z"/>
	<path fill="#66CC99" d="M37.049,135.837c0.051-0.02,0.101-0.045,0.151-0.125c0.053-0.105,0.076-0.226-0.065-0.363
		c-0.054-0.045-0.121-0.066-0.185-0.065c-0.049-0.001-0.099-0.002-0.148-0.003l0.148,0.573
		C36.984,135.854,37.018,135.849,37.049,135.837z"/>
	<path fill="#66CC99" d="M39.252,137.003c0.04,0.064,0.08,0.126,0.156,0.183c0.295,0.18,0.555,0.191,0.805-0.041
		c0.182-0.172,0.235-0.335,0.39-0.487c0.118-0.121,0.228-0.162,0.34-0.184c0.217-0.04,0.43-0.136,0.619-0.359
		c0.165-0.209,0.197-0.413,0.187-0.61c-0.003-0.043-0.01-0.087-0.019-0.129l-2.844,1.028L39.252,137.003z"/>
	<path fill="#66CC99" d="M38.395,134.454c-0.017,0.029-0.029,0.06-0.035,0.093c-0.01,0.084-0.012,0.167,0.097,0.27
		c0.107,0.081,0.23,0.103,0.368-0.001c0.025-0.022,0.047-0.048,0.063-0.077c0.026-0.042,0.051-0.085,0.077-0.127L38.395,134.454
		L38.395,134.454L38.395,134.454z"/>
	<path fill="#66CC99" d="M41.385,134.858c-0.065-0.049-0.136-0.09-0.21-0.122c-0.199-0.091-0.402-0.063-0.572-0.253
		c-0.124-0.127-0.209-0.278-0.302-0.394c-0.286-0.341-0.568-0.298-0.821-0.178c-0.067,0.032-0.146,0.103-0.185,0.162
		c-0.114,0.18-0.221,0.36-0.33,0.539l2.763,0.764C41.693,135.198,41.586,135.008,41.385,134.858z"/>
	<path fill="#66CC99" d="M38.395,134.454L38.395,134.454l0.334-0.617c0.142-0.233,0.095-0.493-0.047-0.704
		c-0.201-0.224-0.382-0.223-0.561-0.243c-0.236-0.024-0.485-0.014-0.695-0.253c-0.052-0.062-0.111-0.119-0.176-0.167
		c-0.378-0.262-0.732-0.257-1.065-0.046c-0.036,0.025-0.07,0.052-0.102,0.081L38.395,134.454L38.395,134.454z"/>
	<path fill="#66CC99" d="M36.25,135.872c-0.133,0.001-0.254,0.027-0.39,0.14c-0.252,0.211-0.258,0.425-0.214,0.621
		c0.078,0.306,0.355,0.657,0.216,0.967c-0.11,0.331-0.093,0.641,0.131,0.941c0.104,0.123,0.203,0.191,0.305,0.241
		c0.039,0.019,0.08,0.035,0.121,0.048l0.532-2.977L36.25,135.872z"/>
	<path fill="#66CC99" d="M45.833,121.931c-0.055,0.017-0.115,0.092-0.122,0.143c-0.006,1.032,0.002,2.059,0.003,3.088
		c-0.009,0.057,0.001,0.117,0.028,0.168c0.041,0.072,0.082,0.095,0.125,0.116l0.363,0.102c0.021,0.006,0.04,0.016,0.058,0.028
		c0.12,0.11,0.091,0.204,0.028,0.284c-0.297,0.242-0.416,0.478-0.532,0.734c-0.242,0.545-0.29,1.091-0.28,1.629
		c0.02,0.431,0.066,0.861,0.266,1.281c0.18,0.378,0.415,0.729,0.696,1.039s0.608,0.579,0.966,0.794
		c0.359,0.216,0.749,0.378,1.154,0.482c0.267,0.071,0.54,0.121,0.814,0.151c0.544,0.063,1.133,0.027,1.619-0.06
		c0.24-0.043,0.446-0.094,0.647-0.16c0.201-0.066,0.397-0.147,0.586-0.243c0.189-0.095,0.371-0.205,0.512-0.303
		c0.141-0.098,0.242-0.185,0.336-0.279c0.094-0.094,0.181-0.194,0.26-0.3c0.246-0.339,0.373-0.639,0.487-0.975
		c0.302-0.921,0.252-1.839-0.187-2.716c-0.111-0.215-0.292-0.425-0.457-0.646c-0.124-0.155-0.165-0.335-0.074-0.475
		c0.057-0.062,0.118-0.086,0.175-0.097c0.762-0.005,1.521-0.01,2.281-0.015c0.339-0.005,0.693,0.051,0.997,0.221
		c0.184,0.1,0.351,0.233,0.489,0.39c0.139,0.157,0.249,0.339,0.325,0.534c0.217,0.583,0.193,1.168-0.022,1.701
		c-0.073,0.2-0.177,0.388-0.306,0.558s-0.284,0.319-0.457,0.442s-0.365,0.22-0.568,0.287c-0.202,0.066-0.414,0.102-0.627,0.106
		l0.047,1.005c0.236,0.046,0.467,0.115,0.69,0.205s0.437,0.202,0.637,0.333c0.201,0.132,0.388,0.283,0.556,0.44
		c0.169,0.157,0.318,0.319,0.461,0.487c0.143,0.168,0.278,0.342,0.405,0.522c0.127,0.18,0.245,0.366,0.364,0.576
		s0.24,0.445,0.349,0.684c0.225,0.491,0.398,0.99,0.524,1.488c0.177,0.687,0.309,1.386,0.395,2.09
		c0.087,0.704,0.128,1.414,0.12,2.123c-0.007,0.709-0.063,1.417-0.14,2.047c-0.076,0.63-0.173,1.181-0.283,1.729
		s-0.234,1.093-0.365,1.625s-0.269,1.049-0.413,1.566c-0.143,0.517-0.292,1.032-0.487,1.691s-0.438,1.462-0.683,2.264
		s-0.493,1.603-0.657,2.14c-0.165,0.537-0.246,0.811-0.324,1.085c-0.078,0.275-0.153,0.55-0.3,1.153
		c-0.148,0.603-0.368,1.533-0.543,2.472c-0.174,0.939-0.302,1.887-0.386,2.838c-0.084,0.952-0.123,1.907-0.134,2.627
		c-0.01,0.721,0.009,1.206,0.045,1.691s0.089,0.968,0.183,1.568c0.094,0.6,0.23,1.318,0.401,2.027s0.377,1.41,0.616,2.1
		c0.239,0.69,0.51,1.368,0.845,2.106c0.335,0.738,0.735,1.537,1.163,2.32c0.428,0.783,0.883,1.551,1.365,2.302
		c0.482,0.751,0.991,1.484,1.526,2.198c1.304-2.467,2.609-4.935,3.913-7.402c-0.355-0.343-0.696-0.701-1.02-1.073
		c-0.324-0.372-0.632-0.759-0.922-1.158s-0.563-0.811-0.824-1.244s-0.512-0.887-0.745-1.349c-0.233-0.462-0.449-0.934-0.614-1.326
		c-0.166-0.392-0.282-0.705-0.386-1.021c-0.104-0.317-0.197-0.637-0.277-0.96c-0.08-0.323-0.148-0.65-0.216-1.048
		c-0.067-0.398-0.134-0.868-0.188-1.339c-0.054-0.471-0.095-0.944-0.12-1.378c-0.025-0.434-0.034-0.831-0.028-1.227
		c0.006-0.396,0.027-0.792,0.101-1.471c0.074-0.679,0.203-1.641,0.362-2.598s0.348-1.909,0.5-2.683s0.267-1.371,0.381-1.967
		c0.115-0.597,0.229-1.193,0.36-1.9c0.132-0.706,0.281-1.523,0.399-2.344c0.194-1.356,0.319-2.729,0.306-4.08
		c-0.008-0.535-0.047-1.07-0.085-1.605c-0.115-1.237-0.374-2.473-0.77-3.681c-0.195-0.598-0.421-1.186-0.71-1.778
		c-0.289-0.592-0.642-1.188-1.057-1.738s-0.892-1.054-1.417-1.501s-1.099-0.837-1.707-1.162c0.219-0.083,0.43-0.186,0.631-0.306
		s0.391-0.258,0.567-0.412c0.176-0.154,0.339-0.323,0.486-0.505c0.267-0.333,0.433-0.665,0.546-0.996
		c0.118-0.356,0.194-0.726,0.224-1.1c0.059-0.739-0.058-1.521-0.353-2.185c-0.147-0.328-0.337-0.62-0.571-0.873
		c-0.233-0.253-0.51-0.467-0.813-0.63c-0.304-0.163-0.634-0.275-0.974-0.332c-0.31-0.046-0.621-0.074-0.933-0.073l-8.497-0.018
		c-0.12,0.004-0.241-0.035-0.336-0.165c-0.025-0.036-0.043-0.076-0.055-0.118l-0.131-0.552c-0.005-0.028-0.015-0.055-0.028-0.08
		c-0.079-0.124-0.136-0.127-0.202-0.143l-0.296-0.001C45.874,121.918,45.853,121.923,45.833,121.931z M50.855,125.808
		c0.193,0.067,0.375,0.167,0.535,0.295s0.297,0.283,0.406,0.457c0.157,0.24,0.252,0.505,0.287,0.769
		c0.018,0.137,0.021,0.275,0.014,0.398c-0.014,0.234-0.064,0.433-0.159,0.643c-0.045,0.099-0.1,0.193-0.162,0.282
		c-0.065,0.086-0.138,0.167-0.217,0.242c-0.538,0.499-1.143,0.555-1.729,0.534c-0.27-0.013-0.543-0.042-0.814-0.101
		c-0.134-0.028-0.266-0.063-0.369-0.093c-0.193-0.057-0.31-0.11-0.457-0.191c-0.182-0.103-0.36-0.234-0.542-0.438
		c-0.499-0.564-0.531-1.138-0.355-1.738c0.058-0.184,0.149-0.369,0.284-0.547c0.091-0.127,0.203-0.239,0.33-0.331
		c0.262-0.191,0.576-0.283,0.88-0.279l1.467-0.002C50.457,125.708,50.661,125.741,50.855,125.808z"/>
	<path fill="#66CC99" d="M55.595,175.219c-0.115-0.079-0.249-0.108-0.402,0.031c-0.097,0.115-0.124,0.25-0.007,0.403
		c0.552,0.662,1.003,1.33,1.38,2.002c0.246,0.447,0.448,0.917,0.602,1.403s0.26,0.987,0.315,1.494
		c0.056,0.507,0.061,1.019,0.015,1.567s-0.143,1.133-0.297,1.703s-0.365,1.124-0.628,1.653c-0.263,0.528-0.578,1.031-0.922,1.482
		c-0.343,0.451-0.716,0.851-1.121,1.212c-0.406,0.362-0.846,0.685-1.313,0.963c-0.942,0.561-1.931,0.912-2.887,1.085
		c-0.482,0.09-0.971,0.143-1.461,0.159c-0.49,0.016-0.981-0.007-1.453-0.065s-0.926-0.151-1.368-0.284
		c-0.442-0.134-0.871-0.308-1.282-0.519c-0.41-0.212-0.801-0.46-1.154-0.73c-0.353-0.27-0.667-0.561-0.954-0.876
		s-0.548-0.655-0.779-1.013c-0.231-0.359-0.431-0.737-0.591-1.129c-0.323-0.792-0.475-1.633-0.459-2.464
		c0.009-0.42,0.061-0.839,0.14-1.216c0.08-0.378,0.188-0.714,0.326-1.037s0.307-0.633,0.504-0.924
		c0.197-0.291,0.422-0.563,0.67-0.812l-6.815-4.891l-0.01,14.603c0.497,0.58,1.033,1.128,1.602,1.638s1.172,0.982,1.804,1.413
		c0.631,0.431,1.291,0.82,1.945,1.149s1.302,0.596,1.966,0.814c2.044,0.664,4.161,0.875,6.273,0.563
		c0.356-0.053,0.709-0.122,1.059-0.205c0.785-0.195,1.549-0.473,2.276-0.829c0.726-0.356,1.415-0.789,2.05-1.29
		c0.635-0.501,1.216-1.07,1.731-1.694c0.22-0.262,0.43-0.533,0.628-0.812c0.198-0.279,0.386-0.566,0.561-0.859
		c0.175-0.294,0.339-0.595,0.49-0.902c0.269-0.556,0.49-1.136,0.661-1.729c0.343-1.191,0.48-2.437,0.407-3.667
		c-0.053-0.93-0.225-1.854-0.512-2.74c-0.287-0.886-0.69-1.735-1.194-2.518C56.888,176.566,56.282,175.848,55.595,175.219z"/>
	<path fill="#66CC99" d="M38.822,136.328c-0.107-0.082-0.23-0.104-0.368-0.001c-0.111,0.104-0.133,0.227-0.062,0.363
		c0.024,0.043,0.048,0.086,0.072,0.13l0.422-0.415C38.868,136.376,38.847,136.349,38.822,136.328z"/>
	<path fill="#66CC99" d="M45.553,174.591c0.004,0.212,0.042,0.5,0.118,0.752c0.111,0.345,0.23,0.673,0.601,1.016
		c0.131,0.122,0.296,0.105,0.459-0.042c0.054-0.054,0.116-0.157,0.097-0.22c-0.114-0.253-0.253-0.517-0.048-0.762
		c0.079-0.093,0.198-0.173,0.309-0.206c0.062-0.019,0.126-0.031,0.191-0.031h2.391c0.234,0.23,0.46,0.468,0.678,0.714
		c0.218,0.246,0.427,0.499,0.626,0.759c0.199,0.261,0.389,0.529,0.496,0.684s0.132,0.198,0.154,0.242
		c0.102,0.209,0.138,0.415,0.119,0.657c-0.011,0.089-0.034,0.155-0.108,0.236c-0.113,0.108-0.242,0.149-0.371,0.149l-4.473,0.001
		c-0.077,0-0.162-0.021-0.24-0.089c-0.072-0.063-0.11-0.146-0.12-0.226l-0.037-0.373c0.004-0.08-0.088-0.21-0.176-0.231
		c-0.113-0.032-0.231-0.009-0.346-0.015c-0.07,0.001-0.134,0.002-0.219,0.105c-0.034,0.047-0.05,0.104-0.047,0.159
		c0,0.805-0.006,1.61-0.001,2.416c0.01,0.089,0.004,0.172,0.056,0.269c0.035,0.058,0.085,0.09,0.134,0.107l0.387,0.133
		c0.033,0.013,0.064,0.033,0.09,0.057c0.106,0.111,0.131,0.241,0.03,0.39c-0.469,0.565-0.642,1.134-0.729,1.709
		c-0.087,0.639-0.022,1.304,0.243,1.967c0.083,0.207,0.184,0.406,0.302,0.595c0.117,0.189,0.251,0.368,0.4,0.534
		c0.15,0.161,0.313,0.31,0.487,0.446c0.174,0.135,0.358,0.257,0.551,0.363c0.619,0.341,1.287,0.495,1.953,0.525
		c0.551,0.017,1.101-0.039,1.655-0.177c0.158-0.04,0.315-0.087,0.456-0.137c0.266-0.096,0.498-0.214,0.738-0.378
		c0.3-0.212,0.617-0.501,0.838-0.774c0.826-1.042,0.999-2.107,0.756-3.212c-0.048-0.18-0.137-0.366-0.265-0.53
		c-0.13-0.171-0.339-0.383-0.524-0.527c-0.181-0.143-0.213-0.318-0.118-0.513c0.056-0.098,0.138-0.152,0.219-0.179
		c0.122-0.044,0.244-0.091,0.366-0.14c0.088-0.041,0.168-0.098,0.236-0.168c0.144-0.148,0.219-0.339,0.228-0.522
		c0.023-0.22,0.007-0.45-0.054-0.673c-0.03-0.109-0.07-0.215-0.139-0.364c-0.138-0.296-0.368-0.715-0.611-1.073
		c-0.12-0.178-0.246-0.351-0.38-0.519c-0.654-0.794-1.328-1.583-2.022-2.367l2.97-0.003c0.045-0.003,0.085-0.006,0.138-0.071
		c0.022-0.03,0.032-0.066,0.032-0.101l-0.001-3.195c-0.002-0.046-0.004-0.087-0.069-0.142c-0.031-0.022-0.067-0.033-0.103-0.032
		h-0.345c-0.067,0.004-0.127-0.003-0.212,0.117c-0.014,0.024-0.024,0.052-0.028,0.079l-0.058,0.374
		c-0.01,0.052-0.029,0.102-0.057,0.147c-0.11,0.171-0.253,0.219-0.396,0.222l-4.592-0.007c-0.166-0.003-0.335-0.039-0.504-0.118
		c-0.069-0.031-0.135-0.07-0.194-0.117c-0.167-0.139-0.283-0.306-0.289-0.472c0.001-0.067,0.021-0.141,0.083-0.209
		c0.128-0.129,0.301-0.143,0.462-0.011c0.204,0.132,0.437,0.171,0.664,0.123c0.11-0.026,0.217-0.068,0.314-0.126
		c0.097-0.058,0.186-0.131,0.261-0.215c0.075-0.085,0.137-0.181,0.189-0.297c0.164-0.364,0.199-0.817,0.042-1.234
		c-0.051-0.137-0.122-0.271-0.212-0.391c-0.09-0.12-0.199-0.226-0.322-0.312c-0.377-0.264-0.829-0.32-1.252-0.314
		c-0.154,0.001-0.309,0.021-0.458,0.061c-0.149,0.039-0.294,0.098-0.428,0.173c-0.135,0.075-0.26,0.168-0.372,0.274
		c-0.129,0.136-0.241,0.289-0.332,0.453c-0.266,0.485-0.34,1.023-0.229,1.559c0.036,0.157,0.092,0.309,0.166,0.452
		c0.178,0.353,0.49,0.624,0.792,0.925c0.083,0.094,0.113,0.207,0.041,0.326c-0.084,0.102-0.204,0.096-0.306,0.164
		c-0.124,0.069-0.256,0.163-0.386,0.32c-0.159,0.196-0.225,0.364-0.282,0.569c-0.02,0.076-0.035,0.154-0.046,0.232
		C45.556,174.407,45.551,174.486,45.553,174.591z M50.855,181.291c0.183,0.064,0.355,0.159,0.507,0.28
		c0.151,0.121,0.282,0.268,0.384,0.433c0.149,0.228,0.239,0.479,0.272,0.728c0.017,0.129,0.02,0.261,0.013,0.377
		c-0.021,0.31-0.101,0.58-0.304,0.876c-0.062,0.082-0.131,0.159-0.206,0.229c-0.51,0.472-1.082,0.526-1.638,0.506
		c-0.255-0.012-0.514-0.04-0.771-0.095c-0.127-0.027-0.252-0.06-0.35-0.088c-0.183-0.054-0.294-0.104-0.433-0.181
		c-0.172-0.098-0.341-0.222-0.513-0.414c-0.473-0.534-0.503-1.078-0.337-1.646c0.055-0.174,0.141-0.35,0.269-0.518
		c0.087-0.12,0.193-0.227,0.312-0.314c0.248-0.181,0.546-0.269,0.833-0.265l1.39-0.002
		C50.478,181.195,50.672,181.227,50.855,181.291z"/>
	<path fill="#66CC99" d="M37.427,138.505c0.066-0.078,0.136-0.125,0.206-0.159c0.361-0.163,0.735,0.012,1.05-0.337
		c0.148-0.232,0.17-0.424,0.083-0.634c-0.096-0.184-0.2-0.37-0.302-0.555l-2.043,2.011c0.13,0.043,0.261,0.051,0.387,0.031
		C37.024,138.822,37.237,138.727,37.427,138.505z"/>
	<path fill="#66CC99" d="M40.423,156.969c0.073-0.017,0.15-0.123,0.149-0.188l0.029-0.377c0.002-0.098,0.041-0.201,0.121-0.278
		c0.037-0.036,0.082-0.065,0.13-0.084s0.1-0.028,0.152-0.028l10.787-0.01c0.461,0.004,0.94-0.129,1.339-0.419
		c0.193-0.139,0.364-0.31,0.503-0.503c0.139-0.193,0.247-0.409,0.318-0.636s0.101-0.466,0.101-0.704l0.007-2.199
		c0.001-0.287-0.053-0.574-0.156-0.842c-0.103-0.268-0.257-0.516-0.451-0.728c-0.194-0.212-0.428-0.387-0.685-0.514
		c-0.371-0.184-0.743-0.256-1.105-0.255l-1.361-0.002c0.288-0.64,0.51-1.288,0.674-1.946c0.45-0.093,0.899-0.262,1.321-0.512
		c0.204-0.121,0.398-0.259,0.579-0.412c0.203-0.163,0.389-0.349,0.553-0.552s0.305-0.424,0.421-0.657
		c0.116-0.234,0.206-0.48,0.271-0.733c0.065-0.254,0.105-0.515,0.125-0.777c0.043-0.516-0.01-1.083-0.117-1.53
		c-0.052-0.219-0.114-0.396-0.187-0.568s-0.158-0.34-0.254-0.5s-0.204-0.314-0.321-0.459c-0.118-0.145-0.246-0.282-0.383-0.409
		s-0.284-0.244-0.437-0.35c-0.154-0.106-0.315-0.201-0.483-0.285c-0.141-0.066-0.268-0.043-0.372,0.088
		c-0.089,0.144-0.065,0.271,0.044,0.38c0.176,0.154,0.335,0.327,0.474,0.514c0.139,0.188,0.259,0.39,0.355,0.603
		c0.192,0.427,0.283,0.854,0.275,1.234c-0.005,0.376-0.09,0.757-0.258,1.108c-0.098,0.184-0.224,0.354-0.371,0.501
		c-0.147,0.148-0.317,0.274-0.501,0.372c-0.184,0.099-0.382,0.17-0.587,0.212c-0.056-0.445-0.154-0.89-0.292-1.327
		c-0.199-0.646-0.543-1.384-1.091-1.956c-0.18-0.192-0.378-0.366-0.538-0.489s-0.282-0.194-0.41-0.252
		c-0.268-0.122-0.547-0.181-0.815-0.185c-0.29-0.417-0.528-0.838-0.777-1.253c-0.13-0.255-0.12-0.509-0.021-0.733
		c0.041-0.1,0.11-0.199,0.225-0.275c0.112-0.074,0.231-0.1,0.341-0.099l6.359-0.006l-0.001-3.713l-0.46-0.001
		c-0.035,0-0.069,0.006-0.101,0.018c-0.087,0.023-0.18,0.153-0.179,0.234l-0.051,0.424c-0.015,0.104-0.066,0.211-0.161,0.291
		c-0.103,0.086-0.214,0.112-0.314,0.111l-4.89-0.004c-0.046,0-0.091-0.005-0.135-0.016c-0.136-0.031-0.29-0.144-0.382-0.322
		c-0.119-0.245-0.085-0.488,0.055-0.686c0.203-0.286,0.364-0.584,0.441-0.808c0.047-0.147,0.067-0.298,0.062-0.443
		c-0.01-0.318-0.116-0.635-0.38-0.916c-0.083-0.091-0.172-0.176-0.267-0.254c-0.204-0.168-0.415-0.292-0.627-0.384
		c-0.263-0.112-0.542-0.188-0.825-0.226c-0.567-0.077-1.154,0.004-1.68,0.229c-0.173,0.079-0.338,0.177-0.489,0.293
		c-0.151,0.116-0.288,0.25-0.408,0.397s-0.223,0.309-0.307,0.48c-0.061,0.164-0.034,0.316,0.142,0.434
		c0.17,0.086,0.321,0.058,0.447-0.092c0.109-0.158,0.248-0.312,0.413-0.464c0.222-0.206,0.451-0.316,0.668-0.348
		c0.271-0.032,0.555-0.032,0.789,0.204c0.194,0.228,0.189,0.44,0.122,0.634c-0.094,0.187-0.211,0.372-0.364,0.554
		c-0.157,0.184-0.268,0.367-0.352,0.551c-0.151,0.327-0.054,0.667,0.146,0.939c0.081,0.107,0.182,0.198,0.296,0.269
		c0.114,0.071,0.241,0.12,0.373,0.146c0.267,0.038,0.536,0.031,0.798-0.019c0.084-0.018,0.169,0,0.24,0.059
		c0.169,0.18,0.13,0.348-0.012,0.476c-0.03,0.023-0.065,0.041-0.102,0.052c-0.265,0.07-0.554,0.186-0.782,0.382
		c-0.088,0.078-0.164,0.168-0.227,0.267c-0.062,0.099-0.11,0.207-0.143,0.32c-0.118,0.624,0.051,1.219,0.42,1.815
		c0.356,0.527,0.706,1.082,1.059,1.623c-0.184,0.091-0.356,0.206-0.511,0.341c-0.155,0.135-0.291,0.29-0.406,0.461
		c-0.114,0.17-0.206,0.356-0.273,0.55c-0.313,0.938-0.256,1.88,0.073,2.769c0.102,0.27,0.232,0.529,0.375,0.763
		s0.299,0.442,0.475,0.633c0.175,0.191,0.37,0.364,0.58,0.516c0.21,0.152,0.436,0.281,0.655,0.386
		c0.219,0.104,0.433,0.183,0.65,0.249c0.442,0.135,0.892,0.212,1.337,0.233c-0.145,0.63-0.399,1.255-0.804,1.86l-3.39,0.007
		l-0.003,2.933l2.205,0.006c0.224-0.006,0.447-0.082,0.643-0.275l0.764-0.957l2.488-0.003c0.164-0.006,0.335,0.041,0.478,0.139
		c0.07,0.048,0.131,0.107,0.182,0.174c0.275,0.409,0.269,0.804,0.219,1.192c-0.036,0.204-0.084,0.42-0.237,0.596
		c-0.062,0.074-0.134,0.138-0.215,0.191c-0.08,0.052-0.169,0.093-0.261,0.119c-0.092,0.026-0.189,0.038-0.285,0.038l-11.785,0.006
		l-0.008,3.597h0.455C40.368,156.982,40.396,156.978,40.423,156.969z M48.655,144.595c-0.235-0.071-0.462-0.166-0.678-0.283
		c-0.129-0.06-0.251-0.136-0.36-0.227s-0.207-0.197-0.288-0.314c-0.082-0.117-0.148-0.244-0.197-0.378
		c-0.071-0.227-0.088-0.463-0.058-0.686c0.03-0.196,0.077-0.408,0.246-0.565c0.068-0.065,0.148-0.118,0.235-0.155
		c0.087-0.036,0.181-0.056,0.275-0.059c0.339-0.02,0.649,0.037,0.994,0.254c0.235,0.149,0.489,0.378,0.668,0.629
		c0.092,0.128,0.171,0.264,0.243,0.414s0.136,0.312,0.189,0.478c0.109,0.34,0.17,0.685,0.186,1.026
		C49.622,144.784,49.124,144.737,48.655,144.595z"/>
	<path fill="#66CC99" d="M40.39,169.091c0.097-0.025,0.201-0.177,0.193-0.271v-0.382c0.001-0.1,0.034-0.199,0.141-0.28
		c0.067-0.047,0.138-0.064,0.204-0.063l10.48-0.004c0.277,0,0.554-0.041,0.818-0.126s0.514-0.212,0.738-0.374
		s0.422-0.361,0.585-0.586c0.162-0.224,0.289-0.475,0.373-0.739c0.084-0.264,0.124-0.541,0.124-0.818l0.006-5.439
		c0.001-0.601-0.151-1.191-0.573-1.753c-0.135-0.174-0.299-0.342-0.486-0.48s-0.396-0.247-0.616-0.323
		c-0.457-0.158-0.948-0.161-1.369-0.042c-0.218,0.061-0.42,0.155-0.604,0.277c-0.184,0.122-0.349,0.271-0.488,0.442
		s-0.252,0.363-0.334,0.567l-0.802,1.842c-0.048,0.12-0.163,0.25-0.254,0.307c-0.324,0.196-0.644,0.168-0.906-0.111
		c-0.032-0.042-0.061-0.086-0.088-0.131c-0.229-0.405-0.214-0.764-0.148-1.195c0.03-0.177,0.073-0.353,0.132-0.527
		c0.087-0.302,0.235-0.598,0.496-0.879l-2.324-1.052l-0.004,4.17c0.007,0.442,0.102,0.91,0.362,1.305
		c0.103,0.157,0.229,0.298,0.373,0.418s0.305,0.218,0.474,0.295c0.353,0.161,0.721,0.226,1.074,0.216
		c0.323-0.015,0.642-0.058,0.948-0.272c0.131-0.087,0.289-0.25,0.448-0.445c0.182-0.224,0.326-0.455,0.441-0.688l0.777-1.424
		c0.05-0.1,0.124-0.198,0.236-0.279c0.05-0.036,0.104-0.066,0.161-0.089c0.387-0.142,0.786-0.155,1.131,0.071
		c0.09,0.06,0.17,0.134,0.237,0.219c0.36,0.523,0.361,1.035,0.256,1.526c-0.077,0.324-0.237,0.662-0.483,0.933
		c-0.139,0.154-0.303,0.287-0.483,0.391s-0.376,0.18-0.579,0.225c-0.011,0.204,0.04,0.416,0.152,0.598
		c0.055,0.089,0.123,0.169,0.201,0.238c0.032-0.04,0.068-0.077,0.106-0.11c0.385-0.307,0.774-0.306,1.089,0.029
		c0.039,0.047,0.072,0.099,0.098,0.154c0.105,0.285,0.059,0.551-0.167,0.787c-0.051,0.049-0.11,0.091-0.173,0.124
		c-0.213,0.105-0.409,0.09-0.61,0.098l-11.891-0.002l-0.006,3.671l0.417-0.001C40.314,169.112,40.353,169.105,40.39,169.091z"/>
</g>
<g>
	<path fill="#FFFFFF" d="M50.447,21.542c-0.219,0.157-0.458,0.335-0.485,0.779c0.027,0.479,0.431,0.903,1.129,0.923
		c0.492,0.007,1.1-0.396,1.169-0.992c-0.014-0.24-0.123-0.512-0.513-0.711h-1.3V21.542z M57.34,49.62
		c-1.894-2.161-3.372-5.792-3.419-9.656c0.007-2.345,0.889-4.615,1.539-6.743c0.52-1.757,1.306-3.618,1.3-5.532
		c-0.055-1.641-0.664-3.454-2.756-3.665c0-0.164,0-0.329,0-0.499c0.656-0.123,1.094-0.465,1.073-1.04
		c-0.006-0.424-0.451-0.944-1.203-0.957c-0.315,0-0.636,0-0.958,0c0.178,0.376,0.465,0.588,0.465,1.19
		c0.014,0.971-1.032,1.867-2.243,1.867c-1.149-0.007-2.23-0.937-2.223-1.895c-0.014-0.574,0.205-0.752,0.458-1.108
		c0.02-0.055-0.014-0.123-0.117-0.164c-0.102-0.041-0.267-0.055-0.259-0.226c0.013-0.41-0.008-0.848,0.006-1.265
		c-0.006-0.11,0.055-0.212,0.198-0.233c0.103,0.013,0.178,0.082,0.205,0.184c0.021,0.137,0.11,0.288,0.246,0.322
		c1.382,0,2.838-0.02,4.213-0.02c1.251,0,2.079,0.937,2.1,1.894c-0.028,0.868-0.335,1.552-1.088,1.621
		c1.525,0.335,2.339,1.046,2.838,1.915c0.923,1.607,0.957,3.83,0.499,6.407c-0.294,1.197-0.589,2.387-0.876,3.577
		c-0.246,1.06-0.506,2.126-0.54,3.788c0.014,2.606,0.978,4.862,2.838,6.668C58.873,47.261,58.107,48.417,57.34,49.62L57.34,49.62z"
		/>
	<path fill="#FFFFFF" d="M49.51,49.532c-0.185-0.061-0.321-0.144-0.492-0.26c0-0.485,0-0.978,0-1.464
		c0.041-0.068,0.095-0.116,0.177-0.13c0.205,0.035,0.267,0.239,0.383,0.431c0.746,0.007,1.519,0,2.284,0
		c0.137,0.007,0.213-0.041,0.247-0.192c-0.035-0.144-0.062-0.239-0.117-0.356c-0.24-0.451-0.547-0.773-0.896-1.128
		c-0.438,0-0.876,0-1.306,0c-0.117,0.034-0.191,0.13-0.212,0.274c0.021,0.13,0.048,0.26,0.082,0.376c-0.116,0-0.239,0-0.355,0
		c-0.117-0.178-0.24-0.356-0.356-0.533c-0.096-0.212-0.061-0.404,0-0.608c0.144-0.233,0.369-0.404,0.609-0.533
		c-0.445-0.39-0.684-0.78-0.684-1.197c0.061-0.595,0.41-0.903,1.039-0.93c0.663,0.061,0.999,0.417,1.087,0.902
		c-0.041,0.349-0.225,0.547-0.533,0.561c-0.233,0.014-0.294-0.116-0.417-0.225c-0.226-0.014-0.26,0.109-0.233,0.225
		c0.021,0.13,0.144,0.335,0.342,0.335c0.89,0.007,1.71,0.007,2.606,0.007c0.102-0.082,0.136-0.273,0.198-0.403
		c0.109-0.13,0.253-0.144,0.369-0.103c0,0.629,0,1.245,0,1.86c-0.512,0-1.019,0-1.518,0c0.663,0.671,1.306,1.348,1.6,2.141
		c0.034,0.13,0.013,0.212-0.055,0.308c-0.232,0.144-0.369,0.24-0.588,0.37c0.335,0.348,0.643,0.69,0.67,1.354
		c-0.157,1.286-0.944,1.963-2.332,2.031c-1.375-0.103-2.1-0.732-2.196-1.86C48.936,50.256,49.175,49.866,49.51,49.532L49.51,49.532z
		"/>
	<path fill="#1A9250" d="M50.55,49.497c0.417,0,0.834,0,1.252,0c0.198,0.034,0.437,0.355,0.451,0.697
		c-0.034,0.56-0.451,1.094-1.162,1.08c-0.595-0.007-1.108-0.519-1.108-0.923C50.009,49.949,50.303,49.627,50.55,49.497L50.55,49.497
		z"/>
	<path fill="#FFFFFF" d="M43.807,45.955c0,2.455,0,4.91,0,7.372c1.299,1.84,3.604,2.995,6.196,2.988
		c3.194-0.13,5.889-2.072,6.018-6.004c0.007-1.204-0.67-2.872-1.839-3.85c-0.171-0.047-0.342,0.082-0.356,0.253
		c0.801,0.944,1.204,1.805,1.251,3.029c-0.123,2.797-2.489,4.315-4.534,4.295c-2.435-0.034-3.878-1.525-3.885-3.358
		c0.061-0.772,0.349-1.463,0.889-2.051C46.296,47.733,45.051,46.844,43.807,45.955L43.807,45.955z"/>
	<path fill="#FFFFFF" d="M45.974,41.524c2.093,0,4.193,0,6.292,0c0.28-0.014,0.383-0.191,0.39-0.527
		c0.007-0.075-0.034-0.15-0.089-0.205c-0.123-0.014-0.205,0.123-0.301,0.164c-0.095,0.021-0.177,0.048-0.287,0.055
		c-0.212-0.075-0.171-0.417-0.034-0.527c0.342-0.048,0.67-0.574,0.684-1.012c-0.021-0.444-0.376-0.588-0.526-0.588
		c-0.308,0.007-0.486,0.219-0.596,0.397c-0.13,0.28-0.294,0.568-0.499,0.834c-0.157,0.212-0.472,0.431-0.834,0.424
		c-0.862-0.041-1.108-0.568-1.176-1.354c0-0.568,0-1.135,0-1.71c0.006-0.144,0.068-0.205,0.198-0.199
		c0.301,0.151,0.609,0.295,0.917,0.438c0.102,0.068,0.116,0.157,0.055,0.26c-0.144,0.157-0.205,0.355-0.233,0.622
		c-0.013,0.451,0.123,0.636,0.369,0.684c0.198,0.034,0.315-0.191,0.445-0.485c0.157-0.294,0.281-0.534,0.438-0.834
		c0.24-0.362,0.671-0.595,1.067-0.574c0.684,0.048,1.074,0.684,1.094,1.456c0,0.916,0,1.737,0,2.646
		c-0.014,0.882-0.554,1.511-1.477,1.518c-1.792,0-3.577,0-5.362,0c-0.075,0.116-0.109,0.314-0.226,0.362
		c-0.246,0.035-0.288-0.096-0.308-0.26C45.981,42.59,45.974,42.043,45.974,41.524L45.974,41.524z"/>
	<path fill="#FFFFFF" d="M45.974,35.246c2.066,0,4.124,0.007,6.182,0.014c0.233-0.007,0.404-0.383,0.411-0.561
		c-0.021-0.403-0.171-0.608-0.424-0.588c-0.417,0-0.807,0-1.217,0c-0.123,0.226-0.26,0.417-0.452,0.588c-0.479,0-0.957,0-1.443,0
		c0-0.499,0-0.991,0-1.484c0.54,0,1.033,0,1.573,0c0.184-0.294,0.424-0.582,0.492-0.882c-1.286-0.055-2.196-0.965-2.196-2.257
		c0-0.711,0.329-0.998,0.78-1.313c-0.342-0.465-0.732-1.033-0.821-1.504c-0.075-0.315,0.349-0.561,0.704-0.821
		c-0.465-0.089-0.944-0.157-1.053-0.424c-0.075-0.137-0.021-0.355,0.137-0.65c0.13-0.212,0.273-0.355,0.137-0.533
		c-0.198-0.178-0.444-0.103-0.725,0.075c-0.103,0.095-0.205,0.184-0.308,0.273c-0.157,0.124-0.266,0.007-0.26-0.102
		c-0.007-0.219,0.369-0.787,1.251-0.869c0.78-0.027,1.347,0.458,1.416,0.869c0.007,0.185-0.041,0.362-0.13,0.465
		c-0.137,0.137-0.226,0.267-0.239,0.397c0.013,0.246,0.191,0.28,0.349,0.287c0.875,0,1.689,0,2.565,0
		c0.157-0.082,0.027-0.287,0.335-0.451c0.219-0.048,0.315,0.027,0.308,0.226c0,0.54,0,1.08,0,1.621c-1.074,0-2.134,0-3.207,0
		c-0.144,0.007-0.226,0.048-0.246,0.109c-0.089,0.198,0.096,0.513,0.328,0.923c0.362,0.007,0.8,0.212,1.115,0.602
		c0.376,0.479,0.526,1.026,0.52,1.6c0.41-0.198,0.704-0.636,0.745-1.204c-0.008-0.349-0.164-0.697-0.472-1.073
		c-0.116-0.144-0.095-0.233,0.075-0.288c0.116-0.02,0.205,0.028,0.308,0.089c0.513,0.431,0.861,1.039,0.889,1.764
		c0,1.033-0.663,1.853-1.634,2.154c-0.11,0.308-0.287,0.582-0.458,0.917c0.328,0,0.684,0,1.019,0
		c0.616-0.014,1.053,0.704,1.067,1.744c-0.007,0.944-0.493,1.71-1.224,1.73c-1.813-0.007-3.591,0-5.403,0
		c-0.294-0.021-0.342,0.157-0.362,0.348c-0.076,0.103-0.199,0.062-0.315,0.062c-0.075-0.007-0.096-0.075-0.117-0.171
		C45.974,36.354,45.974,35.814,45.974,35.246L45.974,35.246z"/>
	<path fill="#1A9250" d="M51.247,30.999c-0.403,0.013-0.718-0.11-1.012-0.383c-0.253-0.246-0.547-0.745-0.28-0.95
		c0.26-0.178,0.54-0.048,0.889,0.294C51.138,30.322,51.254,30.65,51.247,30.999L51.247,30.999z"/>
	<path fill="#FFFFFF" d="M44.593,26.513c0.014-0.089-0.109-0.178-0.226-0.178c-0.219-0.007-0.424,0.075-0.602-0.089
		c-0.11-0.164-0.048-0.342,0.061-0.485c0.116-0.09,0.171-0.233,0.137-0.383c-0.021-0.26,0.014-0.438,0.137-0.561
		c0.287-0.069,0.383,0.062,0.527,0.151c0.095,0.143,0.226,0.136,0.315,0.136c0.178-0.014,0.451,0.062,0.492,0.226
		c0.014,0.13-0.054,0.198-0.13,0.274c-0.096,0.191-0.103,0.301,0,0.43c0.061,0.048,0.226,0.007,0.287-0.095
		c0.137-0.28,0.178-0.287,0.369-0.397c0.198,0,0.253,0.116,0.328,0.287c0.014,0.143,0.144,0.191,0.288,0.239
		c0.239,0.11,0.369,0.226,0.417,0.396c-0.082,0.287-0.246,0.301-0.39,0.383c-0.178,0.014-0.239,0.13-0.28,0.205
		c-0.075,0.158-0.28,0.356-0.438,0.315c-0.123-0.055-0.191-0.151-0.219-0.253c-0.116-0.178-0.164-0.239-0.355-0.198
		c-0.143,0.122-0.109,0.245-0.014,0.437c0.075,0.075,0.144,0.144,0.13,0.273c-0.041,0.164-0.315,0.239-0.493,0.226
		c-0.089,0-0.219-0.008-0.315,0.137c-0.143,0.089-0.239,0.219-0.527,0.151c-0.123-0.123-0.157-0.301-0.137-0.561
		c0.034-0.15-0.02-0.294-0.137-0.382c-0.109-0.144-0.178-0.28-0.068-0.445c0.205-0.137,0.335-0.007,0.602-0.034
		C44.47,26.718,44.593,26.602,44.593,26.513L44.593,26.513z"/>
	<g>
		<g>
			<defs>
				<polygon id="SVGID_1_" points="45.345,44.667 35.736,44.667 36.672,32.25 45.345,32.166 				"/>
			</defs>
			<clipPath id="SVGID_2_">
				<use xlink:href="#SVGID_1_"  overflow="visible"/>
			</clipPath>
			<path clip-path="url(#SVGID_2_)" fill="#F1C40F" d="M38.226,32.435c-0.143,0.219-0.116,0.65-0.26,0.876
				c-0.089,0.137-0.301,0.192-0.349,0.266c-0.117,0.164-0.117,0.465-0.185,0.588c-0.041,0.082-0.226,0.075-0.287,0.117
				c-0.274,0.171-0.499,0.567-0.499,0.909c0,0.185,0.178,0.424,0.178,0.581c0,0.295-0.15,0.65-0.287,0.883
				c-0.048,0.082-0.294,0.15-0.294,0.178c-0.089,0.369-0.52,0.102-0.711,0.199c-0.171,0.088-0.328,0.39-0.492,0.506
				c-0.178,0.13-0.15-0.198-0.15-0.246c0-0.109-0.13-0.335-0.171-0.342c-0.314-0.062-1.026-0.178-1.176,0.198
				c-0.034,0.102,0.069,0.342,0,0.39c-0.089,0.069-0.609-0.028-0.636,0.253c-0.014,0.15-0.034,0.601,0.034,0.848
				c0.041,0.137,0.185,0.246,0.369,0.233c0.527-0.048,0.048,0.376,0.356,0.56c0.315,0.191,0.739,0.116,1.053,0.028
				c0.274-0.075,0.109-0.527,0.171-0.588c0.055-0.048,0.205,0.061,0.205,0.061c0.123,0.445,0.704,0.438,1.053,0.499
				c0.096,0.014,0.144,0.212,0.178,0.233c0.082,0.04,0.26,0.081,0.26,0.177c0,0.294,0.246,0.582,0.239,0.814
				c-0.007,0.315-0.164,0.65-0.116,0.882c0.075,0.342,0.369,0.623,0.704,0.67c0.123,0.021,0.089,0.438,0.171,0.561
				c0.082,0.13,0.335,0.178,0.383,0.321c0.082,0.287,0.102,0.773,0.321,0.937c0.356,0.26,0.971,0.096,1.258-0.171
				c0.157-0.151,0.52-0.014,0.704-0.096c0.431-0.192,0.465-0.732,0.616-1.081c0.054-0.144,0.54-0.445,0.677-0.499
				c0.37-0.158,0.876-0.267,1.225-0.472c0.184-0.11,0.376-0.397,0.465-0.582c0.424-0.868,0.609-2.106,0.609-2.968
				c0-0.95-0.185-2.085-0.636-2.865c-0.082-0.136-0.314-0.349-0.451-0.451c-0.486-0.383-1.197-0.684-1.744-0.971
				c-0.294-0.15-0.185-0.643-0.322-0.848c-0.178-0.273-0.616-0.41-1.108-0.41c-0.075,0-0.15-0.226-0.239-0.267
				C38.985,32.203,38.424,32.135,38.226,32.435z M39.368,32.853c0.034,0.267,0.26,0.102,0.445,0.048
				c0.185-0.048,0.499,0.157,0.581,0.294c0.089,0.144-0.021,0.451,0.062,0.588c0.362,0.574,1.498,0.772,2.161,1.231
				c0.903,0.622,0.848,2.167,0.848,3.159c0,0.944-0.041,2.715-0.876,3.249c-0.684,0.43-1.942,0.527-2.168,1.293
				c-0.068,0.246-0.068,0.718-0.355,0.752c-0.123,0.021-0.363-0.116-0.582-0.116c-0.062,0-0.13,0.239-0.171,0.294
				c-0.246,0.301-0.697,0.233-0.937,0c-0.082-0.068-0.13-0.568,0.027-0.636l-0.027-0.123c-0.027-0.007-0.164-0.027-0.178-0.027
				c-0.157,0-0.287-0.219-0.349-0.322c-0.075-0.13,0.068-0.404-0.028-0.533c-0.082-0.096-0.438-0.137-0.588-0.246
				c-0.061-0.047-0.239-0.273-0.239-0.458c0-0.219,0.239-0.452,0.239-0.643c0-0.13-0.266-0.383-0.328-0.54
				c-0.055-0.137,0.068-0.567,0.068-0.567c-0.096-0.075-0.356-0.075-0.472-0.178c-0.048-0.048-0.164-0.349-0.205-0.411
				c-0.075-0.109-0.157,0.082-0.267,0.082c-0.198,0-0.479,0.013-0.609-0.144c-0.027-0.027-0.055-0.185-0.089-0.232
				c-0.137-0.151-0.527-0.198-0.759-0.198c-0.219,0,0.082,0.725-0.123,0.725c-0.185,0-0.444,0.096-0.561-0.055
				c-0.116-0.151,0.144-0.493,0.034-0.643c-0.096-0.124-0.465,0.109-0.643,0.034c-0.082-0.041-0.096-0.622,0-0.649
				c0.164-0.041,0.506,0.185,0.643,0.035c0.103-0.123-0.048-0.438-0.034-0.643c0.007-0.048,0.609-0.068,0.622,0
				c0.02,0.164-0.13,0.499,0,0.643c0.109,0.123,0.451-0.007,0.643-0.035c0.15-0.014,0.232-0.26,0.294-0.403
				c0.021-0.041,0.24-0.15,0.349-0.15c0.13,0,0.294,0.144,0.465,0.15c0.11,0,0.137-0.301,0.178-0.383
				c0.061-0.096,0.404-0.199,0.534-0.239c0.055-0.014-0.061-0.226-0.061-0.349c0-0.178,0.13-0.39,0.178-0.527
				c0-0.013,0.144-0.075,0.144-0.177c0-0.082-0.205-0.328-0.205-0.411c-0.007-0.137-0.014-0.41,0.061-0.581
				c0.068-0.171,0.451-0.308,0.698-0.376c0.082-0.021,0-0.363,0.034-0.506c0.041-0.191,0.397-0.362,0.554-0.437
				c0.069-0.035-0.116-0.301-0.116-0.376c0-0.253,0.198-0.499,0.438-0.554C38.862,32.518,39.347,32.62,39.368,32.853z"/>
		</g>
		<g>
			<defs>
				<polygon id="SVGID_3_" points="45.345,44.667 35.736,44.667 36.672,32.25 45.345,32.166 				"/>
			</defs>
			<clipPath id="SVGID_4_">
				<use xlink:href="#SVGID_3_"  overflow="visible"/>
			</clipPath>
			<path clip-path="url(#SVGID_4_)" fill="#E74C3C" d="M42.589,41.421c-0.684,0.43-1.942,0.527-2.168,1.293
				c-0.068,0.246-0.068,0.718-0.355,0.752c-0.123,0.021-0.363-0.116-0.582-0.116c-0.062,0-0.13,0.239-0.171,0.294
				c-0.246,0.301-0.697,0.233-0.937,0c-0.082-0.068-0.13-0.568,0.027-0.636l-0.027-0.123c-0.027-0.007-0.164-0.027-0.178-0.027
				c-0.157,0-0.287-0.219-0.349-0.322c-0.075-0.13,0.068-0.404-0.028-0.533c-0.082-0.096-0.438-0.137-0.588-0.246
				c-0.061-0.047-0.239-0.273-0.239-0.458c0-0.219,0.239-0.452,0.239-0.643c0-0.13-0.266-0.383-0.328-0.54
				c-0.055-0.137,0.068-0.567,0.068-0.567c-0.096-0.075-0.356-0.075-0.472-0.178c-0.048-0.048-0.164-0.349-0.205-0.411
				c-0.075-0.109-0.157,0.082-0.267,0.082c-0.198,0-0.479,0.013-0.609-0.144c-0.027-0.027-0.055-0.185-0.089-0.232
				c-0.137-0.151-0.527-0.198-0.759-0.198c-0.219,0,0.082,0.725-0.123,0.725c-0.185,0-0.444,0.096-0.561-0.055
				c-0.116-0.151,0.144-0.493,0.034-0.643c-0.096-0.124-0.465,0.109-0.643,0.034c-0.082-0.041-0.096-0.622,0-0.649
				c0.164-0.041,0.506,0.185,0.643,0.035c0.103-0.123-0.048-0.438-0.034-0.643c0.007-0.048,0.609-0.068,0.622,0
				c0.02,0.164-0.13,0.499,0,0.643c0.109,0.123,0.451-0.007,0.643-0.035c0.15-0.014,0.232-0.26,0.294-0.403
				c0.021-0.041,0.24-0.15,0.349-0.15c0.13,0,0.294,0.144,0.465,0.15c0.11,0,0.137-0.301,0.178-0.383
				c0.061-0.096,0.404-0.199,0.534-0.239c0.055-0.014-0.061-0.226-0.061-0.349c0-0.178,0.13-0.39,0.178-0.527
				c0-0.013,0.144-0.075,0.144-0.177c0-0.082-0.205-0.328-0.205-0.411c-0.007-0.137-0.014-0.41,0.061-0.581
				c0.068-0.171,0.451-0.308,0.698-0.376c0.082-0.021,0-0.363,0.034-0.506c0.041-0.191,0.397-0.362,0.554-0.437
				c0.069-0.035-0.116-0.301-0.116-0.376c0-0.253,0.198-0.499,0.438-0.554c0.164-0.041,0.65,0.062,0.67,0.294
				c0.034,0.267,0.26,0.102,0.445,0.048c0.185-0.048,0.499,0.157,0.581,0.294c0.089,0.144-0.021,0.451,0.062,0.588
				c0.362,0.574,1.498,0.772,2.161,1.231c0.903,0.622,0.848,2.167,0.848,3.159C43.464,39.117,43.423,40.887,42.589,41.421
				L42.589,41.421z"/>
		</g>
		<g>
			<defs>
				<polygon id="SVGID_5_" points="45.345,44.667 35.736,44.667 36.672,32.25 45.345,32.166 				"/>
			</defs>
			<clipPath id="SVGID_6_">
				<use xlink:href="#SVGID_5_"  overflow="visible"/>
			</clipPath>
			<path clip-path="url(#SVGID_6_)" fill="#F1C40F" d="M37.433,38.405c-0.397-0.014-0.137-0.54,0.096-0.376
				C37.74,38.18,37.61,38.412,37.433,38.405L37.433,38.405z M38.431,38.33c-0.198,0.185-0.396-0.144-0.233-0.273
				C38.39,37.906,38.581,38.186,38.431,38.33L38.431,38.33z M38.52,36.271c-0.082,0.206-0.082,0.466-0.178,0.705
				c-0.178-0.062-0.26-0.178-0.472-0.239c-0.048-0.233-0.082-0.527,0-0.794l0.123-0.055c0.15-0.027,0.267,0.089,0.41,0.178
				c0.034,0,0.055,0.089,0.116,0.171L38.52,36.271L38.52,36.271z M38.52,40.218c-0.082,0.089-0.205,0.205-0.403,0.294l-0.185-0.028
				c-0.205-0.205-0.11-0.534-0.062-0.793c0.096-0.055,0.328-0.144,0.445-0.26l0.062,0.028c0,0.205,0.082,0.465,0.144,0.704
				L38.52,40.218L38.52,40.218z M39.723,34.63c-0.226,0.068-0.403,0.294-0.588,0.417l-0.089-0.034
				c-0.068-0.075-0.178-0.226-0.267-0.26l-0.027-0.061l0.178-0.588l0.116-0.061h0.123C39.429,34.138,39.546,34.371,39.723,34.63
				L39.723,34.63z M39.723,41.804l-0.438,0.527l-0.239,0.027c-0.267-0.089-0.232-0.383-0.294-0.616
				c0.061-0.177,0.212-0.205,0.294-0.382h0.123c0.116,0.15,0.315,0.266,0.52,0.41L39.723,41.804L39.723,41.804z M40.777,41.681
				l-0.062,0.212c-0.082-0.034-0.178-0.089-0.294-0.15c-0.082-0.034-0.232,0.062-0.355,0.117l-0.547,0.676
				c-0.089,0.028-0.232,0.117-0.349,0.144c-0.123-0.028-0.267,0-0.417-0.117c-0.171-0.205-0.233-0.499-0.294-0.759l-0.198-0.035
				l-0.116-0.089c-0.027-0.055-0.027-0.144-0.089-0.233l0.144-0.15c0.089-0.027,0.178,0.034,0.294,0.089h0.116
				c0.123-0.055,0.171-0.151,0.266-0.322c0.199-0.205,0.465-0.492,0.848-0.438c0-0.144-0.178-0.144-0.205-0.267
				c0-0.054,0.109-0.143,0-0.198c-0.739-0.178-1.026,0.991-1.812,0.554c-0.178-0.143-0.15-0.438-0.212-0.643
				c0.034-0.089,0-0.233,0.089-0.349c-0.027-0.117-0.171-0.117-0.294-0.212c-0.055-0.082-0.055-0.177-0.055-0.288
				c0.028-0.061,0.116-0.088,0.199-0.15c0.15,0.027,0.185,0.178,0.355,0.239c0.527-0.061,0.965-0.787,1.58-0.444
				c0.062,0.027,0.062,0.088,0.178,0.15l0.034-0.089c-0.062-0.294-0.267-0.465-0.444-0.697l0.444-0.848
				c-0.096,0-0.123,0.089-0.212,0.15c-0.26,0.171-0.588,0.048-0.875-0.061l-0.588-0.383H37.79c-0.144,0.055-0.171,0.15-0.355,0.233
				l-0.109-0.055l-0.089-0.123c0-0.082-0.027-0.171,0.055-0.294c0.096-0.055,0.239-0.055,0.294-0.178
				c-0.089-0.198-0.055-0.404-0.089-0.636c0-0.096,0.061-0.151,0.123-0.267c0.062-0.054,0.109-0.116,0.253-0.177
				c0.65-0.144,0.91,0.766,1.587,0.643l0.123-0.11l-0.034-0.15c0-0.034,0.082-0.055,0.178-0.116v-0.089
				c-0.383,0.055-0.677-0.239-0.882-0.526c-0.089-0.055-0.109-0.198-0.26-0.26c-0.089,0-0.178,0.061-0.294,0.109
				c-0.062,0-0.232-0.027-0.232-0.144c0.027-0.055,0.027-0.144,0.089-0.233c0.02,0,0.144-0.116,0.26-0.089
				c0.116-0.15,0.116-0.41,0.233-0.643c0.062-0.089,0.116-0.178,0.294-0.239c0.178-0.02,0.383,0,0.588,0.123l0.759,0.787
				c0.116,0.034,0.26-0.027,0.41-0.116l0.061,0.089c0.055,0.588-0.355,1.088-0.827,1.374l-0.048,0.123
				c0.171,0.499,0.171,0.992-0.061,1.518c-0.034,0.062-0.123,0.206-0.185,0.322l-0.144,0.205c0.356,0.616,0.704,1.375,0.39,2.107
				l0.048,0.116c0.39,0.26,0.827,0.698,0.827,1.258L40.777,41.681L40.777,41.681z M42.274,36.005c-0.15,0.123-0.417,0-0.622,0.062
				l-0.055-0.089c0.027-0.055,0.055-0.15,0.116-0.233c0.089,0,0.089-0.116,0.233-0.116l0.123,0.055
				c0.021,0.089,0.11,0.144,0.171,0.294L42.274,36.005L42.274,36.005z M42.295,40.361c-0.055,0.151-0.171,0.294-0.287,0.418
				c-0.253,0-0.308-0.137-0.41-0.356l0.027-0.082c0.212,0,0.411,0,0.65,0L42.295,40.361L42.295,40.361z M42.446,36.655
				c-0.233,0.116-0.643,0-0.965,0.055c-0.089-0.034-0.034-0.144-0.062-0.267l0.144-0.082c0.273,0,0.527,0,0.821,0L42.446,36.655
				L42.446,36.655z M42.473,39.725c-0.055,0.082-0.027,0.177-0.088,0.287l-0.876,0.035c-0.061-0.062-0.143-0.206-0.089-0.321
				L42.473,39.725L42.473,39.725z M42.534,37.325l-1.169,0.027l-0.062-0.082v-0.123c0.027-0.055,0.062-0.082,0.144-0.144h1.06
				C42.534,37.092,42.507,37.208,42.534,37.325L42.534,37.325z M42.534,39.37l-1.142,0.027c0-0.082-0.123-0.171-0.089-0.294
				l0.089-0.061h1.115C42.534,39.137,42.507,39.254,42.534,39.37L42.534,39.37z M42.589,37.968l-0.055,0.061l-1.203-0.028
				c0-0.061-0.109-0.177-0.027-0.273l0.116-0.048h0.999l0.144,0.048L42.589,37.968L42.589,37.968z M42.589,38.61l-0.055,0.116
				l-1.203-0.028c-0.109-0.034,0-0.171-0.027-0.294h1.258L42.589,38.61L42.589,38.61z M42.856,38.296
				c-0.088,0.841-0.028,2.099-0.848,2.742c-0.355,0-0.499-0.321-0.677-0.677c-0.403-1.545-0.526-3.152,0.212-4.732
				c0.055-0.061,0.11-0.123,0.199-0.205l0.177-0.062c0.062,0,0.15,0.027,0.233,0.089c0.123,0.034,0.144,0.267,0.267,0.349
				C42.767,36.627,42.767,37.441,42.856,38.296L42.856,38.296z M36.769,38.269c-0.027,0.335-0.568,0.246-0.623-0.007
				C36.058,37.797,36.796,37.79,36.769,38.269L36.769,38.269z"/>
		</g>
	</g>
</g>
</svg>
