<?xml version="1.0" encoding="utf-8"?>
<!-- Generator: Adobe Illustrator 17.0.2, SVG Export Plug-In . SVG Version: 6.00 Build 0)  -->
<!DOCTYPE svg PUBLIC "-//W3C//DTD SVG 1.1//EN" "http://www.w3.org/Graphics/SVG/1.1/DTD/svg11.dtd">
<svg version="1.1" id="Layer_1" xmlns="http://www.w3.org/2000/svg" xmlns:xlink="http://www.w3.org/1999/xlink" x="0px" y="0px"
	 width="600px" height="600px" viewBox="0 0 600 600" enable-background="new 0 0 600 600" xml:space="preserve">
<path opacity="0.15" fill="#2C3E50" enable-background="new    " d="M372.93,87.449c0-4.741-3.844-8.585-8.585-8.585l-117.193,41
	c-5.935,2.392-8.585,4.844-8.585,9.585l-2.358,17.613L163,199.565l133.784,50.528l-52.194-96.791l0,0L372.93,99.37V87.449z"/>
<polygon fill="#F7F7F7" points="430.784,200.093 296.784,250.093 241.784,148.098 375.784,98.098 "/>
<path fill="#EAEAEA" d="M367.346,77.864l-117.193,41c-5.935,2.392-8.585,4.844-8.585,9.585v19.791L375.93,98.37V86.449
	C375.93,81.707,372.087,77.864,367.346,77.864z"/>
<polygon fill="#F2F2F2" points="296.892,248.54 163,199.565 163,540.029 296.892,589 430.784,540.029 430.784,199.565 "/>
<path opacity="0.15" fill="#2C3E50" enable-background="new    " d="M296.892,248.54V589l133.892-48.975v-340.46
	C430.784,199.565,296.892,248.54,296.892,248.54z"/>
<polygon fill="#E74C3C" points="296.892,290.54 430.784,204.54 430.784,200.093 416.066,172.799 296.892,247.565 "/>
<polygon fill="#C0392B" points="296.892,290.54 430.784,204.54 430.784,200.093 296.892,247.565 "/>
<polygon fill="#E74C3C" points="162.892,301.54 296.784,290.54 296.784,247.565 162.892,262.565 "/>
<polygon fill="#1B5982" points="430.784,308.509 296.892,392.333 296.892,314.282 430.784,229.414 "/>
<polygon fill="#206695" points="296.892,392.333 163,404.817 163,325.189 296.892,314.282 "/>
<path fill="#F2F2F2" d="M191.029,361.468c2.56-0.985,3.036-0.314,3.589,5.02c0.482-1.576,0.77-3.122,1.332-4.2
	c0.661-1.267,1.502-2.428,2.395-3.106c1.212-0.92,1.998,0.285,2.272,2.491c0.101,0.807,0.119,1.649,0.479,2.647
	c0.274-1.335,0.594-2.652,0.815-4.02c0.728-4.513,1.424-9.073,2.14-13.66c0.494-3.166,1.631-4.122,3.296-2.726
	c2.478,2.079,2.772,3.364,1.859,8.104c-0.503,2.612-0.986,5.221-1.5,7.948c1.005,0.097,1.853,0.179,2.708,0.261
	c0.714-3.167,3.331-6.4,5.478-6.586c1.328-0.115,2.081,1.035,2.217,3.221c0.145,2.329,0.279,4.664,0.817,7.192
	c0.619-2.647,1.253-5.304,1.865-7.99c0.812-3.566,2.315-5.348,4.673-5.406c1.457-0.036,2.108,1.226,2.009,3.42
	c-0.125,2.78-0.332,5.551-0.203,8.551c0.253-0.866,0.544-1.713,0.754-2.607c1.201-5.121,2.369-10.321,3.618-15.541
	c0.864-3.61,1.963-4.601,3.958-3.734c2.856,1.242,3.657,3.2,2.813,7.066c-0.371,1.702-0.805,3.372-1.233,5.151
	c2.709-0.463,4.539-6.597,8.01-2.512c0.639-4.293,2.12-7.957,5.753-7.302c3.638,0.655,1.617,5.509,2.407,8.806
	c1.06-3.103,1.929-5.898,2.961-8.608c1.318-3.46,4.197-5.112,6.775-3.864c2.201,1.066,1.881,3.736,1.363,6.038
	c-0.848,3.772-1.964,7.427-3.025,11.058c-0.928,3.176-1.626,6.293,0.789,8.768c1.93,1.979,4.756,1.627,7.319-1.406
	c2.869-3.395,5.517-7.267,8.285-11.11c2.914-4.046,6.477-5.253,8.772-2.741c2.783,3.046,2.462,8.46-0.981,12.357
	c-2.913,3.297-5.89,6.383-8.914,9.18c-8.537,7.896-15.809,6.704-21.669-1.899c-2.615,0.339-4.705,0.571-6.75,0.903
	c-0.518,0.084-1.163,0.294-1.477,0.793c-4.155,6.603-4.619,8.531-11.913,4.287c-0.019,2.713,0.001,5.363-0.064,8.004
	c-0.111,4.507-1.494,5.551-4.136,3.281c-1.748-1.502-3.044-3.357-2.838-6.733c0.049-0.8-0.124-1.646-0.195-2.483
	c-3.632,1.013-3.632,1.013-5.274-1.524c-2.317,0.975-4.317,1.765-6.253,2.677c-0.334,0.158-0.669,0.806-0.814,1.368
	c-2.867,11.127-10.199,8.821-12.871,0.503c-0.079-0.245-0.202-0.446-0.374-0.819c-1.843,1.359-3.655,1.284-5.33-1.071
	c-0.546,0.872-1.013,1.676-1.511,2.403c-2.314,3.376-4.362,1.931-4.928-3.419c-0.216-2.043-0.253-4.142-0.671-6.278
	c-0.501,4.077-1.008,8.128-1.492,12.169c-0.54,4.517-1.232,4.878-3.038,1.638c-0.497-0.891-1.013-1.729-1.566-2.669
	c-1.216,1.452-2.562,3.16-3.936,4.682c-3.526,3.905-6.173,1.763-7.578-5.99c-1.376-7.592-0.79-15.08,0.386-22.439
	c0.999-6.248,2.921-11.528,5.451-16.089c1.352-2.437,2.937-4.021,4.757-4.546c2.565-0.74,4.074,1.948,3.812,7.027
	c-0.098,1.904-0.348,3.819-0.641,5.668c-0.811,5.117-1.626,10.188-2.522,15.151c-0.489,2.708-1.327,3.067-2.305,0.975
	c-1.656-3.541-2.183-4.262-1.049-9.295c0.613-2.721,1.19-5.502,1.706-8.333c0.233-1.277,0.264-2.678,0.387-4.026
	c-0.132-0.115-0.264-0.229-0.395-0.344c-0.476,0.822-1.031,1.517-1.409,2.472c-3.367,8.526-5.429,17.694-5.507,28.307
	c-0.003,0.409-0.012,0.818-0.001,1.227c0.125,4.54,1.162,6.224,3.04,3.988c2.456-2.925,4.747-6.712,7.113-10.479
	c0.472-0.751,0.612-2.445,0.763-3.77c0.642-5.626,1.236-11.31,1.849-17.024c0.315-2.934,1.082-3.749,2.527-2.628
	c2.298,1.783,2.542,2.707,1.932,7.349C191.625,356.822,191.348,358.999,191.029,361.468z M206.079,374.169
	c-0.035,2.479,0.774,4.326,1.949,4.425c1.18,0.099,2.423-2.538,2.447-5.225c0.025-2.792-0.788-4.656-2.028-4.68
	C207.13,368.664,206.123,371.009,206.079,374.169z M243.194,360.704c-0.219-0.27-0.437-0.539-0.654-0.808
	c-1.898,1.604-3.765,3.183-5.603,4.737c-0.002,0.343-0.003,0.685-0.005,1.028c0.943,0.608,2.46,2.102,2.755,1.686
	C241.037,365.45,242.046,362.991,243.194,360.704z"/>
<polygon fill="#1B5982" points="430.784,485.509 296.892,569.333 296.892,491.282 430.784,406.414 "/>
<polygon fill="#C0392B" points="296.892,461.54 430.784,375.54 430.784,334.565 296.892,418.565 "/>
<polygon fill="#C0392B" points="430.784,540.029 430.784,515.565 337.275,574.23 "/>
<polygon fill="#E74C3C" points="162.892,472.54 296.784,461.54 296.784,418.565 162.892,433.565 "/>
<polygon fill="#206695" points="296.892,569.333 254.043,573.328 163,540.029 163,502.189 296.892,491.282 "/>
<polygon fill="none" points="296.892,248.54 163,199.565 163,540.029 296.892,589 430.784,540.029 430.784,199.565 "/>
</svg>
