<?xml version="1.0" encoding="utf-8"?>
<!-- Generator: Adobe Illustrator 17.0.2, SVG Export Plug-In . SVG Version: 6.00 Build 0)  -->
<!DOCTYPE svg PUBLIC "-//W3C//DTD SVG 1.1//EN" "http://www.w3.org/Graphics/SVG/1.1/DTD/svg11.dtd">
<svg version="1.1" id="Layer_1" xmlns="http://www.w3.org/2000/svg" xmlns:xlink="http://www.w3.org/1999/xlink" x="0px" y="0px"
	 width="100px" height="224.333px" viewBox="0 0 100 224.333" enable-background="new 0 0 100 224.333" xml:space="preserve">
<path fill="#223444" d="M79.147,110.86c-0.618-14.312-7.128-20.876-10.145-27.605c-3.168-7.067-7.043-68.567-7.043-68.567h-0.125
	c1.519,0,2.75-1.231,2.75-2.75s-1.231-2.75-2.75-2.75H50.211h-0.422H38.167c-1.519,0-2.75,1.231-2.75,2.75s1.231,2.75,2.75,2.75
	h-0.125c0,0-3.875,61.5-7.043,68.567c-3.017,6.729-9.527,13.293-10.145,27.605c-0.092,0.485-0.145,0.983-0.145,1.494v102
	c0,4.418,3.582,8,8,8h21.083h0.5h21c4.418,0,8-3.582,8-8v-102C79.292,111.843,79.239,111.345,79.147,110.86z"/>
<path fill="#2C3E50" d="M67.831,110.86c-0.258-9.902-2.805-18.048-4.785-21.201c-1.979-3.153-6.833-4.868-6.833-5.993
	s4.082-2.55,3.891-4.414c-1.592-15.535-2.662-64.565-2.662-64.565h-0.076c0.918,0,1.662-1.231,1.662-2.75s-0.744-2.75-1.662-2.75
	h-6.942H50.13h-0.128h-0.294h-6.942c-0.918,0-1.662,1.231-1.662,2.75s0.744,2.75,1.662,2.75H42.69c0,0-1.07,49.03-2.662,64.565
	c-0.191,1.864,3.891,3.289,3.891,4.414s-4.854,2.84-6.833,5.993s-4.526,11.298-4.785,21.201c-0.056,0.485-0.088,0.983-0.088,1.494
	v102c0,4.418,2.165,8,4.836,8h12.578h0.378h0.122h0.378h12.578c2.67,0,4.836-3.582,4.836-8v-102
	C67.918,111.843,67.886,111.345,67.831,110.86z"/>
<g>
	<path fill="#F1C40F" d="M53.268,154.213h-7.915l-9.381-31.775c-0.092-0.321-0.275-0.919-0.275-1.195
		c0-0.368,0.275-0.598,0.643-0.598c0.275,0,0.506,0.138,0.598,0.414l10.071,30.764c10.765-8.691,16.514-19.451,15.502-32.741
		c1.471-0.322,3.356-1.012,4.459-1.656C69.499,131.589,64.764,144.556,53.268,154.213L53.268,154.213z"/>
	<path fill="#F1C40F" d="M67.017,108.23c-4.231,3.31-10.806,4.644-18.722,1.655c-3.08-1.15-5.793-1.655-8.047-1.655
		c-5.932,0-8.967,3.357-8.967,6.898c0,2.896,1.978,4.874,4.553,4.874c0.598,0,1.196-0.139,1.701-0.369l10.623,29.246
		c0.827-0.551,4.419-4.138,5.523-5.747c-0.598-0.092-1.151-0.553-1.473-1.287c0,0-11.271-24.741-11.916-26.234
		c-0.697-1.611-1.277-2.741-2.203-3.24c1.11-0.393,2.939-0.321,4.474,0.301c1.463,0.592,3.913,2.165,6.987,3.526
		c3.26,1.44,5.595,2.089,8.18,2.218c4.357,0.218,9.168-1.617,11.678-3.979L67.017,108.23L67.017,108.23z M35.697,117.426
		c-0.92,0-1.702-0.782-1.702-1.701c0-0.92,0.782-1.702,1.702-1.702c0.919-0.001,1.7,0.781,1.7,1.702
		C37.397,116.644,36.615,117.426,35.697,117.426L35.697,117.426z"/>
	<path fill="#F1C40F" d="M53.268,154.213h-7.915l-9.381-31.775c-0.092-0.321-0.275-0.919-0.275-1.195
		c0-0.368,0.275-0.598,0.643-0.598c0.275,0,0.506,0.138,0.598,0.414l10.071,30.764c10.765-8.691,16.514-19.451,15.502-32.741
		c1.471-0.322,3.356-1.012,4.459-1.656C69.499,131.589,64.764,144.556,53.268,154.213L53.268,154.213z"/>
	<path fill="#F1C40F" d="M55.294,128.596c2.756-6.165,5.531-10.18,5.671-10.365c-0.048,0.227-1.24,4.96-4.064,11.093
		c-2.756,6.166-5.535,10.18-5.675,10.366C51.273,139.462,52.469,134.73,55.294,128.596L55.294,128.596z"/>
	<path fill="#F1C40F" d="M52.834,126.882c2.257-5.055,4.581-8.326,4.698-8.476c-0.036,0.187-0.967,4.09-3.285,9.116
		c-2.257,5.055-4.585,8.326-4.703,8.477C49.58,135.812,50.513,131.908,52.834,126.882L52.834,126.882z"/>
	<path fill="#F1C40F" d="M50.701,125.008c1.878-4.197,3.818-6.904,3.916-7.03c-0.029,0.156-0.788,3.398-2.716,7.572
		c-1.877,4.197-3.815,6.903-3.914,7.028C48.017,132.423,48.776,129.182,50.701,125.008L50.701,125.008z"/>
	<path fill="#F1C40F" d="M48.82,123.098c1.566-3.508,3.195-5.771,3.278-5.875c-0.025,0.131-0.657,2.845-2.269,6.333
		c-1.564,3.508-3.191,5.77-3.273,5.875C46.579,129.3,47.211,126.586,48.82,123.098L48.82,123.098z"/>
	<path fill="#F1C40F" d="M47.098,121.213c1.304-2.924,2.671-4.804,2.739-4.891c-0.02,0.109-0.535,2.375-1.876,5.283
		c-1.304,2.925-2.671,4.804-2.739,4.891C45.241,126.387,45.756,124.121,47.098,121.213L47.098,121.213z"/>
	<path fill="#F1C40F" d="M45.533,119.418c1.074-2.409,2.196-3.96,2.252-4.033c-0.016,0.09-0.445,1.956-1.55,4.351
		c-1.074,2.41-2.195,3.961-2.253,4.033C43.999,123.68,44.428,121.813,45.533,119.418L45.533,119.418z"/>
	<path fill="#F1C40F" d="M44.069,117.668c0.874-1.96,1.801-3.217,1.847-3.274c-0.012,0.073-0.347,1.598-1.246,3.546
		c-0.874,1.96-1.801,3.216-1.847,3.274C42.835,121.141,43.17,119.615,44.069,117.668L44.069,117.668z"/>
	<path fill="#F1C40F" d="M44.156,113.446c-0.009,0.059-0.257,1.261-0.964,2.79c-0.685,1.539-1.427,2.517-1.464,2.562
		c0.009-0.058,0.257-1.261,0.964-2.789C43.375,114.471,44.118,113.492,44.156,113.446L44.156,113.446z"/>
</g>
<path fill="#192A3A" d="M61.25,3.313H49.833H38.75c-1.795,0-3.25,1.315-3.25,2.938s1.455,2.937,3.25,2.937h22.5
	c1.795,0,3.25-1.314,3.25-2.937S63.045,3.313,61.25,3.313z"/>
<path opacity="0.2" fill="#FFFFFF" enable-background="new    " d="M67.913,110.735c-0.258-9.902-2.805-18.048-4.785-21.201
	c-1.979-3.153-6.833-4.868-6.833-5.993s4.082-2.55,3.891-4.414c-1.592-15.535-2.662-64.565-2.662-64.565h-0.076
	c0.918,0,1.662-1.231,1.662-2.75s-0.744-2.75-1.662-2.75h-6.942h-0.058c0.918,0,1.662,1.231,1.662,2.75s-0.744,2.75-1.662,2.75
	h0.076c0,0,1.07,49.03,2.662,64.565c0.191,1.864-3.891,3.289-3.891,4.414s4.854,2.84,6.833,5.993
	c1.98,3.153,4.527,11.299,4.785,21.201c0.055,0.485,0.087,0.983,0.088,1.494v102c0,4.418-2.166,8-4.836,8h7
	c2.67,0,4.836-3.582,4.836-8v-102C68.001,111.719,67.968,111.221,67.913,110.735z"/>
<path fill="#223444" d="M59.25,80.89c-0.622,0.446-1.431,0.506-1.431,0.506h-6.944h-1.639h-6.944c0,0-0.809-0.061-1.431-0.506
	c-1.332-0.954-3.026,6.597-0.271,5.453c1.581-0.656,3.577-0.843,3.577-0.843h4.882h2.013h4.882c0,0,1.996,0.186,3.577,0.843
	C62.277,87.487,60.582,79.936,59.25,80.89z"/>
<path opacity="0.1" enable-background="new    " d="M79.438,110.943C78.82,96.631,72.31,90.067,69.293,83.338
	c-2.065-4.606-4.376-31.609-5.773-50.362c0,0-2.438-0.726-13.169-0.726c-10.73,0-13.231,0.799-13.231,0.799
	c-1.397,18.754-3.766,45.684-5.83,50.29c-3.017,6.729-9.527,13.293-10.145,27.605c-0.092,0.485-0.145,0.983-0.145,1.494v102
	c0,4.418,3.582,8,8,8h21.083h0.5h21c4.418,0,8-3.582,8-8v-102C79.583,111.926,79.53,111.428,79.438,110.943z"/>
<path opacity="0.1" enable-background="new    " d="M63.296,32.974c0,0.446-5.921,0.515-13.23,0.515s-13.24-0.068-13.24-0.515
	s5.926-0.808,13.235-0.808S63.296,32.528,63.296,32.974z"/>
<g>
	<path fill="#ECF0F1" d="M72.135,178.995c-1.121,0-1.774-0.352-2.126-0.352v-1.826h0.183c0.157,0.796,0.978,1.344,1.852,1.344
		c0.744,0,1.331-0.391,1.331-1.174c0-0.534-0.261-1.004-0.939-1.474l-0.952-0.652c-0.822-0.561-1.513-1.2-1.513-2.348
		c0-1.357,0.913-2.231,2.426-2.231c0.9,0,1.278,0.209,1.8,0.261v1.578h-0.183c-0.118-0.6-0.743-1.083-1.578-1.083
		c-0.783,0-1.135,0.431-1.135,1.004c0,0.496,0.3,0.887,1.03,1.383l0.822,0.548c1.265,0.848,1.656,1.461,1.656,2.517
		C74.809,178.042,73.727,178.995,72.135,178.995L72.135,178.995z M66.774,178.995c-1.122,0-1.774-0.352-2.126-0.352v-1.826h0.183
		c0.157,0.796,0.978,1.344,1.852,1.344c0.744,0,1.331-0.391,1.331-1.174c0-0.534-0.261-1.004-0.939-1.474l-0.952-0.652
		c-0.822-0.561-1.513-1.2-1.513-2.348c0-1.357,0.913-2.231,2.426-2.231c0.9,0,1.278,0.209,1.8,0.261v1.578h-0.183
		c-0.117-0.6-0.744-1.083-1.578-1.083c-0.783,0-1.135,0.431-1.135,1.004c0,0.496,0.3,0.887,1.03,1.383l0.822,0.548
		c1.265,0.848,1.656,1.461,1.656,2.517C69.448,178.042,68.366,178.995,66.774,178.995L66.774,178.995z M59.47,178.864v-0.169
		c0.065-0.065,0.079-0.405,0.079-0.587v-6.653c0-0.548-0.183-0.835-0.378-0.874v-0.17h4.578v1.148h-0.169
		c-0.039-0.195-0.43-0.326-0.678-0.326h-1.735v2.896h1.46c0.196,0,0.653-0.052,0.705-0.182h0.17v1.096h-0.17
		c-0.066-0.065-0.431-0.091-0.652-0.091h-1.513v3.091h1.721c0.47,0,0.757-0.183,0.809-0.391h0.169v1.213H59.47L59.47,178.864z
		 M57.07,178.864l-4.317-7.631c-0.144-0.261-0.418-0.613-0.665-0.652v-0.17h2.087l3.013,5.4v-4.357c0-0.548-0.143-0.835-0.326-0.874
		v-0.17H58.1v8.452H57.07L57.07,178.864z M52.583,178.864v-0.169c0.065-0.065,0.078-0.561,0.078-0.652v-5.831l0.913,1.683v4.109
		c0,0.326,0.065,0.652,0.13,0.691v0.169H52.583L52.583,178.864z M50.207,178.864l-4.318-7.631c-0.144-0.261-0.418-0.613-0.665-0.652
		v-0.17h2.087l3.013,5.4v-4.357c0-0.548-0.144-0.835-0.326-0.874v-0.17h1.24v8.452H50.207L50.207,178.864z M45.72,178.864v-0.169
		c0.065-0.065,0.078-0.561,0.078-0.652v-5.831l0.913,1.683v4.109c0,0.326,0.065,0.652,0.131,0.691v0.169H45.72L45.72,178.864z
		 M42.681,178.864v-0.169c0.052-0.039,0.091-0.405,0.091-0.626v-6.613c0-0.548-0.183-0.835-0.378-0.874v-0.17h1.983v7.513
		c0,0.483,0.091,0.756,0.144,0.769v0.169H42.681L42.681,178.864z M41.22,177.403c-0.313,1.057-1.161,1.591-2.531,1.591
		c-1.983,0-2.818-1.109-2.818-2.805v-4.735c0-0.548-0.183-0.835-0.378-0.874v-0.17h2.009v5.817c0,0.561,0.065,0.861,0.182,1.096
		c0.261,0.509,0.73,0.665,1.239,0.665c0.535,0,1.043-0.157,1.304-0.665c0.117-0.235,0.183-0.535,0.183-1.161v-4.709
		c0-0.548-0.183-0.835-0.378-0.874v-0.17h1.344v5.635C41.376,176.712,41.324,177.077,41.22,177.403L41.22,177.403z M34.567,174.729
		v3.874c-0.091,0.039-1.239,0.418-2.752,0.418c-2.361,0-4.356-1.708-4.356-5.283c0-3.092,1.748-5.14,4.278-5.14
		c1.239,0,1.826,0.313,2.191,0.313c0.052,0,0.078-0.013,0.091-0.026h0.13v2.1h-0.209c-0.248-1.07-1.07-1.539-1.983-1.539
		c-1.487,0-2.7,1.239-2.7,4.226c0,3.196,1.344,4.461,2.752,4.461c0.404,0,0.691-0.052,0.874-0.13v-3.052
		c0-0.443-0.118-1.004-0.6-1.109v-0.183h2.374v0.169C34.593,173.868,34.567,174.468,34.567,174.729L34.567,174.729z"/>
</g>
<g>
	<path fill="#F1C40F" d="M50.485,41.223h-1.247l-1.478-5.007c-0.015-0.051-0.043-0.145-0.043-0.188c0-0.058,0.043-0.094,0.101-0.094
		c0.043,0,0.08,0.022,0.094,0.065l1.587,4.848c1.696-1.369,2.602-3.065,2.443-5.159c0.232-0.051,0.529-0.16,0.703-0.261
		C53.042,37.658,52.296,39.701,50.485,41.223L50.485,41.223z"/>
	<path fill="#F1C40F" d="M52.651,33.977c-0.667,0.522-1.703,0.732-2.95,0.261c-0.485-0.181-0.913-0.261-1.268-0.261
		c-0.935,0-1.413,0.529-1.413,1.087c0,0.456,0.312,0.768,0.717,0.768c0.094,0,0.188-0.022,0.268-0.058l1.674,4.608
		c0.13-0.087,0.696-0.652,0.87-0.906c-0.094-0.015-0.181-0.087-0.232-0.203c0,0-1.776-3.899-1.878-4.134
		c-0.11-0.254-0.201-0.432-0.347-0.51c0.175-0.062,0.463-0.051,0.705,0.047c0.231,0.093,0.617,0.341,1.101,0.556
		c0.514,0.227,0.882,0.329,1.289,0.35c0.687,0.034,1.445-0.255,1.84-0.627L52.651,33.977L52.651,33.977z M47.716,35.426
		c-0.145,0-0.268-0.123-0.268-0.268c0-0.145,0.123-0.268,0.268-0.268c0.145,0,0.268,0.123,0.268,0.268
		C47.984,35.303,47.861,35.426,47.716,35.426L47.716,35.426z"/>
	<path fill="#F1C40F" d="M50.485,41.223h-1.247l-1.478-5.007c-0.015-0.051-0.043-0.145-0.043-0.188c0-0.058,0.043-0.094,0.101-0.094
		c0.043,0,0.08,0.022,0.094,0.065l1.587,4.848c1.696-1.369,2.602-3.065,2.443-5.159c0.232-0.051,0.529-0.16,0.703-0.261
		C53.042,37.658,52.296,39.701,50.485,41.223L50.485,41.223z"/>
	<path fill="#F1C40F" d="M50.804,37.186c0.434-0.971,0.872-1.604,0.894-1.633c-0.008,0.036-0.195,0.782-0.64,1.748
		c-0.434,0.972-0.872,1.604-0.894,1.633C50.17,38.899,50.359,38.153,50.804,37.186L50.804,37.186z"/>
	<path fill="#F1C40F" d="M50.416,36.916c0.356-0.796,0.722-1.312,0.74-1.336c-0.006,0.029-0.152,0.645-0.518,1.437
		c-0.356,0.796-0.723,1.312-0.741,1.336C49.904,38.323,50.051,37.708,50.416,36.916L50.416,36.916z"/>
	<path fill="#F1C40F" d="M50.08,36.621c0.296-0.661,0.602-1.088,0.617-1.108c-0.005,0.025-0.124,0.535-0.428,1.193
		c-0.296,0.661-0.601,1.088-0.617,1.107C49.657,37.789,49.777,37.279,50.08,36.621L50.08,36.621z"/>
	<path fill="#F1C40F" d="M49.784,36.32c0.247-0.553,0.503-0.909,0.516-0.926c-0.004,0.021-0.104,0.448-0.358,0.998
		c-0.247,0.553-0.503,0.909-0.516,0.926C49.431,37.297,49.53,36.87,49.784,36.32L49.784,36.32z"/>
	<path fill="#F1C40F" d="M49.512,36.023c0.206-0.461,0.421-0.757,0.432-0.771c-0.003,0.017-0.084,0.374-0.296,0.832
		c-0.206,0.461-0.421,0.757-0.432,0.771C49.22,36.838,49.301,36.481,49.512,36.023L49.512,36.023z"/>
	<path fill="#F1C40F" d="M49.266,35.74c0.169-0.38,0.346-0.624,0.355-0.635c-0.003,0.014-0.07,0.308-0.244,0.686
		c-0.169,0.38-0.346,0.624-0.355,0.635C49.024,36.412,49.092,36.118,49.266,35.74L49.266,35.74z"/>
	<path fill="#F1C40F" d="M49.035,35.464c0.138-0.309,0.284-0.507,0.291-0.516c-0.002,0.012-0.055,0.252-0.196,0.559
		c-0.138,0.309-0.284,0.507-0.291,0.516C48.841,36.012,48.894,35.771,49.035,35.464L49.035,35.464z"/>
	<path fill="#F1C40F" d="M49.049,34.799c-0.001,0.009-0.04,0.199-0.152,0.44c-0.108,0.242-0.225,0.397-0.231,0.404
		c0.001-0.009,0.04-0.199,0.152-0.439C48.926,34.961,49.043,34.806,49.049,34.799L49.049,34.799z"/>
	<path fill="#ECF0F1" d="M60.989,46.934c-0.582,0-0.92-0.183-1.103-0.183v-0.947h0.095c0.081,0.413,0.507,0.697,0.961,0.697
		c0.386,0,0.69-0.203,0.69-0.609c0-0.277-0.135-0.521-0.487-0.764l-0.494-0.338c-0.426-0.291-0.785-0.622-0.785-1.218
		c0-0.704,0.473-1.157,1.258-1.157c0.467,0,0.663,0.108,0.934,0.136v0.819h-0.095c-0.061-0.311-0.386-0.562-0.819-0.562
		c-0.406,0-0.589,0.223-0.589,0.521c0,0.257,0.156,0.46,0.534,0.717l0.426,0.284c0.656,0.44,0.859,0.758,0.859,1.306
		C62.376,46.44,61.814,46.934,60.989,46.934L60.989,46.934z M58.208,46.934c-0.582,0-0.92-0.183-1.103-0.183v-0.947H57.2
		c0.081,0.413,0.507,0.697,0.96,0.697c0.386,0,0.69-0.203,0.69-0.609c0-0.277-0.135-0.521-0.487-0.764l-0.494-0.338
		c-0.426-0.291-0.785-0.622-0.785-1.218c0-0.704,0.474-1.157,1.259-1.157c0.467,0,0.663,0.108,0.934,0.136v0.819h-0.095
		c-0.061-0.311-0.386-0.562-0.819-0.562c-0.406,0-0.589,0.223-0.589,0.521c0,0.257,0.155,0.46,0.534,0.717l0.426,0.284
		c0.656,0.44,0.859,0.758,0.859,1.306C59.595,46.44,59.034,46.934,58.208,46.934L58.208,46.934z M54.419,46.867v-0.088
		c0.034-0.034,0.041-0.21,0.041-0.304v-3.451c0-0.284-0.095-0.433-0.196-0.453v-0.088h2.375v0.595h-0.088
		c-0.02-0.101-0.223-0.169-0.352-0.169h-0.9v1.502h0.758c0.102,0,0.339-0.027,0.366-0.094h0.088v0.568h-0.088
		c-0.034-0.034-0.223-0.047-0.338-0.047h-0.785v1.603h0.893c0.244,0,0.393-0.095,0.42-0.203h0.088v0.629H54.419L54.419,46.867z
		 M53.175,46.867l-2.239-3.958c-0.075-0.136-0.217-0.318-0.345-0.338v-0.088h1.082l1.563,2.801v-2.26
		c0-0.284-0.074-0.433-0.169-0.453v-0.088h0.643v4.384H53.175L53.175,46.867z M50.847,46.867v-0.088
		c0.034-0.034,0.04-0.291,0.04-0.338v-3.024l0.474,0.873v2.131c0,0.169,0.034,0.338,0.068,0.359v0.088H50.847L50.847,46.867z
		 M49.615,46.867l-2.239-3.958c-0.074-0.136-0.217-0.318-0.345-0.338v-0.088h1.083l1.563,2.801v-2.26
		c0-0.284-0.074-0.433-0.169-0.453v-0.088h0.643v4.384H49.615L49.615,46.867z M47.288,46.867v-0.088
		c0.034-0.034,0.041-0.291,0.041-0.338v-3.024l0.474,0.873v2.131c0,0.169,0.034,0.338,0.068,0.359v0.088H47.288L47.288,46.867z
		 M45.711,46.867v-0.088c0.027-0.02,0.047-0.21,0.047-0.325v-3.43c0-0.284-0.095-0.433-0.196-0.453v-0.088h1.028v3.897
		c0,0.25,0.047,0.392,0.074,0.399v0.088H45.711L45.711,46.867z M44.953,46.109c-0.162,0.548-0.602,0.825-1.313,0.825
		c-1.028,0-1.461-0.575-1.461-1.455v-2.456c0-0.284-0.095-0.433-0.196-0.453v-0.088h1.042V45.5c0,0.291,0.034,0.446,0.095,0.568
		c0.135,0.264,0.379,0.345,0.643,0.345c0.277,0,0.541-0.081,0.677-0.345c0.061-0.122,0.095-0.277,0.095-0.602v-2.442
		c0-0.284-0.095-0.433-0.196-0.453v-0.088h0.697v2.923C45.035,45.75,45.008,45.94,44.953,46.109L44.953,46.109z M41.503,44.722
		v2.009c-0.047,0.02-0.643,0.217-1.428,0.217c-1.224,0-2.26-0.886-2.26-2.74c0-1.604,0.907-2.666,2.219-2.666
		c0.643,0,0.947,0.163,1.137,0.163c0.027,0,0.041-0.007,0.047-0.014h0.068v1.089h-0.108c-0.129-0.555-0.555-0.798-1.028-0.798
		c-0.771,0-1.4,0.643-1.4,2.192c0,1.658,0.697,2.314,1.428,2.314c0.21,0,0.359-0.027,0.453-0.068v-1.583
		c0-0.23-0.061-0.521-0.311-0.575v-0.095h1.231v0.088C41.516,44.275,41.503,44.586,41.503,44.722L41.503,44.722z"/>
</g>
</svg>
