<?xml version="1.0" encoding="utf-8"?>
<!-- Generator: Adobe Illustrator 17.0.2, SVG Export Plug-In . SVG Version: 6.00 Build 0)  -->
<!DOCTYPE svg PUBLIC "-//W3C//DTD SVG 1.1//EN" "http://www.w3.org/Graphics/SVG/1.1/DTD/svg11.dtd">
<svg version="1.1" id="Layer_1" xmlns="http://www.w3.org/2000/svg" xmlns:xlink="http://www.w3.org/1999/xlink" x="0px" y="0px"
	 width="100px" height="224.333px" viewBox="0 0 100 224.333" enable-background="new 0 0 100 224.333" xml:space="preserve">
<path fill="#27AE60" d="M50.208,14.688L50.208,14.688l0.003-5.5H38.167c-1.519,0-2.75,1.231-2.75,2.75s1.231,2.75,2.75,2.75h-0.125
	c0,0-3.875,61.5-7.043,68.567c-3.017,6.729-9.527,13.293-10.145,27.605c-0.092,0.485-0.145,0.983-0.145,1.494v102
	c0,4.418,3.582,8,8,8h21.583L50.208,14.688z"/>
<path fill="#27AE60" d="M49.792,14.688L49.792,14.688l-0.003-5.5h12.045c1.519,0,2.75,1.231,2.75,2.75s-1.231,2.75-2.75,2.75h0.125
	c0,0,3.875,61.5,7.043,68.567c3.017,6.729,9.527,13.293,10.145,27.605c0.092,0.485,0.145,0.983,0.145,1.494v102c0,4.418-3.582,8-8,8
	h-21.5V14.688z"/>
<path fill="#2ECC71" d="M61.25,3.313h-22.5c-1.795,0-3.25,1.315-3.25,2.938c0,1.623,1.455,2.937,3.25,2.937h22.5
	c1.795,0,3.25-1.314,3.25-2.937C64.5,4.628,63.045,3.313,61.25,3.313z"/>
<path opacity="0.3" d="M61.25,3.313h-22.5c-1.795,0-3.25,1.315-3.25,2.938c0,1.623,1.455,2.937,3.25,2.937h22.5
	c1.795,0,3.25-1.314,3.25-2.937C64.5,4.628,63.045,3.313,61.25,3.313z"/>
<path fill="#ECF0F1" d="M77.513,161.084c0,28.913-12.187,39.146-27.221,39.146s-27.221-8.608-27.221-39.146
	s12.187-39.146,27.221-39.146S77.513,132.171,77.513,161.084z"/>
<path fill="#27AE60" d="M73.513,161.398c0,25.727-9.844,34.832-23.221,34.832s-23.221-7.66-23.221-34.832
	s9.844-34.832,23.221-34.832S73.513,135.672,73.513,161.398z"/>
<path fill="#ECF0F1" d="M64.829,161.674c0,16.664-6.376,22.561-15.041,22.561s-15.041-4.961-15.041-22.561
	s6.376-22.561,15.041-22.561S64.829,145.011,64.829,161.674z"/>
<image overflow="visible" width="183" height="275" xlink:href="../../../../../Downloads/download (1).jpeg"  transform="matrix(1 0 0 1 -185.6667 -69)">
</image>
<g>
	<path fill="#FFFFFF" d="M50.384,143.689l1.276,4.041c1.327,0.052,2.707-0.052,4.06,0c0.156,0.052,0.312,0.201,0.364,0.358
		c0.182,0.599-0.52,0.781-0.833,1.093c-0.833,0.651-1.718,1.275-2.499,1.978l1.223,4.008c0.026,0.208-0.078,0.442-0.286,0.572
		c-0.182,0.104-0.443,0.104-0.625-0.026l-3.176-2.343c-1.145,0.755-2.238,1.666-3.383,2.421c-0.156,0.078-0.338,0.026-0.468-0.052
		c-0.208-0.13-0.286-0.312-0.312-0.52c0.39-1.379,0.833-2.733,1.25-4.086l-3.254-2.524c-0.078-0.157-0.156-0.39-0.052-0.573
		c0.052-0.156,0.182-0.254,0.312-0.306c1.327-0.052,2.681,0.026,4.06,0l1.327-4.145c0.104-0.156,0.286-0.234,0.468-0.234
		C50.072,143.35,50.306,143.481,50.384,143.689L50.384,143.689z"/>
	<path fill="#E74C3C" d="M55.433,148.27l-3.383,2.629c0.416,1.431,0.911,2.837,1.327,4.268l-3.514-2.577l-3.514,2.577
		c0.416-1.432,0.937-2.837,1.327-4.294c-1.119-0.885-2.264-1.718-3.384-2.603h4.191c0.495-1.405,0.885-2.837,1.353-4.269
		l1.353,4.269L55.433,148.27L55.433,148.27z"/>
	<path fill="#FFFFFF" d="M79.442,163.301c-0.339,0.182-0.703,0.468-0.937,0.833c-0.468,0.703-0.625,1.796-0.234,2.577
		c0.26,0.495,0.624,1.016,1.171,1.224l-1.666,5.882l-0.156,0.078l-9.696,2.031v-2.323H33.282v2.336l-9.826-2.056
		c-0.625-1.952-1.172-3.93-1.718-5.909c1.015-0.494,1.484-1.588,1.379-2.681c-0.156-0.781-0.599-1.614-1.379-1.926l1.692-5.908
		l9.852-2.082v2.31h34.643v-2.323l9.8,2.056L79.442,163.301L79.442,163.301z"/>
	<path fill="#2C3E50" d="M32.644,172.97l35.886-0.013c0.078,0.677-0.026,1.432,0,2.134l8.622-1.744l0.105-0.078
		c0.495-1.666,0.963-3.332,1.405-4.997c-0.677-0.547-1.067-1.302-1.197-2.109c-0.156-1.249,0.26-2.421,1.197-3.175l-1.431-5.023
		l-8.7-1.796v2.186l-35.886,0.013v-2.186l-8.719,1.848l-1.406,4.971c0.599,0.443,0.963,1.093,1.145,1.77
		c0.338,1.302-0.104,2.733-1.145,3.514l1.406,5.05l8.719,1.796L32.644,172.97L32.644,172.97z"/>
	<path fill="#FFFFFF" d="M69.187,156.976l7.522,1.536l1.249,4.216c-0.989,1.015-1.379,2.499-1.041,3.878
		c0.182,0.703,0.443,1.38,1.041,1.9l-1.197,4.268l-7.574,1.536v-1.978l-37.181-0.005c-0.078,0.651,0.026,1.345,0,1.97l-7.535-1.484
		l-0.078-0.104l-1.171-4.138c1.067-1.119,1.458-2.811,0.937-4.269c-0.182-0.573-0.468-1.093-0.937-1.536l1.223-4.216l1.015-0.234
		l6.546-1.327v1.978l37.181,0.013L69.187,156.976L69.187,156.976z"/>
	<polygon fill="#2C3E50" points="69.844,158.98 69.844,157.757 75.694,158.98 	"/>
	<path fill="#2C3E50" d="M31.342,158.993h-5.856c1.952-0.416,3.904-0.833,5.856-1.197V158.993L31.342,158.993z"/>
	<path fill="#2C3E50" d="M76.371,159.65c0.312,0.963,0.599,1.932,0.833,2.921c-1.119,1.406-1.38,3.592-0.573,5.232
		c0.157,0.312,0.338,0.624,0.599,0.885l-0.807,2.942l-51.639,0.039l-0.807-2.915c1.041-1.301,1.405-3.306,0.729-4.919
		c-0.182-0.443-0.391-0.859-0.729-1.249l0.807-2.934H76.371L76.371,159.65z"/>
	<path fill="#FFFFFF" d="M42.352,161.309c0.208,0.208,0.286,0.443,0.286,0.729c-0.052,0.26-0.104,0.52-0.338,0.703
		c-0.234,0.234-0.572,0.312-0.911,0.234c-0.26-0.052-0.521-0.26-0.651-0.495c-0.182-0.338-0.156-0.807,0.104-1.093
		c0.182-0.234,0.468-0.338,0.729-0.39C41.884,160.997,42.144,161.127,42.352,161.309L42.352,161.309z"/>
	<path fill="#FFFFFF" d="M58.412,161.18c0.13,0,0.156,0.156,0.208,0.234c0,1.275-0.026,2.577,0.026,3.852
		c0.416-0.364,0.859-0.729,1.197-1.145c-0.052-0.156-0.261-0.13-0.338-0.286c-0.026-0.208-0.008-0.349,0.096-0.505h2.444
		c0.156,0.13,0.219,0.271,0.141,0.479c-0.13,0.13-0.338,0.078-0.469,0.234c-0.442,0.416-0.937,0.729-1.249,1.249
		c0.468,0.989,0.989,1.952,1.587,2.889c0.208,0.13,0.599,0.156,0.573,0.468c-0.026,0.312-0.098,0.539-0.547,0.539h-1.484
		c-0.547-0.885-1.015-1.788-1.536-2.648l-0.416,0.391c-0.078,0.469-0.078,1.041,0.312,1.354c0.104,0.052,0.234,0.078,0.312,0.208
		c0,0.261,0.026,0.54-0.208,0.696h-2.733c-0.156-0.182-0.182-0.409-0.156-0.669c0.156-0.234,0.533-0.286,0.612-0.572v-5.622
		c-0.052-0.338-0.456-0.391-0.612-0.625c0-0.182-0.052-0.416,0.104-0.521L58.412,161.18L58.412,161.18z"/>
	<path fill="#FFFFFF" d="M33.555,167.64c0.026,0.234-0.026,0.547,0.234,0.651c0.234,0.13,0.573,0.235,0.495,0.598
		c-0.052,0.104-0.026,0.241-0.156,0.293h-3.201c-0.208-0.13-0.104-0.396-0.104-0.605c0.182-0.182,0.521-0.156,0.625-0.443
		c0.052-0.858,0.156-1.744,0.078-2.603l-0.104-0.13h-1.666l-0.13,0.156c-0.078,0.885,0.026,1.744,0.078,2.603
		c0.156,0.261,0.495,0.235,0.65,0.468c-0.026,0.182,0.052,0.339-0.052,0.495l-0.13,0.059h-3.149
		c-0.208-0.156-0.104-0.423-0.078-0.631c0.208-0.182,0.533-0.208,0.638-0.494v-5.805c-0.156-0.234-0.455-0.26-0.638-0.416
		c-0.026-0.208-0.104-0.495,0.104-0.651h3.046c0.156,0.156,0.104,0.443,0.078,0.625c-0.156,0.182-0.442,0.182-0.52,0.443
		c-0.052,0.651-0.078,1.223-0.026,1.874l0.104,0.104h1.692l0.104-0.104c0.052-0.677,0.026-1.275-0.052-1.926
		c-0.104-0.26-0.416-0.208-0.52-0.468c0.026-0.182-0.052-0.416,0.13-0.547h3.046c0.208,0.156,0.13,0.468,0.078,0.677
		c-0.208,0.13-0.547,0.182-0.651,0.468v5.31H33.555z"/>
	<path fill="#FFFFFF" d="M73.638,163.6c0.208,0.286,0.286,0.599,0.338,0.937v3.54c0.182,0.364,0.391-0.182,0.651-0.026
		c0.182,0.104,0.208,0.312,0.156,0.468c-0.235,0.495-0.781,0.703-1.275,0.755c-0.468-0.052-0.997-0.182-1.231-0.676
		c-0.208-1.224,0.007-2.629-0.175-3.905c-0.078-0.13-0.234-0.26-0.416-0.26c-0.286,0.026-0.547,0.208-0.703,0.468
		c-0.156,1.041-0.156,2.238,0,3.253l0.468,0.364c-0.026,0.235,0.104,0.513-0.13,0.669h-2.785c-0.182-0.156-0.104-0.409-0.13-0.617
		c0.156-0.235,0.576-0.26,0.602-0.599l-0.003-3.462c0.026-0.26-0.286-0.416-0.442-0.599c-0.026-0.208-0.078-0.454,0.104-0.584
		l2.108,0.004c0.104,0.078,0.078,0.398,0.312,0.294C71.79,163.184,72.961,162.871,73.638,163.6L73.638,163.6z"/>
	<path fill="#FFFFFF" d="M48.951,163.6c0.208,0.286,0.286,0.599,0.338,0.937v3.54c0.182,0.364,0.39-0.182,0.651-0.026
		c0.182,0.104,0.208,0.312,0.156,0.468c-0.234,0.495-0.781,0.703-1.276,0.755c-0.468-0.052-0.996-0.182-1.23-0.676
		c-0.208-1.224,0.007-2.629-0.175-3.905c-0.078-0.13-0.234-0.26-0.416-0.26c-0.286,0.026-0.547,0.208-0.703,0.468
		c-0.156,1.041-0.156,2.238,0,3.253l0.468,0.364c-0.026,0.235,0.104,0.513-0.13,0.669H43.85c-0.182-0.156-0.104-0.409-0.13-0.617
		c0.156-0.235,0.576-0.26,0.602-0.599l-0.003-3.462c0.026-0.26-0.286-0.416-0.443-0.599c-0.026-0.208-0.078-0.454,0.104-0.584
		l2.108,0.004c0.104,0.078,0.078,0.398,0.312,0.294C47.104,163.184,48.275,162.871,48.951,163.6L48.951,163.6z"/>
	<path fill="#FFFFFF" d="M42.716,163.486v4.331c-0.104,0.391,0.338,0.52,0.547,0.702c0,0.208,0.078,0.468-0.052,0.625l-0.104,0.044
		h-2.733c-0.182-0.156-0.104-0.409-0.13-0.617c0.156-0.26,0.573-0.26,0.573-0.624l0.026-3.41c-0.026-0.234-0.312-0.338-0.468-0.547
		c0-0.208-0.078-0.531,0.13-0.66h2.082L42.716,163.486L42.716,163.486z"/>
	<path fill="#FFFFFF" d="M39.905,167.478c-0.156-0.13-0.312-0.313-0.547-0.235c-0.547,0.442-1.067,0.937-1.796,0.911
		c-0.52,0.052-0.963-0.286-1.223-0.702c-0.052-0.104-0.078-0.234,0-0.338c1.223-0.417,2.525-0.625,3.488-1.588
		c0.156-0.39-0.052-0.807-0.234-1.119c-0.286-0.416-0.677-0.729-1.093-0.963c-0.885-0.547-2.238-0.417-3.045,0.234
		c-1.119,0.833-1.432,2.265-1.067,3.592c0.364,1.093,1.536,2.03,2.733,2.03c1.145,0.026,2.212-0.442,2.837-1.406
		C40.009,167.764,40.009,167.582,39.905,167.478z M36.157,165.448c0.026-0.495,0.182-0.963,0.547-1.249
		c0.391-0.208,1.016-0.104,1.198,0.391c0.13,0.26,0.286,0.703,0.052,0.963c-0.443,0.312-0.963,0.443-1.484,0.547
		C36.105,166.073,36.235,165.656,36.157,165.448z"/>
	<path fill="#FFFFFF" d="M67.573,167.244c-0.547,0.495-1.093,0.963-1.874,0.911c-0.494,0.026-0.936-0.312-1.171-0.729
		c-0.026-0.078-0.078-0.26,0.052-0.338l1.744-0.547c0.599-0.26,1.301-0.468,1.744-1.067c0.052-0.182,0.052-0.416-0.026-0.573
		c-0.286-0.859-1.145-1.51-1.978-1.718c-1.275-0.312-2.499,0.286-3.176,1.354c-0.573,1.041-0.651,2.629,0.156,3.566
		c0.833,1.015,2.083,1.484,3.384,1.093c0.703-0.26,1.718-0.729,1.77-1.64C68.042,167.374,67.834,167.166,67.573,167.244z
		 M64.919,164.199c0.26-0.13,0.625-0.13,0.885,0c0.312,0.286,0.495,0.651,0.468,1.093c-0.078,0.416-0.547,0.468-0.833,0.625
		c-0.338,0.026-0.781,0.39-1.015,0C64.346,165.292,64.372,164.589,64.919,164.199z"/>
	<path fill="#FFFFFF" d="M55.366,167.271c-0.547,0.468-1.067,0.937-1.822,0.911c-0.494,0-0.911-0.286-1.145-0.677
		c-0.052-0.104-0.13-0.312,0-0.39l1.276-0.391c0.781-0.339,1.718-0.495,2.238-1.327c0.078-0.339-0.13-0.625-0.235-0.885
		c-0.312-0.573-0.885-0.989-1.457-1.223c-0.755-0.286-1.718-0.208-2.395,0.182c-1.119,0.625-1.587,1.796-1.535,3.046
		c0.026,1.093,0.781,2.083,1.77,2.551c0.859,0.416,2.056,0.312,2.863-0.157c0.443-0.312,1.172-0.677,1.094-1.353
		C55.861,167.375,55.627,167.166,55.366,167.271z M52.789,164.198c0.208-0.13,0.599-0.13,0.807,0
		c0.365,0.312,0.547,0.755,0.468,1.197c-0.13,0.312-0.495,0.39-0.781,0.52c-0.338,0-0.781,0.416-1.041,0
		C52.139,165.292,52.217,164.563,52.789,164.198z"/>
	<polygon fill="#2C3E50" points="69.844,172.332 75.746,172.332 69.844,173.53 	"/>
	<path fill="#2C3E50" d="M31.342,173.543l-5.908-1.215c1.952-0.025,3.93,0,5.908,0V173.543L31.342,173.543z"/>
</g>
<path opacity="0.1" d="M49.792,14.688L49.792,14.688l-0.003-5.5h12.045c1.519,0,2.75,1.231,2.75,2.75s-1.231,2.75-2.75,2.75h0.125
	c0,0,3.875,61.5,7.043,68.567c3.017,6.729,9.527,13.293,10.145,27.605c0.092,0.485,0.145,0.983,0.145,1.494v102c0,4.418-3.582,8-8,8
	h-21.5V14.688z"/>
</svg>
