<?xml version="1.0" encoding="utf-8"?>
<!-- Generator: Adobe Illustrator 17.0.2, SVG Export Plug-In . SVG Version: 6.00 Build 0)  -->
<!DOCTYPE svg PUBLIC "-//W3C//DTD SVG 1.1//EN" "http://www.w3.org/Graphics/SVG/1.1/DTD/svg11.dtd">
<svg version="1.1" id="Layer_1" xmlns="http://www.w3.org/2000/svg" xmlns:xlink="http://www.w3.org/1999/xlink" x="0px" y="0px"
	 width="100px" height="224.333px" viewBox="0 0 100 224.333" enable-background="new 0 0 100 224.333" xml:space="preserve">
<path fill="#903620" d="M50.208,14.688L50.208,14.688l0.003-5.5H38.167c-1.519,0-2.75,1.231-2.75,2.75s1.231,2.75,2.75,2.75h-0.125
	c0,0-3.875,61.5-7.043,68.567c-3.017,6.729-9.527,13.293-10.145,27.605c-0.092,0.485-0.145,0.983-0.145,1.494v102
	c0,4.418,3.582,8,8,8h21.583L50.208,14.688z"/>
<path fill="#27AE60" d="M38.75,3.313c-1.795,0-3.25,1.315-3.25,2.938s1.455,2.937,3.25,2.937h11.462V3.313H38.75z"/>
<path fill="#27AE60" d="M38.75,3.313c-1.795,0-3.25,1.315-3.25,2.938s1.455,2.937,3.25,2.937h11.462V3.313H38.75z"/>
<path fill="#903620" d="M49.792,14.688L49.792,14.688l-0.003-5.5h12.045c1.519,0,2.75,1.231,2.75,2.75s-1.231,2.75-2.75,2.75h0.125
	c0,0,3.875,61.5,7.043,68.567c3.017,6.729,9.527,13.293,10.145,27.605c0.092,0.485,0.145,0.983,0.145,1.494v102c0,4.418-3.582,8-8,8
	h-21.5V14.688z"/>
<path fill="#27AE60" d="M61.25,3.313c1.795,0,3.25,1.315,3.25,2.938s-1.455,2.937-3.25,2.937H49.788V3.313H61.25z"/>
<path opacity="0.2" d="M61.25,3.313c1.795,0,3.25,1.315,3.25,2.938s-1.455,2.937-3.25,2.937H49.788V3.313H61.25z"/>
<rect x="20.708" y="133.188" fill="#27AE60" width="58.583" height="59.5"/>
<path fill="#F1C40F" d="M64.9,53.313c0,0-5.275,8.875-14.9,8.875s-14.9-8.875-14.9-8.875l2.942-38.625h23.917L64.9,53.313z"/>
<path opacity="0.7" fill="#FFFFFF" d="M64.9,53.313c0,0-5.275,8.875-14.9,8.875s-14.9-8.875-14.9-8.875l2.942-38.625h23.917
	L64.9,53.313z"/>
<path fill="#27AE60" d="M64.646,49.063c0,0-5.021,9.125-14.646,9.125s-14.631-9.125-14.631-9.125l2.425-31.134l24.404-0.082
	L64.646,49.063z"/>
<ellipse fill="#F1C40F" cx="49.788" cy="32.396" rx="11" ry="7.875"/>
<ellipse opacity="0.7" fill="#FFFFFF" cx="49.788" cy="32.396" rx="11" ry="7.875"/>
<ellipse fill="#E74C3C" cx="49.788" cy="32.396" rx="7.582" ry="5.428"/>
<path fill="#F1C40F" d="M77.513,161.084c0,28.913-12.187,39.146-27.221,39.146s-27.221-8.608-27.221-39.146
	s12.187-39.146,27.221-39.146S77.513,132.171,77.513,161.084z"/>
<path opacity="0.7" fill="#FFFFFF" d="M77.513,161.084c0,28.913-12.187,39.146-27.221,39.146s-27.221-8.608-27.221-39.146
	s12.187-39.146,27.221-39.146S77.513,132.171,77.513,161.084z"/>
<ellipse fill="#27AE60" cx="50.292" cy="185.362" rx="9.184" ry="6.575"/>
<path fill="none" stroke="#27AE60" stroke-width="3" stroke-miterlimit="10" d="M73.513,161.398
	c0,25.727-9.844,34.832-23.221,34.832s-23.221-7.66-23.221-34.832s9.844-34.832,23.221-34.832S73.513,135.672,73.513,161.398z"/>
<path fill="#3498DB" d="M66.288,159.77c0,10.688-2.422,17.287-6.347,20.89c-2.082-3.373-6.115-4.576-9.941-4.576
	c-3.812,0-8.266,1.5-9.912,4.901c-3.942-3.407-6.376-9.898-6.376-21.215c0-18.103,6.905-24.41,16.288-24.41
	S66.288,142.417,66.288,159.77z"/>
<path opacity="0.6" fill="#FFFFFF" d="M66.288,159.77c0,10.688-2.422,17.287-6.347,20.89c-2.082-3.373-6.115-4.576-9.941-4.576
	c-3.812,0-8.266,1.5-9.912,4.901c-3.942-3.407-6.376-9.898-6.376-21.215c0-18.103,6.905-24.41,16.288-24.41
	S66.288,142.417,66.288,159.77z"/>
<path opacity="0.5" fill="#3498DB" d="M66.264,158.022l-32.511-0.631c-0.028,0.769-0.042,1.562-0.042,2.378
	c0,11.317,2.434,17.808,6.376,21.215c1.646-3.401,6.1-4.901,9.912-4.901c3.826,0,7.859,1.203,9.941,4.576
	c3.925-3.604,6.347-10.202,6.347-20.89C66.288,159.175,66.28,158.593,66.264,158.022z"/>
<path opacity="0.2" d="M49.792,14.688L49.792,14.688l-0.003-5.5h12.045c1.519,0,2.75,1.231,2.75,2.75s-1.231,2.75-2.75,2.75h0.125
	c0,0,3.875,61.5,7.043,68.567c3.017,6.729,9.527,13.293,10.145,27.605c0.092,0.485,0.145,0.983,0.145,1.494v102c0,4.418-3.582,8-8,8
	h-21.5V14.688z"/>
<g>
	<defs>
		<path id="SVGID_1_" d="M66.288,159.77c0,10.688-2.422,17.287-6.347,20.89c-2.082-3.373-6.115-4.576-9.941-4.576
			c-3.812,0-8.266,1.5-9.912,4.901c-3.942-3.407-6.376-9.898-6.376-21.215c0-18.103,6.905-24.41,16.288-24.41
			S66.288,142.417,66.288,159.77z"/>
	</defs>
	<clipPath id="SVGID_2_">
		<use xlink:href="#SVGID_1_"  overflow="visible"/>
	</clipPath>
	<path clip-path="url(#SVGID_2_)" fill="#16A085" d="M66.167,152.5c-1.329,0-2.489,1.128-3.132,2.811
		c-3.123,0.176-7.858,0.389-12.493,0.389c-0.125,0-0.25,0.001-0.375,0.002c-0.125,0-0.251-0.002-0.375-0.002
		c-4.635,0-9.37-0.214-12.493-0.389c-0.643-1.683-1.803-2.811-3.132-2.811c-2.025,0-3.667,2.612-3.667,5.833
		c0,2.41,0.919,4.477,2.229,5.367c0.102,0.772,0.35,1.475,0.708,2.073c-0.461,2.137-0.316,5.075,0.541,8.168
		c1.558,5.62,4.866,9.608,7.389,8.909c2.523-0.699,3.306-5.822,1.748-11.442c-0.759-2.738-1.934-5.083-3.231-6.693
		c0.179-0.555,0.282-1.16,0.282-1.796c0-1.346-0.447-2.556-1.158-3.419h22.316c-0.711,0.864-1.158,2.073-1.158,3.419
		c0,0.636,0.103,1.241,0.282,1.796c-1.297,1.61-2.472,3.955-3.231,6.693c-1.558,5.62-0.775,10.742,1.748,11.442
		c2.523,0.699,5.831-3.289,7.389-8.909c0.857-3.093,1.002-6.03,0.541-8.168c0.358-0.598,0.607-1.301,0.708-2.073
		c1.31-0.89,2.229-2.957,2.229-5.367C69.833,155.112,68.192,152.5,66.167,152.5z"/>
	<path opacity="0.3" clip-path="url(#SVGID_2_)" d="M66.167,152.5c-1.329,0-2.489,1.128-3.132,2.811
		c-3.123,0.176-7.858,0.389-12.493,0.389c-0.125,0-0.25,0.001-0.375,0.002c-0.125,0-0.251-0.002-0.375-0.002
		c-4.635,0-9.37-0.214-12.493-0.389c-0.643-1.683-1.803-2.811-3.132-2.811c-2.025,0-3.667,2.612-3.667,5.833
		c0,2.41,0.919,4.477,2.229,5.367c0.102,0.772,0.35,1.475,0.708,2.073c-0.461,2.137-0.316,5.075,0.541,8.168
		c1.558,5.62,4.866,9.608,7.389,8.909c2.523-0.699,3.306-5.822,1.748-11.442c-0.759-2.738-1.934-5.083-3.231-6.693
		c0.179-0.555,0.282-1.16,0.282-1.796c0-1.346-0.447-2.556-1.158-3.419h22.316c-0.711,0.864-1.158,2.073-1.158,3.419
		c0,0.636,0.103,1.241,0.282,1.796c-1.297,1.61-2.472,3.955-3.231,6.693c-1.558,5.62-0.775,10.742,1.748,11.442
		c2.523,0.699,5.831-3.289,7.389-8.909c0.857-3.093,1.002-6.03,0.541-8.168c0.358-0.598,0.607-1.301,0.708-2.073
		c1.31-0.89,2.229-2.957,2.229-5.367C69.833,155.112,68.192,152.5,66.167,152.5z"/>
	<rect x="48" y="159.5" opacity="0.6" clip-path="url(#SVGID_2_)" fill="#FFFFFF" width="3.123" height="18.167"/>
	<rect x="44.229" y="159.5" opacity="0.6" clip-path="url(#SVGID_2_)" fill="#FFFFFF" width="1.561" height="18.167"/>
	<rect x="54.229" y="159.5" opacity="0.6" clip-path="url(#SVGID_2_)" fill="#FFFFFF" width="1.561" height="18.167"/>
</g>
<g>
	<polygon fill="#E74C3C" points="34.019,138.979 37.25,137.825 39.328,143.411 40.897,136.717 43.805,136.024 45.098,148.396 
		41.82,148.396 41.682,143.595 39.743,148.904 37.896,147.704 35.865,142.857 35.542,148.581 33.141,148.489 	"/>
	<path fill="#E74C3C" d="M51.123,135.055c-2.945,0-5.332,3.173-5.332,7.086c0,3.914,2.387,7.086,5.332,7.086
		c2.945,0,5.332-3.173,5.332-7.086C56.455,138.228,54.067,135.055,51.123,135.055z M51.123,146.965
		c-1.275,0-2.308-2.098-2.308-4.686s1.033-4.686,2.308-4.686c1.275,0,2.308,2.098,2.308,4.686S52.397,146.965,51.123,146.965z"/>
	<path fill="#E74C3C" d="M62.641,139.995v-2.262c0,0-2.401-3.047-5.17-0.508c-2.955,5.678,3.232,6.602,3.37,8.91
		c0.138,2.308-4.201-0.6-4.201-0.6l0.369,2.493c0,0,2.955,2.724,5.909-0.277c3.786-3.416-3.647-6.879-3.139-8.448
		S62.641,139.995,62.641,139.995z"/>
	<polygon fill="#E74C3C" points="64.487,138.056 64.487,148.489 67.442,148.489 67.442,139.21 	"/>
</g>
</svg>
