<?xml version="1.0" encoding="utf-8"?>
<!-- Generator: Adobe Illustrator 17.0.2, SVG Export Plug-In . SVG Version: 6.00 Build 0)  -->
<!DOCTYPE svg PUBLIC "-//W3C//DTD SVG 1.1//EN" "http://www.w3.org/Graphics/SVG/1.1/DTD/svg11.dtd">
<svg version="1.1" id="Layer_1" xmlns="http://www.w3.org/2000/svg" xmlns:xlink="http://www.w3.org/1999/xlink" x="0px" y="0px"
	 width="100px" height="224.333px" viewBox="0 0 100 224.333" enable-background="new 0 0 100 224.333" xml:space="preserve">
<path fill="#773817" d="M79.147,110.86c-0.618-14.312-7.128-20.876-10.145-27.605c-3.168-7.067-7.043-68.567-7.043-68.567h-0.125
	c1.519,0,2.75-1.231,2.75-2.75s-1.231-2.75-2.75-2.75H50.211h-0.422H38.167c-1.519,0-2.75,1.231-2.75,2.75s1.231,2.75,2.75,2.75
	h-0.125c0,0-3.875,61.5-7.043,68.567c-3.017,6.729-9.527,13.293-10.145,27.605c-0.092,0.485-0.145,0.983-0.145,1.494v102
	c0,4.418,3.582,8,8,8h21.083h0.5h21c4.418,0,8-3.582,8-8v-102C79.292,111.843,79.239,111.345,79.147,110.86z"/>
<path fill="#F1C40F" d="M61.25,3.313H49.833H38.75c-1.795,0-3.25,1.315-3.25,2.938s1.455,2.937,3.25,2.937h22.5
	c1.795,0,3.25-1.314,3.25-2.937S63.045,3.313,61.25,3.313z"/>
<path fill="#F1C40F" d="M37.444,23.574c2.423-2.577,6.678-5.886,12.556-5.886c5.879,0,10.136,3.311,12.558,5.889
	c0.439,2.606,3.511,41.611,3.511,41.611H33.932C33.932,65.188,36.986,26.495,37.444,23.574z"/>
<path fill="#F1C40F" d="M77.513,161.084c0,28.913-12.187,39.146-27.221,39.146s-27.221-8.608-27.221-39.146
	s12.187-39.146,27.221-39.146S77.513,132.171,77.513,161.084z"/>
<path fill="#ECF0F1" d="M73.513,161.398c0,25.727-9.844,34.832-23.221,34.832s-23.221-7.66-23.221-34.832
	s9.844-34.832,23.221-34.832S73.513,135.672,73.513,161.398z"/>
<path fill="#F1C40F" d="M64.829,161.674c0,16.664-6.376,22.561-15.041,22.561s-15.041-4.961-15.041-22.561
	s6.376-22.561,15.041-22.561S64.829,145.011,64.829,161.674z"/>
<g>
	<path fill="#2C3E50" d="M61.979,176.958c2.375-4.542,2.849-10.285,2.849-15.874c0-5.121-0.771-9.999-2.479-13.88
		c-1.085,0.854-2.393,1.089-3.699,1.089s-3.533-0.422-4.654-0.157s-2.567,1.065-4.266,2.407s-3.338,4.655-3.338,4.655
		s-3.241,7.124-4.577,9.39s-2.485,3.802-3.878,5.356c-0.854,1.007-1.449,1.603-2.149,2.299c0.213,0.924,0.523,2.05,1.13,3.598
		c1.164-0.619,3.191-1.708,5.362-3.415c3.492-2.717,3.416-3.414,4.194-3.88c0.697-0.544,1.161-0.544,1.239-0.156
		c0.154,0.389-0.467,1.707,0.233,3.492c0.232,0.621,0.696,1.319,1.164,1.552h0.075c0.081-0.544,0.546-1.707,0.699-1.864
		c0.311-0.465,0.854-1.086,1.089-1.164c0.853-0.464,1.782-0.31,2.324-0.232c0.468,0.077,1.4,0.465,2.018,0.776
		c0.623,0.311,1.321,0.234,1.707,0.234c0.467-0.078,0.621-0.234,1.01-0.234c0.932-0.078,1.861,0.854,2.718,1.864
		c0.154,0.387,0.54,1.085,0.696,1.783c0.076,0.389,0.155,0.854,0.232,1.243"/>
	<g>
		<path fill="#ECF0F1" d="M39.407,163.191c0.235,0.154,0.546,0.31,0.778,0.466c0.929,0.387,1.782,0.621,1.782,0.621l0.546-0.855
			c0,0-1.088-0.232-2.328-0.698c-0.078-0.077-0.157-0.077-0.31-0.155c-1.475-0.621-2.018-1.397-2.018-1.397
			S38.246,162.415,39.407,163.191z"/>
		<path fill="#ECF0F1" d="M48.334,164.044c-2.253,0.933-4.579,1.321-6.985,1.086c-0.389-0.079-0.778-0.154-1.164-0.233
			c-2.639-0.465-4.424-1.629-4.424-1.629s0.854,1.783,4.424,2.948c0.232,0.078,0.386,0.155,0.543,0.155
			c0.621,0.157,2.017,0.388,3.181,0.464c1.161,0,1.318-0.153,2.018-0.232c1.086-0.232,2.328-0.388,3.103-1.24
			c0.154-0.234,0.154-0.856,0-1.164C48.876,164.044,48.566,163.966,48.334,164.044z"/>
		<path fill="#ECF0F1" d="M50.816,157.059c-0.699-0.543-1.631-0.076-1.785,0.39s-0.307,0.931,0.079,1.009
			c0.156,0,0.156-0.465,1.085-0.465c0.7,0,0.933,0.698,1.01,0.387C51.359,157.993,51.205,157.448,50.816,157.059z"/>
	</g>
	<path fill="#2C3E50" d="M36.205,143.695v1.268l-4.252-2.156l-0.698,1.396c-0.128,0.252-0.062,0.316,0.064,0.38l-0.064,0.128
		l-1.27-0.699l0.064-0.064c0.128,0.064,0.254,0.064,0.318-0.189l1.968-3.872c0.125-0.189,0.062-0.253-0.067-0.317l0.067-0.128
		l1.267,0.635l-0.062,0.126c-0.128-0.063-0.192-0.063-0.318,0.127l-0.698,1.461L36.205,143.695 M36.205,136.587v1.587l-1.332-1.396
		c-0.19-0.191-0.382-0.128-0.508-0.064l-0.064-0.064l1.206-1.142l0.064,0.064c-0.128,0.126-0.128,0.254,0.062,0.507L36.205,136.587z
		 M44.2,134.81L44.2,134.81l-0.254,1.523h0.128c0.064,0,0.064-0.063,0.125-0.127c0.126,0,1.08,0.571,2.858,0
		c1.458-0.445,2.158-1.586,1.776-2.792c-0.888-2.727-4.444-0.128-4.95-1.587c-0.19-0.571,0.062-1.141,1.078-1.459
		c0.826-0.254,1.904-0.19,2.032,0.254c0,0.064,0.064,0.126,0.064,0.126h0.126l0.19-1.587h-0.126c0,0.127-0.128,0.127-0.128,0.127
		c-0.125,0.064-0.382,0-0.759-0.062c-0.382,0-0.954,0-1.65,0.19c-1.462,0.445-2.222,1.522-1.842,2.792
		c0.826,2.537,4.38-0.065,4.885,1.586c0.257,0.762-0.19,1.269-1.016,1.523c-0.885,0.317-2.217,0.126-2.348-0.381
		c-0.064,0-0.064-0.063-0.064-0.126L44.2,134.81L44.2,134.81z M36.205,138.174v-1.587l2.476,2.603
		c0.508,0.507,1.268,0.633,2.094-0.191c0.762-0.825,0.698-1.523,0.19-2.094l-3.046-3.109c-0.19-0.19-0.318-0.19-0.444-0.064
		l-0.064-0.063l1.144-1.08l0.062,0.065c-0.062,0.127-0.126,0.253,0.064,0.443l3.11,3.11c0.888,0.888,0.952,2.157-0.382,3.491
		c-1.27,1.269-2.602,1.205-3.49,0.253L36.205,138.174z M36.205,144.963v-1.268l1.27,0.634c0.254,0.126,0.38,0.062,0.444-0.064
		l0.128,0.064l-0.762,1.458h-0.126c0.062-0.189,0.062-0.316-0.193-0.443L36.205,144.963z M57.527,137.983v0.255l-0.189-0.255
		l0.064-0.064C57.463,137.983,57.463,137.983,57.527,137.983z M57.527,129.987v0.191c0,0-0.064,0.062-0.189,0.126l-2.856,1.839
		l1.205,3.934c0.129,0.381,0.193,0.572,0.444,0.699v0.064l-1.839-0.445l0.063-0.126c0.191,0.063,0.191,0,0.255-0.064
		c0-0.063,0-0.063-0.064-0.191l-0.952-3.3l-1.014,0.636l-0.511,1.904c-0.126,0.317,0,0.443,0.129,0.443v0.128l-1.65-0.443
		l0.061-0.128c0.129,0.063,0.255,0,0.318-0.255l1.589-5.838c0.064-0.253,0-0.379-0.192-0.444l0.064-0.063l1.586,0.38v0.127
		c-0.126,0-0.316,0-0.379,0.317l-0.634,2.54l3.045-1.969c0.062-0.062,0.126-0.128,0.126-0.189c0-0.064-0.064-0.128-0.126-0.128
		v-0.127L57.527,129.987z M57.527,130.178v-0.191l0.255,0.062v0.129C57.717,130.178,57.655,130.178,57.527,130.178z M65.841,136.143
		v0.19l-0.891,0.953l-0.125-0.127c0.125-0.065,0.19-0.191,0-0.318l-2.222-2.221l-1.396,1.459l1.396,1.397
		c0.192,0.19,0.32,0.126,0.379,0l0.129,0.126l-1.017,1.016l-0.125-0.064c0.125-0.126,0.19-0.191,0-0.38l-1.46-1.396l-1.522,1.522
		l2.348,2.222c0.126,0.19,0.251,0.19,0.379,0.064l0.065,0.064l-1.017,1.016l-0.061-0.064c0.061-0.062,0.126-0.189-0.066-0.38
		l-3.109-2.982v-0.255c0.129,0,0.19,0,0.316-0.127l4.252-4.315c0.193-0.189,0.193-0.318,0.065-0.444l0.064-0.062l3.236,3.109
		C65.65,136.27,65.778,136.27,65.841,136.143z M65.841,142.363l-0.126-0.192l0.126-0.063v-1.268l-3.682,1.904
		c-0.252,0.126-0.38,0.063-0.445-0.064l-0.128,0.064l0.764,1.522l0.126-0.062c-0.064-0.128-0.064-0.256,0.189-0.444l2.283-1.144
		l0.573,1.144l-1.649,2.284c-0.065,0.126-0.126,0.19-0.126,0.19c-0.129,0.064-0.192,0-0.255-0.064h-0.128l0.827,1.651l0.125-0.064
		c-0.125-0.19-0.062-0.38,0.065-0.507l1.459-2.03v-2.857H65.841z M65.841,136.333v-0.19l0.126,0.063L65.841,136.333z
		 M65.841,142.108l1.397-0.634v-1.332l-1.397,0.699V142.108z M67.238,144.456c-0.255-0.064-0.508-0.316-0.699-0.697l-0.698-1.396
		v2.855l0.253-0.382c0.318,0.382,0.696,0.636,1.143,0.762L67.238,144.456L67.238,144.456z M67.682,141.22l0.697,1.332
		c0.508,0.889,0.443,1.395-0.316,1.777c-0.318,0.19-0.636,0.254-0.826,0.126v1.143c0.444,0.064,0.951-0.063,1.524-0.317
		c0.887-0.445,1.331-1.459,0.57-2.856l-1.461-2.855l-0.064,0.064c0,0.064,0,0.189-0.251,0.381l-0.318,0.126v1.332L67.682,141.22z"/>
</g>
<path fill="#ECF0F1" d="M59.711,41.123c0,10.993-4.206,14.883-9.922,14.883s-9.922-3.273-9.922-14.883s4.206-14.883,9.922-14.883
	S59.711,30.131,59.711,41.123z"/>
<polygon fill="#2C3E50" points="65.7,61.667 34.301,61.667 35.706,43.17 64.188,43.17 "/>
<path fill="#F1C40F" d="M56,41.241c0,7.12-2.724,9.64-6.427,9.64s-6.427-2.12-6.427-9.64s2.724-9.64,6.427-9.64S56,34.121,56,41.241
	z"/>
<g>
	<path fill="#2C3E50" d="M54.783,47.772C55.798,45.831,56,43.377,56,40.989c0-2.188-0.329-4.273-1.059-5.931
		c-0.464,0.365-1.413,0.498-1.581,0.465c-0.629-0.067-1.358-0.366-1.988-0.067c-0.264,0.067-0.497,0.132-0.63,0.265
		c-0.497,0.431-0.763,0.497-1.193,0.763c-0.365,0.232-0.43,0.497-0.929,0.696c-0.463,0.265-0.397,0.962-0.497,1.293
		c-0.099,0.299-0.298,0.465-0.365,0.664c-0.099,0.232-0.099,0.397-0.165,0.629c-0.134,0.531-0.464,1.028-0.697,1.526
		c-0.132,0.166-0.365,0.531-0.365,0.531l-0.365,0.663l-0.067,0.1l-0.53,0.796c0,0-0.465,0.729-1.06,1.393
		c-0.365,0.43-0.619,0.685-0.918,0.983c0.091,0.395,0.223,0.876,0.483,1.537c0.497-0.265,1.363-0.73,2.291-1.459
		c1.492-1.161,1.46-1.459,1.792-1.658c0.298-0.232,0.496-0.232,0.53-0.067c0.066,0.166-0.2,0.729,0.1,1.492
		c0.099,0.265,0.297,0.563,0.497,0.663h0.032c0.035-0.233,0.233-0.729,0.299-0.796c0.133-0.198,0.365-0.464,0.465-0.497
		c0.364-0.198,0.761-0.132,0.993-0.099c0.2,0.033,0.598,0.199,0.862,0.332c0.266,0.133,0.564,0.1,0.729,0.1
		c0.199-0.033,0.265-0.1,0.432-0.1c0.398-0.033,0.795,0.365,1.161,0.796c0.066,0.165,0.231,0.464,0.297,0.762
		c0.033,0.166,0.066,0.365,0.099,0.531"/>
	<g>
		<path fill="#ECF0F1" d="M45.138,41.889c0.101,0.066,0.233,0.132,0.332,0.199c0.397,0.165,0.762,0.265,0.762,0.265l0.233-0.365
			c0,0-0.465-0.099-0.995-0.298c-0.033-0.033-0.067-0.033-0.133-0.066c-0.63-0.265-0.862-0.597-0.862-0.597
			S44.642,41.557,45.138,41.889z"/>
		<path fill="#ECF0F1" d="M48.952,42.253c-0.963,0.398-1.956,0.564-2.985,0.464c-0.166-0.034-0.332-0.066-0.497-0.1
			c-1.127-0.199-1.89-0.696-1.89-0.696s0.365,0.762,1.89,1.26c0.099,0.033,0.165,0.066,0.232,0.066
			c0.265,0.067,0.862,0.166,1.359,0.198c0.496,0,0.563-0.065,0.862-0.099c0.464-0.099,0.995-0.166,1.326-0.53
			c0.066-0.1,0.066-0.366,0-0.497C49.184,42.253,49.052,42.22,48.952,42.253z"/>
		<path fill="#ECF0F1" d="M50.013,39.269c-0.299-0.232-0.697-0.033-0.763,0.166s-0.131,0.398,0.034,0.431
			c0.067,0,0.067-0.198,0.464-0.198c0.299,0,0.398,0.298,0.432,0.165C50.245,39.668,50.179,39.435,50.013,39.269z"/>
	</g>
	<path fill="#2C3E50" d="M43.77,33.559V34.1l-1.817-0.921l-0.298,0.597c-0.055,0.108-0.026,0.135,0.027,0.162l-0.027,0.055
		l-0.543-0.299l0.027-0.027c0.055,0.027,0.109,0.027,0.136-0.081l0.841-1.654c0.054-0.081,0.026-0.108-0.028-0.135l0.028-0.055
		l0.541,0.271l-0.026,0.054c-0.055-0.027-0.082-0.027-0.136,0.054l-0.298,0.624L43.77,33.559 M43.77,30.521V31.2l-0.57-0.597
		c-0.081-0.082-0.163-0.054-0.217-0.027l-0.027-0.027l0.515-0.488l0.028,0.027c-0.055,0.054-0.055,0.109,0.026,0.217L43.77,30.521z
		 M47.186,29.762L47.186,29.762l-0.108,0.651h0.055c0.027,0,0.027-0.027,0.054-0.054c0.054,0,0.462,0.244,1.221,0
		c0.623-0.19,0.922-0.678,0.759-1.193c-0.38-1.165-1.899-0.055-2.115-0.678c-0.081-0.244,0.027-0.487,0.461-0.623
		c0.353-0.109,0.814-0.081,0.868,0.109c0,0.027,0.027,0.054,0.027,0.054h0.054l0.081-0.678h-0.054c0,0.054-0.055,0.054-0.055,0.054
		c-0.054,0.027-0.163,0-0.324-0.027c-0.163,0-0.408,0-0.705,0.081c-0.625,0.19-0.949,0.65-0.787,1.193
		c0.353,1.084,1.871-0.028,2.087,0.678c0.11,0.325-0.081,0.542-0.434,0.651c-0.378,0.135-0.947,0.054-1.003-0.163
		c-0.027,0-0.027-0.027-0.027-0.054L47.186,29.762L47.186,29.762z M43.77,31.2v-0.678l1.058,1.112
		c0.217,0.217,0.542,0.27,0.895-0.082c0.326-0.353,0.298-0.651,0.081-0.895l-1.301-1.329c-0.081-0.081-0.136-0.081-0.19-0.027
		l-0.028-0.027l0.489-0.461l0.026,0.028c-0.026,0.054-0.054,0.108,0.028,0.189l1.329,1.329c0.38,0.379,0.407,0.922-0.163,1.492
		c-0.543,0.542-1.112,0.515-1.491,0.108L43.77,31.2z M43.77,34.1v-0.542l0.543,0.271c0.108,0.054,0.162,0.027,0.19-0.027
		l0.055,0.027l-0.326,0.623h-0.054c0.026-0.081,0.026-0.135-0.082-0.189L43.77,34.1z M52.88,31.118v0.109l-0.081-0.109l0.027-0.027
		C52.853,31.118,52.853,31.118,52.88,31.118z M52.88,27.702v0.082c0,0-0.027,0.026-0.081,0.054l-1.22,0.786l0.515,1.681
		c0.055,0.163,0.082,0.244,0.19,0.299v0.027l-0.786-0.19l0.027-0.054c0.082,0.027,0.082,0,0.109-0.027c0-0.027,0-0.027-0.027-0.082
		l-0.407-1.41l-0.433,0.272l-0.218,0.814c-0.054,0.135,0,0.189,0.055,0.189v0.054l-0.705-0.189l0.026-0.055
		c0.055,0.027,0.109,0,0.136-0.109l0.679-2.495c0.027-0.108,0-0.162-0.082-0.19l0.027-0.027l0.678,0.163v0.054
		c-0.054,0-0.135,0-0.162,0.135l-0.271,1.085l1.301-0.841c0.027-0.027,0.054-0.055,0.054-0.081c0-0.027-0.027-0.055-0.054-0.055
		v-0.054L52.88,27.702z M52.88,27.783v-0.082l0.109,0.027v0.055C52.961,27.783,52.935,27.783,52.88,27.783z M56.433,30.332v0.081
		l-0.381,0.407l-0.053-0.054c0.053-0.028,0.081-0.082,0-0.136l-0.949-0.949l-0.596,0.623l0.596,0.597
		c0.082,0.081,0.137,0.054,0.162,0l0.055,0.054l-0.435,0.434l-0.053-0.027c0.053-0.054,0.081-0.081,0-0.163l-0.624-0.596l-0.65,0.65
		l1.003,0.949c0.054,0.081,0.107,0.081,0.162,0.027l0.028,0.027l-0.434,0.434l-0.026-0.027c0.026-0.027,0.054-0.081-0.028-0.162
		l-1.328-1.274v-0.109c0.055,0,0.081,0,0.135-0.054l1.817-1.844c0.083-0.081,0.083-0.136,0.028-0.19l0.027-0.026l1.383,1.328
		C56.351,30.386,56.406,30.386,56.433,30.332z M56.433,32.989l-0.054-0.082l0.054-0.027v-0.542l-1.573,0.814
		c-0.108,0.054-0.162,0.027-0.19-0.027l-0.055,0.027l0.327,0.65l0.054-0.027c-0.027-0.055-0.027-0.109,0.081-0.19l0.976-0.489
		l0.245,0.489l-0.705,0.976c-0.028,0.054-0.054,0.081-0.054,0.081c-0.055,0.027-0.082,0-0.109-0.027h-0.055l0.353,0.705l0.054-0.027
		c-0.054-0.081-0.026-0.163,0.028-0.217l0.624-0.868v-1.219H56.433z M56.433,30.413v-0.081l0.054,0.027L56.433,30.413z
		 M56.433,32.88l0.597-0.271V32.04l-0.597,0.298V32.88z M57.03,33.884c-0.109-0.027-0.217-0.135-0.298-0.298l-0.298-0.596v1.22
		l0.108-0.163c0.136,0.163,0.298,0.272,0.488,0.326V33.884z M57.219,32.501l0.298,0.569c0.217,0.38,0.189,0.596-0.135,0.759
		c-0.136,0.081-0.272,0.109-0.353,0.054v0.488c0.19,0.027,0.406-0.027,0.651-0.135c0.379-0.19,0.569-0.624,0.243-1.22l-0.624-1.22
		l-0.027,0.027c0,0.027,0,0.081-0.107,0.163L57.03,32.04v0.569L57.219,32.501z"/>
</g>
<image overflow="visible" enable-background="new    " width="183" height="275" xlink:href="../../../../../Downloads/download (1).jpeg"  transform="matrix(1 0 0 1 106.8611 -324)">
</image>
<path opacity="0.1" fill="#F1C40F" enable-background="new    " d="M67.831,110.86c-0.258-9.902-2.805-18.048-4.785-21.201
	c-1.979-3.153-6.833-4.868-6.833-5.993s4.082-2.55,3.891-4.414c-1.592-15.535-2.662-64.565-2.662-64.565h-0.076
	c0.918,0,1.662-1.231,1.662-2.75s-0.744-2.75-1.662-2.75h-6.942H50.13h-0.128h-0.294h-6.942c-0.918,0-1.662,1.231-1.662,2.75
	s0.744,2.75,1.662,2.75h-0.076c0,0-1.07,49.03-2.662,64.565c-0.191,1.864,3.891,3.289,3.891,4.414s-4.854,2.84-6.833,5.993
	c-1.979,3.153-4.526,11.298-4.785,21.201c-0.056,0.485-0.088,0.983-0.088,1.494v102c0,4.418,2.165,8,4.836,8h12.578h0.378h0.122
	h0.378h12.578c2.67,0,4.836-3.582,4.836-8v-102C67.918,111.843,67.886,111.345,67.831,110.86z"/>
<path opacity="0.2" fill="#FFFFFF" enable-background="new    " d="M67.976,110.86c-0.258-9.902-2.805-18.048-4.785-21.201
	c-1.979-3.153-6.833-4.868-6.833-5.993s4.082-2.55,3.891-4.414c-1.592-15.535-2.662-64.565-2.662-64.565h-0.076
	c0.918,0,1.662-1.231,1.662-2.75s-0.744-2.75-1.662-2.75h-6.942h-0.058c0.918,0,1.662,1.231,1.662,2.75s-0.744,2.75-1.662,2.75
	h0.076c0,0,1.07,49.03,2.662,64.565c0.191,1.864-3.891,3.289-3.891,4.414s4.854,2.84,6.833,5.993
	c1.98,3.153,4.527,11.299,4.785,21.201c0.055,0.485,0.087,0.983,0.088,1.494v102c0,4.418-2.166,8-4.836,8h7
	c2.67,0,4.836-3.582,4.836-8v-102C68.063,111.844,68.031,111.346,67.976,110.86z"/>
<rect x="39.867" y="81.396" fill="#773817" width="21.3" height="4.104"/>
</svg>
