<?xml version="1.0" encoding="utf-8"?>
<!-- Generator: Adobe Illustrator 17.0.2, SVG Export Plug-In . SVG Version: 6.00 Build 0)  -->
<!DOCTYPE svg PUBLIC "-//W3C//DTD SVG 1.1//EN" "http://www.w3.org/Graphics/SVG/1.1/DTD/svg11.dtd">
<svg version="1.1" id="Layer_1" xmlns="http://www.w3.org/2000/svg" xmlns:xlink="http://www.w3.org/1999/xlink" x="0px" y="0px"
	 width="100px" height="100px" viewBox="0 0 100 100" enable-background="new 0 0 100 100" xml:space="preserve">
<g>
	<path fill="#9C604A" d="M54.133,72.967c6.591,7.236,24.877,14.919,38.891-2.088s2.833-33.112-5.386-38.572
		c-8.186-5.438-21.233-2.214-30.485,9.015S47.515,65.701,54.133,72.967z"/>
	<path fill="#7D4C3A" d="M54.133,72.967c6.591,7.236,24.877,14.919,38.891-2.088C80.486,80.515,49.41,67.781,54.133,72.967z"/>
	
		<ellipse transform="matrix(-0.6359 0.7718 -0.7718 -0.6359 156.5672 31.4739)" fill="#603929" cx="70.86" cy="52.668" rx="26.343" ry="17.794"/>
	<path fill="#F8F8F8" d="M55.418,71.206c6.946,5.724,19.253,1.868,27.727-8.415s9.905-23.1,2.959-28.824
		c-6.946-5.724-19.446-2.027-27.92,8.256S48.472,65.482,55.418,71.206z"/>
	
		<ellipse transform="matrix(-0.6359 0.7718 -0.7718 -0.6359 155.7941 31.2778)" opacity="0.3" fill="#BDC3C7" cx="70.519" cy="52.387" rx="17.911" ry="12.098"/>
	<path opacity="0.2" fill="#BDC3C7" d="M76.584,63.424c1.131-0.963,2.215-2.06,3.222-3.282c6.29-7.634,7.21-17.267,2.053-21.516
		c-4.013-3.307-10.524-2.378-16.179,1.795C72.343,45.904,76.905,52.587,76.584,63.424z"/>
</g>
<g>
	<path fill="#9C604A" d="M55.935,87.435c-7.94,8.717-29.967,17.971-46.848-2.515s-3.413-39.888,6.488-46.465
		c9.861-6.55,25.577-2.666,36.722,10.859S63.906,78.684,55.935,87.435z"/>
	<path fill="#7D4C3A" d="M55.935,87.435c-7.94,8.717-29.967,17.971-46.848-2.515C24.19,96.528,61.624,81.189,55.935,87.435z"/>
	
		<ellipse transform="matrix(0.6359 0.7718 -0.7718 0.6359 61.6358 -4.6871)" fill="#603929" cx="35.786" cy="62.983" rx="31.733" ry="21.435"/>
	<path fill="#F8F8F8" d="M54.386,85.315c-8.368,6.895-23.192,2.25-33.4-10.137S9.055,47.35,17.422,40.455s23.425-2.442,33.633,9.945
		S62.754,78.42,54.386,85.315z"/>
	
		<ellipse transform="matrix(0.6359 0.7718 -0.7718 0.6359 61.5244 -5.1264)" opacity="0.3" fill="#BDC3C7" cx="36.196" cy="62.645" rx="21.576" ry="14.574"/>
	<path opacity="0.2" fill="#BDC3C7" d="M28.89,75.94c-1.363-1.16-2.668-2.481-3.881-3.954c-7.578-9.196-8.685-20.8-2.473-25.919
		c4.834-3.984,12.677-2.865,19.489,2.162C33.999,54.836,28.503,62.886,28.89,75.94z"/>
</g>
</svg>
