<?xml version="1.0" encoding="utf-8"?>
<!-- Generator: Adobe Illustrator 17.0.2, SVG Export Plug-In . SVG Version: 6.00 Build 0)  -->
<!DOCTYPE svg PUBLIC "-//W3C//DTD SVG 1.1//EN" "http://www.w3.org/Graphics/SVG/1.1/DTD/svg11.dtd">
<svg version="1.1" id="Layer_1" xmlns="http://www.w3.org/2000/svg" xmlns:xlink="http://www.w3.org/1999/xlink" x="0px" y="0px"
	 width="100px" height="100px" viewBox="0 0 100 100" enable-background="new 0 0 100 100" xml:space="preserve">
<circle fill="#FFFFFF" cx="50" cy="50" r="50"/>
<circle opacity="0.8" fill="#3498DB" enable-background="new    " cx="50" cy="50" r="50"/>
<circle fill="#FFFFFF" stroke="#D35400" stroke-width="1.5" stroke-miterlimit="10" cx="50" cy="50" r="45"/>
<circle fill="#F8F4EF" cx="50" cy="50" r="36.375"/>
<path opacity="0.07" fill="#34495E" enable-background="new    " d="M34.174,77.268l21.065,22.329
	c22.782-2.476,40.959-20.253,44.058-42.841l-24.905-26.4L34.174,77.268z"/>
<path fill="#E5C5A0" d="M50,18.625c17.328,0,31.375,14.047,31.375,31.375S67.328,81.375,50,81.375S18.625,67.328,18.625,50
	C21.417,47.167,47.75,20.917,50,18.625z"/>
<g opacity="0.12">
	<g>
		<g>
			<path fill="#A56450" d="M68.567,31.047c-0.276-0.005-0.536-0.12-0.73-0.322s-0.298-0.464-0.292-0.738
				c0.011-0.564,0.479-1.023,1.044-1.023c0.289,0.004,0.547,0.117,0.741,0.318c0.196,0.203,0.302,0.466,0.297,0.742
				c-0.01,0.564-0.477,1.023-1.041,1.023H68.567z"/>
		</g>
		<g>
			<path fill="#A56450" d="M77.212,49.029c-0.545,0-1.012-0.469-1.021-1.024c-0.01-0.593,0.423-1.048,1.008-1.06l0,0
				c0.588,0,1.06,0.455,1.072,1.013c0.014,0.552-0.468,1.052-1.029,1.07L77.212,49.029z"/>
		</g>
		<g>
			<path fill="#A56450" d="M42.063,33.231c-0.274-0.001-0.532-0.11-0.725-0.306c-0.195-0.199-0.301-0.462-0.297-0.742
				c0.007-0.59,0.448-1.034,1.025-1.034c0.589,0.005,1.04,0.464,1.038,1.045c-0.002,0.582-0.458,1.038-1.037,1.038L42.063,33.231
				L42.063,33.231z"/>
		</g>
		<g>
			<path fill="#A56450" d="M61.031,62.062c-0.585,0-1.03-0.438-1.034-1.017c-0.004-0.598,0.426-1.038,1.02-1.047
				c0.599,0,1.04,0.437,1.045,1.017c0.005,0.59-0.432,1.04-1.017,1.047H61.031z"/>
		</g>
		<g>
			<path fill="#A56450" d="M42.073,68.852c-0.582,0-1.026-0.445-1.033-1.035c-0.003-0.279,0.102-0.542,0.296-0.74
				c0.193-0.196,0.452-0.306,0.729-0.308c0.574,0,1.037,0.465,1.038,1.036c0.001,0.586-0.45,1.045-1.026,1.047H42.073z"/>
		</g>
		<g>
			<path fill="#A56450" d="M57.922,68.852c-0.572,0-1.023-0.454-1.027-1.033c-0.003-0.281,0.104-0.545,0.299-0.743
				c0.193-0.196,0.452-0.306,0.728-0.307c0.28,0,0.54,0.107,0.735,0.303c0.194,0.196,0.302,0.456,0.301,0.732
				c-0.002,0.592-0.442,1.042-1.024,1.048C57.934,68.852,57.922,68.852,57.922,68.852z"/>
		</g>
		<g>
			<path fill="#A56450" d="M22.769,53.068c-0.57-0.007-1.047-0.485-1.041-1.046c0.005-0.56,0.479-1.015,1.056-1.015
				c0.294,0.001,0.554,0.106,0.739,0.294c0.186,0.188,0.287,0.452,0.284,0.741c-0.005,0.585-0.445,1.025-1.023,1.025L22.769,53.068
				L22.769,53.068z"/>
		</g>
		<g>
			<path fill="#A56450" d="M31.42,71.036c-0.582-0.004-1.035-0.462-1.031-1.042c0.003-0.564,0.479-1.041,1.04-1.041
				c0.271,0.002,0.537,0.118,0.735,0.319c0.198,0.201,0.31,0.47,0.307,0.735c-0.005,0.577-0.462,1.028-1.041,1.028L31.42,71.036
				L31.42,71.036z"/>
		</g>
		<g>
			<path fill="#A56450" d="M41.934,77.115c-0.575-0.004-1.041-0.472-1.037-1.042c0.003-0.571,0.464-1.019,1.049-1.019
				c0.292,0.001,0.555,0.107,0.745,0.3c0.188,0.19,0.291,0.451,0.288,0.733c-0.005,0.576-0.461,1.027-1.038,1.027L41.934,77.115
				L41.934,77.115z"/>
		</g>
		<g>
			<path fill="#A56450" d="M57.913,33.231c-0.57-0.008-1.027-0.483-1.019-1.058c0.008-0.575,0.463-1.025,1.035-1.025
				c0.595,0.007,1.031,0.461,1.027,1.056c-0.002,0.566-0.464,1.027-1.03,1.027C57.926,33.231,57.913,33.231,57.913,33.231z"/>
		</g>
		<g>
			<path fill="#A56450" d="M35.509,37.997c-0.569,0-1.033-0.469-1.035-1.045c-0.001-0.28,0.104-0.541,0.297-0.735
				c0.194-0.195,0.456-0.302,0.737-0.303c0.584,0,1.026,0.446,1.027,1.038c0,0.285-0.107,0.55-0.304,0.747
				C36.039,37.891,35.783,37.997,35.509,37.997z"/>
		</g>
		<g>
			<path fill="#A56450" d="M68.556,71.053c-0.582,0-1.024-0.434-1.03-1.01c-0.007-0.6,0.417-1.042,1.009-1.053l0,0
				c0.597,0,1.057,0.444,1.069,1.012c0.007,0.27-0.095,0.527-0.286,0.727c-0.196,0.205-0.461,0.32-0.743,0.324
				C68.575,71.053,68.556,71.053,68.556,71.053z"/>
		</g>
		<g>
			<path fill="#A56450" d="M73.652,37.402c-0.586,0-1.031-0.439-1.036-1.021c-0.003-0.284,0.101-0.546,0.291-0.739
				c0.189-0.193,0.45-0.301,0.733-0.303c0.59,0,1.051,0.449,1.058,1.022c0.003,0.27-0.102,0.527-0.295,0.724
				c-0.197,0.202-0.461,0.314-0.741,0.317H73.652z"/>
		</g>
		<g>
			<path fill="#A56450" d="M54.061,78.023c-0.58,0-1.042-0.446-1.05-1.017c-0.004-0.279,0.1-0.541,0.291-0.736
				s0.453-0.306,0.736-0.31c0.59,0,1.048,0.446,1.056,1.016c0.004,0.278-0.1,0.54-0.293,0.737c-0.192,0.197-0.452,0.308-0.73,0.31
				H54.061z"/>
		</g>
		<g>
			<path fill="#A56450" d="M67.918,35.993c-0.576-0.002-1.043-0.468-1.041-1.038c0.002-0.575,0.458-1.026,1.04-1.026
				c0.292,0.001,0.556,0.109,0.748,0.301c0.191,0.192,0.296,0.452,0.294,0.732c-0.003,0.578-0.459,1.03-1.037,1.03h-0.004V35.993z"
				/>
		</g>
		<g>
			<path fill="#A56450" d="M54.037,35.958c-0.604,0-1.027-0.422-1.027-1.026c0-0.589,0.442-1.035,1.03-1.037
				c0.568,0,1.046,0.476,1.047,1.039C55.087,35.508,54.626,35.958,54.037,35.958z"/>
		</g>
		<g>
			<path fill="#A56450" d="M65.058,55.088c-0.564,0-1.011-0.454-1.017-1.034c-0.006-0.607,0.409-1.036,1.009-1.043
				c0.596,0,1.042,0.437,1.054,1.015c0.006,0.273-0.099,0.535-0.294,0.738c-0.196,0.204-0.455,0.319-0.73,0.324H65.058z"/>
		</g>
		<g>
			<path fill="#A56450" d="M61.437,35.271c-0.571-0.017-1.014-0.488-1.006-1.073c0.006-0.557,0.465-1.01,1.022-1.01
				c0.617,0.018,1.05,0.476,1.04,1.066c-0.01,0.561-0.47,1.018-1.025,1.018L61.437,35.271z"/>
		</g>
		<g>
			<path fill="#A56450" d="M38.536,35.271c-0.579-0.005-1.032-0.465-1.031-1.047c0-0.58,0.456-1.035,1.035-1.035
				c0.279,0,0.539,0.106,0.73,0.299c0.193,0.194,0.299,0.458,0.297,0.741c-0.003,0.575-0.462,1.042-1.022,1.042H38.536z"/>
		</g>
		<g>
			<path fill="#A56450" d="M71.328,34.037c-0.576-0.016-1.017-0.484-1.003-1.065c0.014-0.585,0.44-0.995,1.038-0.995
				c0.307,0.005,0.566,0.115,0.752,0.309c0.185,0.193,0.282,0.456,0.273,0.74c-0.017,0.576-0.459,1.011-1.029,1.011L71.328,34.037z"
				/>
		</g>
		<g>
			<path fill="#A56450" d="M31.438,45.02c-0.568-0.013-1.021-0.49-1.012-1.065c0.01-0.571,0.463-1.019,1.031-1.019
				c0.598,0.011,1.042,0.476,1.031,1.059c-0.009,0.565-0.471,1.025-1.027,1.025L31.438,45.02z"/>
		</g>
		<g>
			<path fill="#A56450" d="M68.527,45.02c-0.578-0.01-1.025-0.475-1.019-1.06c0.007-0.574,0.46-1.023,1.033-1.023
				c0.59,0.007,1.036,0.47,1.03,1.054c-0.007,0.567-0.468,1.03-1.027,1.03L68.527,45.02z"/>
		</g>
		<g>
			<path fill="#A56450" d="M76.609,44.983c-0.568-0.004-1.045-0.482-1.042-1.042c0.004-0.572,0.464-1.021,1.046-1.021
				c0.604,0.003,1.034,0.438,1.031,1.033c-0.002,0.578-0.453,1.031-1.026,1.031L76.609,44.983L76.609,44.983z"/>
		</g>
		<g>
			<path fill="#A56450" d="M65.059,46.989c-0.593-0.003-1.021-0.439-1.018-1.037c0.003-0.584,0.45-1.042,1.018-1.042
				c0.579,0.007,1.052,0.491,1.045,1.056c-0.007,0.583-0.453,1.023-1.038,1.023H65.059z"/>
		</g>
		<g>
			<path fill="#A56450" d="M75.406,41.084c-0.281-0.003-0.545-0.117-0.743-0.32c-0.193-0.198-0.298-0.456-0.294-0.726
				c0.007-0.58,0.458-1.018,1.048-1.018c0.294,0.002,0.555,0.109,0.745,0.302c0.188,0.192,0.292,0.453,0.289,0.735
				c-0.005,0.575-0.458,1.026-1.032,1.026h-0.013C75.406,41.083,75.406,41.084,75.406,41.084z"/>
		</g>
		<g>
			<path fill="#A56450" d="M61.818,75.636c-0.58-0.007-1.03-0.467-1.024-1.046c0.006-0.589,0.441-1.016,1.037-1.016
				c0.296,0.002,0.558,0.106,0.742,0.294s0.285,0.451,0.283,0.741c-0.004,0.575-0.454,1.026-1.024,1.026L61.818,75.636
				L61.818,75.636z"/>
		</g>
		<g>
			<path fill="#A56450" d="M65.354,73.611c-0.554,0-1.013-0.463-1.022-1.032c-0.005-0.285,0.094-0.547,0.279-0.738
				c0.188-0.193,0.449-0.302,0.737-0.306c0.598,0,1.04,0.436,1.046,1.013c0.007,0.585-0.44,1.052-1.018,1.063
				C65.376,73.611,65.354,73.611,65.354,73.611z"/>
		</g>
		<g>
			<path fill="#A56450" d="M61.036,40.001c-0.595,0-1.031-0.43-1.039-1.023c-0.003-0.283,0.1-0.545,0.288-0.737
				c0.19-0.193,0.451-0.301,0.734-0.303c0.586,0,1.039,0.448,1.041,1.021c0.002,0.288-0.103,0.553-0.295,0.747
				c-0.188,0.19-0.446,0.295-0.727,0.296h-0.002V40.001z"/>
		</g>
		<g>
			<path fill="#A56450" d="M22.779,48.991c-0.565,0-1.037-0.458-1.05-1.02c-0.007-0.272,0.093-0.53,0.281-0.726
				c0.194-0.202,0.459-0.315,0.747-0.319c0.606,0,1.042,0.423,1.049,1.006c0.008,0.592-0.425,1.047-1.009,1.057L22.779,48.991z"/>
		</g>
		<g>
			<path fill="#A56450" d="M38.538,66.812c-0.588-0.003-1.033-0.45-1.033-1.039c0-0.281,0.107-0.545,0.305-0.742
				c0.194-0.194,0.452-0.302,0.727-0.302c0.573,0.001,1.026,0.461,1.032,1.048c0.003,0.278-0.102,0.539-0.295,0.734
				c-0.192,0.194-0.451,0.301-0.728,0.301H38.538z"/>
		</g>
		<g>
			<path fill="#A56450" d="M38.914,62.062c-0.279-0.012-0.532-0.129-0.713-0.33s-0.274-0.47-0.262-0.755
				c0.025-0.558,0.465-0.979,1.023-0.979c0.653,0.031,1.064,0.487,1.038,1.086c-0.025,0.559-0.47,0.979-1.035,0.979L38.914,62.062z"
				/>
		</g>
		<g>
			<path fill="#A56450" d="M54.061,28.01c-0.56-0.003-1.032-0.486-1.033-1.056c0-0.583,0.444-1.023,1.033-1.023
				c0.292,0,0.56,0.11,0.756,0.308c0.189,0.192,0.293,0.447,0.291,0.719c-0.003,0.551-0.5,1.052-1.042,1.052H54.061z"/>
		</g>
		<g>
			<path fill="#A56450" d="M35.505,64.086c-0.58-0.003-1.033-0.461-1.031-1.042c0.002-0.573,0.468-1.04,1.039-1.041
				c0.273,0,0.531,0.107,0.723,0.302c0.196,0.197,0.302,0.462,0.299,0.744c-0.006,0.601-0.437,1.037-1.025,1.037H35.505z"/>
		</g>
		<g>
			<path fill="#A56450" d="M61.445,66.812c-0.276-0.002-0.534-0.111-0.726-0.308c-0.192-0.198-0.295-0.462-0.289-0.742
				c0.012-0.579,0.464-1.033,1.028-1.033c0.584,0.008,1.042,0.482,1.034,1.058c-0.008,0.585-0.455,1.025-1.039,1.025
				C61.453,66.812,61.445,66.812,61.445,66.812z"/>
		</g>
		<g>
			<path fill="#A56450" d="M64.988,68.96c-0.578-0.029-1.009-0.508-0.98-1.089c0.025-0.549,0.486-0.994,1.027-0.994
				c0.63,0.033,1.059,0.515,1.033,1.098c-0.022,0.554-0.474,0.987-1.025,0.987L64.988,68.96z"/>
		</g>
		<g>
			<path fill="#A56450" d="M34.954,68.96c-0.573,0-1.023-0.454-1.026-1.033c-0.001-0.282,0.104-0.546,0.297-0.743
				c0.192-0.196,0.451-0.305,0.729-0.306c0.57,0,1.034,0.467,1.039,1.041c0.004,0.588-0.438,1.036-1.028,1.041
				C34.965,68.96,34.954,68.96,34.954,68.96z"/>
		</g>
		<g>
			<path fill="#A56450" d="M31.452,57.063c-0.564,0-1.015-0.447-1.026-1.02c-0.011-0.574,0.443-1.052,1.012-1.063l0,0
				c0.58,0,1.041,0.46,1.05,1.024c0.01,0.582-0.435,1.047-1.013,1.059C31.475,57.063,31.452,57.063,31.452,57.063z"/>
		</g>
		<g>
			<path fill="#A56450" d="M54.086,24.041c-0.285-0.002-0.547-0.11-0.735-0.302s-0.289-0.454-0.286-0.738
				c0.007-0.583,0.449-1.023,1.029-1.023c0.6,0.007,1.038,0.456,1.034,1.045c-0.004,0.581-0.447,1.018-1.031,1.018
				C54.097,24.041,54.086,24.041,54.086,24.041z"/>
		</g>
		<g>
			<path fill="#A56450" d="M65.019,33.122c-0.568-0.013-1.022-0.493-1.013-1.068c0.011-0.578,0.456-1.014,1.036-1.014
				c0.604,0.01,1.037,0.466,1.027,1.061c-0.008,0.564-0.468,1.022-1.025,1.022L65.019,33.122z"/>
		</g>
		<g>
			<path fill="#A56450" d="M58.071,24.975c-0.562-0.003-1.036-0.485-1.035-1.052c0-0.593,0.436-1.024,1.036-1.026
				c0.289,0,0.555,0.108,0.75,0.304c0.19,0.191,0.294,0.447,0.293,0.72c-0.002,0.552-0.496,1.054-1.038,1.054H58.071z"/>
		</g>
		<g>
			<path fill="#A56450" d="M76.605,57.124c-0.282-0.001-0.547-0.112-0.746-0.313c-0.193-0.195-0.3-0.452-0.298-0.722
				c0.003-0.569,0.473-1.032,1.047-1.032c0.581,0.002,1.036,0.457,1.035,1.037c0,0.279-0.106,0.539-0.299,0.731
				c-0.193,0.193-0.454,0.299-0.734,0.299C76.61,57.124,76.605,57.124,76.605,57.124z"/>
		</g>
		<g>
			<path fill="#A56450" d="M67.919,66.071c-0.285,0-0.549-0.108-0.744-0.305c-0.192-0.192-0.298-0.452-0.297-0.729
				c0.002-0.568,0.472-1.03,1.048-1.03c0.589,0,1.033,0.445,1.033,1.036c0.001,0.278-0.104,0.536-0.295,0.727
				c-0.193,0.194-0.457,0.301-0.742,0.301C67.922,66.071,67.919,66.071,67.919,66.071z"/>
		</g>
		<g>
			<path fill="#A56450" d="M32.063,66.071c-0.284-0.003-0.546-0.113-0.738-0.31c-0.189-0.195-0.291-0.455-0.286-0.734
				c0.009-0.571,0.465-1.02,1.038-1.02c0.59,0.008,1.052,0.479,1.044,1.048s-0.466,1.016-1.043,1.016H32.063z"/>
		</g>
		<g>
			<path fill="#A56450" d="M64.468,64.086c-0.579-0.012-1.011-0.47-1.005-1.063c0.006-0.562,0.466-1.021,1.023-1.021
				c0.603,0.015,1.046,0.483,1.036,1.068c-0.01,0.569-0.463,1.016-1.032,1.016H64.468z"/>
		</g>
		<g>
			<path fill="#A56450" d="M45.938,74.07c-0.583,0-1.042-0.448-1.044-1.021c-0.002-0.56,0.483-1.054,1.038-1.058
				c0.557,0,1.044,0.489,1.049,1.048c0.002,0.275-0.101,0.532-0.291,0.725c-0.194,0.196-0.459,0.306-0.748,0.307L45.938,74.07
				L45.938,74.07z"/>
		</g>
		<g>
			<path fill="#A56450" d="M54.04,74.07c-0.285-0.004-0.544-0.112-0.73-0.305c-0.187-0.193-0.287-0.457-0.282-0.744
				c0.01-0.558,0.48-1.029,1.029-1.029c0.583,0.017,1.062,0.517,1.05,1.071c-0.012,0.574-0.463,1.007-1.048,1.007
				C54.059,74.07,54.04,74.07,54.04,74.07z"/>
		</g>
		<g>
			<path fill="#A56450" d="M73.034,46.971c-0.275-0.001-0.538-0.113-0.738-0.313c-0.199-0.199-0.308-0.458-0.306-0.729
				c0.003-0.553,0.497-1.038,1.057-1.038c0.275,0.001,0.53,0.107,0.72,0.298c0.196,0.198,0.304,0.466,0.302,0.756
				c-0.003,0.585-0.444,1.026-1.025,1.026C73.044,46.971,73.034,46.971,73.034,46.971z"/>
		</g>
		<g>
			<path fill="#A56450" d="M26.955,46.978c-0.581,0-1.022-0.443-1.026-1.031c-0.002-0.29,0.104-0.558,0.3-0.756
				c0.189-0.191,0.443-0.298,0.716-0.299c0.562,0,1.056,0.484,1.062,1.037c0.003,0.261-0.107,0.525-0.302,0.725
				c-0.2,0.204-0.469,0.322-0.739,0.325L26.955,46.978L26.955,46.978z"/>
		</g>
		<g>
			<path fill="#A56450" d="M45.955,66.104c-0.278-0.001-0.542-0.113-0.742-0.315c-0.196-0.198-0.303-0.457-0.301-0.728
				c0.004-0.581,0.456-1.019,1.05-1.019c0.297,0.001,0.559,0.104,0.743,0.29c0.184,0.187,0.285,0.448,0.283,0.739
				c-0.003,0.589-0.444,1.032-1.026,1.032L45.955,66.104L45.955,66.104z"/>
		</g>
		<g>
			<path fill="#A56450" d="M45.906,70.108c-0.576-0.025-1.026-0.508-1.003-1.075c0.024-0.569,0.466-0.983,1.051-0.983
				c0.315,0.009,0.573,0.123,0.761,0.324c0.187,0.199,0.283,0.462,0.272,0.74c-0.023,0.559-0.478,0.995-1.034,0.995L45.906,70.108z"
				/>
		</g>
		<g>
			<path fill="#A56450" d="M54.048,70.112c-0.566,0-1.032-0.462-1.037-1.029c-0.003-0.276,0.1-0.534,0.288-0.726
				c0.193-0.195,0.458-0.305,0.745-0.307c0.597,0,1.045,0.436,1.05,1.014c0.005,0.57-0.459,1.041-1.034,1.048H54.048z"/>
		</g>
		<g>
			<path fill="#A56450" d="M68.542,57.063c-0.571,0-1.025-0.447-1.033-1.02c-0.009-0.584,0.438-1.051,1.015-1.063h0.001
				c0.578,0,1.038,0.461,1.048,1.026c0.005,0.284-0.098,0.55-0.289,0.747c-0.188,0.195-0.446,0.306-0.724,0.31
				C68.56,57.063,68.542,57.063,68.542,57.063z"/>
		</g>
		<g>
			<path fill="#A56450" d="M73.044,55.104c-0.557,0-1.039-0.467-1.053-1.021c-0.014-0.553,0.468-1.051,1.029-1.064c0,0,0,0,0.001,0
				c0.59,0,1.037,0.448,1.047,1.02c0.01,0.596-0.422,1.054-1.004,1.065H73.044z"/>
		</g>
		<g>
			<path fill="#A56450" d="M26.948,55.11c-0.565,0-1.013-0.453-1.019-1.031c-0.003-0.292,0.099-0.559,0.288-0.752
				c0.185-0.189,0.442-0.295,0.723-0.298c0.582,0,1.057,0.457,1.066,1.02c0.01,0.555-0.475,1.05-1.038,1.062h-0.02V55.11z"/>
		</g>
		<g>
			<path fill="#A56450" d="M71.317,68.057c-0.285-0.002-0.548-0.111-0.739-0.307c-0.188-0.193-0.29-0.453-0.286-0.731
				c0.007-0.572,0.465-1.02,1.041-1.02c0.6,0.005,1.024,0.444,1.02,1.045c-0.004,0.597-0.425,1.013-1.022,1.013H71.317z"/>
		</g>
		<g>
			<path fill="#A56450" d="M71.961,59.03c-0.285-0.006-0.546-0.117-0.734-0.313c-0.187-0.194-0.286-0.457-0.279-0.738
				c0.013-0.567,0.464-1.012,1.027-1.012c0.636,0.018,1.037,0.443,1.028,1.06c-0.007,0.592-0.425,1.004-1.016,1.004h-0.026V59.03z"
				/>
		</g>
		<g>
			<path fill="#A56450" d="M28.641,68.05c-0.281-0.004-0.542-0.115-0.736-0.314c-0.192-0.197-0.295-0.457-0.291-0.732
				c0.008-0.587,0.444-1.012,1.038-1.012c0.621,0.006,1.027,0.42,1.022,1.031c-0.005,0.586-0.442,1.027-1.018,1.027
				C28.656,68.05,28.641,68.05,28.641,68.05z"/>
		</g>
		<g>
			<path fill="#A56450" d="M58.008,73.004c-0.594,0-1.032-0.42-1.041-0.998c-0.01-0.583,0.436-1.049,1.015-1.062h0.001
				c0.589,0,1.039,0.446,1.047,1.017c0.004,0.296-0.095,0.562-0.277,0.75C58.569,72.9,58.318,73,58.025,73.004H58.008z"/>
		</g>
		<g>
			<path fill="#A56450" d="M75.4,61.016c-0.285,0-0.547-0.105-0.738-0.296c-0.189-0.19-0.295-0.451-0.294-0.735
				c0.001-0.578,0.456-1.03,1.036-1.03c0.576,0.001,1.045,0.466,1.044,1.037C76.446,60.556,75.977,61.016,75.4,61.016z"/>
		</g>
		<g>
			<path fill="#A56450" d="M58.011,77.118c-0.585-0.011-1.019-0.462-1.01-1.051c0.009-0.577,0.449-1.013,1.024-1.013
				c0.614,0.014,1.051,0.467,1.038,1.053c-0.011,0.576-0.454,1.011-1.03,1.011H58.011z"/>
		</g>
		<g>
			<path fill="#A56450" d="M61.87,26.458c-0.572,0-1.03-0.45-1.043-1.024c-0.007-0.281,0.092-0.541,0.277-0.732
				c0.189-0.195,0.452-0.304,0.742-0.306c0.602,0,1.055,0.432,1.062,1.005c0.005,0.276-0.101,0.539-0.295,0.74
				s-0.453,0.313-0.729,0.317L61.87,26.458z"/>
		</g>
		<g>
			<path fill="#A56450" d="M45.935,28.009c-0.549,0-1.038-0.487-1.046-1.043c-0.004-0.271,0.098-0.528,0.288-0.722
				c0.196-0.2,0.462-0.312,0.749-0.313c0.596,0,1.041,0.437,1.044,1.016c0.003,0.57-0.466,1.056-1.024,1.062
				C45.946,28.009,45.935,28.009,45.935,28.009z"/>
		</g>
		<g>
			<path fill="#A56450" d="M45.947,31.95c-0.598,0-1.036-0.427-1.043-1.015c-0.003-0.275,0.103-0.536,0.297-0.734
				c0.196-0.198,0.457-0.31,0.736-0.312c0.578,0,1.043,0.462,1.049,1.029c0.003,0.276-0.099,0.533-0.287,0.725
				c-0.193,0.196-0.458,0.306-0.746,0.307H45.947z"/>
		</g>
		<g>
			<path fill="#A56450" d="M65.393,28.484c-0.288,0-0.55-0.104-0.736-0.292c-0.188-0.188-0.29-0.449-0.289-0.737
				c0.002-0.588,0.446-1.032,1.034-1.034c0.577,0,1.028,0.458,1.029,1.042c0.001,0.279-0.103,0.535-0.289,0.723
				C65.95,28.378,65.684,28.484,65.393,28.484z"/>
		</g>
		<g>
			<path fill="#A56450" d="M64.486,37.997c-0.558,0-1.017-0.457-1.023-1.018c-0.007-0.604,0.415-1.052,1.003-1.064
				c0.001,0,0.001,0,0.001,0c0.593,0,1.045,0.445,1.056,1.013c0.011,0.584-0.433,1.054-1.009,1.069H64.486z"/>
		</g>
		<g>
			<path fill="#A56450" d="M45.908,78.022c-0.279-0.001-0.538-0.108-0.728-0.302c-0.192-0.195-0.297-0.459-0.294-0.743
				c0.005-0.581,0.45-1.019,1.035-1.019c0.586,0.004,1.051,0.472,1.047,1.042c-0.003,0.563-0.476,1.021-1.053,1.021L45.908,78.022
				L45.908,78.022z"/>
		</g>
		<g>
			<path fill="#A56450" d="M54.03,31.949c-0.285-0.004-0.547-0.115-0.737-0.312c-0.188-0.195-0.288-0.455-0.282-0.733
				c0.012-0.56,0.477-1.015,1.036-1.015c0.602,0.016,1.06,0.491,1.047,1.06c-0.013,0.58-0.452,1-1.045,1H54.03z"/>
		</g>
		<g>
			<path fill="#A56450" d="M34.599,73.58c-0.278-0.001-0.536-0.109-0.727-0.303c-0.193-0.196-0.297-0.459-0.294-0.742
				c0.006-0.581,0.453-1.019,1.04-1.019c0.291,0.001,0.547,0.104,0.729,0.288c0.187,0.189,0.288,0.457,0.285,0.754
				c-0.005,0.602-0.427,1.021-1.025,1.021L34.599,73.58L34.599,73.58z"/>
		</g>
		<g>
			<path fill="#A56450" d="M34.932,55.087c-0.561,0-1.036-0.479-1.037-1.048c0-0.277,0.104-0.536,0.295-0.728
				c0.193-0.194,0.457-0.301,0.741-0.301c0.604,0,1.025,0.422,1.025,1.026c0,0.589-0.449,1.05-1.023,1.05L34.932,55.087
				L34.932,55.087z"/>
		</g>
		<g>
			<path fill="#A56450" d="M41.989,73.004c-0.293-0.001-0.556-0.104-0.74-0.291c-0.183-0.186-0.283-0.447-0.28-0.736
				c0.005-0.578,0.453-1.031,1.019-1.031c0.599,0.009,1.051,0.468,1.044,1.045c-0.007,0.597-0.434,1.014-1.038,1.014L41.989,73.004
				L41.989,73.004z"/>
		</g>
		<g>
			<path fill="#A56450" d="M28.016,59.031c-0.595,0-1.015-0.413-1.021-1.005c-0.008-0.604,0.412-1.049,0.998-1.058l0,0
				c0.591,0,1.048,0.445,1.061,1.013c0.006,0.279-0.093,0.54-0.281,0.736c-0.19,0.197-0.451,0.309-0.735,0.313L28.016,59.031
				L28.016,59.031z"/>
		</g>
		<g>
			<path fill="#A56450" d="M66.887,60.772c-0.593,0-1.029-0.424-1.038-1.007c-0.01-0.594,0.42-1.032,1.02-1.042h0.001
				c0.605,0,1.035,0.425,1.042,1.009c0.004,0.293-0.096,0.558-0.28,0.746c-0.183,0.187-0.441,0.291-0.729,0.294
				C66.903,60.772,66.887,60.772,66.887,60.772z"/>
		</g>
		<g>
			<path fill="#A56450" d="M33.117,60.774c-0.601,0-1.025-0.416-1.031-1.011c-0.006-0.598,0.42-1.037,1.014-1.044
				c0.596,0,1.041,0.437,1.049,1.016c0.004,0.284-0.096,0.546-0.282,0.736c-0.188,0.192-0.45,0.3-0.737,0.303H33.117z"/>
		</g>
		<g>
			<path fill="#A56450" d="M71.984,43.032c-0.581-0.002-1.036-0.458-1.036-1.037c0.001-0.585,0.444-1.026,1.031-1.026
				c0.605,0.001,1.024,0.424,1.023,1.027c0,0.292-0.103,0.556-0.288,0.745c-0.185,0.188-0.442,0.291-0.727,0.291H71.984z"/>
		</g>
		<g>
			<path fill="#A56450" d="M38.14,75.604c-0.601-0.003-1.037-0.434-1.036-1.024c0.001-0.567,0.466-1.028,1.036-1.028
				c0.582,0.004,1.048,0.471,1.047,1.041c-0.001,0.567-0.458,1.012-1.039,1.012L38.14,75.604L38.14,75.604z"/>
		</g>
		<g>
			<path fill="#A56450" d="M34.921,46.989c-0.282-0.001-0.542-0.11-0.734-0.306c-0.191-0.194-0.294-0.455-0.292-0.734
				c0.006-0.562,0.479-1.037,1.034-1.037c0.596,0.009,1.032,0.465,1.028,1.061c-0.004,0.598-0.427,1.016-1.028,1.016H34.921z"/>
		</g>
		<g>
			<path fill="#A56450" d="M66.862,41.276c-0.287-0.004-0.549-0.113-0.735-0.307c-0.185-0.192-0.284-0.454-0.278-0.738
				c0.012-0.581,0.448-1.003,1.036-1.003c0.622,0.01,1.037,0.44,1.027,1.045c-0.01,0.59-0.433,1.003-1.028,1.003H66.862z"/>
		</g>
		<g>
			<path fill="#A56450" d="M54.034,66.104c-0.565,0-1.016-0.444-1.024-1.012c-0.01-0.608,0.403-1.04,1.003-1.05
				c0.604,0,1.06,0.43,1.076,1.001c0.008,0.266-0.093,0.523-0.285,0.726c-0.194,0.206-0.465,0.327-0.741,0.334L54.034,66.104z"/>
		</g>
		<g>
			<path fill="#A56450" d="M73.627,64.698c-0.578,0-1.021-0.437-1.027-1.016c-0.009-0.597,0.417-1.037,1.013-1.048l0,0
				c0.599,0,1.04,0.434,1.05,1.009c0.01,0.581-0.436,1.044-1.015,1.055H73.627z"/>
		</g>
		<g>
			<path fill="#A56450" d="M26.34,64.663c-0.291-0.003-0.558-0.115-0.753-0.315c-0.188-0.193-0.288-0.449-0.283-0.722
				c0.009-0.564,0.479-1.024,1.047-1.024c0.6,0.008,1.036,0.46,1.03,1.052c-0.006,0.595-0.428,1.01-1.027,1.01L26.34,64.663
				L26.34,64.663z"/>
		</g>
		<g>
			<path fill="#A56450" d="M33.089,41.274c-0.287-0.004-0.544-0.11-0.726-0.298c-0.184-0.19-0.282-0.457-0.277-0.75
				c0.011-0.583,0.444-1.007,1.029-1.007c0.305,0.006,0.564,0.117,0.751,0.312c0.188,0.196,0.289,0.46,0.282,0.743
				c-0.013,0.58-0.45,1-1.039,1H33.089z"/>
		</g>
		<g>
			<path fill="#A56450" d="M77.169,53.091c-0.58-0.023-1.001-0.488-0.978-1.08c0.021-0.579,0.439-0.969,1.041-0.969
				c0.599,0.017,1.038,0.465,1.038,1.021c-0.001,0.558-0.485,1.028-1.059,1.028L77.169,53.091z"/>
		</g>
		<g>
			<path fill="#A56450" d="M49.993,78.312c-0.606,0-1.034-0.411-1.042-1.001c-0.004-0.286,0.098-0.55,0.287-0.742
				c0.19-0.193,0.454-0.301,0.743-0.303c0.292,0,0.553,0.104,0.741,0.292c0.188,0.19,0.292,0.454,0.291,0.744
				c-0.002,0.586-0.412,1.001-0.998,1.01C50.015,78.312,49.993,78.312,49.993,78.312z"/>
		</g>
		<g>
			<path fill="#A56450" d="M63.501,58.823c-0.286-0.001-0.553-0.112-0.751-0.313c-0.191-0.194-0.296-0.448-0.293-0.716
				c0.005-0.56,0.488-1.031,1.056-1.031c0.278,0,0.536,0.105,0.726,0.295c0.192,0.194,0.299,0.46,0.298,0.747
				c-0.002,0.59-0.437,1.019-1.032,1.019h-0.004C63.501,58.824,63.501,58.823,63.501,58.823z"/>
		</g>
		<g>
			<path fill="#A56450" d="M57.79,64.537c-0.591-0.003-1.019-0.44-1.016-1.039c0.002-0.575,0.46-1.042,1.021-1.042
				c0.573,0.007,1.042,0.493,1.038,1.062c-0.005,0.581-0.45,1.02-1.036,1.02L57.79,64.537L57.79,64.537z"/>
		</g>
		<g>
			<path fill="#A56450" d="M42.201,64.537c-0.294,0-0.548-0.099-0.733-0.286c-0.183-0.185-0.284-0.449-0.284-0.743
				c0-0.59,0.446-1.052,1.015-1.052c0.561,0.002,1.036,0.484,1.039,1.054c0.001,0.277-0.103,0.535-0.292,0.726
				C42.752,64.43,42.488,64.537,42.201,64.537z"/>
		</g>
		<g>
			<path fill="#A56450" d="M57.999,29.05c-0.579,0-1.022-0.439-1.032-1.021c-0.005-0.283,0.093-0.542,0.276-0.731
				c0.188-0.192,0.451-0.299,0.743-0.302c0.612,0,1.036,0.413,1.042,1.005c0.006,0.59-0.43,1.042-1.014,1.049L57.999,29.05z"/>
		</g>
		<g>
			<path fill="#A56450" d="M24.569,60.981c-0.287-0.002-0.549-0.11-0.739-0.305c-0.187-0.19-0.287-0.45-0.283-0.729
				c0.008-0.572,0.467-1.02,1.045-1.02c0.29,0.003,0.549,0.115,0.744,0.314c0.194,0.2,0.298,0.462,0.294,0.738
				c-0.009,0.58-0.452,1.001-1.052,1.001h-0.009V60.981z"/>
		</g>
		<g>
			<path fill="#A56450" d="M49.939,31.516c-0.579-0.018-0.963-0.436-0.955-1.039c0.007-0.602,0.409-0.991,1.024-0.991
				c0.322,0.006,0.572,0.109,0.752,0.3c0.182,0.191,0.275,0.462,0.265,0.762c-0.021,0.588-0.428,0.969-1.039,0.969L49.939,31.516z"
				/>
		</g>
		<g>
			<path fill="#A56450" d="M49.959,23.718c-0.582-0.012-0.988-0.43-0.987-1.017c0.001-0.606,0.416-1.013,1.031-1.013
				c0.311,0.002,0.565,0.102,0.748,0.289c0.183,0.188,0.276,0.448,0.271,0.751c-0.012,0.602-0.417,0.99-1.033,0.99L49.959,23.718z"
				/>
		</g>
		<g>
			<path fill="#A56450" d="M49.99,27.617c-0.3-0.001-0.556-0.1-0.74-0.286c-0.184-0.186-0.279-0.44-0.277-0.738
				c0.004-0.602,0.417-1.006,1.029-1.006c0.307,0.001,0.563,0.101,0.748,0.287c0.183,0.186,0.278,0.44,0.276,0.736
				c-0.004,0.602-0.417,1.006-1.029,1.006C49.996,27.617,49.99,27.617,49.99,27.617z"/>
		</g>
		<g>
			<path fill="#A56450" d="M70.229,62.715c-0.292-0.005-0.54-0.105-0.718-0.29c-0.184-0.19-0.277-0.453-0.271-0.76
				c0.012-0.578,0.441-0.999,1.021-0.999c0.312,0.008,0.57,0.122,0.76,0.322c0.188,0.199,0.288,0.462,0.279,0.74
				c-0.017,0.571-0.457,0.986-1.047,0.986L70.229,62.715L70.229,62.715z"/>
		</g>
		<g>
			<path fill="#A56450" d="M36.497,58.829c-0.593,0-1.028-0.426-1.036-1.014c-0.003-0.287,0.097-0.552,0.283-0.743
				c0.185-0.19,0.444-0.298,0.729-0.301c0.583,0,1.058,0.454,1.069,1.012c0.006,0.267-0.097,0.522-0.291,0.723
				c-0.196,0.203-0.467,0.32-0.742,0.323C36.509,58.829,36.497,58.829,36.497,58.829z"/>
		</g>
		<g>
			<path fill="#A56450" d="M49.974,66.614c-0.296-0.004-0.545-0.102-0.721-0.283c-0.182-0.188-0.275-0.454-0.269-0.771
				c0.011-0.582,0.429-0.988,1.016-0.988c0.292,0.001,0.557,0.106,0.747,0.299c0.188,0.19,0.289,0.453,0.286,0.74
				c-0.007,0.591-0.435,1.003-1.042,1.003C49.99,66.614,49.974,66.614,49.974,66.614z"/>
		</g>
		<g>
			<path fill="#A56450" d="M38.298,71.301c-0.587-0.002-1.013-0.441-1.013-1.044c0-0.617,0.399-1.016,1.017-1.016
				c0.297,0.001,0.561,0.104,0.749,0.294c0.184,0.186,0.285,0.444,0.283,0.729c-0.002,0.581-0.455,1.036-1.031,1.036L38.298,71.301
				L38.298,71.301z"/>
		</g>
		<g>
			<path fill="#A56450" d="M73.401,51.015c-0.612,0-1.013-0.389-1.02-0.992c-0.008-0.61,0.4-1.045,0.991-1.058h0.001
				c0.608,0,1.039,0.424,1.047,1.008c0.004,0.303-0.091,0.563-0.274,0.752c-0.181,0.186-0.431,0.285-0.725,0.289L73.401,51.015z"/>
		</g>
		<g>
			<path fill="#A56450" d="M65.592,51.027c-0.597-0.002-1.012-0.428-1.01-1.035c0.002-0.604,0.42-1.026,1.015-1.026
				c0.601,0.004,1.03,0.441,1.027,1.04c-0.002,0.592-0.435,1.021-1.027,1.021H65.592z"/>
		</g>
		<g>
			<path fill="#A56450" d="M34.397,51.027c-0.293,0-0.545-0.099-0.728-0.284c-0.188-0.19-0.286-0.453-0.283-0.76
				c0.005-0.595,0.423-1.01,1.017-1.01c0.611,0.013,1.021,0.432,1.025,1.02c0.002,0.292-0.1,0.556-0.287,0.744
				c-0.186,0.188-0.449,0.291-0.74,0.291h-0.004C34.397,51.028,34.397,51.027,34.397,51.027z"/>
		</g>
		<g>
			<path fill="#A56450" d="M26.577,51.027c-0.58-0.011-0.987-0.428-0.991-1.016c-0.002-0.305,0.097-0.566,0.285-0.755
				c0.184-0.185,0.437-0.283,0.731-0.283c0.292,0,0.555,0.104,0.741,0.292c0.187,0.189,0.288,0.454,0.285,0.747
				c-0.006,0.597-0.428,1.014-1.028,1.014L26.577,51.027z"/>
		</g>
		<g>
			<path fill="#A56450" d="M69.369,48.992c-0.606-0.011-1.006-0.44-0.995-1.066c0.009-0.567,0.445-0.996,1.017-0.997
				c0.281,0,0.54,0.106,0.731,0.299c0.194,0.196,0.301,0.461,0.298,0.747c-0.005,0.59-0.438,1.018-1.029,1.018L69.369,48.992z"/>
		</g>
		<g>
			<path fill="#A56450" d="M30.567,48.992c-0.576-0.021-0.991-0.456-0.988-1.034c0.003-0.587,0.445-1.03,1.028-1.03
				c0.299,0.005,0.555,0.111,0.736,0.298c0.188,0.194,0.288,0.466,0.282,0.765c-0.011,0.589-0.428,1.001-1.013,1.001H30.567z"/>
		</g>
		<g>
			<path fill="#A56450" d="M49.98,74.412c-0.297-0.003-0.547-0.1-0.724-0.28c-0.181-0.185-0.275-0.446-0.271-0.756
				c0.006-0.602,0.415-1.005,1.015-1.005c0.306,0.004,0.566,0.112,0.753,0.305c0.186,0.192,0.285,0.455,0.28,0.74
				c-0.01,0.587-0.438,0.996-1.04,0.996C49.993,74.412,49.98,74.412,49.98,74.412z"/>
		</g>
		<g>
			<path fill="#A56450" d="M36.483,43.229c-0.284-0.001-0.544-0.105-0.731-0.294c-0.188-0.19-0.292-0.454-0.29-0.742
				c0.003-0.592,0.438-1.021,1.034-1.021c0.284,0,0.549,0.113,0.75,0.316c0.194,0.197,0.3,0.453,0.297,0.72
				c-0.005,0.563-0.479,1.021-1.055,1.021C36.487,43.229,36.483,43.229,36.483,43.229z"/>
		</g>
		<g>
			<path fill="#A56450" d="M63.514,43.219c-0.582,0-1.047-0.44-1.058-1.002c-0.006-0.265,0.097-0.521,0.288-0.72
				c0.196-0.204,0.468-0.323,0.746-0.327c0.597,0,1.039,0.436,1.046,1.013c0.004,0.291-0.096,0.554-0.279,0.742
				c-0.183,0.187-0.442,0.291-0.731,0.293L63.514,43.219L63.514,43.219z"/>
		</g>
		<g>
			<path fill="#A56450" d="M23.387,57.094c-0.599-0.002-1.033-0.434-1.032-1.028c0-0.587,0.442-1.029,1.028-1.029
				c0.583,0.002,1.053,0.464,1.053,1.03S23.964,57.094,23.387,57.094z"/>
		</g>
		<g>
			<path fill="#A56450" d="M50.002,70.513c-0.613,0-1.026-0.405-1.029-1.009c-0.002-0.596,0.427-1.03,1.021-1.032
				c0.598,0,1.03,0.429,1.033,1.02c0.002,0.295-0.095,0.549-0.278,0.734c-0.186,0.188-0.442,0.286-0.742,0.287H50.002z"/>
		</g>
		<g>
			<path fill="#A56450" d="M69.393,53.071c-0.59,0-1.018-0.431-1.019-1.024c-0.001-0.302,0.102-0.57,0.288-0.758
				c0.185-0.184,0.436-0.281,0.727-0.281c0.295,0.001,0.558,0.107,0.745,0.298c0.188,0.191,0.289,0.456,0.285,0.746
				c-0.008,0.574-0.442,1.012-1.009,1.019C69.41,53.071,69.393,53.071,69.393,53.071z"/>
		</g>
		<g>
			<path fill="#A56450" d="M30.595,53.071c-0.568-0.004-1.004-0.439-1.016-1.012c-0.006-0.29,0.094-0.556,0.282-0.749
				c0.187-0.192,0.447-0.299,0.735-0.302c0.609,0,1.027,0.424,1.028,1.032c0,0.29-0.103,0.555-0.291,0.743
				c-0.186,0.186-0.444,0.288-0.728,0.288H30.595z"/>
		</g>
		<g>
			<path fill="#A56450" d="M57.781,37.542c-0.574-0.014-1.019-0.485-1.011-1.071c0.007-0.584,0.44-1.009,1.03-1.009
				c0.299,0.003,0.558,0.111,0.744,0.304c0.188,0.193,0.288,0.457,0.283,0.743c-0.009,0.56-0.478,1.033-1.023,1.033L57.781,37.542z"
				/>
		</g>
		<g>
			<path fill="#A56450" d="M70.254,39.327c-0.285,0-0.543-0.102-0.726-0.285c-0.187-0.188-0.289-0.453-0.288-0.749
				c0.002-0.6,0.42-1.019,1.017-1.019c0.298,0.002,0.563,0.112,0.758,0.31c0.188,0.192,0.289,0.447,0.286,0.72
				c-0.007,0.583-0.455,1.022-1.044,1.022L70.254,39.327L70.254,39.327z"/>
		</g>
		<g>
			<path fill="#A56450" d="M61.7,30.759c-0.605,0-1.03-0.418-1.032-1.017c-0.003-0.582,0.447-1.041,1.024-1.043
				c0.587,0,1.028,0.445,1.032,1.035c0.002,0.29-0.099,0.551-0.281,0.736c-0.185,0.186-0.447,0.289-0.741,0.289H61.7z"/>
		</g>
		<g>
			<path fill="#A56450" d="M61.699,71.301c-0.28,0-0.538-0.104-0.728-0.294c-0.192-0.192-0.299-0.458-0.298-0.746
				c0.001-0.601,0.422-1.02,1.024-1.02c0.294,0,0.558,0.103,0.743,0.287c0.185,0.184,0.287,0.444,0.286,0.734
				c0,0.282-0.105,0.544-0.299,0.738C62.237,71.195,61.978,71.301,61.699,71.301L61.699,71.301z"/>
		</g>
		<g>
			<path fill="#A56450" d="M29.732,62.723c-0.287-0.001-0.552-0.11-0.747-0.309c-0.19-0.194-0.293-0.454-0.288-0.733
				c0.01-0.565,0.449-1,1.022-1.009c0.617,0,1.035,0.419,1.038,1.021c0.001,0.302-0.096,0.56-0.283,0.746
				c-0.185,0.187-0.44,0.284-0.739,0.284H29.732z"/>
		</g>
		<g>
			<path fill="#A56450" d="M53.381,49.101c-0.288,0-0.557-0.11-0.756-0.311c-0.197-0.199-0.305-0.465-0.302-0.749
				c0.006-0.578,0.464-1.041,1.043-1.053c0.001,0,0.001,0,0.001,0c0.29,0,0.561,0.118,0.764,0.323
				c0.202,0.205,0.316,0.477,0.312,0.745c-0.007,0.57-0.478,1.039-1.049,1.045C53.394,49.101,53.381,49.101,53.381,49.101z"/>
		</g>
		<g>
			<path fill="#A56450" d="M38.462,48.992c-0.283-0.004-0.548-0.12-0.746-0.325c-0.19-0.198-0.292-0.453-0.285-0.719
				c0.014-0.572,0.474-1.02,1.047-1.02c0.296,0.003,0.557,0.113,0.748,0.31c0.19,0.195,0.292,0.457,0.288,0.737
				c-0.009,0.57-0.464,1.018-1.036,1.018L38.462,48.992z"/>
		</g>
		<g>
			<path fill="#A56450" d="M49.99,54.938c-0.593-0.003-1.047-0.444-1.056-1.025c-0.005-0.28,0.105-0.548,0.309-0.755
				c0.202-0.205,0.476-0.322,0.753-0.322c0.292,0.002,0.569,0.125,0.771,0.336c0.198,0.207,0.307,0.482,0.297,0.755
				c-0.02,0.586-0.468,1.012-1.066,1.012C49.997,54.938,49.99,54.938,49.99,54.938z"/>
		</g>
		<g>
			<path fill="#A56450" d="M60.097,45.177c-0.282-0.006-0.541-0.118-0.728-0.315s-0.284-0.46-0.275-0.743
				c0.018-0.579,0.447-0.984,1.045-0.984c0.31,0.006,0.572,0.12,0.764,0.322c0.186,0.197,0.283,0.454,0.273,0.725
				c-0.02,0.558-0.481,0.996-1.053,0.996L60.097,45.177z"/>
		</g>
		<g>
			<path fill="#A56450" d="M56.733,54.914c-0.291-0.003-0.554-0.109-0.739-0.301c-0.183-0.188-0.28-0.449-0.275-0.735
				c0.011-0.574,0.456-1.007,1.037-1.007c0.305,0.004,0.567,0.117,0.762,0.318c0.189,0.197,0.29,0.456,0.284,0.729
				c-0.013,0.576-0.456,0.995-1.054,0.995L56.733,54.914L56.733,54.914z"/>
		</g>
		<g>
			<path fill="#A56450" d="M53.383,53.001c-0.291,0-0.562-0.111-0.761-0.313c-0.197-0.2-0.304-0.469-0.299-0.756
				c0.01-0.569,0.481-1.039,1.051-1.045c0.282,0,0.555,0.119,0.758,0.326s0.316,0.481,0.312,0.752
				c-0.011,0.57-0.485,1.035-1.058,1.037L53.383,53.001L53.383,53.001z"/>
		</g>
		<g>
			<path fill="#A56450" d="M46.593,52.965c-0.292-0.004-0.553-0.112-0.735-0.304s-0.278-0.458-0.268-0.75
				c0.02-0.573,0.45-0.99,1.023-0.99c0.298,0.002,0.562,0.11,0.753,0.304c0.188,0.191,0.29,0.453,0.287,0.737
				c-0.006,0.581-0.444,1.002-1.042,1.002h-0.018C46.593,52.964,46.593,52.965,46.593,52.965z"/>
		</g>
		<g>
			<path fill="#A56450" d="M38.462,53.068c-0.278-0.004-0.54-0.117-0.737-0.319c-0.194-0.2-0.298-0.459-0.294-0.729
				c0.008-0.562,0.479-1.018,1.048-1.018c0.602,0.007,1.042,0.458,1.035,1.047c-0.006,0.572-0.461,1.02-1.037,1.02L38.462,53.068
				L38.462,53.068z"/>
		</g>
		<g>
			<path fill="#A56450" d="M61.52,53.063c-0.591-0.002-1.035-0.445-1.035-1.032c0-0.584,0.444-1.023,1.033-1.023
				c0.594,0.003,1.053,0.454,1.05,1.027c-0.003,0.576-0.462,1.028-1.045,1.028H61.52z"/>
		</g>
		<g>
			<path fill="#A56450" d="M57.508,59.988c-0.285-0.001-0.548-0.109-0.74-0.304c-0.19-0.193-0.294-0.453-0.291-0.732
				c0.006-0.554,0.49-1.039,1.037-1.039c0.581,0.008,1.054,0.493,1.046,1.059c-0.007,0.589-0.447,1.017-1.047,1.017L57.508,59.988
				L57.508,59.988z"/>
		</g>
		<g>
			<path fill="#A56450" d="M45.99,40.05c-0.561,0-1.006-0.449-1.014-1.021c-0.008-0.602,0.412-1.046,0.998-1.056l0,0
				c0.592,0,1.048,0.444,1.06,1.012c0.012,0.573-0.444,1.051-1.018,1.065H45.99z"/>
		</g>
		<g>
			<path fill="#A56450" d="M39.87,56.886c-0.572,0-1.042-0.461-1.048-1.028c-0.003-0.271,0.101-0.526,0.291-0.72
				c0.196-0.199,0.461-0.311,0.747-0.312c0.595,0,1.041,0.438,1.044,1.017c0.002,0.282-0.104,0.545-0.297,0.74
				c-0.192,0.195-0.452,0.303-0.73,0.304L39.87,56.886L39.87,56.886z"/>
		</g>
		<g>
			<path fill="#A56450" d="M42.472,42.088c-0.55,0-1.033-0.488-1.035-1.043c-0.001-0.594,0.435-1.028,1.037-1.032
				c0.587,0,1.043,0.449,1.046,1.021c0.003,0.566-0.473,1.049-1.039,1.054H42.472z"/>
		</g>
		<g>
			<path fill="#A56450" d="M53.898,44.281c-0.579,0-1.021-0.44-1.025-1.023c-0.006-0.586,0.44-1.052,1.016-1.06
				c0.569,0,1.044,0.473,1.05,1.034c0.006,0.582-0.444,1.042-1.025,1.049H53.898z"/>
		</g>
		<g>
			<path fill="#A56450" d="M43.233,54.929c-0.282-0.002-0.546-0.113-0.742-0.313c-0.192-0.195-0.297-0.454-0.293-0.727
				c0.007-0.571,0.47-1.019,1.053-1.019c0.289,0.001,0.549,0.107,0.739,0.3c0.19,0.192,0.293,0.455,0.291,0.739
				c-0.005,0.581-0.451,1.02-1.037,1.02C43.244,54.929,43.233,54.929,43.233,54.929z"/>
		</g>
		<g>
			<path fill="#A56450" d="M56.723,47.115c-0.289-0.005-0.55-0.113-0.733-0.304c-0.183-0.191-0.279-0.454-0.271-0.742
				c0.015-0.568,0.46-0.997,1.034-0.997c0.316,0.008,0.579,0.125,0.772,0.331c0.188,0.199,0.285,0.457,0.276,0.726
				c-0.02,0.572-0.463,0.987-1.056,0.987L56.723,47.115z"/>
		</g>
		<g>
			<path fill="#A56450" d="M53.991,40.05c-0.563-0.008-1.035-0.491-1.029-1.055c0.007-0.573,0.464-1.022,1.042-1.022
				c0.599,0.006,1.022,0.446,1.018,1.046c-0.005,0.588-0.441,1.032-1.015,1.032L53.991,40.05z"/>
		</g>
		<g>
			<path fill="#A56450" d="M39.85,45.174c-0.285-0.004-0.549-0.116-0.743-0.317c-0.189-0.194-0.29-0.451-0.285-0.722
				c0.01-0.569,0.464-0.999,1.055-0.999c0.299,0.002,0.561,0.109,0.748,0.3c0.184,0.189,0.283,0.449,0.278,0.732
				c-0.009,0.583-0.446,1.006-1.037,1.006L39.85,45.174z"/>
		</g>
		<g>
			<path fill="#A56450" d="M53.987,62.028c-0.282-0.004-0.544-0.114-0.735-0.312c-0.191-0.196-0.294-0.458-0.289-0.736
				c0.008-0.567,0.475-1.028,1.04-1.028c0.592,0.007,1.023,0.462,1.019,1.058c-0.005,0.591-0.433,1.019-1.018,1.019L53.987,62.028
				L53.987,62.028z"/>
		</g>
		<g>
			<path fill="#A56450" d="M49.96,62.714c-0.292-0.006-0.541-0.11-0.721-0.301c-0.182-0.192-0.276-0.464-0.266-0.765
				c0.021-0.575,0.443-0.977,1.027-0.977c0.301,0.003,0.562,0.108,0.745,0.297c0.187,0.191,0.286,0.459,0.28,0.754
				c-0.011,0.594-0.427,0.991-1.038,0.991L49.96,62.714L49.96,62.714z"/>
		</g>
		<g>
			<path fill="#A56450" d="M53.895,57.802c-0.557,0-1.017-0.462-1.026-1.03c-0.005-0.286,0.097-0.551,0.286-0.747
				c0.188-0.193,0.446-0.302,0.728-0.306c0.595,0,1.036,0.438,1.043,1.019c0.008,0.587-0.437,1.054-1.012,1.064H53.895z"/>
		</g>
		<g>
			<path fill="#A56450" d="M61.46,48.991c-0.576-0.031-1.005-0.511-0.975-1.094c0.027-0.552,0.475-0.968,1.04-0.968
				c0.336,0.016,0.592,0.139,0.78,0.35c0.186,0.208,0.278,0.471,0.262,0.742c-0.035,0.545-0.496,0.972-1.049,0.972L61.46,48.991z"/>
		</g>
		<g>
			<path fill="#A56450" d="M43.205,47.115c-0.285-0.006-0.547-0.122-0.739-0.325c-0.185-0.198-0.281-0.455-0.27-0.725
				c0.024-0.564,0.476-0.989,1.05-0.989c0.32,0.008,0.579,0.12,0.763,0.315s0.279,0.459,0.271,0.746
				c-0.018,0.576-0.447,0.979-1.045,0.979L43.205,47.115z"/>
		</g>
		<g>
			<path fill="#A56450" d="M45.995,62.028c-0.589,0-1.018-0.433-1.019-1.029c-0.001-0.294,0.105-0.562,0.299-0.756
				c0.187-0.188,0.441-0.29,0.716-0.29c0.276,0,0.539,0.109,0.738,0.308c0.199,0.198,0.309,0.456,0.308,0.729
				c-0.001,0.58-0.458,1.037-1.038,1.039L45.995,62.028L45.995,62.028z"/>
		</g>
		<g>
			<path fill="#A56450" d="M49.963,58.814c-0.594-0.011-0.979-0.409-0.979-1.016c0-0.616,0.399-1.014,1.018-1.014
				c0.306,0.002,0.571,0.107,0.756,0.298c0.183,0.188,0.28,0.452,0.274,0.741c-0.012,0.593-0.432,0.99-1.043,0.99L49.963,58.814
				L49.963,58.814z"/>
		</g>
		<g>
			<path fill="#A56450" d="M49.994,43.216c-0.301,0-0.555-0.096-0.735-0.277c-0.181-0.182-0.276-0.439-0.275-0.744
				c0.002-0.61,0.41-1.02,1.015-1.02c0.294,0.001,0.556,0.106,0.744,0.295s0.291,0.45,0.289,0.736
				c-0.002,0.595-0.428,1.01-1.034,1.01C49.998,43.216,49.994,43.216,49.994,43.216z"/>
		</g>
		<g>
			<path fill="#A56450" d="M42.183,51.015c-0.293-0.002-0.555-0.107-0.736-0.294c-0.183-0.188-0.28-0.454-0.273-0.75
				c0.012-0.584,0.431-0.995,1.019-0.998c0.297,0,0.56,0.103,0.746,0.29s0.289,0.45,0.288,0.741
				c-0.001,0.605-0.417,1.011-1.032,1.011C42.195,51.015,42.183,51.015,42.183,51.015z"/>
		</g>
		<g>
			<path fill="#A56450" d="M38.958,40.038c-0.278-0.002-0.539-0.115-0.736-0.318c-0.204-0.21-0.312-0.489-0.304-0.783
				c0.015-0.581,0.467-1.019,1.051-1.019c0.59,0.007,1.063,0.474,1.068,1.042c0.002,0.272-0.114,0.546-0.318,0.752
				c-0.206,0.208-0.48,0.326-0.754,0.326C38.965,40.038,38.958,40.038,38.958,40.038z"/>
		</g>
		<g>
			<path fill="#A56450" d="M49.979,35.44c-0.599-0.008-1.033-0.445-1.033-1.038c0-0.289,0.107-0.556,0.303-0.751
				s0.46-0.303,0.747-0.303c0.603,0.014,1.072,0.486,1.073,1.053c0.001,0.277-0.104,0.536-0.296,0.728
				c-0.201,0.201-0.477,0.312-0.777,0.312L49.979,35.44z"/>
		</g>
		<g>
			<path fill="#A56450" d="M57.508,42.087c-0.566-0.012-1.039-0.498-1.03-1.061c0.007-0.578,0.455-1.014,1.041-1.014
				c0.606,0.007,1.048,0.455,1.041,1.041c-0.006,0.551-0.488,1.034-1.033,1.034H57.508z"/>
		</g>
		<g>
			<path fill="#A56450" d="M42.197,37.56c-0.266,0-0.533-0.115-0.733-0.316c-0.204-0.205-0.319-0.479-0.318-0.754
				c0.003-0.601,0.429-1.023,1.034-1.027c0.321,0,0.603,0.111,0.803,0.314c0.187,0.188,0.288,0.444,0.285,0.719
				c-0.005,0.554-0.496,1.052-1.049,1.064L42.197,37.56z"/>
		</g>
		<g>
			<path fill="#A56450" d="M45.95,35.98c-0.295,0-0.567-0.111-0.767-0.314c-0.195-0.197-0.3-0.462-0.296-0.745
				c0.008-0.558,0.498-1.055,1.049-1.063l0,0c0.283,0,0.538,0.108,0.733,0.304c0.207,0.208,0.32,0.485,0.318,0.781
				c-0.003,0.596-0.436,1.032-1.028,1.037H45.95z"/>
		</g>
		<g>
			<path fill="#A56450" d="M60.126,56.887c-0.579,0-1.032-0.456-1.032-1.039c0.001-0.587,0.437-1.014,1.035-1.014
				c0.289,0.001,0.555,0.106,0.749,0.297c0.192,0.189,0.299,0.445,0.298,0.721c-0.002,0.562-0.481,1.035-1.048,1.035H60.126z"/>
		</g>
		<g>
			<path fill="#A56450" d="M46.098,44.281c-0.584,0-1.025-0.443-1.027-1.032c-0.002-0.586,0.448-1.048,1.024-1.051
				c0.57,0,1.031,0.467,1.033,1.042c0.002,0.592-0.438,1.039-1.025,1.041H46.098z"/>
		</g>
		<g>
			<path fill="#A56450" d="M42.484,59.988c-0.596,0-1.036-0.425-1.046-1.012c-0.011-0.562,0.459-1.05,1.025-1.062l0,0
				c0.555,0,1.049,0.492,1.057,1.033c0.004,0.279-0.098,0.54-0.288,0.734c-0.192,0.195-0.454,0.305-0.737,0.307H42.484z"/>
		</g>
		<g>
			<path fill="#A56450" d="M46.591,49.065c-0.291-0.004-0.551-0.112-0.733-0.304c-0.183-0.192-0.278-0.459-0.268-0.751
				c0.021-0.58,0.443-0.984,1.028-0.984c0.297,0.001,0.562,0.108,0.751,0.302c0.188,0.191,0.289,0.453,0.285,0.738
				c-0.007,0.588-0.436,1-1.043,1L46.591,49.065z"/>
		</g>
		<g>
			<path fill="#A56450" d="M57.793,51.015c-0.301,0-0.559-0.101-0.744-0.29c-0.186-0.188-0.281-0.444-0.277-0.742
				c0.008-0.586,0.422-1.001,1.008-1.009c0.619,0,1.042,0.419,1.045,1.019c0.002,0.295-0.095,0.549-0.278,0.735
				c-0.186,0.186-0.451,0.288-0.75,0.288L57.793,51.015L57.793,51.015z"/>
		</g>
		<g>
			<path fill="#A56450" d="M46.097,57.802c-0.56,0-1.021-0.463-1.027-1.031c-0.007-0.593,0.429-1.045,1.015-1.052
				c0.596,0,1.042,0.439,1.05,1.022c0.008,0.574-0.45,1.05-1.02,1.061C46.115,57.802,46.097,57.802,46.097,57.802z"/>
		</g>
		<g>
			<path fill="#A56450" d="M50,39.327c-0.591,0-1.023-0.428-1.027-1.018c-0.002-0.297,0.094-0.552,0.277-0.737
				c0.185-0.187,0.44-0.286,0.741-0.287c0.619,0,1.032,0.405,1.035,1.007c0.004,0.596-0.425,1.031-1.018,1.034L50,39.327L50,39.327z
				"/>
		</g>
		<g>
			<path fill="#A56450" d="M49.988,47.115c-0.294-0.001-0.558-0.105-0.74-0.292c-0.183-0.187-0.281-0.452-0.276-0.746
				c0.01-0.585,0.427-0.998,1.013-1.003c0.606,0,1.038,0.431,1.04,1.024c0.001,0.293-0.097,0.546-0.281,0.731
				c-0.187,0.188-0.446,0.287-0.749,0.287L49.988,47.115L49.988,47.115z"/>
		</g>
		<g>
			<path fill="#A56450" d="M49.959,50.984c-0.285-0.006-0.525-0.105-0.695-0.289c-0.171-0.184-0.259-0.438-0.252-0.735
				c0.013-0.568,0.412-0.95,0.992-0.95c0.316,0.007,0.557,0.109,0.729,0.295c0.174,0.187,0.262,0.441,0.254,0.734
				c-0.014,0.565-0.417,0.945-1.002,0.945L49.959,50.984z"/>
		</g>
	</g>
</g>
<g>
	<g>
		<path fill="#E5C5A0" d="M50.333,18.542c0.064,0,0.128,0.012,0.189,0.037c0.188,0.077,0.311,0.26,0.311,0.463
			c0,8.515-3.315,16.52-9.336,22.539c-6.021,6.021-14.025,9.336-22.539,9.336c-0.201,0-0.383-0.121-0.461-0.307
			c-0.078-0.186-0.037-0.4,0.104-0.544c1.125-1.146,8.084-8.095,15.452-15.452c7.142-7.131,14.527-14.506,15.924-15.923
			C50.073,18.593,50.202,18.542,50.333,18.542z"/>
	</g>
	<path opacity="0.2" fill="#A56450" enable-background="new    " d="M50.333,18.542c0.064,0,0.128,0.012,0.189,0.037
		c0.188,0.077,0.311,0.26,0.311,0.463c0,8.515-3.315,16.52-9.336,22.539c-6.021,6.021-14.025,9.336-22.539,9.336
		c-0.201,0-0.383-0.121-0.461-0.307c-0.078-0.186-0.037-0.4,0.104-0.544c1.125-1.146,8.084-8.095,15.452-15.452
		c7.142-7.131,14.527-14.506,15.924-15.923C50.073,18.593,50.202,18.542,50.333,18.542z"/>
</g>
</svg>
