<?xml version="1.0" encoding="utf-8"?>
<!-- Generator: Adobe Illustrator 17.0.2, SVG Export Plug-In . SVG Version: 6.00 Build 0)  -->
<!DOCTYPE svg PUBLIC "-//W3C//DTD SVG 1.1//EN" "http://www.w3.org/Graphics/SVG/1.1/DTD/svg11.dtd">
<svg version="1.1" id="Layer_1" xmlns="http://www.w3.org/2000/svg" xmlns:xlink="http://www.w3.org/1999/xlink" x="0px" y="0px"
	 width="100px" height="100px" viewBox="0 0 100 100" enable-background="new 0 0 100 100" xml:space="preserve">
<g>
	<path fill="none" d="M56.774,77.315"/>
	<path fill="#C0392B" d="M99.804,46.966c0,12.337-13.488,34.964-49.881,34.964S0.04,59.304,0.04,46.966S99.804,34.629,99.804,46.966
		z"/>
	<path opacity="0.2" enable-background="new    " d="M72.517,78.398c-3.055,1.07-6.397,1.935-10.044,2.542
		c-3.842,0.639-8.019,0.989-12.553,0.989C13.527,81.93,0.04,59.303,0.04,46.966c0-6.603,44.641-9.207,44.641-9.207
		S41.937,74.718,72.517,78.398z"/>
	<path fill="#E74C3C" d="M99.824,46.922c0,12.231-22.347,22.144-49.913,22.144S0,59.152,0,46.922S22.347,26.23,49.913,26.23
		S99.824,34.692,99.824,46.922z"/>
	<path fill="#AF3425" d="M96.99,47.004c0,10.852-21.077,19.65-47.078,19.65S2.835,57.856,2.835,47.004s21.077-18.361,47.078-18.361
		S96.99,36.153,96.99,47.004z"/>
	<path fill="#FAEABC" d="M85.058,44.132c0,8.698-16.015,15.75-35.771,15.75s-35.771-3.382-35.771-15.75
		c0-10.678,16.015-15.75,35.771-15.75S85.058,35.434,85.058,44.132z"/>
	<g>
		<g>
			<g>
				<g>
					<g>
						<defs>
							<path id="SVGID_1_" d="M96.99,47.004c0,10.852-21.077,19.65-47.078,19.65S2.835,57.856,2.835,47.004
								s21.077-18.361,47.078-18.361S96.99,36.153,96.99,47.004z"/>
						</defs>
						<clipPath id="SVGID_2_">
							<use xlink:href="#SVGID_1_"  overflow="visible"/>
						</clipPath>
						<path clip-path="url(#SVGID_2_)" fill="#FFFCF3" d="M91.109,56.412c0,8.698-16.015,15.75-35.771,15.75
							s-35.771-3.382-35.771-15.75c0-10.144,16.015-15.75,35.771-15.75S91.109,47.713,91.109,56.412z"/>
					</g>
				</g>
			</g>
		</g>
	</g>
</g>
</svg>
