<?xml version="1.0" encoding="utf-8"?>
<!-- Generator: Adobe Illustrator 17.0.2, SVG Export Plug-In . SVG Version: 6.00 Build 0)  -->
<!DOCTYPE svg PUBLIC "-//W3C//DTD SVG 1.1//EN" "http://www.w3.org/Graphics/SVG/1.1/DTD/svg11.dtd">
<svg version="1.1" id="Layer_1" xmlns="http://www.w3.org/2000/svg" xmlns:xlink="http://www.w3.org/1999/xlink" x="0px" y="0px"
	 width="100px" height="100px" viewBox="0 0 100 100" enable-background="new 0 0 100 100" xml:space="preserve">
<circle fill="#1ABC9C" cx="50" cy="50" r="50"/>
<g>
	<path fill="#DFE1E2" d="M-194.867-131.712c2.054,16.325,4.826,17.557,6.776,28.133c1.951,10.575,2.413,22.845,2.053,24.898
		c-0.359,2.053-2.381,3.805-2.92,5.576c-0.539,1.771-0.584,2.646-0.051,4.317s5.914,4.789,16.635,4.789v-99.953h-22.494
		C-194.867-163.952-196.92-148.037-194.867-131.712z"/>
	<path fill="#EBEDEE" d="M-149.876-131.712c2.053-16.325,0-32.239,0-32.239h-22.494v99.953c10.721,0,16.102-3.119,16.635-4.789
		c0.532-1.67,0.488-2.546-0.051-4.317c-0.539-1.771-2.56-3.523-2.92-5.576c-0.359-2.053,0.103-14.323,2.053-24.898
		C-154.702-114.155-151.93-115.387-149.876-131.712z"/>
</g>
<g>
	<path fill="#E67E22" d="M-217.905,61.278c0,18.259-12.662,33.061-37.281,33.061s-37.281-14.802-37.281-33.061
		c0-12.636,7.994-25.301,19.743-31.903c2.298-1.291,6.548-3.312,5.976-8.631c-0.572-5.32-9.848-5.1-13.294-8.263
		c-5.7-5.231,14.544-18.625,17.053-18.05c2.741,0.628,10.09,23.998,12.2,26.929c2.11,2.931,3.435,4.029,7.038,5.27
		C-228.755,31.795-217.905,46.556-217.905,61.278z"/>
	<path fill="#F1C40F" d="M-262.531-5.194c2.048,2.221-1.011,8.335-5.911,12.852c-4.9,4.517-10.533,6.379-12.581,4.157
		c-2.048-2.221,0.264-7.684,5.165-12.202C-270.958-4.903-264.579-7.415-262.531-5.194z"/>
	<path fill="#E67E22" d="M-264.718-3.179c1.566,1.699-0.773,6.374-4.52,9.829c-3.748,3.455-8.055,4.878-9.622,3.179
		c-1.566-1.699,0.202-5.877,3.95-9.332S-266.284-4.878-264.718-3.179z"/>
	<path opacity="0.2" enable-background="new    " d="M-264.718-3.179c1.566,1.699-0.773,6.374-4.52,9.829
		c-3.748,3.455-8.055,4.878-9.622,3.179c-1.566-1.699,0.202-5.877,3.95-9.332S-266.284-4.878-264.718-3.179z"/>
</g>
<path fill="#D35400" d="M272.333,207.667"/>
<path fill="#D35400" d="M145.667,85.667"/>
<g>
	<defs>
		<circle id="SVGID_1_" cx="50" cy="50" r="50"/>
	</defs>
	<clipPath id="SVGID_2_">
		<use xlink:href="#SVGID_1_"  overflow="visible"/>
	</clipPath>
	<g clip-path="url(#SVGID_2_)">
		<path fill="#DFE1E2" d="M52.654,102.943c0,1.007-0.816,1.823-1.823,1.823H19.477c-1.007,0-1.823-0.816-1.823-1.823
			c0,0,0-9.998,0-39.375c0-16.406,12.396-27.514,12.396-41.38c0-8.285,0-12.714,0-16.042c-0.644-0.281-1.458-0.893-1.458-1.641
			v-4.557c0-1.007,0.816-1.823,1.823-1.823h9.479c1.007,0,1.823,0.816,1.823,1.823v4.557c0,0.747-0.814,1.359-1.458,1.641
			c0,3.328,0,7.757,0,16.042c0,13.859,12.396,24.974,12.396,41.38C52.654,85.853,52.654,102.943,52.654,102.943z"/>
		<path fill="#EBEDEE" d="M40.258,22.188c0-8.285,0-12.714,0-16.042c0.644-0.281,1.458-0.893,1.458-1.641v-4.557
			c0-1.007-0.816-1.823-1.823-1.823h-4.74l0.027,106.641h15.65c1.007,0,1.823-0.816,1.823-1.823c0,0,0-17.089,0-39.375
			C52.654,47.161,40.258,36.047,40.258,22.188z"/>
	</g>
	<g clip-path="url(#SVGID_2_)">
		<path fill="#E67E22" d="M84.142,70.264c0,10.473-8.708,29.681-32.204,29.681S19.733,80.738,19.733,70.264
			S84.142,59.791,84.142,70.264z"/>
		<path opacity="0.2" enable-background="new    " d="M66.526,96.947c-1.972,0.909-4.13,1.643-6.485,2.158
			c-2.48,0.542-5.177,0.84-8.104,0.84c-23.496,0-32.204-19.208-32.204-29.681c0-5.605,28.821-7.816,28.821-7.816
			S46.782,93.822,66.526,96.947z"/>
		<rect x="19.608" y="61.229" fill="none" width="41.544" height="40.057"/>
		<ellipse fill="#F1C40F" cx="51.988" cy="70.064" rx="32.256" ry="8.835"/>
		<path fill="#F39C12" d="M80.369,70.064c0,3.545-15.794,6.419-28.983,6.419s-27.736-2.874-27.736-6.419
			c0-3.545,14.547-6.419,27.736-6.419S80.369,66.519,80.369,70.064z"/>
		<path opacity="0.9" fill="#EBEDEE" d="M80.369,70.064c0,3.545-15.794,6.419-28.983,6.419s-27.736-2.874-27.736-6.419
			c0-3.545,14.547-6.419,27.736-6.419S80.369,66.519,80.369,70.064z"/>
	</g>
</g>
</svg>
