<?xml version="1.0" encoding="utf-8"?>
<!-- Generator: Adobe Illustrator 17.0.2, SVG Export Plug-In . SVG Version: 6.00 Build 0)  -->
<!DOCTYPE svg PUBLIC "-//W3C//DTD SVG 1.1//EN" "http://www.w3.org/Graphics/SVG/1.1/DTD/svg11.dtd">
<svg version="1.1" id="Layer_1" xmlns="http://www.w3.org/2000/svg" xmlns:xlink="http://www.w3.org/1999/xlink" x="0px" y="0px"
	 width="100px" height="100px" viewBox="0 0 100 100" enable-background="new 0 0 100 100" xml:space="preserve">
<path fill="#FFFFFF" d="M17.11,60.206c1.558-2.899,2.912-4.692,6.628-4.33S39.485,67.55,61.412,66.74S95.215,56,96.569,58.167
	c1.354,2.167-18.934,15.513-37.25,19.423S18.89,69.285,17.167,67.264S15.552,63.105,17.11,60.206z"/>
<path fill="#E74C3C" d="M17.11,60.206c1.558-2.899,2.912-4.692,6.628-4.33S39.485,67.55,61.412,66.74S95.215,56,96.569,58.167
	c1.354,2.167-18.934,15.513-37.25,19.423S18.89,69.285,17.167,67.264S15.552,63.105,17.11,60.206z"/>
<path fill="#BE3D2F" d="M59.943,76.022c-18.316,3.91-40.429-8.305-42.152-10.326c-1.259-1.476-1.531-3.019-0.984-4.871
	c-1.245,2.586-1.236,4.568,0.36,6.44c1.723,2.021,23.836,14.236,42.152,10.326c18.316-3.91,38.604-17.256,37.25-19.423
	c-0.01-0.016-0.027-0.026-0.038-0.041C92.861,62.342,75.681,72.662,59.943,76.022z"/>
<g>
	<path opacity="0.2" fill="#FFFFFF" d="M20.911,60.395c3.716,0.362,15.747,11.673,37.674,10.863
		C75.778,70.623,90.354,60.921,96.5,57.805c-6.038,2.74-19.222,10.337-35.795,10.949c-21.927,0.81-33.959-10.501-37.674-10.863
		c-3.262-0.318-4.704,1.026-6.062,3.321C17.939,60.536,19.161,60.224,20.911,60.395z"/>
</g>
<path fill="#FFFFFF" d="M31.172,42.745c2.857-1.633,4.956-2.436,7.915-0.16c2.959,2.276,7.17,18.244,26.194,29.176
	S99.64,80.563,99.64,83.119c0,2.556-24.278,3.123-41.883-3.265c-17.605-6.389-29.886-28.466-30.276-31.093
	C27.09,46.134,28.315,44.377,31.172,42.745z"/>
<path fill="#E74C3C" d="M31.172,42.745c2.857-1.633,4.956-2.436,7.915-0.16c2.959,2.276,7.17,18.244,26.194,29.176
	S99.64,80.563,99.64,83.119c0,2.556-24.278,3.123-41.883-3.265c-17.605-6.389-29.886-28.466-30.276-31.093
	C27.09,46.134,28.315,44.377,31.172,42.745z"/>
<path fill="#BE3D2F" d="M59.117,78.853c-17.605-6.389-29.886-28.466-30.276-31.093c-0.285-1.919,0.301-3.371,1.747-4.652
	c-2.426,1.533-3.469,3.219-3.107,5.652c0.39,2.627,12.671,24.704,30.276,31.093c17.605,6.389,41.883,5.821,41.883,3.265
	c0-0.019-0.009-0.036-0.011-0.055C94.283,84.694,74.244,84.343,59.117,78.853z"/>
<g>
	<path opacity="0.2" fill="#FFFFFF" d="M34.295,44.918c2.959,2.276,7.17,18.244,26.194,29.176
		c14.917,8.572,32.419,8.067,39.283,8.681C93.2,81.9,77.994,81.357,63.615,73.094C44.59,62.162,40.38,46.194,37.42,43.918
		c-2.598-1.998-4.533-1.622-6.901-0.396C31.7,43.464,32.902,43.847,34.295,44.918z"/>
</g>
<path fill="#27AE60" d="M28.555,16.348c0.711-0.325,1.381,0.001,1.643,0.76s-0.571,1.578-0.571,1.578s-6.359,6.576-2.392,13.995
	s5.048,7.471,5.879,8.034s3.685,0.215,3.673,0.564s-1.739,0.653-2.371,0.978c-0.632,0.324-1.194,2.695-1.399,2.793
	c-0.205,0.097-1.756-0.934-2.661-0.94s-2.11,1.657-2.538,1.646c-0.429-0.011,1.819-2.115,1.64-4.018
	c-0.179-1.903-3.973-6.435-4.994-12.932S27.845,16.673,28.555,16.348z"/>
<path fill="#27AE60" d="M0.904,39.206c0.431-0.652,1.172-0.731,1.796-0.226s0.352,1.64,0.352,1.64s-1.909,8.946,5.387,13.136
	s8.24,3.661,9.243,3.698c1.003,0.037,3.239-1.77,3.414-1.468s-1.129,1.476-1.493,2.085c-0.364,0.61,0.416,2.918,0.293,3.11
	c-0.123,0.191-1.984,0.139-2.755,0.613c-0.771,0.474-0.911,2.523-1.28,2.741s0.422-2.757-0.738-4.276
	c-1.16-1.519-6.779-3.352-11.088-8.321S0.473,39.859,0.904,39.206z"/>
</svg>
