<?xml version="1.0" encoding="utf-8"?>
<!-- Generator: Adobe Illustrator 17.0.2, SVG Export Plug-In . SVG Version: 6.00 Build 0)  -->
<!DOCTYPE svg PUBLIC "-//W3C//DTD SVG 1.1//EN" "http://www.w3.org/Graphics/SVG/1.1/DTD/svg11.dtd">
<svg version="1.1" id="Layer_1" xmlns="http://www.w3.org/2000/svg" xmlns:xlink="http://www.w3.org/1999/xlink" x="0px" y="0px"
	 width="200px" height="200px" viewBox="0 0 200 200" enable-background="new 0 0 200 200" xml:space="preserve">
<g>
	<path fill="#005B2E" d="M163.258,45.521c-6.516-2.447-4.137,5.469-4.137,5.469s1.438,3.206,0.619,7.732
		c-0.819,4.526-20.622,40.059-20.622,40.059L52.663,125.37c0,0,0.793,3.693,4.962,7.939s66.971,4.058,75.647-8.955
		c8.675-13.013,36.909-35.833,36.909-35.833S169.775,47.968,163.258,45.521z"/>
	<path fill="#4FBA6F" d="M175.328,42.88c0,0,4.086,17.036,6.852,19.802c2.766,2.766,3.269,1.006,7.292,6.035
		c4.023,5.029,21.123,42.748-34.701,73.175s-95.68,1.48-98.257-9.696c0,0,34.549,5.014,70.678-13.139
		c23.695-11.905,33.614-28.463,36.069-42.226c2.098-6.16,4.083-8.795,4.083-11.131c0-6.789-8.002-25.672-8.002-25.672L175.328,42.88
		z"/>
	<path fill="#219F58" d="M175.328,42.88c0,0,4.086,17.036,6.852,19.802c2.766,2.766,3.269,1.006,7.292,6.035
		c4.023,5.029,21.123,42.748-34.701,73.175c-30.943,16.865-56.979,15.489-74.481,9.008c17.367-1.023,33.101-0.688,68.446-20.324
		c24.894-13.83,32.187-36.713,33.696-45.263S171.146,42.17,171.146,42.17L175.328,42.88z"/>
	<path opacity="0" fill="#4FBA6F" d="M166.276,44.389l-6.727,8.487l-1.006,5.029c0,0,4.901,9.733-0.834,25.9
		s-36.382,29.672-54.99,36.713s-53.561,8.801-73.929-2.012C9.32,108.171,10.434,94.115,14.96,90.343
		c7.041,0.251,11.756-0.503,13.83-0.503C22.378,88.897,0.627,67.335,5.656,61.426s18.539-4.816,25.146-3.52
		c6.607,1.296,26.643,12.166,55.221,10.829c28.578-1.337,41.779-11.018,48.38-14.853c6.601-3.835,9.367-2.2,12.322-4.526
		c2.955-2.326,9.178-13.453,9.178-13.453L166.276,44.389z"/>
	<path fill="#4FBA6F" d="M166.276,44.389l-6.727,8.487l-1.006,5.029c0,0,4.901,9.733-0.834,25.9s-36.382,29.672-54.99,36.713
		s-53.561,8.801-73.929-2.012C9.32,108.171,10.545,90.812,14.96,90.343s11.756-0.503,13.83-0.503
		C22.378,88.897,0.627,67.335,5.656,61.426s18.539-4.816,25.146-3.52c6.607,1.296,26.643,12.166,55.221,10.829
		c28.578-1.337,41.779-11.018,48.38-14.853c6.601-3.835,9.367-2.2,12.322-4.526c2.955-2.326,9.178-13.453,9.178-13.453
		L166.276,44.389z"/>
	<path fill="#219F58" d="M158.544,57.905c0,0,4.901,9.733-0.834,25.9s-36.382,29.672-54.99,36.713s-53.561,8.801-73.929-2.012
		c-3.465-1.84-6.279-3.797-8.537-5.793c24.756,8.622,46.248,8.616,89.821-6.654S158.544,57.905,158.544,57.905z"/>
	<path opacity="0.2" fill="#FFFFFF" d="M159.121,38.535l-3.218-2.633c0,0-6.224,11.127-9.178,13.453
		c-2.955,2.326-5.721,0.692-12.322,4.526c-6.601,3.835-19.802,13.516-48.38,14.853s-48.614-9.534-55.221-10.829
		c-6.607-1.296-20.117-2.389-25.146,3.52c-1.146,1.346,11.238-4.723,25.397-0.251c21.5,6.789,43.146,13.024,65.819,9.241
		c13.723-2.29,31.513-9.014,35.456-11.316c4.849-2.831,8.136-4.254,10.844-4.26c-4.35,3.792-20.393,16.643-49.506,27.724
		c-10.556,4.018-22,6.308-32.806,7.551c-9.283,1.067-18.095-0.147-25.47-0.194c-12.172-0.078-20.431,0.423-20.431,0.423
		s32.69,8.55,69.843-1.823s62.503-34.789,62.503-34.789h-0.002C155.925,46.83,159.121,38.535,159.121,38.535z"/>
	<g>
		<path fill="#864A1F" d="M163.824,28.924c4.715,0,9.241,4.149,10.75,5.469s2.075,7.355,0.754,8.487s-6.601,1.697-9.053,1.509
			c-2.452-0.189-9.996-6.412-10.373-8.487C155.526,33.828,159.109,28.924,163.824,28.924z"/>
		<path fill="#5A2F06" d="M174.574,34.394c1.509,1.32,2.075,7.355,0.754,8.487s-6.601,1.697-9.053,1.509
			c-0.49-0.038-1.184-0.317-1.983-0.756C174.56,43.322,174.26,36.531,174.574,34.394z"/>
		<path opacity="0.2" fill="#FFFFFF" d="M163.824,28.924c0.589,0,1.176,0.065,1.754,0.181c-6.28,2.774-7.034,7.049-6.235,10.923
			c-1.816-1.603-3.279-3.242-3.439-4.126C155.526,33.828,159.109,28.924,163.824,28.924z"/>
	</g>
</g>
</svg>
