<?xml version="1.0" encoding="utf-8"?>
<!-- Generator: Adobe Illustrator 17.0.2, SVG Export Plug-In . SVG Version: 6.00 Build 0)  -->
<!DOCTYPE svg PUBLIC "-//W3C//DTD SVG 1.1//EN" "http://www.w3.org/Graphics/SVG/1.1/DTD/svg11.dtd">
<svg version="1.1" id="Layer_1" xmlns="http://www.w3.org/2000/svg" xmlns:xlink="http://www.w3.org/1999/xlink" x="0px" y="0px"
	 width="100px" height="100px" viewBox="0 0 100 100" enable-background="new 0 0 100 100" xml:space="preserve">
<circle fill="#1ABC9C" cx="50" cy="50" r="50"/>
<g>
	<path fill="#D35400" d="M58.932,52.757h0.055c8.047,0,13.538-32.705,13.538-32.705c0-0.915-20.327-5.507-22.436-5.98v-0.04
		c0,0-0.031,0.007-0.089,0.02c-0.058-0.013-0.089-0.02-0.089-0.02v0.04c-2.108,0.474-22.435,5.066-22.435,5.98
		c0,0,5.246,31.247,12.998,32.656c-0.114,0.107-3.797,35.506-3.797,35.506c0,1.783,4.356,5.406,12.986,5.415l0,0
		c0.006,0,0.011,0,0.017,0s0.011,0,0.017,0l0,0c8.63-0.01,12.986-3.632,12.986-5.415C62.682,88.213,59.019,52.861,58.932,52.757z"/>
	<path fill="#ECF0F1" d="M72.467,20.051c0,0-1.689-6.369-3.238-6.369H30.715c-1.549,0-3.238,6.369-3.238,6.369
		c0,0.161,8.435,2.641,22.483,2.643l0,0c0.004,0,0.008,0,0.011,0c0.004,0,0.008,0,0.011,0l0,0
		C64.032,22.691,72.467,20.212,72.467,20.051z"/>
	<path fill="#BDC3C7" d="M69.787,14.031c0,0.916-8.877,2.417-19.828,2.417s-19.827-1.5-19.827-2.417c0-0.917,8.877-1.66,19.828-1.66
		S69.787,13.115,69.787,14.031z"/>
	<path opacity="0.15" fill="#231F20" d="M49.96,12.372c-10.516,0-19.115,0.685-19.781,1.551c-1.375,1.143-2.695,6.101-2.701,6.126
		c0,0.001-0.002,0.002-0.002,0.002c0,0,5.246,31.247,12.998,32.656c-0.114,0.107-0.187,0.269-0.187,0.45l-3.611,35.056
		c0,1.783,4.356,5.406,12.986,5.415c0.006,0,0.011,0,0.017,0c0.006,0,0.011,0,0.017,0C49.696,74.464,49.96,25.559,49.96,12.372z"/>
	<path opacity="0.15" enable-background="new    " d="M37.177,50.286c-0.031-0.044-0.062-0.085-0.094-0.132
		c0.071,0.094,0.144,0.175,0.215,0.265C37.254,50.373,37.217,50.33,37.177,50.286z"/>
</g>
</svg>
