<?xml version="1.0" encoding="utf-8"?>
<!-- Generator: Adobe Illustrator 17.0.2, SVG Export Plug-In . SVG Version: 6.00 Build 0)  -->
<!DOCTYPE svg PUBLIC "-//W3C//DTD SVG 1.1//EN" "http://www.w3.org/Graphics/SVG/1.1/DTD/svg11.dtd">
<svg version="1.1" id="Layer_1" xmlns="http://www.w3.org/2000/svg" xmlns:xlink="http://www.w3.org/1999/xlink" x="0px" y="0px"
	 width="100px" height="100px" viewBox="0 0 100 100" enable-background="new 0 0 100 100" xml:space="preserve">
<g>
	<g>
		<path id="path3382_2_" fill="#BDC3C7" d="M91.798,49.55c0,23.928-19.42,43.347-43.347,43.347S5.104,73.478,5.104,49.55
			S24.524,6.203,48.451,6.203S91.798,25.622,91.798,49.55z"/>
		<g>
			<path fill="#FFFFFF" d="M12.877,48.137c0.195-1.548,0.713-5.186,1.612-8.424c0.807-2.907,1.924-5.488,2.548-6.83
				c-0.658-3.352-0.453-8.034-0.268-10.572l-2.901,1.111c-5.5,7.267-8.762,16.321-8.762,26.131c0,0.916,0.028,1.824,0.084,2.726
				c0.392,0.7,0.743,1.297,1.025,1.765C8.087,51.435,11.071,49.29,12.877,48.137z"/>
			<path fill="#FFFFFF" d="M56.959,19.299c-3.109-1.099-6.314-1.527-7.898-1.682c-6.487,2.615-13.435,10.322-15.614,12.875
				l3.578,15.205c2.308,0.603,9.554,2.586,20.538,6.424c1.017-1.155,3.027-3.345,5.318-5.343c2.446-2.133,5.207-4.041,6.474-4.887
				c0.09-8.497-4.599-18.111-5.007-18.929C62.812,22.009,59.93,20.349,56.959,19.299z"/>
			<path fill="#FFFFFF" d="M24.624,29.5c1.229-0.18,2.527-0.24,3.737-0.235c1.58,0.007,2.997,0.123,3.892,0.215
				c2.173-2.561,8.845-9.99,15.503-13.002l-1.651-6.013c-11.102-3.588-23.606,4.681-23.606,4.681
				c-1.822,2.29-3.263,4.485-4.038,5.723c-0.105,1.069-0.593,6.542-0.071,10.586C19.598,30.875,21.934,29.894,24.624,29.5z"/>
			<path fill="#FFFFFF" d="M72.273,19.013L66.2,23.21c1.316,2.828,4.78,11.01,4.717,18.623c1.248,0.613,3.643,1.883,5.697,3.526
				c2.075,1.66,3.793,3.694,4.62,4.739c1.534-0.447,5.433-1.919,8.097-5.845c0.038-0.411,0.246-2.934-0.048-5.85l-0.032,0.011
				C85.182,26.83,75.469,20.75,72.273,19.013z"/>
			<path fill="#FFFFFF" d="M68.737,70.098c-2.698,0.253-5.496,0.022-6.905-0.135C55.377,78.782,49.389,82.267,47.268,83.3
				l2.217,5.69c3.888,0.513,14.231,0.978,25.982-5.785c1.539-2.113,2.665-3.942,3.138-4.735c-0.433-1.991-1.422-5.881-3.216-9.795
				C74.126,69.081,71.487,69.84,68.737,70.098z"/>
			<path fill="#FFFFFF" d="M46.94,9.097c1.283-0.471,3.554-1.162,6.035-1.238c0.238-0.007,0.476-0.009,0.716-0.006
				c3.602,0.049,7.36,1.216,7.36,1.216s4.27,1.641,7.318,3.96c1.995,1.518,3.462,3.32,4.241,4.388
				c2.573,1.318,11.037,6.314,16.124,16.089c-0.852-2.251-2.171-4.611-2.172-4.613C79.219,15.38,64.9,6.204,48.449,6.204
				c-5.124,0-10.037,0.898-14.6,2.534C38.618,7.65,43.078,7.766,46.94,9.097z"/>
			<path fill="#FFFFFF" d="M48.628,90.455c-1.148,0.464-3.028,1.12-5.318,1.525c-0.687,0.121-1.412,0.22-2.136,0.301
				c2.366,0.401,4.796,0.614,7.276,0.614c6.693,0,13.03-1.525,18.691-4.237c-5.249,1.729-9.845,2.197-13.274,2.197
				C51.517,90.855,49.717,90.637,48.628,90.455z"/>
			<path fill="#FFFFFF" d="M90.133,45.815c-2.893,3.824-6.741,5.292-8.428,5.776c-0.13,1.431-0.513,4.59-1.546,7.844
				c-1.043,3.284-2.747,6.66-3.548,8.167c1.84,3.882,2.89,7.738,3.403,9.992l2.185-0.857c5.938-7.361,9.52-16.701,9.593-26.871
				C91.209,48.137,90.601,46.764,90.133,45.815z"/>
			<path fill="#FFFFFF" d="M60.676,68.903l-1.767-7.392l-1.899-7.929c-10.928-3.817-18.108-5.781-20.376-6.373L25.081,58.21
				c0.198,3.651,1.027,12.313,4.455,18.052c1.245,0.87,4.404,2.942,7.858,4.146c3.584,1.249,7.481,1.563,8.867,1.639
				C47.785,81.339,54.024,78.042,60.676,68.903z"/>
			<path fill="#FFFFFF" d="M23.636,82.668c-0.803-0.118-2.441-0.449-4.64-1.334c2.217,2.057,4.648,3.886,7.259,5.447
				c0.696,0.45,1.278,0.723,1.917,1.084c-0.339-0.32-0.443-0.406-0.665-0.609C25.921,85.616,24.491,83.805,23.636,82.668z"/>
			<path fill="#FFFFFF" d="M28.007,76.748c-3.481-6.073-4.297-14.696-4.489-18.428c-1.339-0.887-3.983-2.699-6.056-4.483
				c-1.904-1.639-3.321-3.251-4.071-4.166c-1.985,1.305-5.124,3.662-6.564,6.326l-0.42,4.111c1.684,6.722,4.939,12.822,9.351,17.888
				c3.46,2.021,6.225,2.77,7.593,3.036L28.007,76.748z"/>
		</g>
		<g>
			<path fill="#2C3E50" d="M65.411,23.654l7.751-5.356c0,0-1.827-2.995-4.875-5.314c-3.048-2.319-7.318-3.96-7.318-3.96
				s-3.758-1.166-7.36-1.216c-0.24-0.003-0.479-0.001-0.716,0.006c-3.801,0.117-7.126,1.679-7.126,1.679l2.197,7.998
				c0,0,4.552,0.222,8.913,1.763C61.238,20.796,65.411,23.654,65.411,23.654z"/>
			<path fill="#2C3E50" d="M81.684,50.748c0,0-2.226-3.094-5.152-5.434c-2.926-2.341-6.554-3.93-6.554-3.93s-3.879,2.471-7.18,5.35
				s-6.024,6.163-6.024,6.163l2.052,8.57l1.992,8.335c0,0,4.019,0.611,7.836,0.253c3.816-0.358,7.432-1.685,7.432-1.685
				s2.591-4.574,3.99-8.979C81.476,54.985,81.684,50.748,81.684,50.748z"/>
			<path fill="#2C3E50" d="M28.279,29.221c-1.21-0.006-2.508,0.055-3.737,0.235c-3.932,0.577-7.113,2.407-7.113,2.407
				s-1.841,3.556-3.021,7.806s-1.703,9.19-1.703,9.19s1.779,2.441,4.676,4.935c2.897,2.494,6.915,5.043,6.915,5.043l12.867-12.253
				l-4.008-17.031C33.153,29.552,30.94,29.234,28.279,29.221z"/>
			<path fill="#2C3E50" d="M43.299,91.967c3.834-0.679,6.536-2.064,6.536-2.064l-3.057-7.848c0,0-4.941-0.109-9.394-1.661
				c-4.453-1.552-8.419-4.55-8.419-4.55l-6.169,5.675c0,0,2.149,3.085,4.7,5.723c0.22,0.201,0.326,0.288,0.657,0.601
				c5.535,2.94,11.782,4.714,18.413,4.997c-1.832-0.079-3.635-0.273-5.402-0.573C41.886,92.187,42.612,92.088,43.299,91.967z"/>
		</g>
		<g>
			<path fill="#2C3E50" d="M6.41,60.108c0.002,0.008,0.004,0.015,0.006,0.023c-0.002-0.008-0.004-0.017-0.006-0.025L6.41,60.108z"/>
			<path fill="#2C3E50" d="M5.196,52.281c0.167,2.682,0.581,5.297,1.214,7.825l0.505-4.945C6.915,55.161,6.18,54.04,5.196,52.281z"
				/>
		</g>
		<g>
			<path fill="#2C3E50" d="M22.452,14.865c-3.249,2.438-6.145,5.321-8.597,8.56l3.956-1.515c0,0,2.131-3.682,5.185-7.398
				c0.031-0.037,0.061-0.074,0.092-0.112L22.452,14.865z"/>
			<polygon fill="#2C3E50" points="23.09,14.399 23.089,14.4 23.095,14.396 			"/>
		</g>
		<path fill="#2C3E50" d="M82.179,76.745l-3.315,1.3c0,0-1.504,2.642-3.8,5.718c2.639-2.055,5.034-4.409,7.135-7.01l0.01-0.02
			L82.179,76.745z"/>
		<path fill="#2C3E50" d="M90.263,38.029l-0.98,0.373c0.462,3.518,0.049,5.879,0.049,5.879s1.288,2.052,2.467,5.549l0.006-0.315
			C91.806,45.538,91.267,41.688,90.263,38.029z"/>
	</g>
	<path opacity="0.1" d="M91.773,46.196c-1.66,22.481-20.412,36.966-43.318,36.966c-22.905,0-41.657-14.485-43.318-36.966
		c-0.079,1.071-0.133,2.15-0.133,3.242c0,23.997,19.454,43.451,43.451,43.451c23.997,0,43.451-19.454,43.451-43.451
		C91.906,48.346,91.852,47.268,91.773,46.196z"/>
</g>
</svg>
