<?xml version="1.0" encoding="utf-8"?>
<!-- Generator: Adobe Illustrator 17.0.2, SVG Export Plug-In . SVG Version: 6.00 Build 0)  -->
<!DOCTYPE svg PUBLIC "-//W3C//DTD SVG 1.1//EN" "http://www.w3.org/Graphics/SVG/1.1/DTD/svg11.dtd">
<svg version="1.1" id="Layer_1" xmlns="http://www.w3.org/2000/svg" xmlns:xlink="http://www.w3.org/1999/xlink" x="0px" y="0px"
	 width="100px" height="100px" viewBox="0 0 100 100" enable-background="new 0 0 100 100" xml:space="preserve">
<path fill="#34495E" d="M90.478,94.795c0,2.88-2.335,5.216-5.216,5.216H15.154c-2.88,0-5.216-2.335-5.216-5.216V41.877h80.54V94.795
	L90.478,94.795z"/>
<rect x="9.938" y="48.288" opacity="0.9" fill="#2C3E50" enable-background="new    " width="80.54" height="5.651"/>
<g>
	
		<rect x="5.214" y="11.381" transform="matrix(-0.9703 0.2419 -0.2419 -0.9703 99.0082 24.0797)" fill="#34495E" width="85.624" height="13.474"/>
	<polygon fill="#ECF0F1" points="16.713,18.977 4.856,21.932 21.022,31.781 32.878,28.826 	"/>
	<polygon fill="#ECF0F1" points="40.752,12.985 28.895,15.941 45.061,25.789 56.917,22.834 	"/>
	<polygon fill="#ECF0F1" points="64.791,6.994 52.934,9.949 69.1,19.797 80.957,16.842 	"/>
	<polygon fill="#ECF0F1" points="87.939,1.224 76.974,3.957 90.705,12.323 	"/>
</g>
<g>
	
		<rect x="8.139" y="35.14" transform="matrix(-1 -6.467421e-04 6.467421e-04 -1 101.8752 83.7865)" fill="#34495E" width="85.624" height="13.474"/>
	<polygon fill="#ECF0F1" points="33.667,35.14 21.448,35.133 8.136,48.591 20.356,48.598 	"/>
	<polygon fill="#ECF0F1" points="58.442,35.155 46.223,35.148 32.911,48.605 45.131,48.613 	"/>
	<polygon fill="#ECF0F1" points="83.217,35.17 70.998,35.163 57.685,48.62 69.905,48.627 	"/>
	<polygon fill="#ECF0F1" points="93.768,37.203 82.461,48.635 93.761,48.642 	"/>
</g>
<g id="Your_Icon">
	<path fill="#D6457B" d="M71.592,68.015c0-6.018-4.744-10.752-10.589-10.752c-4.72,0-8.713,3.252-10.08,7.645
		c-1.369-4.393-5.362-7.532-10.082-7.532c-5.846,0-10.585,4.6-10.585,10.62c0,3.038,1.21,5.184,3.158,7.48h-0.028l17.547,18.061
		l17.544-18.061h-0.046C70.381,73.179,71.592,71.05,71.592,68.015z"/>
</g>
<path fill="#EB4C87" d="M71.592,68.015c0-6.018-4.744-10.753-10.589-10.753c-4.72,0-8.713,3.252-10.08,7.646l0.01,28.628
	l17.544-18.061h-0.046C70.381,73.179,71.592,71.05,71.592,68.015z"/>
<circle fill="#BDC3C7" cx="11.073" cy="35.381" r="4.485"/>
</svg>
