<?xml version="1.0" encoding="utf-8"?>
<!-- Generator: Adobe Illustrator 17.0.2, SVG Export Plug-In . SVG Version: 6.00 Build 0)  -->
<!DOCTYPE svg PUBLIC "-//W3C//DTD SVG 1.1//EN" "http://www.w3.org/Graphics/SVG/1.1/DTD/svg11.dtd">
<svg version="1.1" id="Layer_1" xmlns="http://www.w3.org/2000/svg" xmlns:xlink="http://www.w3.org/1999/xlink" x="0px" y="0px"
	 width="100px" height="100px" viewBox="0 0 100 100" enable-background="new 0 0 100 100" xml:space="preserve">
<g>
	<g>
		<defs>
			<circle id="SVGID_1_" cx="50" cy="50" r="50"/>
		</defs>
		<clipPath id="SVGID_2_">
			<use xlink:href="#SVGID_1_"  overflow="visible"/>
		</clipPath>
		<circle clip-path="url(#SVGID_2_)" fill="#2ECC71" cx="50" cy="50" r="50"/>
	</g>
	<g>
		<defs>
			<circle id="SVGID_3_" cx="50" cy="50" r="50"/>
		</defs>
		<clipPath id="SVGID_4_">
			<use xlink:href="#SVGID_3_"  overflow="visible"/>
		</clipPath>
		<g clip-path="url(#SVGID_4_)">
			<path fill="#E57D25" d="M44.002,64.41l-33.372,41.639c-0.698,0.871-0.558,2.143,0.313,2.841c0.871,0.698,2.143,0.558,2.841-0.313
				l33.372-41.639L44.002,64.41z"/>
			<path fill="#BDC3C7" d="M45.579,65.674l-1.585-1.271c0,0,1.382-1.255,2.605-3.9c0.59-1.276,1.15-3.33,1.488-4.861
				c1.035-4.702-2.899-5.883,6.204-15.965c4.948-5.48,28.562-21.971,29.275-21.399"/>
			<path fill="#ECF0F1" d="M45.579,65.674l1.585,1.271c0,0,0.924-1.622,3.239-3.392c1.117-0.854,3-1.848,4.42-2.511
				c4.364-2.034,6.373,1.548,14.231-9.532c4.271-6.023,15.224-32.661,14.51-33.233"/>
		</g>
	</g>
	<g>
		<defs>
			<circle id="SVGID_5_" cx="50" cy="50" r="50"/>
		</defs>
		<clipPath id="SVGID_6_">
			<use xlink:href="#SVGID_5_"  overflow="visible"/>
		</clipPath>
	</g>
	<g>
		<defs>
			<circle id="SVGID_7_" cx="50" cy="50" r="50"/>
		</defs>
		<clipPath id="SVGID_8_">
			<use xlink:href="#SVGID_7_"  overflow="visible"/>
		</clipPath>
	</g>
</g>
</svg>
