<?xml version="1.0" encoding="utf-8"?>
<!-- Generator: Adobe Illustrator 16.0.0, SVG Export Plug-In . SVG Version: 6.00 Build 0)  -->
<!DOCTYPE svg PUBLIC "-//W3C//DTD SVG 1.1//EN" "http://www.w3.org/Graphics/SVG/1.1/DTD/svg11.dtd">
<svg version="1.1" id="Layer_1" xmlns="http://www.w3.org/2000/svg" xmlns:xlink="http://www.w3.org/1999/xlink" x="0px" y="0px"
	 width="100px" height="100px" viewBox="0 0 100 100" enable-background="new 0 0 100 100" xml:space="preserve">
<circle fill="#D35400" cx="49.892" cy="49.759" r="49.775"/>
<path fill="#F0C419" d="M90.622,63.152c-1.935-2.377-3.412-5.043-4.947-7.678c-0.53-0.908-0.653-1.812-0.467-2.839
	c0.571-3.156,1.632-6.21,1.997-9.408c0.217-1.904,0.91-3.784,0.343-5.734c-0.54-1.858-1.1-3.708-1.78-5.524
	c-0.773-2.062-2.334-3.812-2.418-6.153c-0.039-1.08-0.318-2.153-0.801-3.093c-1.208-2.354-2.594-4.547-5.724-4.559
	c-1.111-0.003-2.229-0.008-3.3,0.232c-1.894,0.424-3.836,0.864-4.605,3.037c-0.133,0.375-0.451,0.298-0.73,0.235
	c-4.111-0.91-8.303-1.109-12.479-1.484c-5.66-0.507-11.146-0.196-16.497,1.985c-2.781,1.134-5.533,2.25-7.963,4.022
	c-0.343,0.176-0.906,0.469-1.47,0.788c-0.899,0.509-6.565-0.421-8.4-0.951c-1.835-0.531-4.294-1.052-5.856-0.583
	c-1.562,0.469-2.639,0.047-5.314,3.97c-2.676,3.924,0,11.33,0,11.33s2.789,5.892,3.759,7.333c0.59,0.876,0.494,3.079,0.327,4.673
	c-0.092,0.059-0.074,0.534-0.085,0.732c-0.026,0.197-0.05,0.373-0.072,0.521c-0.028,0.18-0.023,0.361-0.053,0.543
	c0,0.006,0.032,0.012,0.032,0.012v-0.002c0,2.121-0.71,4.236-1.453,6.272c-1.059,2.905-2.019,5.864-2.123,8.978
	c-0.108,3.256-0.301,7.051-0.101,10.299c2.238,2.707,10.369,14.207,29.105,18.341c18.735,4.134,33.142-4.166,36.831-6.538
	l-0.65-1.619c-0.115-0.805-0.502-1.536-0.545-2.377c-0.06-1.203,0.256-1.947,1.588-2.115c1.062-0.135,2.031-0.593,2.838-1.335
	c-1.892-0.237-3.729,0.506-5.623,0.294c-0.318-0.035-0.678,0.158-0.976,0.082c-2.073-0.533-4.192-0.721-6.298-1.021
	c-1.171-0.168-2.286-1.032-3.486-1.473c-2.646-0.972-5.315-1.46-8.115-0.812c-0.312,0.07-0.658,0.104-0.971,0.056
	c-3.125-0.496-4.7,0.265-6.267,3.033c-0.948,1.675-2.206,2.892-4.201,3.345c-1.936,0.442-2.181,0.959-1.994,2.963
	c0.066,0.715-0.02,1.324-0.836,1.563c-1.128,0.327-1.875,1.141-2.583,2.019c-0.462,0.573-2.596,0.654-3.283,0.102
	c-0.808-0.65-0.622-1.437-0.195-2.227c0.861-1.596,1.821-3.145,2.216-4.947c0.139-0.637,0.713-0.881,1.131-1.262
	c1.276-1.162,1.39-1.808,0.597-3.289c-0.211-0.394-0.535-0.854-0.257-1.268c0.242-0.359,0.764-0.232,1.166-0.205
	c0.408,0.027,0.81,0.154,1.218,0.211c1.626,0.221,2.74-0.646,2.907-2.255c0.021-0.203,0.049-0.41,0.051-0.615
	c0.015-0.862,0.75-1.72,0.03-2.586c-0.973-1.169-2.085-2.118-3.692-2.237c-0.677-0.05-1.671,0.041-1.742-0.693
	c-0.083-0.858,0.991-0.819,1.613-0.95c1.287-0.271,2.599-0.442,3.91-0.574c1.284-0.13,2.365,0.556,2.736,1.806
	c0.24,0.808,0.455,1.002,1.101,0.364c0.43-0.425,0.985-0.349,1.553-0.43c1.622-0.226,3.329-0.369,4.682-1.499
	c0.368-0.309,0.68-0.871,1.234-0.613c0.592,0.276,0.9,0.825,0.847,1.525c-0.085,1.113,0.212,1.97,1.495,2.132
	c0.078,0.01,0.181,0.043,0.221,0.103c1.199,1.695,2.955,1.517,4.691,1.398c0.666-0.048,1.229,0.155,1.225,0.88
	c-0.013,1.78,1.346,2.211,2.59,2.5c1.87,0.431,3.774,0.705,5.594,1.351c-0.103,0.229-0.195,0.449-0.276,0.646
	c1.034-0.206,4.091-1.319,4.978-1.454c2.924-0.439,5.809-1.05,7.709-3.675c0.189-1.155-0.758-2.487,0.528-3.476
	c-0.242-0.088-0.483-0.176-0.726-0.263c-0.512,0.25-0.976,0.675-0.953,1.201c0.09,2.126-1.561,2.772-2.993,3.446
	c-1.276,0.601-4.707,0.404-6.185,0.104c-0.242,0.192-0.488,0.494-0.729,0.854c-0.438,0.073-0.88,0.118-1.336,0.003
	c-0.389-0.104-0.115-3.771,1.674-3.667c0.342,0.021,1.936-0.257,2.36-1.265c0.587-0.752,0.474-1.636,0.463-2.496
	c-0.009-0.689-0.017-1.308,0.954-1.398c0.678-0.064,0.871-0.801,1.05-1.275c0.172-0.457,0.698-0.934,0.698-1.404
	c0-0.039,0-0.081,0-0.123c0-2.791,0.055-3.127,2.91-2.405c1.055,0.265,1.963,0.394,3.026,0.046c1.515-0.494,3.06-0.082,4.587-0.498
	c0.432-0.117,0.864-0.136,1.174-0.525C90.762,63.454,90.716,63.268,90.622,63.152z M15.91,71.734
	c-0.061,1.134-0.389,2.24-0.293,3.384c0.103,0.909-0.019,1.81-0.229,2.682c-0.115,0.478-0.435,1.164-1.066,0.356
	c-1.443-1.848-2.38-4.633-0.882-7.241c0.368-0.642,0.815-1.435,1.66-1.167C15.979,70.023,15.953,70.932,15.91,71.734z
	 M24.981,77.367c0.196,0.047,0.375,0.166,0.569,0.23c0.916,0.303,1.952,0.629,1.756,1.832c-0.332,2.043-0.901,2.528-2.617,2.5
	c-0.205-0.004,0.427,0-0.573,0c0-0.003,0-0.006,0-0.009c0,0-0.207-0.001-0.288,0.001c-1.128,0.036-2.48,0.074-3.005-0.98
	c-0.492-0.998,0.267-2.069,0.993-2.854C22.672,77.162,23.805,77.081,24.981,77.367z M18.47,70.619c-0.537-1.498-0.413-3,0.23-4.43
	c0.265-0.584,0.822-0.918,1.493-0.815c1.382-0.293,2.103,1.606,1.66,2.515c-0.328,0.67-0.632,1.438-1.469,1.736
	c-0.495,0.173-0.746,0.623-0.996,1.055C19.043,71.275,18.686,71.225,18.47,70.619z M27.762,89.832
	c-0.449,1.042-1.466,0.881-2.387,1.04c-1.1-0.171-2.208-0.405-3.043-1.313c-0.667-0.729-1.35-1.44-2.021-2.166
	c-0.519-0.561-0.762-1.229-0.369-1.916c0.422-0.736,1.082-0.582,1.72-0.248c0.443,0.231,0.887,0.172,1.296-0.068
	c1.439-0.844,2.625-0.18,3.705,0.691C27.593,86.602,28.176,88.869,27.762,89.832z M27.533,75.734
	c-0.604,0.117-1.864-1.555-1.881-2.39c-0.013-0.53,0.361-0.562,0.654-0.59c1.07-0.009,2.306,0.892,2.256,1.617
	C28.519,75.032,28.214,75.602,27.533,75.734z M29.611,69.777c-1.071,0.207-1.458-0.594-1.732-1.391
	c-0.335-0.972-0.511-1.971,0.128-2.918c0.38-0.562,0.813-0.807,1.428-0.318c0.859,0.687,1.518,1.492,1.712,2.552
	C30.985,68.719,30.676,69.566,29.611,69.777z M57.95,94.927c-0.115,1.058-2.118,2.909-3.177,2.948
	c-0.75,0.027-1.205-0.561-0.987-1.273c0.21-0.692,2.599-2.345,3.409-2.318C57.527,94.354,58.018,94.307,57.95,94.927z M51.934,91.83
	c1.592-1.725,3.412-3.205,5.242-4.658c0.963-0.763,1.37-0.55,1.376,0.645c-0.42,1.633-1.091,3.404-2.911,4.358
	c-0.896,0.468-1.939,0.646-2.912,0.97c-0.467,0.156-0.812-0.019-1.082-0.367C51.323,92.354,51.702,92.08,51.934,91.83z
	 M35.337,59.82c0.522-0.701,1.417-0.448,1.698,0.397c0.325,0.982-0.787,3.542-1.734,3.992c-0.441,0.211-0.738-0.008-0.875-0.384
	c-0.137-0.377-0.164-0.795-0.219-1.087C34.225,61.544,34.729,60.639,35.337,59.82z M34.306,73.664
	c-0.682,0.109-1.229-0.051-1.517-0.719c-0.303-0.698,0.072-1.221,0.608-1.557c1.128-0.705,2.399-1.021,3.645-1.176
	c0.954,0.007,1.162,0.38,0.706,1.148C36.965,72.682,35.808,73.422,34.306,73.664z M38.51,75.171c0.074,1.481-0.95,2.583-2.438,2.571
	c-0.72,0.07-1.196-0.297-1.226-1.105c-0.036-1.029,1.403-2.365,2.507-2.313C37.881,74.348,38.474,74.462,38.51,75.171z
	 M37.985,58.475c-0.435-0.259-0.748-0.646-0.688-1.414c0.303-1.313,0.473-2.897,1.673-4.066c0.358-0.348,0.753-0.66,1.308-0.372
	c0.583,0.305,0.442,0.823,0.366,1.301c-0.13,0.806-0.309,1.601-0.439,2.404c-0.12,0.729-0.49,1.3-1.037,1.766
	C38.83,58.377,38.48,58.77,37.985,58.475z M40.563,67.062c-0.904-0.043-2.104-1.234-2.004-1.994c0.161-1.236,1.73-2.309,3.162-2.154
	c0.807,0.089,1.278,0.494,1.254,1.193C42.859,65.414,41.409,67.104,40.563,67.062z M45.04,67.405
	c-1.417,0.653-1.712,0.452-1.67-0.655c0.025-1.886,0.545-3.025,1.87-3.672c0.801-0.393,1.485-0.01,1.619,0.852
	C47.096,65.454,46.405,66.775,45.04,67.405z M50.855,53.702c-0.15,0.571-0.536,1.162-1.019,1.667
	c-1.706,1.777-3.547,3.43-4.752,5.637c-0.18,0.328-0.61,0.544-0.961,0.748c-0.373,0.219-0.787,0.249-1.153-0.061
	c-0.397-0.334-0.257-0.744-0.13-1.137c0.21-0.648,0.675-1.136,1.136-1.599c1.346-1.349,2.481-2.851,3.493-4.464
	c0.366-0.582,0.88-1.085,1.382-1.566c0.433-0.414,1.002-0.351,1.503-0.131C50.646,52.924,50.9,53.182,50.855,53.702z M52.327,51.986
	c-0.624,0.05-1.162-0.117-1.431-0.721c-0.263-0.586,0.086-1.047,0.488-1.398c0.887-0.779,1.756-1.667,3.129-1.204
	c0.312,0.106,0.609,0.199,0.572,0.655C54.973,50.723,53.708,51.962,52.327,51.986z M58.917,31.278
	c0.674-0.689,1.458-1.082,2.448-0.764c0.795,0.254,1.449,0.164,2.164-0.392c1.375-1.067,2.154-0.892,3.164,0.497
	c0.342,0.469,0.803,0.497,1.322,0.445c0.611-0.061,1.229-0.112,1.842-0.101c0.271,0.005,0.588,0.137,0.619,0.495
	c0.028,0.332,0.021,0.696-0.338,0.856c-0.498,0.221-1.332,0.154-1.217,0.946c0.13,0.909,0.209,1.913,1.086,2.535
	c0.536,0.381,1.062,0.777,1.596,1.159c0.47,0.335,0.941,0.66,0.205,1.197c-0.031,0.024-0.062,0.056-0.082,0.092
	c-0.465,0.788-0.705,1.867-1.953,1.728c-0.938-0.104-2.262-1.667-2.523-2.825c-0.188-0.841-0.409-1.677-0.639-2.508
	c-0.086-0.313-0.241-0.608-0.405-1.01c-1.392,0.926-1.688,0.82-1.931-0.727c-0.157-1.011-0.701-1.224-1.444-0.702
	c-0.899,0.63-1.71,1.391-2.519,2.137c-0.35,0.324-0.219,0.732-0.02,1.138c0.289,0.584,0.044,1.092-0.494,1.33
	c-0.482,0.214-0.936,0.031-1.271-0.456C57.633,35.062,57.812,32.405,58.917,31.278z M67.893,45.907
	c0.032,0.161,0.08,0.319,0.096,0.481c0.128,1.261-0.569,2.189-1.684,2.25c-0.877,0.048-1.842-0.987-1.852-1.986
	c-0.012-0.998,0.885-1.64,2.158-1.55C67.301,44.952,67.65,45.344,67.893,45.907z M72.688,59.464
	c-1.354,2.086-2.78,4.113-2.922,6.703c-0.084,1.521-0.062,3.039-0.504,4.53c-0.455,1.529-1.518,2.289-2.97,2.65
	c-0.644,0.16-1.056-0.117-1.208-0.732c-0.596-2.404-0.495-4.896,0.639-6.987c0.795-1.47,1.713-2.967,2.738-4.349
	c1.702-2.297,1.811-4.986,1.691-7.684c-0.039-0.933-0.704-1.488-1.7-1.39c-2.552,0.26-4.673-0.713-6.632-2.217
	c-1.566-1.207-3.072-2.507-4.903-3.328c-0.257-0.114-0.579-0.241-0.538-0.595c0.045-0.399,0.4-0.501,0.729-0.552
	c1.582-0.244,3.166-0.472,4.877-0.725c-0.719,2.464-0.184,4.211,1.524,5.198c1.522,0.88,3.573,0.56,4.763-0.744
	c1.362-1.494,1.252-3.233-0.426-5.761c1.082,0.128,1.52,0.856,1.908,1.63c0.13,0.256,0.286,0.527,0.312,0.803
	c0.252,2.691,1.623,4.833,3.084,7.03C74.564,55.07,74.016,57.418,72.688,59.464z M81.116,25.486c-0.431,0.383-0.937,0.117-1.263-0.1
	c-1.494-1-3.235-1.412-4.842-2.137c-0.793-0.357-1.609-0.614-2.502-0.547c-0.619,0.046-1.229-0.169-1.462-0.717
	c-0.233-0.551,0.447-0.787,0.744-1.138c0.544-0.648,1.339-0.738,1.983-0.845c1.605,0.175,3.076,0.326,4.457,0.921
	c1.494,0.646,2.433,1.772,2.908,3.315C81.271,24.666,81.555,25.098,81.116,25.486z M84.371,48.074
	c-0.462,0.069-0.559-0.412-0.73-0.713c-0.293-0.514-0.358-1.088-0.334-1.676c0.073-1.389,0.549-2.646,1.315-3.792
	c0.175-0.262,0.448-0.49,0.728-0.64c0.418-0.227,0.898-0.245,1.278,0.076c0.384,0.325,0.222,0.754,0.052,1.133
	c-0.234,0.525-0.496,1.039-0.75,1.555c-0.479,0.969-0.812,1.975-0.812,3.071C85.115,47.601,84.878,47.999,84.371,48.074z"/>
<path fill="#F4F3F2" d="M79.605,84.467c-1.891-0.236-3.729,0.506-5.621,0.294c-0.319-0.034-0.678,0.158-0.977,0.082
	c-2.072-0.534-4.193-0.721-6.298-1.021c-1.171-0.17-2.286-1.033-3.487-1.473c-2.646-0.973-5.314-1.461-8.115-0.813
	c-0.312,0.071-0.657,0.104-0.971,0.056c-3.123-0.496-4.699,0.264-6.266,3.033c-0.948,1.675-2.206,2.891-4.201,3.345
	c-1.936,0.442-2.181,0.96-1.994,2.964c0.066,0.715-0.02,1.323-0.836,1.562c-1.128,0.327-1.875,1.141-2.583,2.02
	c-0.462,0.572-2.596,0.653-3.283,0.101c-0.808-0.65-0.622-1.437-0.195-2.226c0.861-1.597,1.821-3.146,2.216-4.949
	c0.139-0.635,0.713-0.879,1.131-1.26c1.276-1.164,1.39-1.809,0.597-3.289c-0.211-0.395-0.535-0.855-0.257-1.269
	c0.242-0.358,0.764-0.231,1.166-0.205c0.408,0.028,0.81,0.155,1.218,0.211c1.626,0.22,2.74-0.647,2.907-2.255
	c0.021-0.203,0.049-0.41,0.051-0.615c0.015-0.861,0.75-1.72,0.03-2.586c-0.973-1.169-2.085-2.117-3.692-2.236
	c-0.677-0.051-1.671,0.041-1.742-0.694c-0.083-0.858,0.991-0.819,1.613-0.95c1.287-0.271,2.599-0.443,3.91-0.574
	c1.284-0.13,2.365,0.555,2.736,1.807c0.24,0.807,0.455,1,1.101,0.363c0.43-0.425,0.985-0.349,1.553-0.43
	c1.623-0.227,3.33-0.369,4.682-1.499c0.368-0.308,0.681-0.871,1.233-0.612c0.593,0.275,0.901,0.824,0.848,1.524
	c-0.085,1.114,0.212,1.97,1.495,2.132c0.077,0.01,0.181,0.043,0.221,0.102c1.199,1.696,2.955,1.518,4.69,1.399
	c0.668-0.048,1.23,0.155,1.226,0.88c-0.013,1.78,1.347,2.211,2.59,2.5c1.929,0.444,3.894,0.719,5.763,1.407
	c0.627,0.231,3.646-0.731,4.531-0.866c2.926-0.439,5.809-1.05,7.709-3.675c0.234,2.396,0.012,4.635-1.925,6.397
	C81.572,83.882,80.701,84.38,79.605,84.467z"/>
<path fill="#2C3E50" d="M78.573,67.115c0.001-0.04,0.001-0.082,0.001-0.124c0-2.791,0.326-3.126,3.182-2.405
	c1.055,0.266,2.1,0.393,3.162,0.046c1.516-0.493,3.129-0.082,4.656-0.498c0.431-0.118,0.896-0.136,1.207-0.526
	c0.722,0.392,0.554,0.996,0.386,1.601c-0.326,1.181-1.067,2.118-1.839,3.017c-1.471,1.707-2.99,3.37-4.49,5.051
	c-0.242-0.088-0.484-0.176-0.727-0.262c-1.34-1.508-2.721-2.971-4.26-4.281C79.325,68.282,78.736,67.861,78.573,67.115z"/>
<path fill="#AF854E" d="M78.604,96.289c-0.078-0.066-0.158-0.135-0.236-0.203C78.445,96.154,78.525,96.223,78.604,96.289z"/>
<path fill="#2C3E50" d="M37.133,34.962c-0.396-0.471-0.523-0.919-0.189-1.457c0.484-0.78,0.018-1.02-0.651-1.095
	c-0.365-0.042-0.745,0.036-1.11-0.007c-1.776-0.21-3.617-0.158-5.194-1.218c-1.276-1.229-4.159-1.786-5.61-2.726
	c-0.857,0.342-4.559-0.732-4.944-0.767c-1.531-0.141-2.995,0.216-4.454,0.607c-0.504,1.203-0.964,2.427-1.526,3.603
	c-0.391,0.818-1.158,1.447-1.238,2.43c0.222,2.074-0.696,4.219,0.396,6.237l4.796,8.68c0.292,0.228,1.194,1.146,1.443,1.415
	c0.95,1.029,1.957,1.256,3.149,0.382c0.684-0.5,1.523-0.388,2.284-0.287c1.125,0.148,2.125,0.279,2.124-1.319
	c0-0.1,0.12-0.272,0.205-0.286c1.625-0.278,2.028-1.955,3.185-2.767c0.263-0.185,0.648-0.505,0.509-0.786
	c-0.508-1.038,0.327-1.913,0.26-2.831c-0.088-1.179,0.507-1.729,1.368-2.243c0.355-0.213,1.017-0.346,0.797-0.923
	c-0.286-0.749,0.148-0.86,0.649-0.99c0.28-0.073,0.71-0.093,0.743-0.358c0.181-1.519,1.508-1.46,2.48-1.799
	C37.524,36.135,37.771,35.718,37.133,34.962z"/>
<path fill="#F4F3F2" d="M71.048,77.454c0.677-1.005,0.753-2.604,2.542-2.5c0.342,0.021,0.592-0.242,0.639-0.621
	c0.842-0.212,1.323-0.367,1.722-0.644c0.587-0.752,0.474-1.635,0.463-2.496c-0.009-0.689-0.017-1.308,0.954-1.398
	c0.678-0.064,0.599-0.801,0.777-1.275c0.174-0.457,0.287-0.934,0.428-1.403c0.164,0.745,0.752,1.167,1.277,1.616
	c1.539,1.311,2.92,2.772,4.26,4.279c-0.51,0.25-0.975,0.676-0.952,1.201c0.09,2.126-1.562,2.771-2.993,3.446
	c-1.277,0.601-2.696,0.989-4.173,0.69c-0.61-0.14-0.375-0.119-1.097,0.08c-1-0.092-1.955,0.452-2.979,0.19
	c-0.39-0.104-0.815-0.054-0.927-0.569"/>
<path fill="#2C3E50" d="M66.206,33.63c-1.392,0.926-1.688,0.82-1.931-0.727c-0.157-1.011-0.701-1.224-1.444-0.702
	c-0.899,0.63-1.71,1.391-2.519,2.137c-0.35,0.324-0.219,0.732-0.02,1.138c0.289,0.584,0.044,1.092-0.494,1.33
	c-0.482,0.214-0.936,0.031-1.271-0.456c-0.895-1.289-0.715-3.946,0.391-5.073c0.674-0.689,1.458-1.082,2.448-0.764
	c0.795,0.254,1.45,0.164,2.165-0.392c1.373-1.067,2.152-0.892,3.164,0.497c0.341,0.469,0.802,0.497,1.32,0.445
	c0.612-0.061,1.23-0.112,1.844-0.101c0.271,0.005,0.588,0.137,0.619,0.495c0.027,0.332,0.02,0.696-0.34,0.856
	c-0.496,0.221-1.33,0.154-1.216,0.946c0.13,0.909,0.209,1.913,1.086,2.535c0.536,0.381,1.062,0.777,1.597,1.159
	c0.469,0.335,0.94,0.66,0.205,1.197c-0.033,0.024-0.062,0.056-0.082,0.092c-0.467,0.788-0.707,1.867-1.955,1.728
	c-0.938-0.104-2.262-1.667-2.522-2.825c-0.188-0.841-0.409-1.677-0.638-2.508C66.523,34.327,66.37,34.032,66.206,33.63z"/>
<path fill="#2C3E50" d="M25.375,90.872c-1.1-0.171-2.208-0.405-3.043-1.313c-0.667-0.729-1.35-1.44-2.021-2.166
	c-0.519-0.561-0.762-1.229-0.369-1.916c0.422-0.736,1.082-0.582,1.72-0.248c0.443,0.231,0.887,0.172,1.296-0.068
	c1.439-0.844,2.625-0.18,3.705,0.691c0.931,0.75,1.514,3.019,1.1,3.98C27.313,90.874,26.296,90.713,25.375,90.872z"/>
<path fill="#2C3E50" d="M73.773,20.002c1.606,0.175,3.078,0.326,4.457,0.921c1.496,0.646,2.434,1.772,2.91,3.315
	c0.131,0.428,0.414,0.86-0.024,1.249c-0.431,0.383-0.937,0.117-1.263-0.1c-1.494-1-3.235-1.412-4.842-2.137
	c-0.793-0.357-1.609-0.614-2.502-0.547c-0.619,0.046-1.229-0.169-1.462-0.717c-0.233-0.551,0.447-0.787,0.744-1.138
	C72.335,20.198,73.13,20.109,73.773,20.002z"/>
<path fill="#2C3E50" d="M24.031,81.922c-0.082,0-0.164-0.001-0.246,0.001c-1.127,0.036-2.459,0.074-2.984-0.981
	c-0.493-0.996,0.277-2.068,1.004-2.854c0.854-0.925,1.999-1.006,3.176-0.72c0.196,0.047,0.374,0.166,0.569,0.229
	c0.916,0.303,1.952,0.631,1.756,1.832c-0.333,2.043-0.945,2.529-2.66,2.502c-0.205-0.005-0.411-0.002-0.616-0.002
	C24.031,81.928,24.031,81.925,24.031,81.922z"/>
<path fill="#2C3E50" d="M50.855,53.702c-0.15,0.571-0.536,1.162-1.019,1.667c-1.706,1.777-3.547,3.43-4.752,5.637
	c-0.18,0.328-0.61,0.544-0.961,0.748c-0.373,0.219-0.787,0.249-1.153-0.061c-0.397-0.334-0.257-0.744-0.13-1.137
	c0.21-0.648,0.675-1.136,1.136-1.599c1.346-1.349,2.481-2.851,3.493-4.464c0.366-0.582,0.88-1.085,1.382-1.566
	c0.433-0.414,1.002-0.351,1.503-0.131C50.646,52.924,50.9,53.182,50.855,53.702z"/>
<path fill="#2C3E50" d="M15.617,75.118c0.103,0.909-0.019,1.81-0.229,2.682c-0.115,0.478-0.435,1.164-1.066,0.356
	c-1.443-1.848-2.38-4.633-0.882-7.241c0.368-0.642,0.815-1.435,1.66-1.167c0.879,0.275,0.853,1.184,0.81,1.986
	C15.849,72.868,15.521,73.975,15.617,75.118z"/>
<path fill="#2C3E50" d="M58.552,87.816c-0.42,1.632-1.091,3.403-2.911,4.357c-0.896,0.469-1.939,0.646-2.912,0.971
	c-0.467,0.155-0.812-0.02-1.082-0.367c-0.323-0.424,0.056-0.697,0.287-0.947c1.592-1.725,3.412-3.205,5.242-4.658
	C58.137,86.409,58.545,86.622,58.552,87.816z"/>
<path fill="#2C3E50" d="M20.193,65.374c1.382-0.293,2.103,1.606,1.66,2.515c-0.328,0.67-0.632,1.438-1.469,1.736
	c-0.495,0.173-0.746,0.623-0.996,1.055c-0.346,0.596-0.703,0.545-0.919-0.061c-0.537-1.498-0.413-3,0.23-4.43
	C18.966,65.605,19.522,65.271,20.193,65.374z"/>
<path fill="#2C3E50" d="M37.297,57.061c0.303-1.313,0.473-2.897,1.673-4.066c0.358-0.348,0.753-0.66,1.308-0.372
	c0.583,0.305,0.442,0.823,0.366,1.301c-0.13,0.806-0.309,1.601-0.439,2.404c-0.12,0.729-0.49,1.3-1.037,1.766
	c-0.337,0.285-0.687,0.679-1.182,0.384C37.55,58.216,37.238,57.828,37.297,57.061z"/>
<path fill="#2C3E50" d="M83.305,45.685c0.074-1.389,0.551-2.646,1.316-3.792c0.175-0.262,0.447-0.49,0.727-0.64
	c0.418-0.227,0.899-0.245,1.279,0.076c0.385,0.325,0.221,0.754,0.053,1.133c-0.236,0.525-0.498,1.039-0.75,1.555
	c-0.479,0.969-0.813,1.975-0.813,3.071c0,0.513-0.237,0.911-0.745,0.986c-0.462,0.069-0.559-0.412-0.73-0.713
	C83.348,46.847,83.281,46.273,83.305,45.685z"/>
<path fill="#2C3E50" d="M42.974,64.107c-0.115,1.307-1.565,2.996-2.411,2.955c-0.904-0.043-2.104-1.234-2.004-1.994
	c0.161-1.236,1.73-2.309,3.162-2.154C42.527,63.003,42.999,63.408,42.974,64.107z"/>
<path fill="#2C3E50" d="M31.148,67.702c-0.163,1.017-0.472,1.864-1.537,2.075c-1.071,0.207-1.458-0.594-1.732-1.391
	c-0.335-0.972-0.511-1.971,0.128-2.918c0.38-0.562,0.813-0.807,1.428-0.318C30.295,65.837,30.954,66.645,31.148,67.702z"/>
<path fill="#2C3E50" d="M43.37,66.75c0.025-1.886,0.545-3.025,1.87-3.672c0.801-0.393,1.485-0.01,1.619,0.852
	c0.238,1.524-0.454,2.846-1.819,3.477C43.623,68.059,43.327,67.857,43.37,66.75z"/>
<path fill="#2C3E50" d="M37.042,70.214c0.954,0.007,1.162,0.38,0.706,1.149c-0.783,1.316-1.94,2.059-3.442,2.301
	c-0.682,0.109-1.229-0.051-1.517-0.719c-0.303-0.698,0.072-1.221,0.608-1.557C34.525,70.684,35.797,70.369,37.042,70.214z"/>
<path fill="#2C3E50" d="M52.327,51.984c-0.624,0.052-1.162-0.115-1.431-0.719c-0.263-0.586,0.086-1.047,0.488-1.398
	c0.887-0.779,1.756-1.667,3.129-1.204c0.312,0.106,0.609,0.199,0.572,0.655C54.973,50.723,53.708,51.962,52.327,51.984z"/>
<path fill="#2C3E50" d="M36.072,77.742c-0.72,0.07-1.196-0.297-1.226-1.105c-0.036-1.029,1.403-2.365,2.507-2.313
	c0.528,0.024,1.121,0.14,1.157,0.849C38.583,76.652,37.56,77.754,36.072,77.742z"/>
<path fill="#2C3E50" d="M34.207,62.74c0.018-1.196,0.522-2.104,1.13-2.92c0.522-0.701,1.417-0.448,1.698,0.397
	c0.325,0.982-0.787,3.542-1.734,3.992c-0.441,0.211-0.738-0.008-0.875-0.384C34.289,63.45,34.262,63.032,34.207,62.74z"/>
<path fill="#2C3E50" d="M57.195,94.282c0.332,0.071,0.822,0.022,0.755,0.645c-0.115,1.058-2.118,2.909-3.177,2.948
	c-0.75,0.027-1.205-0.561-0.987-1.273C53.996,95.908,56.385,94.257,57.195,94.282z"/>
<polygon fill="#1ABC9C" points="68.521,43.688 66.662,43.602 61.116,45.322 61.116,47.47 62.104,49.57 65.502,50.783 68.282,50.265 
	69.809,48.31 "/>
<path fill="#2C3E50" d="M67.893,45.907c0.032,0.161,0.08,0.319,0.096,0.481c0.128,1.261-0.569,2.189-1.684,2.25
	c-0.877,0.048-1.842-0.987-1.852-1.986c-0.012-0.998,0.885-1.64,2.158-1.551c-0.42,0.452-0.604,0.97-0.004,1.353
	C67.201,46.831,67.6,46.414,67.893,45.907z"/>
<path fill="#2C3E50" d="M26.306,72.756c1.07-0.009,2.306,0.893,2.256,1.617c-0.043,0.659-0.348,1.229-1.029,1.361
	c-0.604,0.117-1.864-1.555-1.881-2.39C25.639,72.814,26.013,72.784,26.306,72.756z"/>
<path fill="#F4F3F2" d="M67.893,45.907c-0.293,0.507-0.691,0.924-1.285,0.547c-0.602-0.383-0.418-0.901,0.004-1.353
	C67.301,44.952,67.65,45.344,67.893,45.907z"/>
<path fill="#2C3E50" d="M61.984,44.79c-0.022,0.077,1.457-0.469,1.529-0.495c1.397-0.476,3.465-0.774,4.332-0.812
	c0,0,0.19,0.296,0.238,0.37c-1.857,0.178-6.249,1.521-6.268,1.605c-0.44,2.114,0.146,3.634,1.693,4.53
	c1.522,0.88,3.573,0.56,4.762-0.744c1.363-1.494,1.252-3.233-0.426-5.761c1.084,0.128,1.521,0.856,1.909,1.63
	c0.13,0.256,0.286,0.527,0.312,0.803c0.252,2.691,1.623,4.833,3.084,7.029c1.414,2.125,0.865,4.473-0.461,6.519
	c-1.354,2.086-2.781,4.113-2.924,6.703c-0.084,1.521-0.061,3.039-0.504,4.53c-0.455,1.529-1.517,2.289-2.969,2.65
	c-0.643,0.16-1.055-0.117-1.208-0.732c-0.595-2.404-0.495-4.896,0.638-6.987c0.795-1.47,1.715-2.967,2.739-4.349
	c1.702-2.297,1.81-4.986,1.692-7.684c-0.041-0.933-0.705-1.488-1.701-1.39c-2.551,0.26-4.672-0.713-6.631-2.217
	c-1.567-1.207-3.073-2.507-4.904-3.328c-0.257-0.114-0.579-0.241-0.538-0.595c0.045-0.399,0.401-0.501,0.729-0.552
	C58.689,45.271,60.273,45.043,61.984,44.79z"/>
<circle fill="none" cx="49.892" cy="49.759" r="49.775"/>
<circle fill="none" cx="49.892" cy="49.759" r="49.775"/>
</svg>
