<?xml version="1.0" encoding="utf-8"?>
<!-- Generator: Adobe Illustrator 16.0.0, SVG Export Plug-In . SVG Version: 6.00 Build 0)  -->
<!DOCTYPE svg PUBLIC "-//W3C//DTD SVG 1.1//EN" "http://www.w3.org/Graphics/SVG/1.1/DTD/svg11.dtd">
<svg version="1.1" id="Layer_1" xmlns="http://www.w3.org/2000/svg" xmlns:xlink="http://www.w3.org/1999/xlink" x="0px" y="0px"
	 width="100px" height="100px" viewBox="0 0 100 100" enable-background="new 0 0 100 100" xml:space="preserve">
<circle fill="#8E44AD" cx="50" cy="50" r="50"/>
<path fill="#BDC3C7" d="M32.313,52.184c-2.529,0.789-6.229-1.367-11.387,0c-2.453,0.65-5.028,1.364-8.698,2.213
	c-4.052,0.934-7.75-0.316-10.914,7.593C-2.698,72.02,6.85,90.301,13.335,92.355c6.485,2.054,6.346,1.328,11.98,2.769
	c6.194,1.585,21.864,4.981,25.977,0.868c4.115-4.112,0.237-10.832,0.237-10.832s1.271,0.919,3.561-0.713
	c2.287-1.633,6.762-6.012,10.201-7.275c3.439-1.265,5.691,3.438,7.827,2.214c2.136-1.225,0-9.172,0-9.172S90.32,61.908,91.15,48.861
	c0.83-13.047-15.42-15.937-17.555-25.465c-1.589-7.076,5.159-13.457,9.102-15.903c1.517-0.941,2.369-1.312,2.365-1.415
	c-0.021-0.395-1.326-0.543-1.979-1.581s-0.347-2.572-0.633-2.769c-0.288-0.196-2.638,2.427-8.083,6.707
	c-4.002,3.144-6.967,8.596-7.575,13.54c-1.269,10.28,14.957,19.65,15.104,23.882c0.16,3.796-2.213,8.542-7.906,8.542
	c-5.406,0-12.413-11.07-24.751-10.438C36.901,44.59,34.843,51.395,32.313,52.184z"/>
<g>
	<path fill="#2C3E50" d="M83.167,4.638c-0.538-0.857-0.53-2.12-0.606-2.589c-0.047-0.284-0.578,2.555,0.209,3.61
		c0.529,0.71,2.229,0.435,2.227,0.351C84.977,5.683,83.705,5.496,83.167,4.638z"/>
</g>
<path fill="#2C3E50" d="M73.984,74.934c0.115,1.44,0.455,3.683-0.866,4.452c-1.321,0.771-2.571-0.589-4.087-1.479
	s-2.373-1.127-3.741-0.734c-0.89,0.353-3.595,2.038-3.595,2.038s-2.926,2.26-4.547,3.602l-2.062,1.638
	c-2.231,1.635-3.562,0.713-3.562,0.713s-3.217-4.661-4.631-7.224c1.155-0.256,2.023,0.449,2.986,0.723
	c3.192,0.902,6.125,0.523,8.705-1.689c2.2-1.886,2.239-3.567,0.082-5.432c-2.257-1.951-4.972-3.141-7.756-4.587
	c2.961,0.254,5.288,1.657,7.646,2.979c1.455,0.816,2.857,1.743,4.36,2.459c0.556,0.262,1.185,0.723,1.84,0.565
	C66.123,73.439,67.562,74.203,73.984,74.934z"/>
<path fill="#2C3E50" d="M72.535,54.16c1.949,0.637,4.371-0.16,5.017-0.516c-0.63,1.433-0.311,3.156-0.423,4.64l0.018,0.017
	c-0.363-1.002-0.73-2.005-1.146-3.143c-1.262,1.507-1.234,3.277-1.7,4.936c-0.78-0.805-0.043-1.885-0.69-2.671
	c-1.098,0.315-0.475,1.886-1.744,2.255C71.154,57.666,72.456,55.979,72.535,54.16z"/>
<path fill="#2C3E50" d="M36.775,67.789c-2.286-1.246-2.699-3.292-1.276-6.314c1.856-3.942,1.856-3.942,1.538-6.412
	c1.208,1.896,1.206,1.896,0.286,5.179c-0.697,2.485-1.68,4.957-0.587,7.583L36.775,67.789z"/>
<path fill="#2C3E50" d="M46.211,56.826c1.193-1.27,2.25-2.205,3.546-2.956C50.566,57.436,50.105,57.857,46.211,56.826z"/>
<path fill="#FFFFFF" d="M68.453,63.91c2.604,0.627,4.686,6.117,15.104,5.875c4.469-0.104,9.611-3.796,11.31-2.908
	c1.696,0.889-6.943,7.848-15.416,8.252c-5.892,0.28-17.456-1.548-17.375-4.617C62.152,67.441,66.109,63.346,68.453,63.91z"/>
<path fill="#ECF0F1" d="M81.214,71.805c4.468-0.104,10.3-3.031,13.649-4.928c1.697,0.889-6.942,7.848-15.415,8.252
	c-5.89,0.28-17.456-1.548-17.375-4.617c0.013-0.509,0.099-1.104,0.519-2.029c0.393-0.86,0.908-1.543,0.908-1.543
	S70.795,72.045,81.214,71.805z"/>
</svg>
