<?xml version="1.0" encoding="utf-8"?>
<!-- Generator: Adobe Illustrator 17.0.2, SVG Export Plug-In . SVG Version: 6.00 Build 0)  -->
<!DOCTYPE svg PUBLIC "-//W3C//DTD SVG 1.1//EN" "http://www.w3.org/Graphics/SVG/1.1/DTD/svg11.dtd">
<svg version="1.1" id="Layer_1" xmlns="http://www.w3.org/2000/svg" xmlns:xlink="http://www.w3.org/1999/xlink" x="0px" y="0px"
	 width="200px" height="200px" viewBox="0 0 200 200" enable-background="new 0 0 200 200" xml:space="preserve">
<g>
	<ellipse fill="#D45400" cx="100.315" cy="33.546" rx="53.783" ry="33.51"/>
	<path fill="#E77E04" d="M71.7,26.851c0,0-14.586-19.46-28.194-8.581c-13.05,10.433,4.435,31.179,4.435,31.179L71.7,26.851z"/>
	<path fill="#903811" d="M80.025,37.115c0,0-1.759-7.178-4.82-10.239s-21.72-1.958-21.72-1.958s3.891,2.913,7.324,5.132
		c0.758,4.376,0.273,3.239,1.218,4.376c1.915,2.304,3.46,2.491,2.97,2.968L80.025,37.115z"/>
	<polygon fill="#903811" points="100.551,39.042 107.092,32.937 100.549,1.301 100.549,0.177 100.433,0.739 100.317,0.177 
		100.317,1.301 93.774,32.937 100.315,39.042 100.315,39.262 100.433,39.152 100.551,39.262 	"/>
	<path fill="#2B3E51" d="M66.184,35.278l-11.645-9.235c0,0-3.065-2.065-5.823,1.881s4.903,7.355,4.903,7.355
		s-5.67,2.758-7.968,6.742c-2.298,3.984,3.831,8.887,3.831,8.887L66.184,35.278z"/>
	<path fill="#D45400" d="M99.809,43.28l-23.288-6.997c0,0-1.759-7.178-4.82-10.239s-21.72-1.958-21.72-1.958
		s3.891,2.913,7.324,5.132c0.758,4.376,0.273,3.239,1.218,4.376c1.915,2.304,3.46,2.491,2.97,2.968
		C51.044,46.744,33.211,61.819,28.489,74.194c-6.742,17.672-3.372,46.765,4.597,73.861C41.13,175.407,100.549,200,100.549,200"/>
	<path fill="#E77E04" d="M100.549,38.331c0,0-13-13.96-17.464-12.121c-4.463,1.839-9.722,12.121-9.722,12.121l27.186,28.653"/>
	<path fill="#F49C00" d="M100.549,65.146c0,0-16.278-33.162-24.03-28.864C64.813,42.775,57.114,59.17,57.114,63.307
		c0,2.988,7.699,11.492,7.699,11.492s-6.783,6.896-6.783,9.807c0,2.911,17.384,28.811,17.384,28.811s-0.756,8.117,1.389,12.101
		c2.145,3.984,4.903,6.282,6.742,6.282c1.839,0,17.004-6.435,17.004-6.435"/>
	<path fill="#E77E04" d="M64.814,74.8c0-3.831,6.349-20.686,10.472-20.686c4.123,0,7.8,8.275,7.8,8.275l5.141,21.606
		c0,0-11.707,18.236-11.707,14.708C76.521,95.173,64.814,78.63,64.814,74.8z"/>
	<g>
		<path fill="#F1C400" d="M72.788,67.13c0,0-0.964,3.072,0.127,4.751c1.089,1.68,6.724,4.637,7.932,5.212
			c1.814,0.865,1.814,8.968,1.814,8.968l4.09-8.104l-3.256-13.969c0,0-3.129-1.663-5.91-1.663c-2.781,0-8.516,3.478-8.516,3.478
			L72.788,67.13z"/>
		<path fill="#FFD96B" d="M86.197,79.409"/>
		<path fill="#2B3E51" d="M69.068,65.805c0.442-0.589,6.603-1.327,6.603-1.327s2.127-0.368,4.19,0
			c2.063,0.368,3.683,1.326,4.421,2.799c0.736,1.474,2.469,10.681,2.469,10.681l-2.697-0.924c0,0-0.708-3.278-1.689-3.421
			s-4.918-0.591-6.401-1.88c-1.483-1.288-2.514-4.604-3.177-4.604S68.626,66.394,69.068,65.805z"/>
		<path fill="#D45400" d="M76.637,66.209c0.534-0.423,2.174-0.645,4.015,0c1.842,0.645,2.468,1.547,2.468,2.21
			c0,0.663-0.405,1.97-1.252,2.652c-0.847,0.682-2.045,1.381-3.942,0.073C75.421,69.433,76.103,66.632,76.637,66.209z"/>
		<circle fill="#060309" cx="79.326" cy="67.757" r="0.7"/>
		<circle fill="#FFFFFF" cx="78.519" cy="67.532" r="0.476"/>
	</g>
	<path fill="#D45400" d="M86.451,76.408l-2.397,0.626l0.058,6.429c0,0-5.423,6.064-6.674,8.344
		c-2.382,4.345-1.307,19.077-1.307,19.077l12.093,1.856c0,0-4.681-6.223-4.681-14.651c0-5.975,4.681-14.097,4.681-14.097
		L86.451,76.408z"/>
	<path fill="#903811" d="M100.551,99.162c0,0-6.22-6.205-15.171,0.116c-8.952,6.32-10.879,16.898-10.879,16.898
		s-0.79,8.117,1.448,12.101c2.238,3.984,5.115,6.282,7.033,6.282s17.569-6.435,17.569-6.435"/>
	<polyline fill="#2B3E51" points="100.549,127.088 83.588,133.563 83.546,131.8 100.549,125.364 	"/>
	<path fill="#F1C400" d="M100.551,96.404c0,0-6.124-6.205-14.706,0.116c-8.582,6.32-10.43,16.898-10.43,16.898
		s-0.756,8.117,1.389,12.101s4.903,6.282,6.742,6.282s17.004-6.435,17.004-6.435"/>
	<path fill="#E77E04" d="M129.166,26.851c0,0,14.586-19.46,28.194-8.581c13.05,10.433-4.435,31.179-4.435,31.179L129.166,26.851z"/>
	<path fill="#903811" d="M120.841,37.115c0,0,1.759-7.178,4.82-10.239c3.061-3.061,21.72-1.958,21.72-1.958
		s-3.891,2.913-7.324,5.132c-0.758,4.376-0.273,3.239-1.218,4.376c-1.915,2.304-3.46,2.491-2.97,2.968L120.841,37.115z"/>
	<path fill="#2B3E51" d="M134.682,35.278l11.645-9.235c0,0,3.065-2.065,5.823,1.881s-4.903,7.355-4.903,7.355
		s5.67,2.758,7.968,6.742s-3.831,8.887-3.831,8.887L134.682,35.278z"/>
	<path fill="#D45400" d="M101.058,43.28l23.288-6.997c0,0,1.759-7.178,4.82-10.239c3.061-3.061,21.72-1.958,21.72-1.958
		s-3.891,2.913-7.324,5.132c-0.758,4.376-0.273,3.239-1.218,4.376c-1.915,2.304-3.46,2.491-2.97,2.968
		c10.449,10.182,28.282,25.258,33.003,37.633c6.742,17.672,3.372,46.765-4.597,73.861C159.737,175.407,100.318,200,100.318,200"/>
	<path fill="#E77E04" d="M100.317,38.331c0,0,13-13.96,17.464-12.121c4.463,1.839,9.722,12.121,9.722,12.121l-27.186,28.653"/>
	<path fill="#F49C00" d="M100.317,65.146c0,0,16.278-33.162,24.03-28.864c11.707,6.492,19.406,22.888,19.406,27.025
		c0,2.988-7.699,11.492-7.699,11.492s6.783,6.896,6.783,9.807c0,2.911-17.384,28.811-17.384,28.811s0.756,8.117-1.389,12.101
		c-2.145,3.984-4.903,6.282-6.742,6.282c-1.839,0-17.004-6.435-17.004-6.435"/>
	<path fill="#E77E04" d="M136.053,74.8c0-3.831-6.349-20.686-10.472-20.686c-4.123,0-7.8,8.275-7.8,8.275l-5.141,21.606
		c0,0,11.707,18.236,11.707,14.708C124.347,95.173,136.053,78.63,136.053,74.8z"/>
	<g>
		<path fill="#F1C400" d="M128.078,67.13c0,0,0.964,3.072-0.127,4.751c-1.089,1.68-6.725,4.637-7.932,5.212
			c-1.814,0.865-1.814,8.968-1.814,8.968l-4.09-8.104l3.256-13.969c0,0,3.129-1.663,5.91-1.663c2.781,0,8.516,3.478,8.516,3.478
			L128.078,67.13z"/>
		<path fill="#FFD96B" d="M114.67,79.409"/>
		<path fill="#2B3E51" d="M131.799,65.805c-0.442-0.589-6.603-1.327-6.603-1.327s-2.127-0.368-4.19,0
			c-2.063,0.368-3.683,1.326-4.421,2.799c-0.736,1.474-2.469,10.681-2.469,10.681l2.697-0.924c0,0,0.708-3.278,1.689-3.421
			c0.981-0.143,4.918-0.591,6.401-1.88c1.483-1.288,2.513-4.604,3.177-4.604C128.741,67.13,132.241,66.394,131.799,65.805z"/>
		<path fill="#D45400" d="M124.23,66.209c-0.534-0.423-2.174-0.645-4.015,0c-1.842,0.645-2.468,1.547-2.468,2.21
			c0,0.663,0.405,1.97,1.252,2.652c0.847,0.682,2.045,1.381,3.942,0.073C125.445,69.433,124.764,66.632,124.23,66.209z"/>
		<circle fill="#060309" cx="121.54" cy="67.757" r="0.7"/>
		<circle fill="#FFFFFF" cx="122.347" cy="67.532" r="0.476"/>
	</g>
	<polygon fill="#2B3E51" points="100.549,64.712 104.832,56.718 100.549,39.277 100.549,38.331 100.433,38.804 100.317,38.331 
		100.317,39.277 96.034,56.718 100.317,64.712 100.317,65.146 100.433,64.929 100.549,65.146 	"/>
	<path fill="#D45400" d="M114.415,76.408l2.397,0.626l-0.058,6.429c0,0,5.423,6.064,6.674,8.344
		c2.382,4.345,1.307,19.077,1.307,19.077l-12.093,1.856c0,0,4.681-6.223,4.681-14.651c0-5.975-4.681-14.097-4.681-14.097
		L114.415,76.408z"/>
	<path fill="#903811" d="M100.315,99.162c0,0,6.22-6.205,15.171,0.116c8.952,6.32,10.879,16.898,10.879,16.898
		s0.79,8.117-1.448,12.101s-5.115,6.282-7.033,6.282c-1.918,0-17.568-6.435-17.568-6.435"/>
	<polyline fill="#2B3E51" points="100.317,127.088 117.279,133.563 117.32,131.8 100.317,125.364 	"/>
	<path fill="#F1C400" d="M100.315,96.404c0,0,6.124-6.205,14.706,0.116c8.582,6.32,10.43,16.898,10.43,16.898
		s0.756,8.117-1.389,12.101c-2.145,3.984-4.903,6.282-6.742,6.282c-1.839,0-17.004-6.435-17.004-6.435"/>
	<path fill="#E77E04" d="M114.409,98.7c-0.151-1.197-5.94-15.678-13.86-15.959v-0.013c-0.039,0-0.077,0.006-0.116,0.007
		c-0.039-0.001-0.077-0.007-0.116-0.007v0.013c-7.92,0.281-13.709,14.762-13.86,15.959c-0.153,1.209-0.219,6.134,1.31,7.663
		c1.399,1.399,10.937,10.753,12.548,12.333v0.232c0,0,0.042-0.042,0.118-0.116c0.076,0.074,0.118,0.116,0.118,0.116v-0.232
		c1.611-1.58,11.149-10.934,12.548-12.333C114.628,104.835,114.562,99.909,114.409,98.7z"/>
	<path fill="#33495F" d="M114.387,102.391c0.152-1.558-5.972,2.816-13.954,2.859c-7.982-0.043-14.106-4.417-13.954-2.859
		c0.154,1.58,0.52,3.206,1.287,3.973c1.399,1.399,10.938,10.753,12.548,12.333l0,0.232c0,0,0.042-0.042,0.118-0.116
		c0.076,0.074,0.118,0.116,0.118,0.116l0-0.232c1.611-1.58,11.149-10.934,12.548-12.333
		C113.867,105.596,114.233,103.971,114.387,102.391z"/>
	<path fill="#2B3E51" d="M100.433,117.069c-1.32-1.516-14.099-16.164-13.954-14.679c0.154,1.58,0.52,3.206,1.287,3.973
		c1.304,1.304,12.118,11.911,12.118,11.911l0.432,5.726l0,1.364l0.106,0.045l0.001,0.008l0.01-0.004l0.01,0.004l0.001-0.008
		l0.106-0.045l0-1.364l0.432-5.725c0,0,10.814-10.607,12.118-11.911c0.767-0.767,1.134-2.393,1.287-3.973
		C114.532,100.905,101.753,115.553,100.433,117.069z"/>
	<path fill="#903811" d="M117.702,134.942l-17.151-6.386v-0.088l-0.118,0.044l-0.118-0.044v0.088l-17.151,6.386
		c0,0-2.73,3.448,0.115,6.972c2.759,3.419,14.226,20.695,17.036,54.791v3.208c0.035-0.543,0.079-1.069,0.118-1.604
		c0.039,0.535,0.083,1.061,0.118,1.604v-3.208c2.811-34.097,14.277-51.373,17.036-54.791
		C120.432,138.389,117.702,134.942,117.702,134.942z"/>
	<path fill="#F1C400" d="M117.279,133.563l-16.73-6.386v-0.089l-0.116,0.044l-0.116-0.044v0.089l-16.73,6.386
		c0,0-2.647,3.448,0.111,6.972c2.731,3.49,8.762,6.974,16.62,7.042v0.006c0.039,0,0.076-0.003,0.115-0.003
		c0.039,0,0.076,0.003,0.115,0.003v-0.006c7.858-0.068,13.889-3.552,16.62-7.042C119.926,137.01,117.279,133.563,117.279,133.563z"
		/>
</g>
</svg>
