<?xml version="1.0" encoding="utf-8"?>
<!-- Generator: Adobe Illustrator 16.0.0, SVG Export Plug-In . SVG Version: 6.00 Build 0)  -->
<!DOCTYPE svg PUBLIC "-//W3C//DTD SVG 1.1//EN" "http://www.w3.org/Graphics/SVG/1.1/DTD/svg11.dtd">
<svg version="1.1" id="Layer_1" xmlns="http://www.w3.org/2000/svg" xmlns:xlink="http://www.w3.org/1999/xlink" x="0px" y="0px"
	 width="105.37px" height="103.876px" viewBox="24.63 26.124 105.37 103.876" enable-background="new 24.63 26.124 105.37 103.876"
	 xml:space="preserve">
<circle fill="none" cx="79.998" cy="79.767" r="49.924"/>
<circle fill="none" cx="79.998" cy="79.767" r="49.924"/>
<circle fill="none" cx="79.998" cy="79.767" r="49.924"/>
<path fill="#FFFFFF" d="M90.199,29.742c0.439,0.367,1.559,1.273,2.018,1.606c21.667,5.45,37.708,25.061,37.708,48.419
	c0,27.572-22.353,49.924-49.927,49.924c-27.572,0-49.923-22.352-49.923-49.924c0-7.013,1.445-13.688,4.055-19.745
	c-0.167-0.282-1.432-2.08-2.081-3.341c0.872-1.892,2.106-3.548,3.256-5.255c6.703-6.615,9.925-11.003,9.925-11.003
	s1.26-1.136,2.858-2.101c2.922-1.765,7.476-5.855,12.53-8.101c0.807-0.358,1.842-1.196,5.129-2.275
	c2.775-0.913,6.119-1.297,10.133-1.822C82.642,25.242,89.373,29.587,90.199,29.742z"/>
<path fill="#FFFFFF" d="M117.252,114.381c1.582-2.19,0.798-4.127-2.61-6.384C115.634,110.09,118.382,111.4,117.252,114.381z"/>
<path fill="#1ABC9C" d="M81.928,129.691c13.491-0.613,21.394-5.773,21.394-5.773l-5.82-8.33l-5.262-2.098l-2.953-1.619l-3.9-2.414
	l-3.395-2.188l-3.582-1.583l-3.026-2.031l-6.047-2.947l-0.474,0.269l0.354,8.521l-0.864,12.342l-6.331,4.565
	C62.021,126.404,69.875,130.194,81.928,129.691z"/>
<path fill="#1ABC9C" d="M96.515,34.909l0.635-2.042c0,0,22.933,6.968,30.436,31.753c7.745,25.58-5.615,42.191-5.615,42.191
	l-4.983-14.557l-5.53-6.084l-2.8-5.988l-5.335-14.137l-4.022-8.157l-8.683-9.337l10.611-3.52l-2.214-5.418L96.515,34.909z"/>
<g>
	<path fill="#2C3E50" d="M76.569,79.068c2.948-4.926,4.092-10.238,3.747-15.969c-0.138-2.265-0.033-4.629,0.487-6.825
		c0.813-3.441,2.917-6.113,5.783-8.29c6.212-4.72,10.241-10.837,11.273-18.716c0.054-0.419,0.089-0.842,0.096-1.261
		c0.008-0.412-0.038-0.823-0.075-1.508c-0.657,0.383-1.211,0.606-1.637,0.973c-4.549,3.917-8.346,8.413-10.355,14.162
		c-0.55,1.573-0.267,3.536-1.081,4.887c-0.765,1.265-2.617,1.817-3.749,2.929c-2.921,2.875-3.38,6.706-3.654,10.532
		c-0.172,2.348-0.086,4.712-0.229,7.064c-0.254,4.209-2.013,7.917-4.029,11.523c-1.415,2.53-2.955,4.997-4.238,7.592
		c-1.111,2.248-1.936,4.64-2.862,6.906c-1.062-2.157-1.142-4.731-0.45-7.178c0.814-2.885,1.869-5.749,3.224-8.417
		c4.212-8.299,5.654-16.984,4.41-26.191c-0.493-3.664,0.306-7.163,1.745-10.583c0.509-1.211,0.402-2.706,0.472-4.076
		c0.177-3.501,0.293-7.001,0.435-10.501c-0.846,0-1.692,0-2.54,0c-2.5,0.599-5.374,1.022-7.593,1.822
		c0.935,4.387,1.819,8.51,2.692,12.635c0.162,0.766,0.582,1.628,0.382,2.295c-1.356,4.512-0.237,8.887,0.643,13.251
		c1.355,6.718,0.719,13.003-2.876,19.024c-1.584,2.654-2.576,5.705-3.522,8.679c-1.198,3.757-0.565,7.452,1.44,10.812
		c1.31,2.194,2.894,4.226,4.356,6.334c0.158-0.089,0.315-0.178,0.474-0.269c-0.12-0.557-0.226-1.117-0.359-1.671
		c-0.885-3.641-0.43-6.992,1.701-10.196C72.782,85.679,74.615,82.333,76.569,79.068z"/>
	<path fill="#2C3E50" d="M80.547,40.387c3.395-3.743,6.506-7.175,9.652-10.645c-2.666-2.271-5.848-2.748-8.874-3.619
		c-0.361,0-0.724,0-1.089,0c0.034,3.6,0.054,7.203,0.105,10.803C80.354,37.932,80.458,38.937,80.547,40.387z"/>
	<path fill="#2C3E50" d="M121.843,105.71c-0.191-1.795-0.639-3.564-1.016-5.336c-0.819-3.84-2.296-7.243-5.229-10.099
		c-4.698-4.576-7.66-10.34-9.08-16.664c-2.014-8.958-6.727-16.179-13.083-22.532c-0.547-0.546-1.032-1.158-1.695-1.907
		c3.438-1.234,6.69-2.404,10.15-3.649c-0.984-2.022-1.894-3.894-3.036-6.236c-3.088,3.474-5.934,6.673-8.893,10
		c1.739,1.826,3.863,4.203,6.146,6.414c3.654,3.54,6.035,7.73,7.404,12.639c1.051,3.771,2.591,7.401,3.829,11.125
		c1.548,4.657,3.973,8.788,7.188,12.475c0.279,0.318,0.524,0.663,0.776,1.002c0.026,0.032-0.014,0.111-0.05,0.307
		c-1.842,0.194-3.29,0.146-4.545-1.884c-1.535-2.49-3.661-4.642-5.68-6.798c-3.364-3.594-5.941-7.548-7.122-12.417
		c-0.867-3.567-1.992-4.221-5.732-4.697c-1.644-0.21-3.242-0.758-4.848-1.15c-0.189,4.526,3.674,7.781,9.386,7.716
		c0.628,1.35,1.275,2.753,1.93,4.16c-4.663,1.684-10.021,1.862-14.58-3.398c-0.286,1.757-0.323,3.606-0.919,5.252
		c-0.911,2.521-1.99,5.039-3.397,7.31c-1.911,3.089-4.15,5.999-4.708,9.689c-0.258,1.707-0.201,3.493-0.042,5.221
		c0.173,1.854,1.342,2.996,3.413,3.433c-1.928-5.879-0.194-10.88,3.221-15.543c1.498-2.042,2.879-4.177,4.268-6.302
		c0.517-0.789,1.036-1.005,2.062-0.931c2.333,0.169,4.699,0.11,7.036-0.06c2.017-0.145,3.488-1.262,4.221-3.173
		c3.766,4.53,7.55,9.029,11.244,13.605c0.436,0.536,0.365,1.482,0.564,2.402c-2.938-1.955-5.466-3.908-8.234-5.423
		c-5.851-3.199-12.165-2.68-16.643,1.104c-1.869,1.582-3.077,3.547-3.398,6.004c-0.339,2.577-0.621,5.16-0.997,7.729
		c-0.236,1.615,0.137,2.8,1.805,3.383c0.557,0.192,1.056,0.558,1.828,0.975c0.083-1.767,0.109-3.362,0.249-4.945
		c0.169-1.923,0.3-3.863,0.683-5.75c1.024-5.052,4.132-7.874,9.28-7.966c2.329-0.044,4.768,0.568,6.99,1.354
		c2.195,0.772,4.143,2.229,6.273,3.22c1.557,0.726,2.195,1.702,1.714,3.384c-0.148,0.514-0.172,1.066-0.219,1.38
		c-3.026-1.128-6.014-2.389-9.1-3.321c-1.397-0.424-3.009-0.384-4.489-0.229c-3.503,0.365-5.75,2.455-6.683,5.772
		c-0.584,2.076-0.95,4.251-1.096,6.404c-0.225,3.324-0.075,3.38,3.25,4.729c0.226-2.66,0.318-5.356,0.709-8.005
		c0.778-5.277,3.114-7.234,8.393-6.691c3.013,0.309,5.963,1.259,9.008,1.937c-0.912,5.508-2.913,7.295-7.592,8.555
		c-4.623,1.238-6.22,4.632-4.713,9.475c0.861,2.763,3.023,4.811,5.782,5.26c2.504,0.407,5.159-1.037,7.792-0.087
		c3.579-2.704,7.104-5.493,9.497-9.368C122.828,111.795,122.16,108.695,121.843,105.71z M117.252,113.718
		c1.13-2.981-1.618-4.292-2.61-6.386C118.05,109.59,118.834,111.525,117.252,113.718z"/>
	<path fill="#2C3E50" d="M58.64,118.578c-2.915-3.151-4.77-6.952-6.366-10.885c-4.531-11.159-7.606-22.761-10.504-34.414
		c-0.174-0.695-0.326-1.438-0.692-2.035c-2.927-4.787-5.905-9.543-9.028-14.563c-3.256,4.834-5.485,9.913-7.42,15.33
		c3.01,1.376,5.933,2.78,8.916,4.038c1.17,0.495,1.713,1.194,2.097,2.408c3.017,9.543,6.005,19.099,9.245,28.57
		c-5.704-7.852-9.701-14.396-14.613-22.767c0.101,2.245,0.952,12.332,8.227,23.271c7.101,10.711,17.11,16.462,23.52,18.873
		c0.457-0.046,0.902-0.132,1.331-0.26c1.89-0.563,3.378-1.436,4.37-3.057c0.235-0.387,0.446-0.803,0.63-1.249
		c-0.184,0.114-0.365,0.217-0.548,0.315C63.926,123.099,61.106,121.249,58.64,118.578z"/>
	<path fill="#2C3E50" d="M53.427,78.64c-1.25-5.358-2.057-10.812-1.152-16.354c0.068-0.417,0.062-0.885,0.258-1.231
		c1.336-2.362,0.467-4.419-0.625-6.595c-2.241-4.466-4.306-9.02-6.677-14.036c-3.458,3.834-6.639,7.36-9.925,11.003
		c3.075,3.059,5.785,6.076,8.834,8.693c2.77,2.377,3.662,4.978,3.75,8.686c0.275,11.479,3.243,22.413,8.347,32.719
		c1.542,3.112,3.57,5.91,6.548,7.847c2.081,1.351,4.238,1.671,6.431,0.126C59.002,101.711,56.115,90.195,53.427,78.64z"/>
	<path fill="#2C3E50" d="M58.13,55.267c0.31,1.102,0.305,2.334,0.796,3.333c2.14,4.352,1.574,8.817,0.797,13.315
		c-0.161,0.937-0.353,1.866-0.375,2.833c2.5-5.286,4.854-10.496,3.841-16.72c-0.531-3.258,0.162-6.704,0.157-10.066
		c0-1.664-0.254-3.343-0.523-4.993c-0.68-4.166-1.433-8.323-2.204-12.747c-4.648,2.131-8.669,4.877-12.53,8.101
		c3.058,4.778,6.076,9.437,9.015,14.144C57.618,53.294,57.858,54.311,58.13,55.267z"/>
	<path fill="#2C3E50" d="M90.612,57.167c0.559,1.909,1.2,3.801,1.607,5.742c0.226,1.062,0.446,1.748,1.702,1.853
		c0.743,0.059,1.45,0.524,2.448,0.914c-0.644-5.606-5.575-8.885-6.717-14.013c-0.202,0.076-0.406,0.15-0.607,0.227
		C89.57,53.648,90.1,55.406,90.612,57.167z"/>
</g>
</svg>
