<?xml version="1.0" encoding="utf-8"?>
<!-- Generator: Adobe Illustrator 17.0.2, SVG Export Plug-In . SVG Version: 6.00 Build 0)  -->
<!DOCTYPE svg PUBLIC "-//W3C//DTD SVG 1.1//EN" "http://www.w3.org/Graphics/SVG/1.1/DTD/svg11.dtd">
<svg version="1.1" id="Layer_1" xmlns="http://www.w3.org/2000/svg" xmlns:xlink="http://www.w3.org/1999/xlink" x="0px" y="0px"
	 width="327.5px" height="131.5px" viewBox="-227.5 -31.5 327.5 131.5" enable-background="new -227.5 -31.5 327.5 131.5"
	 xml:space="preserve">
<rect x="-227.5" y="-31.5" fill="#F39C12" width="327.5" height="131.5"/>
<g>
	<path fill="#D35400" d="M93.821,67.156v-4.942h-3.439V48.541l-6.169-0.004V37.267h-2.394v-2.818h-1.118v-4.839l-4.679-4.405h-5.266
		v-1.338h0.932V18.76l-1.994-0.267v-4.786h-0.477v4.786l-1.996,0.267v5.106h0.929v1.325h-6.116l-4.061,4.79v35.114h-4.504V25.956
		l-1.47-0.45l-1.472,0.45v28.104h-7.331l-7.99-3.439l-7.988,3.439h-7.656v12.418h-7.767V46.583h0.307v-0.57h-0.654v-0.777h-0.491
		v-6.373h0.757v-0.735h-0.636v-0.817H9.302v-1.348H8.811v-2.614H8.485v2.614H7.993v1.348H6.217v0.817H5.583v0.735h0.755v6.373h-0.49
		v0.777H5.194v0.57h0.307v22.63H3.645V0.358H2.332V-1.96h2.278v-1.466H3.605v-1.776h-0.85v-2.549h-7.014v-1.39l-1.777-2.084h-9.807
		l-2.086,2.084l-0.009,1.39h-6.103v2.549h-0.85v1.776h-1.003v1.466h2.276v2.317h-1.312v41.674h-6.384v1.287h0.644v14.661
		l-8.305-0.024v-0.632h1.641v-2.935h-7.597v-1.726h-4.056v-2.331h-14.591v2.851h-0.855V32.897h-20.041v12.174h-10.259v12.728
		l-12.415-0.035v-6.309h-1.654V39.369h-1.13v-4.783h-7.825v6.609h-8.87v12.087h-3.913v4.415l-10.278-0.03v-0.004h-1.317v-0.584
		h1.317V56.26h-1.317v-0.584h1.317v-0.819h-1.317v-0.584h1.317v-0.819h-1.317v-0.584h1.317V52.05h-1.317v-0.584h1.317v-0.819h-1.317
		v-0.584h1.317v-0.819h-1.317V48.66h1.317v-0.819h-1.317v-0.584h1.317v-0.819h-1.317v-0.584h1.317v-0.819h-1.317V44.45h1.317v-0.819
		h-1.317v-0.584h1.317v-0.819h-1.317v-0.584h1.317v-0.819h-1.317v-0.584h1.317v-0.819h-1.317v-0.584h1.317v-0.819h-1.317v-0.584
		h1.317v-0.819h-1.317v-0.584h1.317v-0.819h-1.317v-0.584h1.317V33.81h-1.317v-0.584h1.317v-0.819h-1.317v-0.584h1.317v-0.819
		h-1.317v-0.584h1.317v-0.819h-1.317v-0.598h1.317v-0.819h-1.317V27.6h1.317v-0.819h-1.317v-0.584h1.317v-0.819h-1.317v-0.584h1.317
		v-0.819h-1.317v-0.587h1.317v-0.819h-1.317v-0.584h1.317v-0.819h-1.317v-0.584h1.317v-0.819h-1.317v-0.584h1.317V18.36h-1.317
		v-0.587h1.317v-0.819h-1.317V16.37h1.317v-0.819h-1.317v-0.584h1.317v-0.819h-1.317v-0.584h1.317v-0.819h-1.317v-0.587h1.317
		v-0.819h-1.317v-0.584h1.317V9.936h-1.317V9.351h1.317V8.533h-1.439l-5.238-0.716V6.964l7.908-1.582V3.837h-3.823V2.37h-0.02
		c0.011-0.013,0.02-0.038,0.02-0.038h-17.143c0,0,0.008,0.024,0.02,0.038h-0.02v1.468h-3.823v1.544l7.382,1.561v1.014l-4.699,0.574
		h-1.351v0.819h1.216v0.584h-1.216v0.819h1.216v0.584h-1.216v0.819h1.216v0.584h-1.216v0.819h1.216v0.584h-1.216v0.819h1.216v0.584
		h-1.216v0.819h1.216v0.584h-1.216v0.824h1.216v0.584h-1.216v0.819h1.216v0.584h-1.216v0.819h1.216v0.584h-1.216v0.819h1.216v0.584
		h-1.216v0.819h1.216v0.584h-1.216v0.819h1.216v0.584h-1.216v0.819h1.216v0.584h-1.216v0.819h1.216v0.584h-1.216v0.819h1.216v0.584
		h-1.216v0.819h1.216v0.584h-1.216v0.819h1.216v0.584h-1.216v0.819h1.216v0.584h-1.216v0.819h1.216v0.584h-1.216v0.819h1.216v0.584
		h-1.216v0.819h1.216V38h-1.216v0.819h1.216v0.584h-1.216v0.819h1.216v0.584h-1.216v0.819h1.216v0.584h-1.216v0.819h1.216v0.584
		h-1.216v0.819h1.216v0.584h-1.216v0.819h1.216v0.584h-1.216v0.819h1.216v0.584h-1.216v0.819h1.216v0.584h-1.216v0.819h1.216v0.584
		h-1.216v0.819h1.216v0.584h-1.216v0.819h1.216v0.584h-1.216v0.819h1.216v0.584h-1.216v0.819h1.216v0.584h-1.216v0.819h1.216v0.584
		h-1.216v0.819h1.216v0.584h-1.216v0.757l-14.952-0.001v2.6h1.236v1.647h-4.823v-35.95l-9.754,0.001v-4.674l-14.013,0.001v-3.315
		l-6.121,0.02V6.855h-1.031V25.76h-1.314v38.307l-13.682,0.03v36.264l327.5,0.225V67.156H93.821z"/>
	<path opacity="0.1" fill="#D35400" enable-background="new    " d="M-92.747,5.906L-92.8,5.973
		c-0.046,0.05-0.078,0.112-0.113,0.168c-0.007,0.013-0.013,0.026-0.022,0.038c0.059-0.089,0.12-0.174,0.183-0.254
		C-92.75,5.919-92.749,5.911-92.747,5.906z"/>
	<path opacity="0.1" fill="#D35400" enable-background="new    " d="M-92.507,6.479c0.043-0.054,0.086-0.105,0.131-0.156
		c0.001-0.009,0.003-0.02,0.004-0.03c-0.026,0.03-0.05,0.061-0.073,0.093C-92.466,6.417-92.487,6.448-92.507,6.479z"/>
	<path opacity="0.1" fill="#D35400" enable-background="new    " d="M-92.431,6.121l-0.004,0.005
		c-0.039,0.057-0.077,0.113-0.112,0.174c-0.015,0.023-0.028,0.046-0.042,0.069c0.046-0.062,0.093-0.123,0.137-0.183
		C-92.443,6.164-92.435,6.143-92.431,6.121z"/>
</g>
</svg>
