<?xml version="1.0" encoding="utf-8"?>
<!-- Generator: Adobe Illustrator 17.0.2, SVG Export Plug-In . SVG Version: 6.00 Build 0)  -->
<!DOCTYPE svg PUBLIC "-//W3C//DTD SVG 1.1//EN" "http://www.w3.org/Graphics/SVG/1.1/DTD/svg11.dtd">
<svg version="1.1" id="Layer_1" xmlns="http://www.w3.org/2000/svg" xmlns:xlink="http://www.w3.org/1999/xlink" x="0px" y="0px"
	 width="100px" height="100px" viewBox="0 0 100 100" enable-background="new 0 0 100 100" xml:space="preserve">
<g>
	<defs>
		<circle id="SVGPYRIMID_1_" cx="49.985" cy="50" r="49.985"/>
	</defs>
	<clipPath id="SVGPYRIMID_2_">
		<use xlink:href="#SVGPYRIMID_1_"  overflow="visible"/>
	</clipPath>
	<circle clip-path="url(#SVGPYRIMID_2_)" fill="#F1C40F" cx="49.985" cy="50" r="49.985"/>
	<polygon clip-path="url(#SVGPYRIMID_2_)" fill="#E67E22" points="66.737,71.628 81.988,55.231 100.942,72.246 	"/>
	<polygon opacity="0.2" clip-path="url(#SVGPYRIMID_2_)" enable-background="new    " points="76.962,72.246 81.988,55.231 
		100.942,72.246 	"/>
	<polygon opacity="0.1" clip-path="url(#SVGPYRIMID_2_)" enable-background="new    " points="66.737,71.628 81.988,55.231 
		100.942,72.246 	"/>
	<polygon clip-path="url(#SVGPYRIMID_2_)" fill="#E67E22" points="21.159,76.125 52.073,38.393 91.45,73.303 	"/>
	<polygon opacity="0.2" clip-path="url(#SVGPYRIMID_2_)" enable-background="new    " points="38.907,76.125 52.073,38.393 91.45,73.303 
			"/>
	<polygon clip-path="url(#SVGPYRIMID_2_)" fill="#E67E22" points="0,73.568 31.914,43.594 70.175,74.802 	"/>
	<polygon opacity="0.2" clip-path="url(#SVGPYRIMID_2_)" enable-background="new    " points="14.723,74.802 31.914,43.594 
		70.175,74.802 	"/>
	<polygon opacity="0.1" clip-path="url(#SVGPYRIMID_2_)" fill="#FFFFFF" enable-background="new    " points="0,73.568 31.914,43.594 
		70.175,74.802 	"/>
	<path clip-path="url(#SVGPYRIMID_2_)" fill="#F1C40F" d="M-18.425,73.934c0-2.728,10.693-5.579,17.761-5.579s7.067,2.603,15.002,2.603
		s21.572-2.603,31.863-2.603s16.005,3.1,25.417,3.1c9.411,0,18.969-1.984,18.969-1.984l-0.991-1.116c0,0,0.867-0.496,7.067,0
		c6.2,0.496,17.545,2.801,20.457,5.207c2.852,2.355-6.799,3.623-16.986,4.464c-10.187,0.841-33.074,27.756-51.832,27.756
		S15.947,85.224,7.146,80.568S-18.425,76.662-18.425,73.934z"/>
	<path opacity="0.5" clip-path="url(#SVGPYRIMID_2_)" fill="#FFFFFF" d="M-18.425,73.934c0-2.728,10.693-5.579,17.761-5.579
		s7.067,2.603,15.002,2.603s21.572-2.603,31.863-2.603s16.005,3.1,25.417,3.1c9.411,0,18.969-1.984,18.969-1.984l-0.991-1.116
		c0,0,0.867-0.496,7.067,0c6.2,0.496,17.545,2.801,20.457,5.207c2.852,2.355-6.799,3.623-16.986,4.464
		c-10.187,0.841-33.074,27.756-51.832,27.756S15.947,85.224,7.146,80.568S-18.425,76.662-18.425,73.934z"/>
</g>
</svg>
