<?xml version="1.0" encoding="utf-8"?>
<!-- Generator: Adobe Illustrator 17.0.2, SVG Export Plug-In . SVG Version: 6.00 Build 0)  -->
<!DOCTYPE svg PUBLIC "-//W3C//DTD SVG 1.1//EN" "http://www.w3.org/Graphics/SVG/1.1/DTD/svg11.dtd">
<svg version="1.1" id="Layer_1" xmlns="http://www.w3.org/2000/svg" xmlns:xlink="http://www.w3.org/1999/xlink" x="0px" y="0px"
	 width="100px" height="100px" viewBox="0 0 100 100" enable-background="new 0 0 100 100" xml:space="preserve">
<circle fill="#E74C3C" cx="50" cy="50" r="50"/>
<path fill="#FFFFFF" d="M74.823,40.659c-0.051,3.262-0.822,6.355-2.172,9.302c-1.819,3.966-4.242,7.52-7.315,10.633
	c-2.864,2.902-6.06,5.393-9.4,7.709c-2.268,1.574-4.607,3.037-7.119,4.198c-2.096,0.97-4.278,1.621-6.612,1.654
	c-1.977,0.028-3.468-0.857-4.524-2.472c-1.037-1.585-1.285-3.306-0.718-5.134c0.724-2.335,1.661-4.565,3.196-6.498
	c1.094-1.378,2.359-2.554,4.052-3.165c1.375-0.497,2.779-0.693,4.191-0.192c0.491,0.175,0.97,0.449,1.384,0.77
	c0.966,0.748,1.081,2.107,0.328,3.221c-0.853,1.259-1.893,2.355-2.974,3.415c-1.407,1.38-2.867,2.71-4.013,4.33
	c-0.486,0.687-0.964,1.383-1.156,2.223c-0.036,0.155-0.061,0.314-0.065,0.474c-0.026,0.727,0.438,1.21,1.219,1.285
	c0.822,0.081,1.583-0.178,2.33-0.458c2.573-0.968,4.9-2.379,7.115-3.985c2.771-2.01,5.447-4.14,7.862-6.572
	c2.257-2.274,4.238-4.757,5.647-7.656c0.976-2.007,1.698-4.096,1.828-6.343c0.092-1.589-0.167-3.127-0.936-4.543
	c-0.924-1.702-2.357-2.57-4.31-2.584c-1.731-0.013-3.345,0.452-4.909,1.136c-1.832,0.8-3.525,1.851-5.232,2.878
	c-3.031,1.824-6.044,3.673-8.895,5.771c-1.742,1.281-3.452,2.607-5.213,3.861c-1.561,1.111-3.252,1.962-5.133,2.44
	c-3.058,0.775-5.661-0.79-7.016-2.733c-1.216-1.745-1.321-3.63-0.754-5.619c0.536-1.883,1.495-3.541,2.615-5.124
	c2.626-3.71,5.943-6.696,9.699-9.212c3.927-2.631,8.089-4.808,12.567-6.353c3.079-1.063,6.247-1.627,9.511-1.434
	c3.46,0.205,6.685,1.165,9.51,3.242c2.612,1.919,4.208,4.504,4.937,7.64c0.141,0.6,0.245,1.212,0.319,1.824
	C74.748,39.276,74.773,39.968,74.823,40.659z"/>
</svg>
