<?xml version="1.0" encoding="utf-8"?>
<!-- Generator: Adobe Illustrator 17.0.2, SVG Export Plug-In . SVG Version: 6.00 Build 0)  -->
<!DOCTYPE svg PUBLIC "-//W3C//DTD SVG 1.1//EN" "http://www.w3.org/Graphics/SVG/1.1/DTD/svg11.dtd">
<svg version="1.1" id="Layer_1" xmlns="http://www.w3.org/2000/svg" xmlns:xlink="http://www.w3.org/1999/xlink" x="0px" y="0px"
	 width="100px" height="100px" viewBox="0 0 100 100" enable-background="new 0 0 100 100" xml:space="preserve">
<circle fill="#2980B9" cx="50" cy="50" r="50"/>
<path fill="#FFFFFF" d="M7.689,50c0-9.116,18.944-16.506,42.311-16.506c23.368,0,42.311,7.39,42.311,16.506
	c0,9.113-18.943,16.503-42.311,16.503S7.689,59.113,7.689,50z"/>
<polygon fill="#2980B9" points="23.195,58.02 27.587,41.628 34.517,41.628 34.517,51.271 34.563,51.271 39.265,41.628 
	46.306,41.628 41.915,58.02 37.338,58.02 40.154,47.506 40.108,47.506 34.517,58.02 30.853,58.02 30.853,47.506 30.778,47.506 
	27.963,58.02 "/>
<polygon fill="#2980B9" points="47.545,58.345 48.168,56.016 53.219,56.016 52.596,58.345 "/>
<polygon fill="#2980B9" points="48.344,55.361 50.896,45.831 46.306,45.831 47.432,41.628 61.665,41.628 60.54,45.831 
	55.949,45.831 53.396,55.359 "/>
<polygon fill="#2980B9" points="58.402,58.02 62.793,41.628 67.752,41.628 69.988,50.4 70.034,50.4 72.384,41.628 76.968,41.628 
	72.58,58.02 67.86,58.02 65.43,49.069 65.384,49.069 62.989,58.02 "/>
</svg>
